<svg width="31" height="31" viewBox="0 0 31 31" fill="none" xmlns="http://www.w3.org/2000/svg">
<path fill-rule="evenodd" clip-rule="evenodd" d="M26.9277 8.54809C26.7502 8.48652 26.5724 8.62402 26.5724 8.81193V17.2297C26.5724 20.8234 24.043 23.4347 20.5599 23.4347H7.24734C7.05938 23.4347 6.92185 23.6125 6.98212 23.7904C7.59799 25.6098 9.15598 26.7511 11.2611 26.7511H25.3041C28.0432 26.7511 29.8846 24.8351 29.8846 21.9825V13.0342C29.8846 10.8349 28.7224 9.17045 26.9277 8.54809Z" fill="#D1FADF"/>
<path fill-rule="evenodd" clip-rule="evenodd" d="M13.5382 11.0674C12.6075 11.0674 11.8477 11.8272 11.8477 12.7637C11.8477 13.6902 12.6075 14.4442 13.5382 14.4442C14.4675 14.4442 15.2259 13.6902 15.2259 12.7637C15.2259 11.8272 14.4675 11.0674 13.5382 11.0674Z" fill="#D1FADF"/>
<path fill-rule="evenodd" clip-rule="evenodd" d="M18.8363 9.54529C18.2417 9.54529 17.7591 9.06269 17.7591 8.46804C17.7591 7.8734 18.2417 7.39079 18.8363 7.39079H20.5341C21.1287 7.39079 21.6113 7.8734 21.6113 8.46804C21.6113 9.06269 21.1287 9.54529 20.5341 9.54529H18.8363ZM13.5391 16.5977C11.4191 16.5977 9.6941 14.8785 9.6941 12.7627C9.6941 10.6398 11.4191 8.91331 13.5391 8.91331C15.6563 8.91331 17.3799 10.6398 17.3799 12.7627C17.3799 14.8785 15.6563 16.5977 13.5391 16.5977ZM8.23623 18.1332H6.53992C5.94527 18.1332 5.46266 17.652 5.46266 17.0559C5.46266 16.4613 5.94527 15.9787 6.53992 15.9787H8.23623C8.83087 15.9787 9.31348 16.4613 9.31348 17.0559C9.31348 17.652 8.83087 18.1332 8.23623 18.1332ZM25.1361 17.2297V8.28132C25.1361 5.42876 23.2976 3.5127 20.5614 3.5127H6.50544C3.81375 3.5127 1.93359 5.47329 1.93359 8.28132V17.2297C1.93359 20.0378 3.81375 21.9984 6.50544 21.9984H20.5599C23.2962 21.9984 25.1361 20.0823 25.1361 17.2297Z" fill="#D1FADF"/>
</svg>
