<svg version="1.2" xmlns="http://www.w3.org/2000/svg" viewBox="0 0 36 37" width="36" height="37"><style>.a{fill:none;stroke:#626262;stroke-width:2}.b{fill:none;stroke:#626262;stroke-linejoin:round}</style><path class="a" d="m1 8.5c0-1.9 0-3.2 0.1-4.3 0.2-0.9 0.4-1.5 0.8-1.8 0.3-0.4 0.9-0.6 1.8-0.8 1.1-0.1 2.4-0.1 4.3-0.1h20c1.9 0 3.2 0 4.3 0.1 0.9 0.2 1.5 0.4 1.8 0.8 0.4 0.3 0.6 0.9 0.8 1.8 0.1 1.1 0.1 2.4 0.1 4.3v20c0 1.9 0 3.2-0.1 4.3-0.2 0.9-0.4 1.5-0.8 1.8-0.3 0.4-0.9 0.6-1.8 0.8-1.1 0.1-2.4 0.1-4.3 0.1h-20c-1.9 0-3.2 0-4.3-0.1-0.9-0.2-1.5-0.4-1.8-0.8-0.4-0.3-0.6-0.9-0.8-1.8-0.1-1.1-0.1-2.4-0.1-4.3z"/><path class="b" d="m18 10.5v16"/><path class="b" d="m26 18.5h-16"/></svg>