<svg xmlns="http://www.w3.org/2000/svg" width="54" height="55" viewBox="0 0 54 55" fill="none">
  <path d="M27.8969 43.3575H14.0241C9.63992 43.3575 6.91309 40.2642 6.91309 35.8865V19.391C6.91309 15.0134 9.63992 11.9199 14.0219 11.9199H39.9366C44.3055 11.9199 47.0454 15.0134 47.0454 19.391V23.8468" stroke="#12B76A" stroke-width="2.5" stroke-linecap="round" stroke-linejoin="round"/>
  <path d="M14.0771 19.7266H17.2053" stroke="#12B76A" stroke-width="2.5" stroke-linecap="round" stroke-linejoin="round"/>
  <path fill-rule="evenodd" clip-rule="evenodd" d="M21.876 27.641C21.876 24.8232 24.1603 22.541 26.976 22.541C29.794 22.541 32.0782 24.8232 32.0782 27.641C32.0782 30.4589 29.794 32.7411 26.976 32.7411C24.1603 32.7411 21.876 30.4589 21.876 27.641Z" stroke="#12B76A" stroke-width="2.5" stroke-linecap="round" stroke-linejoin="round"/>
  <path d="M41.2493 37.7191L46.4948 37.7211M41.2493 37.7191L36.002 37.7168M41.2493 37.7191L41.2526 42.9655M41.2493 37.7191L41.2484 32.4727" stroke="#12B76A" stroke-width="2.5" stroke-linecap="round" stroke-linejoin="round"/>
</svg>