<svg width="17" height="17" viewBox="0 0 17 17" fill="none" xmlns="http://www.w3.org/2000/svg">
<path fill-rule="evenodd" clip-rule="evenodd" d="M1.46289 8.44645C1.46289 4.48841 4.67152 1.27979 8.62956 1.27979C12.5876 1.27979 15.7962 4.48841 15.7962 8.44645C15.7962 12.4045 12.5876 15.6131 8.62956 15.6131C4.67152 15.6131 1.46289 12.4045 1.46289 8.44645ZM11.8266 6.97678C12.1194 6.68389 12.1194 6.20902 11.8266 5.91612C11.5337 5.62323 11.0588 5.62323 10.7659 5.91612L7.96289 8.71912L7.15989 7.91612C6.86699 7.62323 6.39212 7.62323 6.09923 7.91612C5.80633 8.20901 5.80633 8.68389 6.09923 8.97678L7.43256 10.3101C7.72545 10.603 8.20033 10.603 8.49322 10.3101L11.8266 6.97678Z" fill="#F5F6FC"/>
</svg>
