<svg width="17" height="17" viewBox="0 0 17 17" fill="none" xmlns="http://www.w3.org/2000/svg">
<g clip-path="url(#clip0_4255_54848)">
<path fill-rule="evenodd" clip-rule="evenodd" d="M6.25754 1.53879C6.25754 1.26711 6.0373 1.04688 5.76562 1.04688C5.49395 1.04688 5.27371 1.26711 5.27371 1.53879V1.73898C4.46339 1.78387 3.89624 1.88885 3.41435 2.13438C2.67387 2.51168 2.07184 3.11371 1.69455 3.85419C1.26562 4.696 1.26562 5.79799 1.26562 8.00198V9.74226C1.26562 11.9463 1.26562 13.0482 1.69455 13.8901C2.07184 14.6305 2.67387 15.2326 3.41435 15.6099C4.25617 16.0388 5.35816 16.0388 7.56215 16.0388H9.30243C11.5064 16.0388 12.6084 16.0388 13.4502 15.6099C14.1907 15.2326 14.7927 14.6305 15.17 13.8901C15.599 13.0482 15.599 11.9463 15.599 9.74226V8.00199C15.599 5.798 15.599 4.696 15.17 3.85419C14.7927 3.11371 14.1907 2.51168 13.4502 2.13438C12.9683 1.88885 12.4012 1.78387 11.5909 1.73898V1.53879C11.5909 1.26711 11.3706 1.04688 11.099 1.04688C10.8273 1.04688 10.607 1.26711 10.607 1.53879V1.71004C10.2196 1.70546 9.78774 1.70546 9.30243 1.70546H7.56216C7.07685 1.70546 6.64497 1.70546 6.25754 1.71004V1.53879ZM4.27375 6.20552C4.27375 5.93384 4.49399 5.7136 4.76567 5.7136H12.099C12.3707 5.7136 12.5909 5.93384 12.5909 6.20552C12.5909 6.4772 12.3707 6.69743 12.099 6.69743H4.76567C4.49399 6.69743 4.27375 6.4772 4.27375 6.20552ZM4.60709 9.20552C4.60709 8.74975 4.97656 8.38027 5.43234 8.38027C5.88811 8.38027 6.25759 8.74975 6.25759 9.20552C6.25759 9.66129 5.88811 10.0308 5.43234 10.0308C4.97656 10.0308 4.60709 9.66129 4.60709 9.20552ZM7.60709 9.20552C7.60709 8.74975 7.97656 8.38027 8.43234 8.38027C8.88811 8.38027 9.25759 8.74975 9.25759 9.20552C9.25759 9.66129 8.88811 10.0308 8.43234 10.0308C7.97656 10.0308 7.60709 9.66129 7.60709 9.20552ZM10.6071 9.20552C10.6071 8.74975 10.9766 8.38027 11.4323 8.38027C11.8881 8.38027 12.2576 8.74975 12.2576 9.20552C12.2576 9.66129 11.8881 10.0308 11.4323 10.0308C10.9766 10.0308 10.6071 9.66129 10.6071 9.20552ZM4.60709 11.8722C4.60709 11.4164 4.97656 11.0469 5.43234 11.0469C5.88811 11.0469 6.25759 11.4164 6.25759 11.8722C6.25759 12.328 5.88811 12.6974 5.43234 12.6974C4.97656 12.6974 4.60709 12.328 4.60709 11.8722ZM7.60709 11.8722C7.60709 11.4164 7.97656 11.0469 8.43234 11.0469C8.88811 11.0469 9.25759 11.4164 9.25759 11.8722C9.25759 12.328 8.88811 12.6974 8.43234 12.6974C7.97656 12.6974 7.60709 12.328 7.60709 11.8722ZM10.6071 11.8722C10.6071 11.4164 10.9766 11.0469 11.4323 11.0469C11.8881 11.0469 12.2576 11.4164 12.2576 11.8722C12.2576 12.328 11.8881 12.6974 11.4323 12.6974C10.9766 12.6974 10.6071 12.328 10.6071 11.8722Z" fill="#F79009"/>
</g>
<defs>
<clipPath id="clip0_4255_54848">
<rect width="16" height="16" fill="white" transform="translate(0.432129 0.87207)"/>
</clipPath>
</defs>
</svg>
