<svg version="1.2" xmlns="http://www.w3.org/2000/svg" viewBox="0 0 48 49" width="48" height="49"><style>.a{fill:#626262;stroke:#fff;stroke-width:.5}</style><path fill-rule="evenodd" class="a" d="m22.1 7.6h1.2c0.2 0 0.4 0.2 0.4 0.4v15.5l-0.2-2.5v4h0.4l-0.1-0.2h16.7c0.2 0 0.4 0.1 0.4 0.4v1.2c0 2.5-0.5 5-1.5 7.3-0.9 2.2-2.3 4.2-4 5.9-1.7 1.8-3.7 3.1-6 4.1q-1.7 0.7-3.6 1.1v-0.3q0 0 0 0-1.8 0.4-3.7 0.4c-2.5 0-4.9-0.5-7.2-1.5-2.2-0.9-4.2-2.2-5.9-3.9-1.7-1.7-3-3.7-3.9-5.9-1-2.3-1.5-4.7-1.5-7.2 0-2.5 0.5-5 1.5-7.2 0.9-2.2 2.3-4.2 3.9-5.9 0.4-0.4-0.5 0.1-0.1-0.2q0 0 0 0l1.3-0.9q1.6-1.3 3.4-2.2l1.3-1c-0.2 0.2-1 0.8-1.3 1q0.7-0.4 1.4-0.7 0.8-0.3 1.5-0.6l-1.6 0.3c2.3-0.9 4.8-1.4 7.2-1.4l-1.6 0.3q0.8 0 1.6 0h0.1zm1.5 15.9l0.2 1.2h-0.2zm13.9 4.7v-0.2l-16.8-0.3v-17.1h-0.3c-3.6 0.4-6.9 2-9.5 4.6-3 3-4.7 6.9-4.7 11.2 0 4.2 1.7 8.2 4.7 11.1 2.9 3 6.9 4.7 11.1 4.7q0 0 0 0v-0.3c2 0 4-0.4 5.9-1.1 1.9-0.8 3.7-1.9 5.1-3.4 2.5-2.5 4.1-5.7 4.5-9.2zm-27.3-16l3.9-2.8c-2 0.9-2.4 1.3-3.9 2.8zm22.8 25.2l0.2 0.2q0 0 0 0zm-11-29.8l-7.2 1.4"/><path fill-rule="evenodd" class="a" d="m38.9 9.6c3.1 3 5 7 5.4 11.3l0.1 1.3q0 0 0 0.1-0.1 0-0.1 0 0 0 0 0h-0.1l-17.9 0.1q-0.1 0-0.1 0c0 0-0.1-0.1-0.1-0.1v-18q0-0.1 0-0.1 0.1-0.1 0.2-0.1 0 0 0 0l1.3 0.1q0 0 0 0c4.3 0.4 8.3 2.3 11.3 5.4zm-10.1 10.1h0.3 12 0.3l-0.1-0.3c-0.6-3-2.1-5.8-4.3-7.9-2.1-2.2-4.9-3.7-7.9-4.3l-0.3-0.1z"/></svg>