<svg version="1.2" xmlns="http://www.w3.org/2000/svg" viewBox="0 0 42 42" width="42" height="42"><style>.a{fill:#1af9ff}.b{fill:#275aff;stroke:#fff;stroke-width:0}.c{fill:#275aff}</style><path class="a" d="m33.9 7.6c2.1 2.2 3.6 4.9 4.2 7.8h-12v-12c2.9 0.6 5.6 2.1 7.8 4.2z"/><path class="a" d="m17.5 24h17.1c-0.4 3.5-1.9 6.9-4.5 9.4-3 2.9-6.9 4.6-11.1 4.5-4.1 0-8-1.6-10.9-4.5-2.9-3-4.5-6.9-4.5-11 0-4.2 1.6-8.1 4.5-11 2.6-2.6 5.9-4.2 9.4-4.5z"/><path fill-rule="evenodd" class="b" d="m26.4 39.7q-1.7 0.7-3.6 1.1-1.8 0.3-3.7 0.3c-2.5 0-5-0.5-7.3-1.5-2.2-0.9-4.2-2.2-5.9-4-1.8-1.7-3.1-3.7-4.1-5.9-0.9-2.3-1.4-4.8-1.4-7.3 0-2.5 0.5-5 1.5-7.3q0 0 0 0c0.9-2.2 2.3-4.3 4-6 1.7-1.7 3.8-3.1 6.1-4 2.2-1 4.7-1.5 7.1-1.5h1.2c0.2 0 0.4 0.2 0.4 0.4v16.8h16.8c0.2 0 0.4 0.1 0.4 0.4v1.2c0 2.5-0.5 5-1.5 7.3-0.9 2.2-2.3 4.2-4 5.9-1.7 1.8-3.7 3.1-6 4.1v-0.1q0 0 0 0 0 0 0 0zm-8.9-32.7c-3.5 0.3-6.8 1.9-9.4 4.5-2.9 2.9-4.6 6.8-4.6 11 0 4.1 1.7 8 4.6 11 2.9 2.9 6.8 4.5 10.9 4.5 2.1 0.1 4.1-0.3 6-1.1 1.9-0.8 3.6-1.9 5.1-3.4 2.6-2.5 4.1-5.9 4.5-9.4v-0.1h-17.1z"/><path fill-rule="evenodd" class="c" d="m41.6 18.4q-0.1 0.1-0.2 0.1-0.1 0.1-0.2 0.1h-18c-0.2 0-0.3-0.1-0.3-0.4v-18q0 0 0-0.1c0.1-0.2 0.2-0.2 0.4-0.2l1.3 0.1c4.4 0.4 8.4 2.3 11.5 5.4 3.1 3.1 5 7.1 5.4 11.5l0.1 1.3q0 0.1 0 0.2zm-3.5-3c-0.6-2.9-2.1-5.6-4.2-7.8-2.2-2.1-4.9-3.6-7.8-4.2v12z"/></svg>