<svg width="30" height="30" viewBox="0 0 30 30" fill="none" xmlns="http://www.w3.org/2000/svg">
<g id="Analytics07">
<path id="Vector" d="M15.625 3.89844C18.1756 3.89844 20.6505 4.76518 22.6439 6.35651C24.6373 7.94785 26.0306 10.1693 26.5955 12.6566C27.1605 15.1439 26.8635 17.7492 25.7533 20.0456C24.6429 22.3419 22.7853 24.1927 20.4849 25.2945C18.1846 26.3964 15.5781 26.6839 13.0929 26.1097C10.6077 25.5357 8.39138 24.1341 6.80738 22.135C5.22336 20.1359 4.36571 17.6577 4.37508 15.1071C4.38444 12.5565 5.26025 10.0848 6.8589 8.09735M15.625 8.27344C14.2951 8.27344 12.9938 8.65915 11.8787 9.38382C10.7636 10.1085 9.88263 11.141 9.34251 12.3563C8.80241 13.5716 8.62638 14.9174 8.83573 16.2308C9.04508 17.544 9.63083 18.7684 10.522 19.7555C11.4132 20.7426 12.5715 21.4501 13.8566 21.7921C15.1418 22.1342 16.4986 22.0961 17.7625 21.6827C19.0265 21.2692 20.1434 20.498 20.978 19.4626C21.8125 18.4271 22.3287 17.1719 22.4642 15.8489M15.6248 17.6485C16.1083 17.6485 16.5815 17.5081 16.987 17.2446C17.3925 16.9811 17.7129 16.6056 17.9093 16.1637C18.1056 15.7219 18.1696 15.2325 18.0935 14.7549C18.0174 14.2774 17.8044 13.8321 17.4804 13.4731C17.1563 13.1142 16.735 12.857 16.2678 12.7325C15.8004 12.6081 15.307 12.622 14.8474 12.7724" stroke="#93370D" stroke-width="1.5" stroke-linecap="round"/>
</g>
</svg>
