<svg width="24" height="25" viewBox="0 0 24 25" fill="none" xmlns="http://www.w3.org/2000/svg">
<path d="M9 2.8833C4.94289 4.15756 2 7.94786 2 12.4255C2 17.9483 6.47715 22.4255 12 22.4255C16.4776 22.4255 20.2679 19.4826 21.5422 15.4255M15.2 12.4253H20.4C20.9476 12.4253 21.2215 12.4253 21.452 12.2937C21.6353 12.1889 21.8175 11.9753 21.8919 11.7776C21.9854 11.5292 21.9482 11.2967 21.8737 10.8316C21.1936 6.58519 17.8401 3.23169 13.5937 2.5516C13.1286 2.47711 12.8961 2.43986 12.6477 2.53338C12.45 2.60779 12.2364 2.78996 12.1316 2.97334C12 3.20383 12 3.47765 12 4.02529V9.22529C12 10.3454 12 10.9055 12.218 11.3333C12.4097 11.7096 12.7157 12.0156 13.092 12.2073C13.5198 12.4253 14.0799 12.4253 15.2 12.4253Z" stroke="#8D99D2" stroke-width="1.5" stroke-linecap="round" stroke-linejoin="round"/>
</svg>
