<svg width="24" height="25" viewBox="0 0 24 25" fill="none" xmlns="http://www.w3.org/2000/svg">
<g clip-path="url(#clip0_3949_80831)">
<path d="M8 1.10791V4.10791M16 1.10791V4.10791M17.5 8.10791H6.5M8 12.6079C8 12.8841 7.77614 13.1079 7.5 13.1079C7.22386 13.1079 7 12.8841 7 12.6079M8 12.6079C8 12.3318 7.77614 12.1079 7.5 12.1079C7.22386 12.1079 7 12.3318 7 12.6079M8 12.6079H7M8 16.6079C8 16.8841 7.77614 17.1079 7.5 17.1079C7.22386 17.1079 7 16.8841 7 16.6079M8 16.6079C8 16.3318 7.77614 16.1079 7.5 16.1079C7.22386 16.1079 7 16.3318 7 16.6079M8 16.6079H7M12.5 12.6079C12.5 12.8841 12.2761 13.1079 12 13.1079C11.7239 13.1079 11.5 12.8841 11.5 12.6079M12.5 12.6079C12.5 12.3318 12.2761 12.1079 12 12.1079C11.7239 12.1079 11.5 12.3318 11.5 12.6079M12.5 12.6079H11.5M12.5 16.6079C12.5 16.8841 12.2761 17.1079 12 17.1079C11.7239 17.1079 11.5 16.8841 11.5 16.6079M12.5 16.6079C12.5 16.3318 12.2761 16.1079 12 16.1079C11.7239 16.1079 11.5 16.3318 11.5 16.6079M12.5 16.6079H11.5M17 12.6079C17 12.8841 16.7761 13.1079 16.5 13.1079C16.2239 13.1079 16 12.8841 16 12.6079M17 12.6079C17 12.3318 16.7761 12.1079 16.5 12.1079C16.2239 12.1079 16 12.3318 16 12.6079M17 12.6079H16M17 16.6079C17 16.8841 16.7761 17.1079 16.5 17.1079C16.2239 17.1079 16 16.8841 16 16.6079M17 16.6079C17 16.3318 16.7761 16.1079 16.5 16.1079C16.2239 16.1079 16 16.3318 16 16.6079M17 16.6079H16M11.6 22.1079H12.4C15.7603 22.1079 17.4405 22.1079 18.7239 21.4539C19.8529 20.8787 20.7708 19.9608 21.346 18.8319C22 17.5484 22 15.8682 22 12.5079V11.7079C22 8.3476 22 6.66744 21.346 5.38397C20.7708 4.25499 19.8529 3.33711 18.7239 2.76187C17.4405 2.10791 15.7603 2.10791 12.4 2.10791H11.6C8.23969 2.10791 6.55953 2.10791 5.27606 2.76187C4.14708 3.33711 3.2292 4.25499 2.65396 5.38397C2 6.66744 2 8.3476 2 11.7079V12.5079C2 15.8682 2 17.5484 2.65396 18.8319C3.2292 19.9608 4.14708 20.8787 5.27606 21.4539C6.55953 22.1079 8.23969 22.1079 11.6 22.1079Z" stroke="#8D99D2" stroke-width="1.5" stroke-linecap="round" stroke-linejoin="round"/>
</g>
<defs>
<clipPath id="clip0_3949_80831">
<rect width="24" height="24" fill="white" transform="translate(0 0.10791)"/>
</clipPath>
</defs>
</svg>
