<svg width="17" height="17" viewBox="0 0 17 17" fill="none" xmlns="http://www.w3.org/2000/svg">
<g clip-path="url(#clip0_4075_69034)">
<path fill-rule="evenodd" clip-rule="evenodd" d="M1.01538 8.87223C1.01538 4.91419 4.22401 1.70557 8.18205 1.70557C12.1401 1.70557 15.3487 4.91419 15.3487 8.87223C15.3487 12.8303 12.1401 16.0389 8.18205 16.0389C4.22401 16.0389 1.01538 12.8303 1.01538 8.87223ZM8.93205 6.20557C8.93205 5.79135 8.59626 5.45557 8.18205 5.45557C7.76783 5.45557 7.43205 5.79135 7.43205 6.20557V8.87223C7.43205 9.123 7.55737 9.35717 7.76602 9.49627L9.76602 10.8296C10.1107 11.0594 10.5763 10.9662 10.8061 10.6216C11.0358 10.2769 10.9427 9.81129 10.5981 9.58153L8.93205 8.47085V6.20557Z" fill="#4659B5"/>
</g>
<defs>
<clipPath id="clip0_4075_69034">
<rect width="16" height="16" fill="white" transform="translate(0.182129 0.87207)"/>
</clipPath>
</defs>
</svg>
