<svg width="24" height="24" viewBox="0 0 24 24" fill="none" xmlns="http://www.w3.org/2000/svg">
<path d="M8.32758 22.8705C10.1029 22.8705 11.5421 21.4312 11.5421 19.6559C11.5421 17.8806 10.1029 16.4414 8.32758 16.4414C6.55224 16.4414 5.11304 17.8806 5.11304 19.6559C5.11304 21.4312 6.55224 22.8705 8.32758 22.8705Z" stroke="#263682" stroke-width="1.44" stroke-miterlimit="10" stroke-linecap="round" stroke-linejoin="round"/>
<path d="M15.7244 14.5988L7.23654 11.2759C6.767 11.1134 6.24328 11.2037 5.85501 11.5107L5.13264 12.0976C4.75339 12.3956 4.76243 12.9735 5.1507 13.2624L10.2795 17.091" stroke="#263682" stroke-width="1.44" stroke-miterlimit="10" stroke-linecap="round" stroke-linejoin="round"/>
<path d="M8.70776 19.6559H16.4642C16.4642 19.6559 18.1257 16.2969 22.3425 15.0237C24.2929 14.4368 22.5773 10.3374 19.2182 9.38022C18.541 9.1906 17.8909 9.76849 18.0173 10.4638C18.1888 11.3667 18.3424 12.5225 18.1888 13.29" stroke="#263682" stroke-width="1.44" stroke-miterlimit="10" stroke-linecap="round" stroke-linejoin="round"/>
<path d="M12.2109 13.2817C11.9851 12.5955 13.2041 9.71502 17.8905 11.5661" stroke="#263682" stroke-width="1.44" stroke-miterlimit="10" stroke-linecap="round" stroke-linejoin="round"/>
<path d="M19.6879 19.8186L18.0986 17.7598" stroke="#263682" stroke-width="1.44" stroke-miterlimit="10" stroke-linecap="round" stroke-linejoin="round"/>
<path d="M19.4161 16.4507C19.5063 16.4326 19.5966 16.4326 19.6869 16.4326C21.4658 16.4326 22.9105 17.8773 22.9105 19.6471C22.9105 21.426 21.4658 22.8707 19.6869 22.8707C17.9081 22.8707 16.4724 21.426 16.4724 19.6471" stroke="#263682" stroke-width="1.44" stroke-miterlimit="10" stroke-linecap="round" stroke-linejoin="round"/>
<path d="M9.74048 1.66602V8.76176H2.64474" stroke="#263682" stroke-width="1.5" stroke-linecap="round" stroke-linejoin="round"/>
<line x1="8.90101" y1="7.98926" x2="2.4236" y2="1.51185" stroke="#263682" stroke-width="1.5" stroke-linecap="round"/>
</svg>
