<svg version="1.2" xmlns="http://www.w3.org/2000/svg" viewBox="0 0 70 19" width="70" height="19"><style>.a{fill:#275aff}</style><path class="a" d="m7.6 3.9h-3.8v-3.8h3.8z"/><path class="a" d="m10.5 10.6q0.7 1.2 0.8 2.7 0 0.2 0 0.5c-0.1 1.3-0.7 2.5-1.6 3.4-0.9 0.9-2.1 1.5-3.3 1.6q-0.4 0.1-0.7 0.1c-1.5 0-2.9-0.6-4-1.7-1-1-1.6-2.5-1.6-3.9h3.7c0 0.4 0.2 0.9 0.6 1.3 0.3 0.3 0.8 0.5 1.3 0.5h0.1q0.5 0 0.9-0.3 0.3-0.2 0.5-0.6 0.3-0.4 0.3-0.8 0-0.5-0.2-0.9-0.1-0.1-0.1-0.3c-0.6-1-0.9-2.2-0.8-3.3-0.1-1.2 0.2-2.3 0.8-3.3 0.2-0.6 0.4-1.1 0.4-1.7h3.7c0 1.1-0.2 2.3-0.8 3.3q-0.4 0.8-0.4 1.7 0 0.9 0.4 1.7"/><path fill-rule="evenodd" class="a" d="m14.6 11.4c0-3.8 2.6-7.5 7.2-7.5 4.7 0 7.3 3.6 7.3 7.5 0 3.8-2.6 7.5-7.3 7.5-4.6 0-7.2-3.7-7.2-7.5zm11.1 0c0-2.2-1.4-4.3-3.9-4.3-2.4 0-3.8 2.1-3.8 4.3 0 2.1 1.4 4.2 3.8 4.2 2.5 0 3.9-2.1 3.9-4.2z"/><path fill-rule="evenodd" class="a" d="m32.5 18.6v-14.4h9.2c2.9 0 4.3 2.1 4.3 4.4 0 0.9-0.4 1.9-1 2.5q0.7 0.6 1.1 1.3 0.4 0.8 0.4 1.7c0 2.4-1.4 4.5-4.3 4.5zm3.3-8.8h5.8c0.7 0 1-0.4 1-1.1v-0.3c0-0.7-0.3-1.1-1-1.1h-5.8zm0 5.7h6.3q0.3 0 0.5-0.1 0.2-0.1 0.3-0.3 0.2-0.1 0.2-0.3 0.1-0.2 0.1-0.4v-0.5q0-0.2-0.1-0.4 0-0.2-0.2-0.3-0.1-0.2-0.3-0.3-0.2-0.1-0.5-0.1h-6.3z"/><path fill-rule="evenodd" class="a" d="m50 18.6v-14.4h10c2.9 0 4.3 2.1 4.3 4.4 0 1.9-1.1 3.7-3.3 4.2q0.2 0.1 0.2 0.3l3.3 5.5h-3.7l-3.4-5.7h-4v5.7zm3.3-8.8h6.6c0.7 0 1-0.4 1-1.1v-0.3c0-0.7-0.3-1.1-1-1.1h-6.6z"/><path class="a" d="m65.5 0.7h-1v-0.6h2.5v0.6h-1v1.9h-0.5z"/><path class="a" d="m68.7 1.1l0.7-1h0.5v2.5h-0.5v-1.5l-0.4 0.6h-0.5l-0.4-0.6v1.5h-0.6v-2.5h0.5z"/></svg>