<svg width="24" height="25" viewBox="0 0 24 25" fill="none" xmlns="http://www.w3.org/2000/svg">
<g id="Analytics09">
<path id="Vector" d="M8.21793 9.97807V5.67072C8.21793 4.84953 9.01188 4.30175 9.70074 4.65494L10.3536 4.99937C10.7418 5.20272 11.1923 5.21148 11.599 5.0344L13.4438 4.21321C14.1939 3.88726 15.0239 3.88726 15.774 4.21321L17.6188 5.0344C18.0255 5.21148 18.475 5.20272 18.8642 4.99937L19.5171 4.65494C20.2059 4.30175 20.9999 4.84078 20.9999 5.67072L20.9911 17.1469C20.9911 19.4149 19.8352 20.8189 17.7511 20.8189H5.61328M8.21793 9.97807V18.2143C8.21793 19.6533 7.05231 20.8189 5.61328 20.8189M8.21793 9.97807C7.9708 9.84575 7.72281 9.73072 7.62649 9.77547L6.38108 10.331C5.97535 10.5081 5.52487 10.4993 5.13665 10.296L4.48378 9.95158C3.79492 9.59839 3 10.1365 3 10.9664V18.214C3 18.9292 3.29189 19.583 3.76865 20.0598C4.23665 20.5278 4.88938 20.8189 5.61328 20.8189M15.9631 10.0215H13.7564C13.1006 10.0215 12.5684 10.5537 12.5684 11.2095C12.5684 11.8662 13.1006 12.3975 13.7564 12.3975H15.1146C15.7704 12.3975 16.3026 12.9297 16.3026 13.5864C16.3026 14.2422 15.7704 14.7744 15.1146 14.7744H12.9079M14.4355 14.7737V15.771M14.4355 9.01758V10.0236" stroke="#263682" stroke-width="1.5" stroke-linecap="round" stroke-linejoin="round"/>
</g>
</svg>
