<svg width="44" height="44" viewBox="0 0 44 44" fill="none" xmlns="http://www.w3.org/2000/svg">
<rect x="0.5" y="0.5" width="43" height="43" rx="21.5" fill="#58C2E8" fill-opacity="0.1"/>
<rect x="0.5" y="0.5" width="43" height="43" rx="21.5" stroke="#58C2E8"/>
<path fill-rule="evenodd" clip-rule="evenodd" d="M28.7268 20.353C29.4414 17.6861 27.8301 14.1951 24.2928 13.2473C20.7557 12.2995 17.6144 14.5181 16.8998 17.185C16.5095 18.6416 15.9896 19.1639 15.4379 19.7159C14.9001 20.2551 14.3437 20.8131 13.9877 22.1495C13.444 25.1562 15.9402 26.4421 20.4346 27.6464C24.93 28.8509 27.7348 28.9854 28.7801 26.0696C29.1274 24.7733 28.9246 24.0119 28.7274 23.2758C28.5266 22.5221 28.3365 21.8097 28.7268 20.353Z" fill="#58C2E8"/>
<path fill-rule="evenodd" clip-rule="evenodd" d="M22.1869 29.1512L18.2276 28.0903C17.9494 28.0158 17.6524 28.108 17.4646 28.3258C17.2773 28.5458 17.2314 28.8525 17.347 29.1164C17.7662 30.0713 18.5716 30.7707 19.5559 31.0344C20.5459 31.2997 21.5961 31.0975 22.4365 30.4801C22.6696 30.3096 22.7831 30.0211 22.7299 29.7366C22.6762 29.4541 22.4661 29.226 22.1869 29.1512Z" fill="#58C2E8"/>
<path fill-rule="evenodd" clip-rule="evenodd" d="M15.9371 14.6224C16.5569 13.6807 17.43 12.8794 18.4602 12.3034C18.8229 12.1014 18.9523 11.6453 18.75 11.2837C18.5477 10.922 18.0907 10.7923 17.7293 10.9936C16.4898 11.6864 15.436 12.6557 14.684 13.7969C14.4567 14.1429 14.5525 14.6085 14.8982 14.8368C14.967 14.8811 15.0409 14.9144 15.1163 14.9346C15.4206 15.0161 15.7541 14.8995 15.9371 14.6224Z" fill="#58C2E8"/>
<path fill-rule="evenodd" clip-rule="evenodd" d="M32.3465 18.5396C32.265 17.1667 31.8367 15.7941 31.1084 14.5709C30.8968 14.2171 30.4357 14.0987 30.0797 14.3108C29.7249 14.5222 29.6078 14.9825 29.8199 15.3386C30.4259 16.3571 30.7815 17.4949 30.8493 18.6291C30.8694 18.9596 31.1 19.2274 31.4042 19.3089C31.4796 19.3291 31.56 19.3382 31.6423 19.3323C32.0556 19.3085 32.3713 18.9531 32.3465 18.5396Z" fill="#58C2E8"/>
<circle cx="36.2471" cy="37.8633" r="4.25" fill="#F97066" stroke="#111633" stroke-width="1.5"/>
</svg>
