<svg width="25" height="25" viewBox="0 0 25 25" fill="none" xmlns="http://www.w3.org/2000/svg">
<path fill-rule="evenodd" clip-rule="evenodd" d="M19.6853 10.4594C20.3999 7.79251 18.7886 4.3015 15.2513 3.35371C11.7142 2.40592 8.57291 4.62451 7.85831 7.29143C7.468 8.74809 6.94812 9.27033 6.39645 9.82236C5.85857 10.3615 5.30219 10.9195 4.94618 12.2559C4.40245 15.2626 6.8987 16.5485 11.3931 17.7528C15.8885 18.9574 18.6933 19.0919 19.7386 16.1761C20.0859 14.8798 19.8831 14.1183 19.6859 13.3822C19.4851 12.6286 19.295 11.9161 19.6853 10.4594Z" fill="#58C2E8"/>
<path fill-rule="evenodd" clip-rule="evenodd" d="M13.1454 19.2577L9.18608 18.1968C8.90789 18.1222 8.61092 18.2144 8.42314 18.4322C8.23582 18.6522 8.18988 18.9589 8.30551 19.2228C8.72466 20.1778 9.53009 20.8771 10.5144 21.1409C11.5044 21.4062 12.5546 21.204 13.395 20.5866C13.6281 20.4161 13.7416 20.1275 13.6884 19.8431C13.6347 19.5605 13.4246 19.3325 13.1454 19.2577Z" fill="#58C2E8"/>
<path fill-rule="evenodd" clip-rule="evenodd" d="M6.89555 4.72881C7.51539 3.78715 8.38854 2.98584 9.41872 2.40984C9.78137 2.20782 9.91081 1.75178 9.70852 1.3901C9.50624 1.02842 9.04924 0.898721 8.68782 1.10004C7.44828 1.79283 6.3945 2.76212 5.6425 3.90337C5.41521 4.24933 5.51095 4.71498 5.85666 4.94323C5.92553 4.98757 5.99944 5.02083 6.07478 5.04102C6.37905 5.12255 6.7126 5.0059 6.89555 4.72881Z" fill="#58C2E8"/>
<path fill-rule="evenodd" clip-rule="evenodd" d="M23.305 8.64602C23.2235 7.27315 22.7952 5.90052 22.0669 4.67736C21.8553 4.32353 21.3942 4.20516 21.0382 4.41725C20.6834 4.62862 20.5663 5.08899 20.7784 5.44501C21.3844 6.46357 21.74 7.60138 21.8078 8.73557C21.8279 9.06604 22.0585 9.33384 22.3627 9.41536C22.4381 9.43555 22.5185 9.44467 22.6008 9.43877C23.014 9.41492 23.3298 9.05953 23.305 8.64602Z" fill="#58C2E8"/>
</svg>
