<svg width="24" height="24" viewBox="0 0 24 24" fill="none" xmlns="http://www.w3.org/2000/svg">
<g id="Appointment_Outline">
<path id="Vector" d="M4.16406 9.66406H20.3577" stroke="#263682" stroke-width="1.5" stroke-linecap="round" stroke-linejoin="round"/>
<path id="Vector_2" d="M15.8982 3V5.96164" stroke="#263682" stroke-width="1.5" stroke-linecap="round" stroke-linejoin="round"/>
<path id="Vector_3" d="M8.62573 3V5.96164" stroke="#263682" stroke-width="1.5" stroke-linecap="round" stroke-linejoin="round"/>
<path id="Vector_4" d="M20.3577 11.6236V8.59871C20.3655 5.89198 18.7232 4.41992 16.0719 4.41992H8.4518C5.80831 4.41992 4.1582 5.89198 4.1582 8.59871V16.7432C4.1582 19.4918 5.80831 20.9979 8.4518 20.9979H10.6701" stroke="#263682" stroke-width="1.5" stroke-linecap="round" stroke-linejoin="round"/>
<path id="Vector_5" fill-rule="evenodd" clip-rule="evenodd" d="M16.0307 20.8545L15.2358 20.9878C14.655 21.0851 14.1413 20.6005 14.2045 20.0138L14.293 19.1937C14.3359 18.7986 14.5013 18.426 14.7669 18.1293L18.2286 14.3503C18.6382 13.9086 19.328 13.8824 19.7697 14.291L20.5004 14.9682C20.9431 15.3768 20.9694 16.0666 20.5598 16.5093L17.136 20.2454C16.848 20.5684 16.4578 20.7825 16.0307 20.8545Z" stroke="#263682" stroke-width="1.5" stroke-linecap="round" stroke-linejoin="round"/>
<path id="Vector_6" d="M17.3916 15.2549L19.6352 17.4995" stroke="#263682" stroke-width="1.5" stroke-linecap="round" stroke-linejoin="round"/>
<path id="Vector_7" d="M8.38086 13.2773H8.39086" stroke="#263682" stroke-width="1.5" stroke-linecap="round" stroke-linejoin="round"/>
<path id="Vector_8" d="M8.38086 16.7539H8.39086" stroke="#263682" stroke-width="1.5" stroke-linecap="round" stroke-linejoin="round"/>
<path id="Vector_9" d="M12.0488 13.2773H12.0588" stroke="#263682" stroke-width="1.5" stroke-linecap="round" stroke-linejoin="round"/>
</g>
</svg>
