<svg width="25" height="25" viewBox="0 0 25 25" fill="none" xmlns="http://www.w3.org/2000/svg">
<path d="M10.7287 1.99902C5.61366 2.8279 1.7085 7.26442 1.7085 12.6133C1.7085 18.5522 6.5229 23.3666 12.4618 23.3666C17.8107 23.3666 22.2472 19.4615 23.0761 14.3464C21.8769 14.9103 20.5384 15.2248 19.1306 15.2248C14.0053 15.2248 9.85031 11.0699 9.85031 5.94447C9.85031 4.53666 10.1648 3.19818 10.7287 1.99902Z" fill="#EFFBFF"/>
<path d="M12.0959 2.61661C11.8599 3.11455 11.6753 3.64155 11.5488 4.19077C11.4189 4.75439 11.3503 5.34142 11.3503 5.94447C11.3503 10.2414 14.8337 13.7248 19.1306 13.7248C19.7337 13.7248 20.3207 13.6562 20.8843 13.5264C21.4336 13.3998 21.9606 13.2152 22.4585 12.9792L12.0959 2.61661Z" fill="#EFFBFF"/>
<path d="M10.7287 1.99902C5.61366 2.8279 1.7085 7.26442 1.7085 12.6133C1.7085 18.5522 6.5229 23.3666 12.4618 23.3666C17.8107 23.3666 22.2472 19.4615 23.0761 14.3464C21.8769 14.9103 20.5384 15.2248 19.1306 15.2248C14.0053 15.2248 9.85031 11.0699 9.85031 5.94447C9.85031 4.53666 10.1648 3.19818 10.7287 1.99902Z" stroke="#F5F6FC"/>
<path d="M12.0959 2.61661C11.8599 3.11455 11.6753 3.64155 11.5488 4.19077C11.4189 4.75439 11.3503 5.34142 11.3503 5.94447C11.3503 10.2414 14.8337 13.7248 19.1306 13.7248C19.7337 13.7248 20.3207 13.6562 20.8843 13.5264C21.4336 13.3998 21.9606 13.2152 22.4585 12.9792L12.0959 2.61661Z" stroke="#F5F6FC"/>
</svg>
