<svg width="33" height="33" viewBox="0 0 33 33" fill="none" xmlns="http://www.w3.org/2000/svg">
<path fill-rule="evenodd" clip-rule="evenodd" d="M2.2832 16.7855C2.2832 8.8694 8.70045 2.45215 16.6165 2.45215C24.5326 2.45215 30.9499 8.8694 30.9499 16.7855C30.9499 24.7016 24.5326 31.1188 16.6165 31.1188C8.70045 31.1188 2.2832 24.7016 2.2832 16.7855ZM23.0092 13.8468C23.595 13.261 23.595 12.3113 23.0092 11.7255C22.4234 11.1397 21.4737 11.1397 20.8879 11.7255L15.2819 17.3315L13.6759 15.7255C13.0901 15.1397 12.1404 15.1397 11.5546 15.7255C10.9688 16.3113 10.9688 17.261 11.5546 17.8468L14.2212 20.5135C14.807 21.0992 15.7568 21.0992 16.3426 20.5135L23.0092 13.8468Z" fill="#F5F6FC"/>
</svg>
