<svg width="25" height="24" viewBox="0 0 25 24" fill="none" xmlns="http://www.w3.org/2000/svg">
<path fill-rule="evenodd" clip-rule="evenodd" d="M15.9172 10.5577L11.8442 14.6327C11.7032 14.7737 11.5122 14.8527 11.3132 14.8527C11.1142 14.8527 10.9232 14.7737 10.7832 14.6327L8.80623 12.6527C8.51424 12.3587 8.51424 11.8837 8.80724 11.5907C9.10124 11.2987 9.57523 11.2997 9.86824 11.5917L11.3142 13.0407L14.8562 9.49667C15.1492 9.20367 15.6242 9.20367 15.9172 9.49667C16.2102 9.78967 16.2102 10.2647 15.9172 10.5577ZM21.0372 10.0857L20.3382 9.38667C20.0192 9.06667 19.8442 8.64067 19.8442 8.18967V7.18967C19.8442 5.70067 18.6322 4.48967 17.1442 4.48967H16.1422C15.6892 4.48967 15.2642 4.31467 14.9462 3.99667L14.2352 3.28667C13.1782 2.23867 11.4662 2.24367 10.4172 3.29767L9.72023 3.99667C9.39923 4.31567 8.97424 4.49067 8.52224 4.49067H7.52124C6.05024 4.49167 4.85024 5.67567 4.82324 7.14167C4.82223 7.15767 4.82124 7.17367 4.82124 7.19067V8.18767C4.82124 8.63967 4.64624 9.06467 4.32724 9.38367L3.61924 10.0927C3.61824 10.0957 3.61524 10.0967 3.61324 10.0987C2.56824 11.1567 2.57724 12.8687 3.63024 13.9117L4.32924 14.6127C4.64724 14.9317 4.82324 15.3557 4.82324 15.8077V16.8127C4.82324 18.3007 6.03324 19.5117 7.52124 19.5117H8.52024C8.97324 19.5127 9.39824 19.6877 9.71624 20.0047L10.4292 20.7157C10.9372 21.2207 11.6112 21.4987 12.3282 21.4987H12.3402C13.0612 21.4957 13.7372 21.2117 14.2432 20.7027L14.9442 20.0027C15.2592 19.6887 15.6952 19.5087 16.1402 19.5087H17.1462C18.6312 19.5087 19.8422 18.2997 19.8452 16.8127V15.8097C19.8452 15.3587 20.0202 14.9337 20.3372 14.6147L21.0482 13.9037C22.0982 12.8477 22.0922 11.1347 21.0372 10.0857Z" fill="#172461"/>
</svg>
