<svg width="25" height="25" viewBox="0 0 25 25" fill="none" xmlns="http://www.w3.org/2000/svg">
<g id="Calendar_Outline_24px" clip-path="url(#clip0_5260_6533)">
<path id="Vector" d="M8.6521 1.25781V4.25781M16.6521 1.25781V4.25781M18.1521 8.25781H7.1521M8.6521 12.7578C8.6521 13.034 8.42824 13.2578 8.1521 13.2578C7.87596 13.2578 7.6521 13.034 7.6521 12.7578M8.6521 12.7578C8.6521 12.4817 8.42824 12.2578 8.1521 12.2578C7.87596 12.2578 7.6521 12.4817 7.6521 12.7578M8.6521 12.7578H7.6521M8.6521 16.7578C8.6521 17.034 8.42824 17.2578 8.1521 17.2578C7.87596 17.2578 7.6521 17.034 7.6521 16.7578M8.6521 16.7578C8.6521 16.4817 8.42824 16.2578 8.1521 16.2578C7.87596 16.2578 7.6521 16.4817 7.6521 16.7578M8.6521 16.7578H7.6521M13.1521 12.7578C13.1521 13.034 12.9282 13.2578 12.6521 13.2578C12.376 13.2578 12.1521 13.034 12.1521 12.7578M13.1521 12.7578C13.1521 12.4817 12.9282 12.2578 12.6521 12.2578C12.376 12.2578 12.1521 12.4817 12.1521 12.7578M13.1521 12.7578H12.1521M13.1521 16.7578C13.1521 17.034 12.9282 17.2578 12.6521 17.2578C12.376 17.2578 12.1521 17.034 12.1521 16.7578M13.1521 16.7578C13.1521 16.4817 12.9282 16.2578 12.6521 16.2578C12.376 16.2578 12.1521 16.4817 12.1521 16.7578M13.1521 16.7578H12.1521M17.6521 12.7578C17.6521 13.034 17.4282 13.2578 17.1521 13.2578C16.876 13.2578 16.6521 13.034 16.6521 12.7578M17.6521 12.7578C17.6521 12.4817 17.4282 12.2578 17.1521 12.2578C16.876 12.2578 16.6521 12.4817 16.6521 12.7578M17.6521 12.7578H16.6521M17.6521 16.7578C17.6521 17.034 17.4282 17.2578 17.1521 17.2578C16.876 17.2578 16.6521 17.034 16.6521 16.7578M17.6521 16.7578C17.6521 16.4817 17.4282 16.2578 17.1521 16.2578C16.876 16.2578 16.6521 16.4817 16.6521 16.7578M17.6521 16.7578H16.6521M12.2521 22.2578H13.0521C16.4124 22.2578 18.0926 22.2578 19.376 21.6039C20.505 21.0286 21.4229 20.1107 21.9981 18.9818C22.6521 17.6983 22.6521 16.0181 22.6521 12.6578V11.8578C22.6521 8.4975 22.6521 6.81734 21.9981 5.53387C21.4229 4.4049 20.505 3.48701 19.376 2.91177C18.0926 2.25781 16.4124 2.25781 13.0521 2.25781H12.2521C8.89178 2.25781 7.21163 2.25781 5.92816 2.91177C4.79918 3.48701 3.8813 4.4049 3.30606 5.53387C2.6521 6.81734 2.6521 8.4975 2.6521 11.8578V12.6578C2.6521 16.0181 2.6521 17.6983 3.30606 18.9818C3.8813 20.1107 4.79918 21.0286 5.92816 21.6039C7.21163 22.2578 8.89178 22.2578 12.2521 22.2578Z" stroke="#263682" stroke-width="1.5" stroke-linecap="round" stroke-linejoin="round"/>
</g>
<defs>
<clipPath id="clip0_5260_6533">
<rect width="24" height="24" fill="white" transform="translate(0.6521 0.257812)"/>
</clipPath>
</defs>
</svg>
