<svg width="119" height="46" viewBox="0 0 119 46" fill="none" xmlns="http://www.w3.org/2000/svg">
<g clip-path="url(#clip0_3147_98844)">
<line y1="-0.5" x2="70.181" y2="-0.5" transform="matrix(-0.701726 0.712447 -0.701726 -0.712447 11.3916 -1.75)" stroke="#D7DEFF"/>
<line y1="-0.5" x2="70.181" y2="-0.5" transform="matrix(-0.701726 0.712447 -0.701726 -0.712447 22.6006 -1.75)" stroke="#D7DEFF"/>
<line y1="-0.5" x2="70.181" y2="-0.5" transform="matrix(-0.701726 0.712447 -0.701726 -0.712447 33.8096 -1.75)" stroke="#D7DEFF"/>
<line y1="-0.5" x2="70.181" y2="-0.5" transform="matrix(-0.701726 0.712447 -0.701726 -0.712447 45.0181 -1.75)" stroke="#D7DEFF"/>
<line y1="-0.5" x2="70.181" y2="-0.5" transform="matrix(-0.701726 0.712447 -0.701726 -0.712447 56.2271 -1.75)" stroke="#D7DEFF"/>
<line y1="-0.5" x2="70.181" y2="-0.5" transform="matrix(-0.701726 0.712447 -0.701726 -0.712447 67.436 -1.75)" stroke="#D7DEFF"/>
<line y1="-0.5" x2="70.181" y2="-0.5" transform="matrix(-0.701726 0.712447 -0.701726 -0.712447 78.6445 -1.75)" stroke="#D7DEFF"/>
<line y1="-0.5" x2="70.181" y2="-0.5" transform="matrix(-0.701726 0.712447 -0.701726 -0.712447 89.8535 -1.75)" stroke="#D7DEFF"/>
<line y1="-0.5" x2="70.181" y2="-0.5" transform="matrix(-0.701726 0.712447 -0.701726 -0.712447 101.062 -1.75)" stroke="#D7DEFF"/>
<line y1="-0.5" x2="70.181" y2="-0.5" transform="matrix(-0.701726 0.712447 -0.701726 -0.712447 112.271 -1.75)" stroke="#D7DEFF"/>
<line y1="-0.5" x2="70.181" y2="-0.5" transform="matrix(-0.701726 0.712447 -0.701726 -0.712447 123.48 -1.75)" stroke="#D7DEFF"/>
<line y1="-0.5" x2="70.181" y2="-0.5" transform="matrix(-0.701726 0.712447 -0.701726 -0.712447 134.688 -1.75)" stroke="#D7DEFF"/>
<line y1="-0.5" x2="70.181" y2="-0.5" transform="matrix(-0.701726 0.712447 -0.701726 -0.712447 145.897 -1.75)" stroke="#D7DEFF"/>
<line y1="-0.5" x2="70.181" y2="-0.5" transform="matrix(-0.701726 0.712447 -0.701726 -0.712447 157.106 -1.75)" stroke="#D7DEFF"/>
</g>
<rect x="1" y="1" width="117.25" height="44.5" rx="8" stroke="#D7DEFF"/>
<defs>
<clipPath id="clip0_3147_98844">
<rect x="1" y="1" width="117.25" height="44.5" rx="8" fill="white"/>
</clipPath>
</defs>
</svg>
