<svg width="25" height="24" viewBox="0 0 25 24" fill="none" xmlns="http://www.w3.org/2000/svg">
<path d="M8.5 1V4M16.5 1V4M18 8H7M8.5 12.5C8.5 12.7761 8.27614 13 8 13C7.72386 13 7.5 12.7761 7.5 12.5M8.5 12.5C8.5 12.2239 8.27614 12 8 12C7.72386 12 7.5 12.2239 7.5 12.5M8.5 12.5H7.5M8.5 16.5C8.5 16.7761 8.27614 17 8 17C7.72386 17 7.5 16.7761 7.5 16.5M8.5 16.5C8.5 16.2239 8.27614 16 8 16C7.72386 16 7.5 16.2239 7.5 16.5M8.5 16.5H7.5M13 12.5C13 12.7761 12.7761 13 12.5 13C12.2239 13 12 12.7761 12 12.5M13 12.5C13 12.2239 12.7761 12 12.5 12C12.2239 12 12 12.2239 12 12.5M13 12.5H12M13 16.5C13 16.7761 12.7761 17 12.5 17C12.2239 17 12 16.7761 12 16.5M13 16.5C13 16.2239 12.7761 16 12.5 16C12.2239 16 12 16.2239 12 16.5M13 16.5H12M17.5 12.5C17.5 12.7761 17.2761 13 17 13C16.7239 13 16.5 12.7761 16.5 12.5M17.5 12.5C17.5 12.2239 17.2761 12 17 12C16.7239 12 16.5 12.2239 16.5 12.5M17.5 12.5H16.5M17.5 16.5C17.5 16.7761 17.2761 17 17 17C16.7239 17 16.5 16.7761 16.5 16.5M17.5 16.5C17.5 16.2239 17.2761 16 17 16C16.7239 16 16.5 16.2239 16.5 16.5M17.5 16.5H16.5M12.1 22H12.9C16.2603 22 17.9405 22 19.2239 21.346C20.3529 20.7708 21.2708 19.8529 21.846 18.7239C22.5 17.4405 22.5 15.7603 22.5 12.4V11.6C22.5 8.23969 22.5 6.55953 21.846 5.27606C21.2708 4.14708 20.3529 3.2292 19.2239 2.65396C17.9405 2 16.2603 2 12.9 2H12.1C8.73969 2 7.05953 2 5.77606 2.65396C4.64708 3.2292 3.7292 4.14708 3.15396 5.27606C2.5 6.55953 2.5 8.23969 2.5 11.6V12.4C2.5 15.7603 2.5 17.4405 3.15396 18.7239C3.7292 19.8529 4.64708 20.7708 5.77606 21.346C7.05953 22 8.73969 22 12.1 22Z" stroke="#263682" stroke-width="1.5" stroke-linecap="round" stroke-linejoin="round"/>
</svg>
