<svg width="25" height="25" viewBox="0 0 25 25" fill="none" xmlns="http://www.w3.org/2000/svg">
<g clip-path="url(#clip0_5582_70256)">
<path fill-rule="evenodd" clip-rule="evenodd" d="M9.7085 1.59277C9.7085 1.17856 9.37271 0.842773 8.9585 0.842773C8.54428 0.842773 8.2085 1.17856 8.2085 1.59277V1.90034C7.03186 1.97218 6.19708 2.13369 5.48455 2.49673C4.35558 3.07197 3.4377 3.98986 2.86246 5.11883C2.2085 6.4023 2.2085 8.08246 2.2085 11.4428V13.7428C2.2085 17.1031 2.2085 18.7832 2.86246 20.0667C3.4377 21.1957 4.35558 22.1136 5.48455 22.6888C6.76802 23.3428 8.44818 23.3428 11.8085 23.3428H14.1085C17.4688 23.3428 19.149 23.3428 20.4324 22.6888C21.5614 22.1136 22.4793 21.1957 23.0545 20.0667C23.7085 18.7832 23.7085 17.1031 23.7085 13.7428V11.4428C23.7085 8.08246 23.7085 6.4023 23.0545 5.11883C22.4793 3.98986 21.5614 3.07197 20.4324 2.49673C19.7199 2.13368 18.8851 1.97218 17.7085 1.90034V1.59277C17.7085 1.17856 17.3727 0.842773 16.9585 0.842773C16.5443 0.842773 16.2085 1.17856 16.2085 1.59277V1.85116C15.5896 1.84277 14.8951 1.84277 14.1085 1.84277H11.8085C11.0219 1.84277 10.3274 1.84277 9.7085 1.85116V1.59277ZM6.7085 8.59277C6.7085 8.17856 7.04428 7.84277 7.4585 7.84277H18.4585C18.8727 7.84277 19.2085 8.17856 19.2085 8.59277C19.2085 9.00699 18.8727 9.34277 18.4585 9.34277H7.4585C7.04428 9.34277 6.7085 9.00699 6.7085 8.59277ZM7.2085 13.0928C7.2085 12.4024 7.76814 11.8428 8.4585 11.8428C9.14885 11.8428 9.7085 12.4024 9.7085 13.0928C9.7085 13.7831 9.14885 14.3428 8.4585 14.3428C7.76814 14.3428 7.2085 13.7831 7.2085 13.0928ZM11.7085 13.0928C11.7085 12.4024 12.2681 11.8428 12.9585 11.8428C13.6489 11.8428 14.2085 12.4024 14.2085 13.0928C14.2085 13.7831 13.6489 14.3428 12.9585 14.3428C12.2681 14.3428 11.7085 13.7831 11.7085 13.0928ZM16.2085 13.0928C16.2085 12.4024 16.7681 11.8428 17.4585 11.8428C18.1489 11.8428 18.7085 12.4024 18.7085 13.0928C18.7085 13.7831 18.1489 14.3428 17.4585 14.3428C16.7681 14.3428 16.2085 13.7831 16.2085 13.0928ZM7.2085 17.0928C7.2085 16.4024 7.76814 15.8428 8.4585 15.8428C9.14885 15.8428 9.7085 16.4024 9.7085 17.0928C9.7085 17.7831 9.14885 18.3428 8.4585 18.3428C7.76814 18.3428 7.2085 17.7831 7.2085 17.0928ZM11.7085 17.0928C11.7085 16.4024 12.2681 15.8428 12.9585 15.8428C13.6489 15.8428 14.2085 16.4024 14.2085 17.0928C14.2085 17.7831 13.6489 18.3428 12.9585 18.3428C12.2681 18.3428 11.7085 17.7831 11.7085 17.0928ZM16.2085 17.0928C16.2085 16.4024 16.7681 15.8428 17.4585 15.8428C18.1489 15.8428 18.7085 16.4024 18.7085 17.0928C18.7085 17.7831 18.1489 18.3428 17.4585 18.3428C16.7681 18.3428 16.2085 17.7831 16.2085 17.0928Z" fill="#263682"/>
</g>
<defs>
<clipPath id="clip0_5582_70256">
<rect width="24" height="24" fill="white" transform="translate(0.958496 0.592773)"/>
</clipPath>
</defs>
</svg>
