<svg width="13" height="13" viewBox="0 0 13 13" fill="none" xmlns="http://www.w3.org/2000/svg">
<path fill-rule="evenodd" clip-rule="evenodd" d="M7.65775 1.12402C7.38607 1.12402 7.16583 1.34426 7.16583 1.61594C7.16583 1.88762 7.38607 2.10786 7.65775 2.10786C8.49064 2.10786 9.16583 2.78305 9.16583 3.61594C9.16583 4.44883 8.49064 5.12402 7.65775 5.12402C7.38607 5.12402 7.16583 5.34426 7.16583 5.61594C7.16583 5.88762 7.38607 6.10786 7.65775 6.10786C9.034 6.10786 10.1497 4.99219 10.1497 3.61594C10.1497 2.23969 9.034 1.12402 7.65775 1.12402ZM8.65775 7.12402C8.38607 7.12402 8.16583 7.34426 8.16583 7.61594C8.16583 7.88762 8.38607 8.10786 8.65775 8.10786H9.25775C10.3116 8.10786 11.1658 8.96213 11.1658 10.0159C11.1658 10.6279 10.6697 11.124 10.0578 11.124H8.65775C8.38607 11.124 8.16583 11.3443 8.16583 11.6159C8.16583 11.8876 8.38607 12.1079 8.65775 12.1079H10.0578C11.2131 12.1079 12.1497 11.1713 12.1497 10.0159C12.1497 8.41878 10.8549 7.12402 9.25775 7.12402H8.65775ZM4.15771 1.24089C2.84604 1.24089 1.78271 2.30422 1.78271 3.61589C1.78271 4.92757 2.84604 5.99089 4.15771 5.99089C5.46939 5.99089 6.53271 4.92757 6.53271 3.61589C6.53271 2.30422 5.46939 1.24089 4.15771 1.24089ZM0.282715 10.0909C0.282715 8.51688 1.5587 7.24089 3.13271 7.24089H5.18271C6.75673 7.24089 8.03271 8.51688 8.03271 10.0909C8.03271 11.1402 7.18206 11.9909 6.13271 11.9909H2.18271C1.13337 11.9909 0.282715 11.1402 0.282715 10.0909Z" fill="#535E68"/>
</svg>
