<svg width="13" height="13" viewBox="0 0 13 13" fill="none" xmlns="http://www.w3.org/2000/svg">
<path fill-rule="evenodd" clip-rule="evenodd" d="M5.08703 3.70613L5.98203 3.41113C6.05203 3.38613 6.13203 3.38613 6.20703 3.41113L7.09203 3.70113V1.80613C7.08703 1.72613 7.02203 1.66113 6.94203 1.66113H5.22703C5.14703 1.66113 5.08203 1.73113 5.08203 1.81113V3.70613H5.08703Z" fill="#F97066"/>
<path fill-rule="evenodd" clip-rule="evenodd" d="M7.08686 4.45617L1.91686 9.62617C1.66686 9.20617 1.53686 8.70117 1.53686 8.13617L1.52686 4.32617C1.52686 2.74117 2.53686 1.67617 4.05186 1.67117H4.21686C4.29686 1.66617 4.36186 1.73117 4.36186 1.81117V4.20617C4.36686 4.32117 4.42186 4.43117 4.51686 4.49617C4.57686 4.54117 4.65186 4.56617 4.72686 4.56617C4.76186 4.56617 4.80186 4.56117 4.83686 4.54617L6.09186 4.13117L7.08686 4.45617Z" fill="#F97066"/>
<path fill-rule="evenodd" clip-rule="evenodd" d="M7.81181 3.73113V1.80613C7.80681 1.72613 7.86681 1.66113 7.94681 1.66113H8.11181C8.64181 1.66113 9.11181 1.79113 9.50681 2.03613L7.81181 3.73113Z" fill="#F97066"/>
<path fill-rule="evenodd" clip-rule="evenodd" d="M10.6471 8.11609C10.6521 9.69609 9.63705 10.7661 8.12205 10.7711L4.07705 10.7811H4.06705C3.91205 10.7811 3.76205 10.7711 3.62205 10.7461C3.24205 10.6911 2.89705 10.5611 2.60205 10.3561L10.2121 2.74609C10.4071 3.04609 10.5321 3.39609 10.5921 3.77609C10.6221 3.94609 10.6371 4.12609 10.6371 4.30609L10.6471 8.11609Z" fill="#F97066"/>
<path d="M11.1524 1.80824L1.76636 11.1943L2.46993 11.8979L11.856 2.51181L11.1524 1.80824Z" fill="#F97066"/>
</svg>
