<svg width="25" height="24" viewBox="0 0 25 24" fill="none" xmlns="http://www.w3.org/2000/svg">
<path fill-rule="evenodd" clip-rule="evenodd" d="M18.9785 7.58594H9.92718C7.73812 7.58594 6.36523 9.13611 6.36523 11.3306V17.2513C6.36523 19.4458 7.73055 20.9959 9.92718 20.9959H18.9774C21.1751 20.9959 22.5415 19.4458 22.5415 17.2513V11.3306C22.5415 9.13611 21.1751 7.58594 18.9785 7.58594Z" stroke="#263682" stroke-width="1.5" stroke-linecap="round" stroke-linejoin="round"/>
<path d="M9.91309 12.0488H18.9882" stroke="#263682" stroke-width="1.5" stroke-linecap="round" stroke-linejoin="round"/>
<path d="M18.6262 7.58365L17.0404 4.94056C15.9042 3.06933 13.9389 2.43801 12.0526 3.57524L4.30385 8.23874C2.42504 9.36733 2.04669 11.4029 3.17527 13.2893L6.2367 18.3549C6.3794 18.6003 6.53723 18.8208 6.71776 19.0186V19.0262" stroke="#263682" stroke-width="1.5" stroke-linecap="round" stroke-linejoin="round"/>
</svg>
