<svg width="31" height="30" viewBox="0 0 31 30" fill="none" xmlns="http://www.w3.org/2000/svg">
<path fill-rule="evenodd" clip-rule="evenodd" d="M23.9219 9.48242H12.6077C9.87139 9.48242 8.15527 11.4201 8.15527 14.1632V21.5641C8.15527 24.3073 9.86192 26.2449 12.6077 26.2449H23.9205C26.6676 26.2449 28.3756 24.3073 28.3756 21.5641V14.1632C28.3756 11.4201 26.6676 9.48242 23.9219 9.48242Z" stroke="#263682" stroke-width="1.5" stroke-linecap="round" stroke-linejoin="round"/>
<path d="M12.5898 15.0605H23.9338" stroke="#263682" stroke-width="1.5" stroke-linecap="round" stroke-linejoin="round"/>
<path d="M23.4815 9.47956L21.4992 6.1757C20.079 3.83666 17.6224 3.04751 15.2645 4.46905L5.57855 10.2984C3.23003 11.7092 2.7571 14.2536 4.16782 16.6116L7.99461 22.9436C8.17299 23.2504 8.37027 23.526 8.59594 23.7733V23.7827" stroke="#263682" stroke-width="1.5" stroke-linecap="round" stroke-linejoin="round"/>
</svg>
