<svg width="24" height="18" viewBox="0 0 24 18" fill="none" xmlns="http://www.w3.org/2000/svg">
<mask id="path-1-inside-1_704_13436" fill="white">
<path d="M21 1.5C21.3978 1.5 21.7794 1.65804 22.0607 1.93934C22.342 2.22064 22.5 2.60218 22.5 3V15C22.5 15.3978 22.342 15.7794 22.0607 16.0607C21.7794 16.342 21.3978 16.5 21 16.5H3C2.60218 16.5 2.22064 16.342 1.93934 16.0607C1.65804 15.7794 1.5 15.3978 1.5 15V3C1.5 2.60218 1.65804 2.22064 1.93934 1.93934C2.22064 1.65804 2.60218 1.5 3 1.5H21ZM3 0C2.20435 0 1.44129 0.31607 0.87868 0.87868C0.316071 1.44129 0 2.20435 0 3L0 15C0 15.7956 0.316071 16.5587 0.87868 17.1213C1.44129 17.6839 2.20435 18 3 18H21C21.7956 18 22.5587 17.6839 23.1213 17.1213C23.6839 16.5587 24 15.7956 24 15V3C24 2.20435 23.6839 1.44129 23.1213 0.87868C22.5587 0.31607 21.7956 0 21 0H3Z"/>
</mask>
<path d="M21 1.5C21.3978 1.5 21.7794 1.65804 22.0607 1.93934C22.342 2.22064 22.5 2.60218 22.5 3V15C22.5 15.3978 22.342 15.7794 22.0607 16.0607C21.7794 16.342 21.3978 16.5 21 16.5H3C2.60218 16.5 2.22064 16.342 1.93934 16.0607C1.65804 15.7794 1.5 15.3978 1.5 15V3C1.5 2.60218 1.65804 2.22064 1.93934 1.93934C2.22064 1.65804 2.60218 1.5 3 1.5H21ZM3 0C2.20435 0 1.44129 0.31607 0.87868 0.87868C0.316071 1.44129 0 2.20435 0 3L0 15C0 15.7956 0.316071 16.5587 0.87868 17.1213C1.44129 17.6839 2.20435 18 3 18H21C21.7956 18 22.5587 17.6839 23.1213 17.1213C23.6839 16.5587 24 15.7956 24 15V3C24 2.20435 23.6839 1.44129 23.1213 0.87868C22.5587 0.31607 21.7956 0 21 0H3Z" fill="#14171A"/>
<path d="M21 1.5V0V1.5ZM1.5 15H0H1.5ZM3 1.5V0V1.5ZM3 0V-1.5V0ZM0 3H-1.5H0ZM0 15H-1.5H0ZM21 0V-1.5V0ZM21 3L23.1213 0.87868C22.5587 0.316071 21.7957 0 21 0V3ZM21 3H24C24 2.20435 23.6839 1.44129 23.1213 0.87868L21 3ZM21 3V15H24V3H21ZM21 15L23.1213 17.1213C23.6839 16.5587 24 15.7957 24 15H21ZM21 15V18C21.7957 18 22.5587 17.6839 23.1213 17.1213L21 15ZM21 15H3V18H21V15ZM3 15L0.87868 17.1213C1.44129 17.6839 2.20435 18 3 18V15ZM3 15H0C0 15.7956 0.316071 16.5587 0.87868 17.1213L3 15ZM3 15V3H0V15H3ZM3 3L0.87868 0.87868C0.31607 1.44129 0 2.20435 0 3H3ZM3 3V0C2.20435 0 1.44129 0.31607 0.87868 0.87868L3 3ZM3 3H21V0H3V3ZM3 -1.5C1.80653 -1.5 0.661933 -1.02589 -0.18198 -0.181981L1.93934 1.93934C2.22064 1.65804 2.60217 1.5 3 1.5V-1.5ZM-0.18198 -0.181981C-1.02589 0.661933 -1.5 1.80653 -1.5 3H1.5C1.5 2.60218 1.65804 2.22064 1.93934 1.93934L-0.18198 -0.181981ZM-1.5 3V15H1.5V3H-1.5ZM-1.5 15C-1.5 16.1935 -1.02589 17.3381 -0.18198 18.182L1.93934 16.0607C1.65804 15.7794 1.5 15.3978 1.5 15H-1.5ZM-0.18198 18.182C0.661933 19.0259 1.80652 19.5 3 19.5V16.5C2.60218 16.5 2.22064 16.342 1.93934 16.0607L-0.18198 18.182ZM3 19.5H21V16.5H3V19.5ZM21 19.5C22.1935 19.5 23.3381 19.0259 24.182 18.182L22.0607 16.0607C21.7794 16.342 21.3978 16.5 21 16.5V19.5ZM24.182 18.182C25.0259 17.3381 25.5 16.1935 25.5 15H22.5C22.5 15.3978 22.342 15.7794 22.0607 16.0607L24.182 18.182ZM25.5 15V3H22.5V15H25.5ZM25.5 3C25.5 1.80653 25.0259 0.661933 24.182 -0.181981L22.0607 1.93934C22.342 2.22064 22.5 2.60218 22.5 3H25.5ZM24.182 -0.181981C23.3381 -1.02589 22.1935 -1.5 21 -1.5V1.5C21.3978 1.5 21.7794 1.65804 22.0607 1.93934L24.182 -0.181981ZM21 -1.5H3V1.5H21V-1.5Z" fill="#14171A" mask="url(#path-1-inside-1_704_13436)"/>
<path d="M3 5.25C3 5.05109 3.07902 4.86032 3.21967 4.71967C3.36032 4.57902 3.55109 4.5 3.75 4.5H6.75C6.94891 4.5 7.13968 4.57902 7.28033 4.71967C7.42098 4.86032 7.5 5.05109 7.5 5.25V6.75C7.5 6.94891 7.42098 7.13968 7.28033 7.28033C7.13968 7.42098 6.94891 7.5 6.75 7.5H3.75C3.55109 7.5 3.36032 7.42098 3.21967 7.28033C3.07902 7.13968 3 6.94891 3 6.75V5.25ZM3 9.75C3 9.55109 3.07902 9.36032 3.21967 9.21967C3.36032 9.07902 3.55109 9 3.75 9H11.25C11.4489 9 11.6397 9.07902 11.7803 9.21967C11.921 9.36032 12 9.55109 12 9.75C12 9.94891 11.921 10.1397 11.7803 10.2803C11.6397 10.421 11.4489 10.5 11.25 10.5H3.75C3.55109 10.5 3.36032 10.421 3.21967 10.2803C3.07902 10.1397 3 9.94891 3 9.75ZM3 12.75C3 12.5511 3.07902 12.3603 3.21967 12.2197C3.36032 12.079 3.55109 12 3.75 12H5.25C5.44891 12 5.63968 12.079 5.78033 12.2197C5.92098 12.3603 6 12.5511 6 12.75C6 12.9489 5.92098 13.1397 5.78033 13.2803C5.63968 13.421 5.44891 13.5 5.25 13.5H3.75C3.55109 13.5 3.36032 13.421 3.21967 13.2803C3.07902 13.1397 3 12.9489 3 12.75ZM7.5 12.75C7.5 12.5511 7.57902 12.3603 7.71967 12.2197C7.86032 12.079 8.05109 12 8.25 12H9.75C9.94891 12 10.1397 12.079 10.2803 12.2197C10.421 12.3603 10.5 12.5511 10.5 12.75C10.5 12.9489 10.421 13.1397 10.2803 13.2803C10.1397 13.421 9.94891 13.5 9.75 13.5H8.25C8.05109 13.5 7.86032 13.421 7.71967 13.2803C7.57902 13.1397 7.5 12.9489 7.5 12.75ZM12 12.75C12 12.5511 12.079 12.3603 12.2197 12.2197C12.3603 12.079 12.5511 12 12.75 12H14.25C14.4489 12 14.6397 12.079 14.7803 12.2197C14.921 12.3603 15 12.5511 15 12.75C15 12.9489 14.921 13.1397 14.7803 13.2803C14.6397 13.421 14.4489 13.5 14.25 13.5H12.75C12.5511 13.5 12.3603 13.421 12.2197 13.2803C12.079 13.1397 12 12.9489 12 12.75ZM16.5 12.75C16.5 12.5511 16.579 12.3603 16.7197 12.2197C16.8603 12.079 17.0511 12 17.25 12H18.75C18.9489 12 19.1397 12.079 19.2803 12.2197C19.421 12.3603 19.5 12.5511 19.5 12.75C19.5 12.9489 19.421 13.1397 19.2803 13.2803C19.1397 13.421 18.9489 13.5 18.75 13.5H17.25C17.0511 13.5 16.8603 13.421 16.7197 13.2803C16.579 13.1397 16.5 12.9489 16.5 12.75Z" fill="#14171A"/>
</svg>
