<svg width="31" height="30" viewBox="0 0 31 30" fill="none" xmlns="http://www.w3.org/2000/svg">
<circle cx="8.51033" cy="15.6407" r="1.13289" fill="#263682"/>
<circle cx="13.3761" cy="15.6407" r="1.13289" fill="#263682"/>
<circle cx="10.9434" cy="19.127" r="1.13289" fill="#263682"/>
<circle cx="18.2418" cy="15.6407" r="1.13289" fill="#263682"/>
<circle cx="15.8092" cy="19.127" r="1.13289" fill="#263682"/>
<circle cx="23.1075" cy="15.6407" r="1.13289" fill="#263682"/>
<circle cx="20.6749" cy="19.127" r="1.13289" fill="#263682"/>
<path d="M3.843 22.4229H11.4952C11.9133 22.4229 12.3209 22.5539 12.6607 22.7976L13.3589 23.2982C13.6986 23.5419 14.1062 23.6729 14.5243 23.6729H17.4758C17.8975 23.6729 18.3084 23.5396 18.6498 23.2921L19.3234 22.8037C19.6648 22.5562 20.0757 22.4229 20.4974 22.4229L27.7752 22.4229M13.0241 8.9929V11.8678M7.17946 26.9177H24.4387C26.6322 26.9177 28.3574 25.0433 28.1759 22.8573L27.5488 15.3074C27.3873 13.3633 25.7624 11.8678 23.8117 11.8678H7.80653C5.8558 11.8678 4.23086 13.3633 4.0694 15.3074L3.44232 22.8573C3.26077 25.0433 4.98596 26.9177 7.17946 26.9177ZM8.59168 8.40202H17.4566C18.8373 8.40202 19.9566 7.28273 19.9566 5.90202V5.45508C19.9566 4.07437 18.8373 2.95508 17.4566 2.95508H8.59168C7.21097 2.95508 6.09168 4.07437 6.09168 5.45508V5.90202C6.09168 7.28273 7.21097 8.40202 8.59168 8.40202Z" stroke="#263682" stroke-width="1.5"/>
</svg>
