<svg width="25" height="25" viewBox="0 0 25 25" fill="none" xmlns="http://www.w3.org/2000/svg">
<path fill-rule="evenodd" clip-rule="evenodd" d="M3.50533 2.4975C4.16069 2.16357 4.97119 2.08541 6.32129 2.06712V3.01152C6.32129 3.86398 6.32071 4.45821 6.28291 4.92084C6.24582 5.37472 6.17669 5.63549 6.07605 5.833C5.86034 6.25637 5.51613 6.60057 5.09277 6.81629C4.89525 6.91693 4.63448 6.98606 4.18061 7.02314C3.71798 7.06094 3.12374 7.06152 2.27129 7.06152H1.32688C1.34518 5.71142 1.42334 4.90092 1.75726 4.24556C2.14076 3.49291 2.75268 2.88099 3.50533 2.4975ZM1.32129 13.0615V8.56152H2.27129H2.30339C3.11623 8.56153 3.77185 8.56154 4.30276 8.51816C4.84939 8.4735 5.32953 8.37914 5.77375 8.1528C6.47936 7.79327 7.05304 7.21959 7.41256 6.51399C7.6389 6.06977 7.73326 5.58963 7.77793 5.04299C7.8213 4.51208 7.8213 3.85646 7.82129 3.04362V3.01152V2.06152H16.3213V3.01152V3.04365C16.3213 3.85648 16.3213 4.51209 16.3647 5.04299C16.4093 5.58963 16.5037 6.06977 16.73 6.51399C17.0895 7.21959 17.6632 7.79327 18.3688 8.1528C18.813 8.37914 19.2932 8.4735 19.8398 8.51816C20.3707 8.56154 21.0264 8.56153 21.8392 8.56152H21.8713H22.8213V13.0615H21.8713H21.8392C21.0263 13.0615 20.3707 13.0615 19.8398 13.1049C19.2932 13.1495 18.813 13.2439 18.3688 13.4702C17.6632 13.8298 17.0895 14.4035 16.73 15.1091C16.5037 15.5533 16.4093 16.0334 16.3647 16.5801C16.3213 17.111 16.3213 17.7666 16.3213 18.5794V18.6115V19.5615H7.82129V18.6115V18.5794C7.8213 17.7666 7.8213 17.111 7.77793 16.5801C7.73326 16.0334 7.6389 15.5533 7.41256 15.1091C7.05304 14.4035 6.47936 13.8298 5.77375 13.4702C5.32953 13.2439 4.84939 13.1495 4.30276 13.1049C3.77185 13.0615 3.11624 13.0615 2.30341 13.0615H2.27129H1.32129ZM17.8213 3.01152V2.06712C19.1714 2.08541 19.9819 2.16357 20.6373 2.4975C21.3899 2.88099 22.0018 3.49291 22.3853 4.24556C22.7192 4.90092 22.7974 5.71142 22.8157 7.06152H21.8713C21.0188 7.06152 20.4246 7.06094 19.962 7.02314C19.5081 6.98606 19.2473 6.91693 19.0498 6.81629C18.6264 6.60057 18.2822 6.25637 18.0665 5.833C17.9659 5.63549 17.8968 5.37472 17.8597 4.92084C17.8219 4.45821 17.8213 3.86398 17.8213 3.01152ZM21.8713 14.5615H22.8157C22.7974 15.9116 22.7192 16.7221 22.3853 17.3775C22.0018 18.1301 21.3899 18.7421 20.6373 19.1255C19.9819 19.4595 19.1714 19.5376 17.8213 19.5559V18.6115C17.8213 17.7591 17.8219 17.1648 17.8597 16.7022C17.8968 16.2483 17.9659 15.9876 18.0665 15.79C18.2822 15.3667 18.6264 15.0225 19.0498 14.8068C19.2473 14.7061 19.5081 14.637 19.962 14.5999C20.4246 14.5621 21.0188 14.5615 21.8713 14.5615ZM6.32129 18.6115V19.5559C4.97119 19.5376 4.16069 19.4595 3.50533 19.1255C2.75268 18.7421 2.14076 18.1301 1.75726 17.3775C1.42334 16.7221 1.34518 15.9116 1.32688 14.5615H2.27129C3.12374 14.5615 3.71798 14.5621 4.18061 14.5999C4.63448 14.637 4.89525 14.7061 5.09277 14.8068C5.51613 15.0225 5.86034 15.3667 6.07605 15.79C6.17669 15.9876 6.24582 16.2483 6.28291 16.7022C6.32071 17.1648 6.32129 17.7591 6.32129 18.6115ZM12.0713 9.56201C11.3809 9.56201 10.8213 10.1217 10.8213 10.812C10.8213 11.5024 11.3809 12.062 12.0713 12.062C12.7616 12.062 13.3213 11.5024 13.3213 10.812C13.3213 10.1217 12.7616 9.56201 12.0713 9.56201ZM9.32129 10.812C9.32129 9.29323 10.5525 8.06201 12.0713 8.06201C13.5901 8.06201 14.8213 9.29323 14.8213 10.812C14.8213 12.3308 13.5901 13.562 12.0713 13.562C10.5525 13.562 9.32129 12.3308 9.32129 10.812ZM5.07129 22.0615C4.65708 22.0615 4.32129 22.3973 4.32129 22.8115C4.32129 23.2257 4.65708 23.5615 5.07129 23.5615H19.0713C19.4855 23.5615 19.8213 23.2257 19.8213 22.8115C19.8213 22.3973 19.4855 22.0615 19.0713 22.0615H5.07129Z" fill="#263682"/>
</svg>
