<svg width="24" height="25" viewBox="0 0 24 25" fill="none" xmlns="http://www.w3.org/2000/svg">
<path d="M7 2.56055V2.56055C7 3.95837 7 4.65728 6.77164 5.2086C6.46716 5.94368 5.88313 6.5277 5.14805 6.83219C4.59674 7.06055 3.89782 7.06055 2.5 7.06055V7.06055M17 2.56055V2.56055C17 3.95837 17 4.65728 17.2284 5.2086C17.5328 5.94368 18.1169 6.5277 18.8519 6.83219C19.4033 7.06055 20.1022 7.06055 21.5 7.06055V7.06055M17 17.5605V17.5605C17 16.1627 17 15.4638 17.2284 14.9125C17.5328 14.1774 18.1169 13.5934 18.8519 13.2889C19.4033 13.0605 20.1022 13.0605 21.5 13.0605V13.0605M7 17.5605V17.5605C7 16.1627 7 15.4638 6.77164 14.9125C6.46716 14.1774 5.88313 13.5934 5.14805 13.2889C4.59674 13.0605 3.89782 13.0605 2.5 13.0605V13.0605M5 22.0605H19M14 10.061C14 11.1656 13.1046 12.061 12 12.061C10.8954 12.061 10 11.1656 10 10.061C10 8.95647 10.8954 8.06104 12 8.06104C13.1046 8.06104 14 8.95647 14 10.061ZM22 11.6605V8.46055C22 6.22034 22 5.10023 21.564 4.24458C21.1805 3.49194 20.5686 2.88001 19.816 2.49652C18.9603 2.06055 17.8402 2.06055 15.6 2.06055L8.4 2.06055C6.15979 2.06055 5.03968 2.06055 4.18404 2.49652C3.43139 2.88001 2.81947 3.49194 2.43597 4.24458C2 5.10023 2 6.22034 2 8.46055V11.6605C2 13.9008 2 15.0209 2.43597 15.8765C2.81947 16.6292 3.43139 17.2411 4.18404 17.6246C5.03968 18.0605 6.15979 18.0605 8.4 18.0605H15.6C17.8402 18.0605 18.9603 18.0605 19.816 17.6246C20.5686 17.2411 21.1805 16.6292 21.564 15.8765C22 15.0209 22 13.9008 22 11.6605Z" stroke="#8D99D2" stroke-width="1.5" stroke-linecap="round" stroke-linejoin="round"/>
</svg>
