<svg width="25" height="25" viewBox="0 0 25 25" fill="none" xmlns="http://www.w3.org/2000/svg">
<path d="M12.1221 2.08187C11.856 2.06821 11.723 2.06137 11.6104 2.11371C11.5147 2.15824 11.4287 2.23992 11.3793 2.33326C11.3213 2.44296 11.3213 2.58248 11.3213 2.86152V8.76152C11.3213 10.4417 11.3213 11.2818 11.6483 11.9235C11.9359 12.488 12.3948 12.9469 12.9593 13.2345C13.6011 13.5615 14.4411 13.5615 16.1213 13.5615H22.0213C22.3004 13.5615 22.4399 13.5615 22.5496 13.5036C22.6429 13.4542 22.7245 13.3685 22.7691 13.2728C22.8215 13.1604 22.8148 13.0271 22.8015 12.7605C22.4772 6.28065 18.1976 2.39393 12.1221 2.08187Z" fill="#263682"/>
<path d="M9.82129 3.26963C9.82129 2.963 9.82129 2.80968 9.76735 2.70317C9.69543 2.56116 9.56018 2.46188 9.40315 2.43581C9.28537 2.41627 9.1391 2.46221 8.84655 2.55409C4.48584 3.92371 1.32129 7.99723 1.32129 12.8118C1.32129 18.7489 6.13423 23.5618 12.0713 23.5618C16.8859 23.5618 20.9594 20.3973 22.329 16.0366C22.4209 15.744 22.4668 15.5977 22.4473 15.48C22.4212 15.3229 22.322 15.1877 22.1799 15.1158C22.0734 15.0618 21.9201 15.0618 21.6135 15.0618H16.2213C13.9811 15.0618 12.861 15.0618 12.0053 14.6259C11.2527 14.2424 10.6408 13.6304 10.2573 12.8778C9.82129 12.0221 9.82129 10.902 9.82129 8.66183V3.26963Z" fill="#263682"/>
</svg>
