<svg width="17" height="17" viewBox="0 0 17 17" fill="none" xmlns="http://www.w3.org/2000/svg">
<g id="Check-Badge_Filled_24px">
<path id="Vector" d="M9.86948 6.47831L7.86208 8.48687L7.25176 7.87527L7.25078 7.87429C6.86086 7.48571 6.22968 7.48417 5.83816 7.87302L5.83695 7.87423C5.44613 8.26506 5.44699 8.89737 5.83507 9.28812L5.83601 9.28906L7.153 10.6081C7.15323 10.6083 7.15347 10.6086 7.1537 10.6088C7.34153 10.7976 7.59656 10.9024 7.86114 10.9024C8.12636 10.9024 8.38089 10.7971 8.56869 10.6093L8.56878 10.6092L11.284 7.89267C11.2841 7.89264 11.2841 7.89261 11.2841 7.89258C11.6746 7.50198 11.6746 6.86878 11.284 6.47821C10.8934 6.08761 10.2602 6.08761 9.86959 6.47821L9.86948 6.47831ZM13.9902 7.578L13.9913 7.57901C14.4987 8.08361 14.5017 8.90863 13.9971 9.4167C13.9969 9.41688 13.9968 9.41706 13.9966 9.41724L13.5236 9.89023L13.5225 9.89134C13.2178 10.198 13.0491 10.6081 13.0491 11.0404L13.0491 11.7081C13.0491 11.7083 13.0491 11.7084 13.0491 11.7085C13.0475 12.4243 12.4636 13.0064 11.7498 13.0064H11.0791C10.6503 13.0064 10.2327 13.1788 9.92881 13.4817L9.9285 13.482L9.46117 13.9486L9.45988 13.9499C9.21592 14.1953 8.89229 14.3314 8.54458 14.3331H8.53781C8.19194 14.3331 7.86946 14.2001 7.62456 13.9568C7.62447 13.9567 7.62439 13.9566 7.62431 13.9565L7.14957 13.4831L7.1495 13.483C6.84296 13.1774 6.43269 13.0094 6.00028 13.0084H5.99917H5.33317C4.61755 13.0084 4.0345 12.4252 4.0345 11.7091V11.0391C4.0345 10.6051 3.86447 10.1956 3.55928 9.88945L3.55923 9.8894L3.09323 9.42207L3.09324 9.42206L3.09103 9.41988C2.58925 8.92286 2.58035 8.10614 3.07258 7.59574C3.0808 7.58803 3.08971 7.57915 3.09899 7.56905L3.55739 7.10998C3.55746 7.10992 3.55752 7.10985 3.55759 7.10978C3.55761 7.10977 3.55763 7.10975 3.55765 7.10973C3.86458 6.80266 4.03317 6.39199 4.03317 5.9591V5.29892L4.03351 5.29326L4.03421 5.28213L4.03442 5.27097C4.04741 4.56539 4.62585 3.995 5.33335 3.99443C5.3334 3.99443 5.33346 3.99443 5.33351 3.99443L6.0005 3.99443C6.43379 3.99443 6.84386 3.82559 7.15161 3.51975L7.15323 3.51813L7.61787 3.05213L7.6182 3.05181C8.12251 2.54509 8.94733 2.54204 9.45651 3.04624C9.4567 3.04643 9.4569 3.04663 9.4571 3.04682L9.92958 3.51865C10.2363 3.82534 10.6472 3.99376 11.0805 3.99376H11.7485C12.4644 3.99376 13.0485 4.57736 13.0485 5.29376V5.96043C13.0485 6.39276 13.2171 6.80389 13.5237 7.11143L13.5242 7.11197L13.9902 7.578Z" fill="white" stroke="white"/>
</g>
</svg>
