<svg width="16" height="16" viewBox="0 0 16 16" fill="none" xmlns="http://www.w3.org/2000/svg">
<path d="M5.88402 15.424C5.6677 15.4252 5.45392 15.3766 5.25874 15.2818C5.06355 15.187 4.89202 15.0485 4.75704 14.8767L0.80091 9.95094C0.613773 9.71795 0.494472 9.43642 0.456487 9.13814C0.418501 8.83987 0.463344 8.53674 0.585949 8.26301C0.708555 7.98928 0.904036 7.75585 1.15031 7.5891C1.39658 7.42236 1.68382 7.32893 1.97958 7.31939C1.99657 7.31886 2.01366 7.31858 2.03069 7.31858C2.42546 7.31836 2.80606 7.46813 3.09778 7.73848L5.78102 10.2203C5.85777 10.2913 5.9578 10.3306 6.06157 10.3306C6.06908 10.3306 6.07658 10.3304 6.08409 10.33C6.13924 10.327 6.19325 10.3128 6.24298 10.2884C6.29271 10.264 6.33717 10.2298 6.37378 10.1877L14.6013 0.73943C14.6049 0.735263 14.6085 0.731026 14.6119 0.726718C14.652 0.676785 14.7019 0.635828 14.7583 0.606423C14.8148 0.577019 14.8766 0.559803 14.9399 0.555858C14.9509 0.555117 14.9623 0.554693 14.9737 0.554693C15.0915 0.554107 15.2049 0.599509 15.2907 0.681523C15.4479 0.829432 15.4991 1.08143 15.4028 1.23185C15.4012 1.23439 7.18147 14.6892 7.18147 14.6892C6.89876 15.128 6.45576 15.395 5.96559 15.4217C5.93842 15.4232 5.91105 15.424 5.88416 15.424H5.88402Z" fill="#275AFF"/>
<path d="M14.9737 0.98023C14.98 0.979955 14.9862 0.981076 14.992 0.983515C14.9979 0.985955 15.0031 0.989653 15.0073 0.994354C15.0191 1.00623 15.0276 1.02107 15.0318 1.03736L6.82985 14.463C6.61762 14.7901 6.30288 14.9809 5.94288 15.0006C5.92315 15.0017 5.90324 15.0022 5.88365 15.0022C5.72925 15.0029 5.5767 14.968 5.43746 14.9002C5.29821 14.8323 5.17589 14.7334 5.07967 14.6106L1.12354 9.68502C0.985536 9.51326 0.897544 9.30569 0.869511 9.08576C0.841478 8.86584 0.874522 8.64233 0.964908 8.44049C1.05529 8.23866 1.19942 8.06654 1.381 7.94358C1.56258 7.82063 1.77437 7.75175 1.99245 7.74472C2.00516 7.74432 2.0179 7.74412 2.03066 7.74412C2.32167 7.74397 2.60222 7.85439 2.81723 8.05371L5.50047 10.5355C5.65397 10.6774 5.85404 10.7561 6.06158 10.7562C6.07656 10.7562 6.0916 10.7557 6.10674 10.7549C6.21704 10.7488 6.32505 10.7206 6.42451 10.6717C6.52396 10.6229 6.61288 10.5544 6.68609 10.4704L14.9134 1.02207C14.9207 1.01374 14.9278 1.00526 14.9347 0.996649C14.9386 0.991488 14.9436 0.98733 14.9494 0.984514C14.9552 0.981698 14.9615 0.980303 14.9679 0.980442C14.9699 0.980442 14.9718 0.98023 14.9738 0.98023M14.9738 0.132815C14.9529 0.132815 14.9321 0.133521 14.9113 0.135004C14.7911 0.142846 14.6739 0.175797 14.5669 0.231795C14.4599 0.287794 14.3655 0.365634 14.2894 0.460447L6.06148 9.90863L3.37824 7.42683C3.01004 7.08503 2.52918 6.89591 2.03052 6.89678C2.00915 6.89678 1.98772 6.89712 1.96625 6.8978C1.59278 6.90984 1.23006 7.02781 0.919083 7.23837C0.608104 7.44892 0.361258 7.74368 0.206434 8.08933C0.0516096 8.43499 -0.00502123 8.81776 0.0429395 9.1944C0.0909003 9.57105 0.241541 9.92656 0.477842 10.2208L4.43401 15.1464C4.60847 15.3664 4.82932 15.5438 5.08027 15.6655C5.33121 15.7872 5.60585 15.8501 5.88389 15.8495C5.91831 15.8495 5.9529 15.8485 5.98766 15.8466C6.6137 15.8125 7.17658 15.4748 7.53301 14.9186L15.752 1.46492C15.9593 1.14145 15.881 0.661602 15.5738 0.372457C15.4109 0.217945 15.1963 0.132259 14.9735 0.132815H14.9738Z" fill="#275AFF"/>
</svg>
