<svg width="25" height="25" viewBox="0 0 25 25" fill="none" xmlns="http://www.w3.org/2000/svg">
<path d="M3.4585 3.63232L6.28427 6.4581M21.4585 21.6323L18.6327 18.8065M18.6327 18.8065C17.0877 19.8806 15.0465 20.6323 12.4585 20.6323C5.4585 20.6323 2.4585 15.1323 2.4585 12.6323C2.4585 11.0566 3.65029 8.28908 6.28427 6.4581M18.6327 18.8065L14.5798 14.7536M6.28427 6.4581L10.3371 10.511M10.3371 10.511C9.79421 11.0539 9.4584 11.8039 9.4584 12.6323C9.4584 14.2892 10.8016 15.6323 12.4584 15.6323C13.2869 15.6323 14.0369 15.2965 14.5798 14.7536M10.3371 10.511L14.5798 14.7536M20.8782 16.6323C21.0016 16.4664 21.1175 16.2995 21.2259 16.1323C22.0636 14.8414 22.4585 13.5394 22.4585 12.6323C22.4585 10.1323 19.4585 4.63232 12.4585 4.63232C11.3615 4.63232 10.3628 4.7674 9.4584 5.00483C9.28844 5.04945 9.12182 5.09769 8.9585 5.14932" stroke="#7E8AC1" stroke-width="1.5" stroke-linecap="round"/>
</svg>
