<svg width="31" height="31" viewBox="0 0 31 31" fill="none" xmlns="http://www.w3.org/2000/svg">
<path d="M13.7643 21.3563H15.5766C16.8706 21.3563 17.9153 20.4259 17.9153 19.1318C17.9153 18.0567 17.1881 17.1968 16.1457 16.9353C14.6522 16.5607 13.1636 16.2664 11.6055 16.304C9.13782 16.3649 7.41077 17.7404 5.45508 19.0503" stroke="#263682" stroke-width="1.5" stroke-linecap="round" stroke-linejoin="round"/>
<path d="M13.7668 21.399C14.6826 21.2653 15.6154 21.4003 16.5422 21.3784C18.6888 21.3273 20.3709 19.5126 22.0043 18.2819C22.8398 17.653 24.0087 17.737 24.7469 18.4776C25.5654 19.301 25.5654 20.634 24.7469 21.4574C22.9822 23.2283 21.4229 24.8726 19.0306 25.8018C15.7116 27.0934 12.632 26.467 9.27039 25.8018C7.97024 25.5451 6.77225 25.5294 5.45508 25.5294" stroke="#263682" stroke-width="1.5" stroke-linecap="round" stroke-linejoin="round"/>
<path d="M19.7282 6.8961C19.6163 6.21987 19.3086 5.56918 18.7856 5.04742C17.4587 3.72052 15.3085 3.72052 13.9815 5.04742C12.6546 6.37433 12.6546 8.52585 13.9815 9.85275C14.8073 10.6786 15.9518 10.9887 17.0197 10.7868" stroke="#263682" stroke-width="1.5" stroke-linecap="round" stroke-linejoin="round"/>
<path fill-rule="evenodd" clip-rule="evenodd" d="M23.7639 10.2336C23.7639 12.1102 22.2424 13.6305 20.3657 13.6305C18.4902 13.6305 16.9688 12.1102 16.9688 10.2336C16.9688 8.35695 18.4902 6.83545 20.3657 6.83545C22.2424 6.83545 23.7639 8.35695 23.7639 10.2336Z" stroke="#263682" stroke-width="1.5" stroke-linecap="round" stroke-linejoin="round"/>
</svg>
