<svg width="31" height="30" viewBox="0 0 31 30" fill="none" xmlns="http://www.w3.org/2000/svg">
<g id="JOBR-Coin_Outline">
<path id="Vector" d="M17.8708 9.59961C17.8708 10.4238 17.6292 11.1912 17.3308 11.8307C16.805 12.9534 16.8619 14.2608 17.4729 15.3408C17.7856 15.9092 18.0414 16.5487 18.0414 17.1882C18.0414 18.9077 17.1034 20.4709 14.915 20.4709C12.7265 20.4709 11.5754 18.9219 11.5754 17.1882" stroke="#172461" stroke-width="1.5" stroke-miterlimit="10"/>
<path id="Vector_2" d="M15.7122 9.60058V0.150391" stroke="#172461" stroke-width="1.5" stroke-miterlimit="10"/>
<path id="Vector_3" d="M15.3862 20.457V29.8504" stroke="#172461" stroke-width="1.5" stroke-miterlimit="10"/>
<path id="Vector_4" d="M15.4999 25.7854C21.6452 25.7854 26.6269 20.8036 26.6269 14.6583C26.6269 8.51301 21.6452 3.53125 15.4999 3.53125C9.35456 3.53125 4.3728 8.51301 4.3728 14.6583C4.3728 20.8036 9.35456 25.7854 15.4999 25.7854Z" stroke="#172461" stroke-width="1.5" stroke-miterlimit="10"/>
</g>
</svg>
