<svg width="25" height="25" viewBox="0 0 25 25" fill="none" xmlns="http://www.w3.org/2000/svg">
<path d="M7.9585 8.36133H15.9585M7.9585 12.3613H11.9585M19.675 21.3912V21.3912C20.5549 21.9191 20.9948 22.1831 21.3532 22.2083C21.9545 22.2507 22.5227 21.9289 22.7958 21.3916C22.9585 21.0713 22.9585 20.5582 22.9585 19.5321V10.3613C22.9585 7.56107 22.9585 6.16093 22.4135 5.09138C21.9342 4.15057 21.1693 3.38566 20.2284 2.9063C19.1589 2.36133 17.7588 2.36133 14.9585 2.36133H10.9585C8.15823 2.36133 6.7581 2.36133 5.68854 2.9063C4.74773 3.38566 3.98283 4.15057 3.50346 5.09138C2.9585 6.16093 2.9585 7.56107 2.9585 10.3613V12.3613C2.9585 15.1616 2.9585 16.5617 3.50346 17.6313C3.98283 18.5721 4.74773 19.337 5.68854 19.8164C6.7581 20.3613 8.15823 20.3613 10.9585 20.3613H15.9568C16.5688 20.3613 16.8748 20.3613 17.1739 20.3975C17.6707 20.4576 18.1557 20.5919 18.6127 20.796C18.8878 20.9189 19.1502 21.0763 19.675 21.3912Z" stroke="#7E8AC1" stroke-width="1.5" stroke-linecap="round" stroke-linejoin="round"/>
</svg>
