<svg width="25" height="25" viewBox="0 0 25 25" fill="none" xmlns="http://www.w3.org/2000/svg">
<path d="M7.18213 8.77637H15.1821M7.18213 12.7764H11.1821M18.8986 21.8063V21.8063C19.7785 22.3342 20.2184 22.5982 20.5768 22.6234C21.1781 22.6657 21.7463 22.344 22.0194 21.8066C22.1821 21.4863 22.1821 20.9733 22.1821 19.9471V10.7764C22.1821 7.9761 22.1821 6.57597 21.6372 5.50641C21.1578 4.5656 20.3929 3.8007 19.4521 3.32133C18.3825 2.77637 16.9824 2.77637 14.1821 2.77637H10.1821C7.38187 2.77637 5.98174 2.77637 4.91218 3.32133C3.97137 3.8007 3.20646 4.5656 2.7271 5.50641C2.18213 6.57597 2.18213 7.9761 2.18213 10.7764V12.7764C2.18213 15.5766 2.18213 16.9768 2.7271 18.0463C3.20646 18.9871 3.97137 19.752 4.91218 20.2314C5.98174 20.7764 7.38187 20.7764 10.1821 20.7764H15.1804C15.7924 20.7764 16.0984 20.7764 16.3975 20.8125C16.8943 20.8726 17.3794 21.007 17.8363 21.2111C18.1114 21.3339 18.3738 21.4914 18.8986 21.8063Z" stroke="#7E8AC1" stroke-width="1.5" stroke-linecap="round" stroke-linejoin="round"/>
</svg>
