<svg width="31" height="30" viewBox="0 0 31 30" fill="none" xmlns="http://www.w3.org/2000/svg">
<g clip-path="url(#clip0_3147_91334)">
<path d="M30.5415 6.92188H0.541504V9.2293H30.5415V6.92188Z" fill="#F5F5F5"/>
<path d="M28.9747 2.30859H2.10779C1.53896 2.97586 1.10121 3.75826 0.834961 4.61631H30.2475C29.9812 3.75826 29.5435 2.97586 28.9747 2.30859Z" fill="#F5F5F5"/>
<path d="M30.5415 11.5391H0.541504V13.8465H30.5415V11.5391Z" fill="#F5F5F5"/>
<path d="M30.5415 16.1543H0.541504V18.4617H30.5415V16.1543Z" fill="#F5F5F5"/>
<path d="M30.5415 20.7695H0.541504V23.077H30.5415V20.7695Z" fill="#F5F5F5"/>
<path d="M30.2475 25.3848H0.834961C1.10115 26.2428 1.53896 27.0252 2.10779 27.6924H28.9746C29.5435 27.0252 29.9812 26.2428 30.2475 25.3848Z" fill="#F5F5F5"/>
<path d="M23.9793 0H7.10434C5.10348 0 3.31209 0.895723 2.1084 2.30771H28.9752C27.7716 0.895723 25.9802 0 23.9793 0Z" fill="#FF4B55"/>
<path d="M30.5415 9.23047H0.541504V11.5379H30.5415V9.23047Z" fill="#FF4B55"/>
<path d="M30.5415 6.56035C30.5415 5.88236 30.4387 5.22846 30.2478 4.61328H0.835234C0.644336 5.22846 0.541504 5.88236 0.541504 6.56035V6.92094H30.5415V6.56035Z" fill="#FF4B55"/>
<path d="M30.5415 13.8457H0.541504V16.1531H30.5415V13.8457Z" fill="#FF4B55"/>
<path d="M30.5415 23.4368V23.0762H0.541504V23.4368C0.541504 24.1147 0.644336 24.7687 0.835234 25.3839H30.2478C30.4387 24.7687 30.5415 24.1147 30.5415 23.4368Z" fill="#FF4B55"/>
<path d="M28.9753 27.6934H2.1084C3.31209 29.1054 5.10348 30.0011 7.10434 30.0011H23.9793C25.9802 30.0011 27.7716 29.1054 28.9753 27.6934Z" fill="#FF4B55"/>
<path d="M30.5415 18.4609H0.541504V20.7684H30.5415V18.4609Z" fill="#FF4B55"/>
<path d="M7.104 0.625H16.0703V15.5288H1.1665V6.5625C1.1665 3.2833 3.82481 0.625 7.104 0.625Z" fill="#41479B" stroke="#263682" stroke-width="1.25"/>
<path d="M2.28436 2.52219C2.26901 2.57076 2.32426 2.61096 2.36575 2.58131L2.68585 2.35256L3.00594 2.58131C3.04737 2.61096 3.10268 2.57076 3.08733 2.52219L2.96868 2.14707L3.2852 1.91334C3.32616 1.88305 3.30507 1.81807 3.25409 1.81766L2.86069 1.81461L2.79354 1.61328C2.62491 1.76029 2.46407 1.91592 2.31132 2.07922L2.40313 2.14707L2.28436 2.52219Z" fill="#F5F5F5"/>
<path d="M2.7363 4.55579L2.86076 4.92903L3.25415 4.93208C3.30507 4.93249 3.32622 4.99747 3.28527 5.02776L2.96874 5.26149L3.0874 5.63661C3.10275 5.68518 3.04749 5.72532 3.00601 5.69573L2.68591 5.46692L2.36581 5.69573C2.32439 5.72538 2.26908 5.68518 2.28443 5.63661L2.40308 5.26149L2.08656 5.02776C2.0456 4.99752 2.06669 4.93249 2.11761 4.93208L2.51101 4.92903L2.63546 4.55579C2.65181 4.50745 2.72019 4.50745 2.7363 4.55579Z" fill="#F5F5F5"/>
<path d="M2.7363 8.00891L2.86076 8.38215L3.25415 8.3852C3.30507 8.38561 3.32622 8.45059 3.28527 8.48088L2.96874 8.71461L3.0874 9.08973C3.10275 9.13831 3.04749 9.17844 3.00601 9.14885L2.68591 8.9201L2.36581 9.14885C2.32439 9.17844 2.26908 9.13831 2.28443 9.08973L2.40308 8.71461L2.08656 8.48088C2.0456 8.45065 2.06669 8.38561 2.11761 8.3852L2.51101 8.38215L2.63546 8.00891C2.65181 7.96057 2.72019 7.96057 2.7363 8.00891Z" fill="#F5F5F5"/>
<path d="M2.7363 11.1808L2.86076 11.554L3.25415 11.5571C3.30507 11.5575 3.32622 11.6225 3.28527 11.6528L2.96874 11.8865L3.0874 12.2616C3.10275 12.3102 3.04749 12.3503 3.00601 12.3207L2.68591 12.0919L2.36581 12.3207C2.32439 12.3503 2.26908 12.3102 2.28443 12.2616L2.40308 11.8865L2.08656 11.6528C2.0456 11.6225 2.06669 11.5575 2.11761 11.5571L2.51101 11.554L2.63546 11.1808C2.65181 11.1324 2.72019 11.1324 2.7363 11.1808Z" fill="#F5F5F5"/>
<path d="M2.7363 14.0695L2.86076 14.4427L3.25415 14.4457C3.30507 14.4462 3.32622 14.5111 3.28527 14.5414L2.96874 14.7752L3.0874 15.1503C3.10275 15.1989 3.04749 15.239 3.00601 15.2094L2.68591 14.9806L2.36581 15.2094C2.32439 15.239 2.26908 15.1989 2.28443 15.1503L2.40308 14.7752L2.08656 14.5414C2.0456 14.5112 2.06669 14.4462 2.11761 14.4457L2.51101 14.4427L2.63546 14.0695C2.65181 14.0211 2.72019 14.0211 2.7363 14.0695Z" fill="#F5F5F5"/>
<path d="M4.25175 2.91711L4.3762 3.29036L4.7696 3.2934C4.82052 3.29381 4.84167 3.35879 4.80072 3.38903L4.48419 3.62276L4.60285 3.99788C4.6182 4.04645 4.56294 4.08665 4.52146 4.057L4.20148 3.82819L3.88138 4.057C3.83995 4.08665 3.78464 4.04645 3.79999 3.99788L3.91865 3.62276L3.60218 3.38903C3.56122 3.35879 3.58232 3.29375 3.63324 3.2934L4.02663 3.29036L4.15109 2.91711C4.16726 2.86877 4.23564 2.86877 4.25175 2.91711Z" fill="#F5F5F5"/>
<path d="M4.25187 6.36829L4.37632 6.74153L4.76972 6.74458C4.82064 6.74499 4.84179 6.80997 4.80083 6.84026L4.48431 7.07399L4.60296 7.44911C4.61831 7.49768 4.56306 7.53788 4.52158 7.50823L4.20148 7.27942L3.88138 7.50823C3.83995 7.53788 3.78464 7.49768 3.79999 7.44911L3.91865 7.07399L3.60218 6.84026C3.56122 6.81002 3.58232 6.74499 3.63324 6.74458L4.02663 6.74153L4.15109 6.36829C4.16738 6.31995 4.23576 6.31995 4.25187 6.36829Z" fill="#F5F5F5"/>
<path d="M4.25187 9.64949L4.37632 10.0227L4.76972 10.0258C4.82064 10.0262 4.84179 10.0912 4.80083 10.1215L4.48431 10.3552L4.60296 10.7303C4.61831 10.7789 4.56306 10.819 4.52158 10.7894L4.20148 10.5606L3.88138 10.7894C3.83995 10.8191 3.78464 10.7789 3.79999 10.7303L3.91865 10.3552L3.60218 10.1215C3.56122 10.0912 3.58232 10.0262 3.63324 10.0258L4.02663 10.0227L4.15109 9.64949C4.16738 9.60121 4.23576 9.60121 4.25187 9.64949Z" fill="#F5F5F5"/>
<path d="M4.25187 12.5968L4.37632 12.97L4.76972 12.9731C4.82064 12.9735 4.84179 13.0385 4.80083 13.0688L4.48431 13.3025L4.60296 13.6776C4.61831 13.7262 4.56306 13.7664 4.52158 13.7367L4.20148 13.508L3.88138 13.7367C3.83995 13.7664 3.78464 13.7262 3.79999 13.6776L3.91865 13.3025L3.60218 13.0688C3.56122 13.0385 3.58232 12.9735 3.63324 12.9731L4.02663 12.97L4.15109 12.5968C4.16738 12.5485 4.23576 12.5485 4.25187 12.5968Z" fill="#F5F5F5"/>
<path d="M5.76701 1.44246L5.89146 1.8157L6.28486 1.81875C6.33577 1.81916 6.35693 1.88414 6.31597 1.91438L5.99945 2.14811L6.1181 2.52322C6.13345 2.5718 6.0782 2.61193 6.03671 2.58234L5.71661 2.35354L5.39652 2.58234C5.35509 2.61199 5.29978 2.5718 5.31513 2.52322L5.43378 2.14811L5.11732 1.91438C5.07636 1.88414 5.09745 1.8191 5.14837 1.81875L5.54177 1.8157L5.66622 1.44246C5.68251 1.39418 5.75089 1.39418 5.76701 1.44246Z" fill="#F5F5F5"/>
<path d="M5.76701 4.55579L5.89146 4.92903L6.28486 4.93208C6.33577 4.93249 6.35693 4.99747 6.31597 5.02776L5.99945 5.26149L6.1181 5.63661C6.13345 5.68518 6.0782 5.72532 6.03671 5.69573L5.71661 5.46692L5.39652 5.69573C5.35509 5.72538 5.29978 5.68518 5.31513 5.63661L5.43378 5.26149L5.11732 5.02776C5.07636 4.99752 5.09745 4.93249 5.14837 4.93208L5.54177 4.92903L5.66622 4.55579C5.68251 4.50745 5.75089 4.50745 5.76701 4.55579Z" fill="#F5F5F5"/>
<path d="M5.76701 8.00891L5.89146 8.38215L6.28486 8.3852C6.33577 8.38561 6.35693 8.45059 6.31597 8.48088L5.99945 8.71461L6.1181 9.08973C6.13345 9.13831 6.0782 9.17844 6.03671 9.14885L5.71661 8.9201L5.39652 9.14885C5.35509 9.17844 5.29978 9.13831 5.31513 9.08973L5.43378 8.71461L5.11732 8.48088C5.07636 8.45065 5.09745 8.38561 5.14837 8.3852L5.54177 8.38215L5.66622 8.00891C5.68251 7.96057 5.75089 7.96057 5.76701 8.00891Z" fill="#F5F5F5"/>
<path d="M5.76701 11.1808L5.89146 11.554L6.28486 11.5571C6.33577 11.5575 6.35693 11.6225 6.31597 11.6528L5.99945 11.8865L6.1181 12.2616C6.13345 12.3102 6.0782 12.3503 6.03671 12.3207L5.71661 12.0919L5.39652 12.3207C5.35509 12.3503 5.29978 12.3102 5.31513 12.2616L5.43378 11.8865L5.11732 11.6528C5.07636 11.6225 5.09745 11.5575 5.14837 11.5571L5.54177 11.554L5.66622 11.1808C5.68251 11.1324 5.75089 11.1324 5.76701 11.1808Z" fill="#F5F5F5"/>
<path d="M5.76701 14.0695L5.89146 14.4427L6.28486 14.4457C6.33577 14.4462 6.35693 14.5111 6.31597 14.5414L5.99945 14.7752L6.1181 15.1503C6.13345 15.1989 6.0782 15.239 6.03671 15.2094L5.71661 14.9806L5.39652 15.2094C5.35509 15.239 5.29978 15.1989 5.31513 15.1503L5.43378 14.7752L5.11732 14.5414C5.07636 14.5112 5.09745 14.4462 5.14837 14.4457L5.54177 14.4427L5.66622 14.0695C5.68251 14.0211 5.75089 14.0211 5.76701 14.0695Z" fill="#F5F5F5"/>
<path d="M7.28269 2.91711L7.40714 3.29036L7.80054 3.2934C7.85146 3.29381 7.87261 3.35879 7.83159 3.38903L7.51513 3.62276L7.63378 3.99788C7.64913 4.04645 7.59388 4.08665 7.55239 4.057L7.2323 3.82819L6.9122 4.057C6.87077 4.08665 6.81546 4.04645 6.83081 3.99788L6.94946 3.62276L6.63294 3.38903C6.59198 3.35879 6.61308 3.29375 6.66405 3.2934L7.05745 3.29036L7.1819 2.91711C7.19825 2.86877 7.26657 2.86877 7.28269 2.91711Z" fill="#F5F5F5"/>
<path d="M7.28269 6.36829L7.40714 6.74153L7.80054 6.74458C7.85146 6.74499 7.87261 6.80997 7.83159 6.84026L7.51513 7.07399L7.63378 7.44911C7.64913 7.49768 7.59388 7.53788 7.55239 7.50823L7.2323 7.27942L6.9122 7.50823C6.87077 7.53788 6.81546 7.49768 6.83081 7.44911L6.94946 7.07399L6.63294 6.84026C6.59198 6.81002 6.61308 6.74499 6.66405 6.74458L7.05745 6.74153L7.1819 6.36829C7.19825 6.31995 7.26657 6.31995 7.28269 6.36829Z" fill="#F5F5F5"/>
<path d="M7.28269 9.64949L7.40714 10.0227L7.80054 10.0258C7.85146 10.0262 7.87261 10.0912 7.83159 10.1215L7.51513 10.3552L7.63378 10.7303C7.64913 10.7789 7.59388 10.819 7.55239 10.7894L7.2323 10.5606L6.9122 10.7894C6.87077 10.8191 6.81546 10.7789 6.83081 10.7303L6.94946 10.3552L6.63294 10.1215C6.59198 10.0912 6.61308 10.0262 6.66405 10.0258L7.05745 10.0227L7.1819 9.64949C7.19825 9.60121 7.26657 9.60121 7.28269 9.64949Z" fill="#F5F5F5"/>
<path d="M7.28269 12.5968L7.40714 12.97L7.80054 12.9731C7.85146 12.9735 7.87261 13.0385 7.83159 13.0688L7.51513 13.3025L7.63378 13.6776C7.64913 13.7262 7.59388 13.7664 7.55239 13.7367L7.2323 13.508L6.9122 13.7367C6.87077 13.7664 6.81546 13.7262 6.83081 13.6776L6.94946 13.3025L6.63294 13.0688C6.59198 13.0385 6.61308 12.9735 6.66405 12.9731L7.05745 12.97L7.1819 12.5968C7.19825 12.5485 7.26657 12.5485 7.28269 12.5968Z" fill="#F5F5F5"/>
<path d="M8.79776 1.44246L8.92222 1.8157L9.31562 1.81875C9.36653 1.81916 9.38769 1.88414 9.34667 1.91438L9.03021 2.14811L9.14886 2.52322C9.16421 2.5718 9.10896 2.61193 9.06747 2.58234L8.74737 2.35354L8.42728 2.58234C8.38585 2.61199 8.33054 2.5718 8.34589 2.52322L8.46454 2.14811L8.14808 1.91438C8.10712 1.88414 8.12821 1.8191 8.17919 1.81875L8.57259 1.8157L8.69704 1.44246C8.71333 1.39418 8.78165 1.39418 8.79776 1.44246Z" fill="#F5F5F5"/>
<path d="M8.79819 4.55579L8.92265 4.92904L9.31605 4.93208C9.36696 4.93249 9.38812 4.99747 9.3471 5.02777L9.03063 5.2615L9.14935 5.63656C9.1647 5.68513 9.10944 5.72527 9.06796 5.69568L8.74786 5.46687L8.42776 5.69568C8.38634 5.72532 8.33103 5.68513 8.34638 5.63656L8.46503 5.26144L8.14857 5.02771C8.10761 4.99747 8.1287 4.93243 8.17968 4.93202L8.57308 4.92898L8.69753 4.55573C8.71376 4.50745 8.78208 4.50745 8.79819 4.55579Z" fill="#F5F5F5"/>
<path d="M8.79776 8.00891L8.92222 8.38215L9.31562 8.3852C9.36653 8.38561 9.38769 8.45059 9.34667 8.48088L9.03021 8.71461L9.14886 9.08973C9.16421 9.13831 9.10896 9.17844 9.06747 9.14885L8.74737 8.9201L8.42728 9.14885C8.38585 9.17844 8.33054 9.13831 8.34589 9.08973L8.46454 8.71461L8.14808 8.48088C8.10712 8.45065 8.12821 8.38561 8.17919 8.3852L8.57259 8.38215L8.69704 8.00891C8.71333 7.96057 8.78165 7.96057 8.79776 8.00891Z" fill="#F5F5F5"/>
<path d="M8.79776 11.1808L8.92222 11.554L9.31562 11.5571C9.36653 11.5575 9.38769 11.6225 9.34667 11.6528L9.03021 11.8865L9.14886 12.2616C9.16421 12.3102 9.10896 12.3503 9.06747 12.3207L8.74737 12.0919L8.42728 12.3207C8.38585 12.3503 8.33054 12.3102 8.34589 12.2616L8.46454 11.8865L8.14808 11.6528C8.10712 11.6225 8.12821 11.5575 8.17919 11.5571L8.57259 11.554L8.69704 11.1808C8.71333 11.1324 8.78165 11.1324 8.79776 11.1808Z" fill="#F5F5F5"/>
<path d="M8.79776 14.0695L8.92222 14.4427L9.31562 14.4457C9.36653 14.4462 9.38769 14.5111 9.34667 14.5414L9.03021 14.7752L9.14886 15.1503C9.16421 15.1989 9.10896 15.239 9.06747 15.2094L8.74737 14.9806L8.42728 15.2094C8.38585 15.239 8.33054 15.1989 8.34589 15.1503L8.46454 14.7752L8.14808 14.5414C8.10712 14.5112 8.12821 14.4462 8.17919 14.4457L8.57259 14.4427L8.69704 14.0695C8.71333 14.0211 8.78165 14.0211 8.79776 14.0695Z" fill="#F5F5F5"/>
<path d="M10.313 2.91711L10.4374 3.29036L10.8308 3.2934C10.8817 3.29381 10.9029 3.35879 10.8619 3.38903L10.5453 3.62276L10.664 3.99788C10.6793 4.04645 10.624 4.08665 10.5826 4.057L10.2625 3.82819L9.94242 4.057C9.90099 4.08665 9.84568 4.04645 9.86103 3.99788L9.97968 3.62276L9.66322 3.38903C9.62226 3.35879 9.64335 3.29375 9.69427 3.2934L10.0877 3.29036L10.2121 2.91711C10.2285 2.86877 10.2968 2.86877 10.313 2.91711Z" fill="#F5F5F5"/>
<path d="M10.313 6.36829L10.4374 6.74153L10.8308 6.74458C10.8817 6.74499 10.9029 6.80997 10.8619 6.84026L10.5453 7.07399L10.664 7.44911C10.6793 7.49768 10.624 7.53788 10.5826 7.50823L10.2625 7.27942L9.94242 7.50823C9.90099 7.53788 9.84568 7.49768 9.86103 7.44911L9.97968 7.07399L9.66322 6.84026C9.62226 6.81002 9.64335 6.74499 9.69427 6.74458L10.0877 6.74153L10.2121 6.36829C10.2285 6.31995 10.2968 6.31995 10.313 6.36829Z" fill="#F5F5F5"/>
<path d="M10.313 9.64949L10.4374 10.0227L10.8308 10.0258C10.8817 10.0262 10.9029 10.0912 10.8619 10.1215L10.5453 10.3552L10.664 10.7303C10.6793 10.7789 10.624 10.819 10.5826 10.7894L10.2625 10.5606L9.94242 10.7894C9.90099 10.8191 9.84568 10.7789 9.86103 10.7303L9.97968 10.3552L9.66322 10.1215C9.62226 10.0912 9.64335 10.0262 9.69427 10.0258L10.0877 10.0227L10.2121 9.64949C10.2285 9.60121 10.2968 9.60121 10.313 9.64949Z" fill="#F5F5F5"/>
<path d="M10.313 12.5968L10.4374 12.97L10.8308 12.9731C10.8817 12.9735 10.9029 13.0385 10.8619 13.0688L10.5453 13.3025L10.664 13.6776C10.6793 13.7262 10.624 13.7664 10.5826 13.7367L10.2625 13.508L9.94242 13.7367C9.90099 13.7664 9.84568 13.7262 9.86103 13.6776L9.97968 13.3025L9.66322 13.0688C9.62226 13.0385 9.64335 12.9735 9.69427 12.9731L10.0877 12.97L10.2121 12.5968C10.2285 12.5485 10.2968 12.5485 10.313 12.5968Z" fill="#F5F5F5"/>
<path d="M11.8286 1.44246L11.9531 1.8157L12.3465 1.81875C12.3974 1.81916 12.4186 1.88414 12.3776 1.91438L12.061 2.14811L12.1797 2.52322C12.195 2.5718 12.1397 2.61193 12.0983 2.58234L11.7782 2.35354L11.4581 2.58234C11.4167 2.61199 11.3614 2.5718 11.3767 2.52322L11.4954 2.14811L11.1788 1.91438C11.1379 1.88414 11.159 1.8191 11.21 1.81875L11.6034 1.8157L11.7278 1.44246C11.7442 1.39418 11.8125 1.39418 11.8286 1.44246Z" fill="#F5F5F5"/>
<path d="M11.8286 4.55579L11.9531 4.92903L12.3465 4.93208C12.3974 4.93249 12.4186 4.99747 12.3776 5.02776L12.061 5.26149L12.1797 5.63661C12.195 5.68518 12.1397 5.72532 12.0983 5.69573L11.7782 5.46692L11.4581 5.69573C11.4167 5.72538 11.3614 5.68518 11.3767 5.63661L11.4954 5.26149L11.1788 5.02776C11.1379 4.99752 11.159 4.93249 11.21 4.93208L11.6034 4.92903L11.7278 4.55579C11.7442 4.50745 11.8125 4.50745 11.8286 4.55579Z" fill="#F5F5F5"/>
<path d="M11.8286 8.00891L11.9531 8.38215L12.3465 8.3852C12.3974 8.38561 12.4186 8.45059 12.3776 8.48088L12.061 8.71461L12.1797 9.08973C12.195 9.13831 12.1397 9.17844 12.0983 9.14885L11.7782 8.9201L11.4581 9.14885C11.4167 9.17844 11.3614 9.13831 11.3767 9.08973L11.4954 8.71461L11.1788 8.48088C11.1379 8.45065 11.159 8.38561 11.21 8.3852L11.6034 8.38215L11.7278 8.00891C11.7442 7.96057 11.8125 7.96057 11.8286 8.00891Z" fill="#F5F5F5"/>
<path d="M11.8286 11.1808L11.9531 11.554L12.3465 11.5571C12.3974 11.5575 12.4186 11.6225 12.3776 11.6528L12.061 11.8865L12.1797 12.2616C12.195 12.3102 12.1397 12.3503 12.0983 12.3207L11.7782 12.0919L11.4581 12.3207C11.4167 12.3503 11.3614 12.3102 11.3767 12.2616L11.4954 11.8865L11.1788 11.6528C11.1379 11.6225 11.159 11.5575 11.21 11.5571L11.6034 11.554L11.7278 11.1808C11.7442 11.1324 11.8125 11.1324 11.8286 11.1808Z" fill="#F5F5F5"/>
<path d="M11.8286 14.0695L11.9531 14.4427L12.3465 14.4457C12.3974 14.4462 12.4186 14.5111 12.3776 14.5414L12.061 14.7752L12.1797 15.1503C12.195 15.1989 12.1397 15.239 12.0983 15.2094L11.7782 14.9806L11.4581 15.2094C11.4167 15.239 11.3614 15.1989 11.3767 15.1503L11.4954 14.7752L11.1788 14.5414C11.1379 14.5112 11.159 14.4462 11.21 14.4457L11.6034 14.4427L11.7278 14.0695C11.7442 14.0211 11.8125 14.0211 11.8286 14.0695Z" fill="#F5F5F5"/>
<path d="M13.3442 2.91711L13.4687 3.29036L13.8621 3.2934C13.913 3.29381 13.9342 3.35879 13.8932 3.38903L13.5767 3.62276L13.6953 3.99788C13.7107 4.04645 13.6553 4.08665 13.6139 4.057L13.2938 3.82819L12.9737 4.057C12.9323 4.08665 12.877 4.04645 12.8923 3.99788L13.011 3.62276L12.6945 3.38903C12.6535 3.35879 12.6746 3.29375 12.7255 3.2934L13.119 3.29036L13.2434 2.91711C13.2598 2.86877 13.3281 2.86877 13.3442 2.91711Z" fill="#F5F5F5"/>
<path d="M13.3442 6.36829L13.4687 6.74153L13.8621 6.74458C13.913 6.74499 13.9342 6.80997 13.8932 6.84026L13.5767 7.07399L13.6953 7.44911C13.7107 7.49768 13.6553 7.53788 13.6139 7.50823L13.2938 7.27942L12.9737 7.50823C12.9323 7.53788 12.877 7.49768 12.8923 7.44911L13.011 7.07399L12.6945 6.84026C12.6535 6.81002 12.6746 6.74499 12.7255 6.74458L13.119 6.74153L13.2434 6.36829C13.2598 6.31995 13.3281 6.31995 13.3442 6.36829Z" fill="#F5F5F5"/>
<path d="M13.3442 9.64949L13.4687 10.0227L13.8621 10.0258C13.913 10.0262 13.9342 10.0912 13.8932 10.1215L13.5767 10.3552L13.6953 10.7303C13.7107 10.7789 13.6553 10.819 13.6139 10.7894L13.2938 10.5606L12.9737 10.7894C12.9323 10.8191 12.877 10.7789 12.8923 10.7303L13.011 10.3552L12.6945 10.1215C12.6535 10.0912 12.6746 10.0262 12.7255 10.0258L13.119 10.0227L13.2434 9.64949C13.2598 9.60121 13.3281 9.60121 13.3442 9.64949Z" fill="#F5F5F5"/>
<path d="M13.3442 12.5968L13.4687 12.97L13.8621 12.9731C13.913 12.9735 13.9342 13.0385 13.8932 13.0688L13.5767 13.3025L13.6953 13.6776C13.7107 13.7262 13.6553 13.7664 13.6139 13.7367L13.2938 13.508L12.9737 13.7367C12.9323 13.7664 12.877 13.7262 12.8923 13.6776L13.011 13.3025L12.6945 13.0688C12.6535 13.0385 12.6746 12.9735 12.7255 12.9731L13.119 12.97L13.2434 12.5968C13.2598 12.5485 13.3281 12.5485 13.3442 12.5968Z" fill="#F5F5F5"/>
<path d="M14.8598 1.44246L14.9843 1.8157L15.3777 1.81875C15.4286 1.81916 15.4498 1.88414 15.4088 1.91438L15.0923 2.14811L15.2109 2.52322C15.2263 2.5718 15.171 2.61193 15.1295 2.58234L14.8094 2.35354L14.4893 2.58234C14.4479 2.61199 14.3926 2.5718 14.408 2.52322L14.5266 2.14811L14.2101 1.91438C14.1691 1.88414 14.1902 1.8191 14.2411 1.81875L14.6345 1.8157L14.759 1.44246C14.7754 1.39418 14.8437 1.39418 14.8598 1.44246Z" fill="#F5F5F5"/>
<path d="M14.8598 4.55579L14.9843 4.92903L15.3777 4.93208C15.4286 4.93249 15.4498 4.99747 15.4088 5.02776L15.0923 5.26149L15.2109 5.63661C15.2263 5.68518 15.171 5.72532 15.1295 5.69573L14.8094 5.46692L14.4893 5.69573C14.4479 5.72538 14.3926 5.68518 14.408 5.63661L14.5266 5.26149L14.2101 5.02776C14.1691 4.99752 14.1902 4.93249 14.2411 4.93208L14.6345 4.92903L14.759 4.55579C14.7754 4.50745 14.8437 4.50745 14.8598 4.55579Z" fill="#F5F5F5"/>
<path d="M14.8598 8.00891L14.9843 8.38215L15.3777 8.3852C15.4286 8.38561 15.4498 8.45059 15.4088 8.48088L15.0923 8.71461L15.2109 9.08973C15.2263 9.13831 15.171 9.17844 15.1295 9.14885L14.8094 8.9201L14.4893 9.14885C14.4479 9.17844 14.3926 9.13831 14.408 9.08973L14.5266 8.71461L14.2101 8.48088C14.1691 8.45065 14.1902 8.38561 14.2411 8.3852L14.6345 8.38215L14.759 8.00891C14.7754 7.96057 14.8437 7.96057 14.8598 8.00891Z" fill="#F5F5F5"/>
<path d="M14.8598 11.1808L14.9843 11.554L15.3777 11.5571C15.4286 11.5575 15.4498 11.6225 15.4088 11.6528L15.0923 11.8865L15.2109 12.2616C15.2263 12.3102 15.171 12.3503 15.1295 12.3207L14.8094 12.0919L14.4893 12.3207C14.4479 12.3503 14.3926 12.3102 14.408 12.2616L14.5266 11.8865L14.2101 11.6528C14.1691 11.6225 14.1902 11.5575 14.2411 11.5571L14.6345 11.554L14.759 11.1808C14.7754 11.1324 14.8437 11.1324 14.8598 11.1808Z" fill="#F5F5F5"/>
<path d="M14.8598 14.0695L14.9843 14.4427L15.3777 14.4457C15.4286 14.4462 15.4498 14.5111 15.4088 14.5414L15.0923 14.7752L15.2109 15.1503C15.2263 15.1989 15.171 15.239 15.1295 15.2094L14.8094 14.9806L14.4893 15.2094C14.4479 15.239 14.3926 15.1989 14.408 15.1503L14.5266 14.7752L14.2101 14.5414C14.1691 14.5112 14.1902 14.4462 14.2411 14.4457L14.6345 14.4427L14.759 14.0695C14.7754 14.0211 14.8437 14.0211 14.8598 14.0695Z" fill="#F5F5F5"/>
</g>
<defs>
<clipPath id="clip0_3147_91334">
<rect width="30" height="30" fill="white" transform="translate(0.541504)"/>
</clipPath>
</defs>
</svg>
