<svg width="30" height="30" viewBox="0 0 30 30" fill="none" xmlns="http://www.w3.org/2000/svg">
<g clip-path="url(#clip0_3147_91290)">
<path d="M30 6.92188H0V9.2293H30V6.92188Z" fill="#F5F5F5"/>
<path d="M28.4332 2.30859H1.56629C0.997461 2.97586 0.559707 3.75826 0.293457 4.61631H29.706C29.4397 3.75826 29.002 2.97586 28.4332 2.30859Z" fill="#F5F5F5"/>
<path d="M30 11.5391H0V13.8465H30V11.5391Z" fill="#F5F5F5"/>
<path d="M30 16.1543H0V18.4617H30V16.1543Z" fill="#F5F5F5"/>
<path d="M30 20.7695H0V23.077H30V20.7695Z" fill="#F5F5F5"/>
<path d="M29.706 25.3848H0.293457C0.559648 26.2428 0.997461 27.0252 1.56629 27.6924H28.4331C29.002 27.0252 29.4397 26.2428 29.706 25.3848Z" fill="#F5F5F5"/>
<path d="M23.4378 0H6.56283C4.56197 0 2.77059 0.895723 1.56689 2.30771H28.4337C27.2301 0.895723 25.4387 0 23.4378 0Z" fill="#FF4B55"/>
<path d="M30 9.23047H0V11.5379H30V9.23047Z" fill="#FF4B55"/>
<path d="M30 6.56035C30 5.88236 29.8972 5.22846 29.7063 4.61328H0.29373C0.102832 5.22846 0 5.88236 0 6.56035V6.92094H30V6.56035Z" fill="#FF4B55"/>
<path d="M30 13.8457H0V16.1531H30V13.8457Z" fill="#FF4B55"/>
<path d="M30 23.4368V23.0762H0V23.4368C0 24.1147 0.102832 24.7687 0.29373 25.3839H29.7063C29.8972 24.7687 30 24.1147 30 23.4368Z" fill="#FF4B55"/>
<path d="M28.4338 27.6934H1.56689C2.77059 29.1054 4.56197 30.0011 6.56283 30.0011H23.4378C25.4387 30.0011 27.2301 29.1054 28.4338 27.6934Z" fill="#FF4B55"/>
<path d="M30 18.4609H0V20.7684H30V18.4609Z" fill="#FF4B55"/>
<path d="M6.5625 0.625H15.5288V15.5288H0.625V6.5625C0.625 3.2833 3.2833 0.625 6.5625 0.625Z" fill="#41479B" stroke="#263682" stroke-width="1.25"/>
<path d="M1.74286 2.52219C1.72751 2.57076 1.78276 2.61096 1.82425 2.58131L2.14434 2.35256L2.46444 2.58131C2.50587 2.61096 2.56118 2.57076 2.54583 2.52219L2.42717 2.14707L2.7437 1.91334C2.78466 1.88305 2.76356 1.81807 2.71258 1.81766L2.31919 1.81461L2.25204 1.61328C2.08341 1.76029 1.92257 1.91592 1.76981 2.07922L1.86163 2.14707L1.74286 2.52219Z" fill="#F5F5F5"/>
<path d="M2.1948 4.55579L2.31925 4.92903L2.71265 4.93208C2.76357 4.93249 2.78472 4.99747 2.74376 5.02776L2.42724 5.26149L2.54589 5.63661C2.56124 5.68518 2.50599 5.72532 2.46451 5.69573L2.14441 5.46692L1.82431 5.69573C1.78288 5.72538 1.72757 5.68518 1.74292 5.63661L1.86158 5.26149L1.54505 5.02776C1.5041 4.99752 1.52519 4.93249 1.57611 4.93208L1.96951 4.92903L2.09396 4.55579C2.11031 4.50745 2.17869 4.50745 2.1948 4.55579Z" fill="#F5F5F5"/>
<path d="M2.1948 8.00891L2.31925 8.38215L2.71265 8.3852C2.76357 8.38561 2.78472 8.45059 2.74376 8.48088L2.42724 8.71461L2.54589 9.08973C2.56124 9.13831 2.50599 9.17844 2.46451 9.14885L2.14441 8.9201L1.82431 9.14885C1.78288 9.17844 1.72757 9.13831 1.74292 9.08973L1.86158 8.71461L1.54505 8.48088C1.5041 8.45065 1.52519 8.38561 1.57611 8.3852L1.96951 8.38215L2.09396 8.00891C2.11031 7.96057 2.17869 7.96057 2.1948 8.00891Z" fill="#F5F5F5"/>
<path d="M2.1948 11.1808L2.31925 11.554L2.71265 11.5571C2.76357 11.5575 2.78472 11.6225 2.74376 11.6528L2.42724 11.8865L2.54589 12.2616C2.56124 12.3102 2.50599 12.3503 2.46451 12.3207L2.14441 12.0919L1.82431 12.3207C1.78288 12.3503 1.72757 12.3102 1.74292 12.2616L1.86158 11.8865L1.54505 11.6528C1.5041 11.6225 1.52519 11.5575 1.57611 11.5571L1.96951 11.554L2.09396 11.1808C2.11031 11.1324 2.17869 11.1324 2.1948 11.1808Z" fill="#F5F5F5"/>
<path d="M2.1948 14.0695L2.31925 14.4427L2.71265 14.4457C2.76357 14.4462 2.78472 14.5111 2.74376 14.5414L2.42724 14.7752L2.54589 15.1503C2.56124 15.1989 2.50599 15.239 2.46451 15.2094L2.14441 14.9806L1.82431 15.2094C1.78288 15.239 1.72757 15.1989 1.74292 15.1503L1.86158 14.7752L1.54505 14.5414C1.5041 14.5112 1.52519 14.4462 1.57611 14.4457L1.96951 14.4427L2.09396 14.0695C2.11031 14.0211 2.17869 14.0211 2.1948 14.0695Z" fill="#F5F5F5"/>
<path d="M3.71025 2.91711L3.8347 3.29036L4.2281 3.2934C4.27902 3.29381 4.30017 3.35879 4.25921 3.38903L3.94269 3.62276L4.06134 3.99788C4.07669 4.04645 4.02144 4.08665 3.97995 4.057L3.65997 3.82819L3.33988 4.057C3.29845 4.08665 3.24314 4.04645 3.25849 3.99788L3.37714 3.62276L3.06068 3.38903C3.01972 3.35879 3.04081 3.29375 3.09173 3.2934L3.48513 3.29036L3.60958 2.91711C3.62576 2.86877 3.69413 2.86877 3.71025 2.91711Z" fill="#F5F5F5"/>
<path d="M3.71036 6.36829L3.83482 6.74153L4.22822 6.74458C4.27913 6.74499 4.30029 6.80997 4.25933 6.84026L3.94281 7.07399L4.06146 7.44911C4.07681 7.49768 4.02156 7.53788 3.98007 7.50823L3.65997 7.27942L3.33988 7.50823C3.29845 7.53788 3.24314 7.49768 3.25849 7.44911L3.37714 7.07399L3.06068 6.84026C3.01972 6.81002 3.04081 6.74499 3.09173 6.74458L3.48513 6.74153L3.60958 6.36829C3.62587 6.31995 3.69425 6.31995 3.71036 6.36829Z" fill="#F5F5F5"/>
<path d="M3.71036 9.64949L3.83482 10.0227L4.22822 10.0258C4.27913 10.0262 4.30029 10.0912 4.25933 10.1215L3.94281 10.3552L4.06146 10.7303C4.07681 10.7789 4.02156 10.819 3.98007 10.7894L3.65997 10.5606L3.33988 10.7894C3.29845 10.8191 3.24314 10.7789 3.25849 10.7303L3.37714 10.3552L3.06068 10.1215C3.01972 10.0912 3.04081 10.0262 3.09173 10.0258L3.48513 10.0227L3.60958 9.64949C3.62587 9.60121 3.69425 9.60121 3.71036 9.64949Z" fill="#F5F5F5"/>
<path d="M3.71036 12.5968L3.83482 12.97L4.22822 12.9731C4.27913 12.9735 4.30029 13.0385 4.25933 13.0688L3.94281 13.3025L4.06146 13.6776C4.07681 13.7262 4.02156 13.7664 3.98007 13.7367L3.65997 13.508L3.33988 13.7367C3.29845 13.7664 3.24314 13.7262 3.25849 13.6776L3.37714 13.3025L3.06068 13.0688C3.01972 13.0385 3.04081 12.9735 3.09173 12.9731L3.48513 12.97L3.60958 12.5968C3.62587 12.5485 3.69425 12.5485 3.71036 12.5968Z" fill="#F5F5F5"/>
<path d="M5.22599 1.44246L5.35044 1.8157L5.74384 1.81875C5.79476 1.81916 5.81591 1.88414 5.77495 1.91438L5.45843 2.14811L5.57708 2.52322C5.59243 2.5718 5.53718 2.61193 5.4957 2.58234L5.1756 2.35354L4.8555 2.58234C4.81408 2.61199 4.75876 2.5718 4.77411 2.52322L4.89277 2.14811L4.5763 1.91438C4.53535 1.88414 4.55644 1.8191 4.60736 1.81875L5.00076 1.8157L5.12521 1.44246C5.1415 1.39418 5.20988 1.39418 5.22599 1.44246Z" fill="#F5F5F5"/>
<path d="M5.22599 4.55579L5.35044 4.92903L5.74384 4.93208C5.79476 4.93249 5.81591 4.99747 5.77495 5.02776L5.45843 5.26149L5.57708 5.63661C5.59243 5.68518 5.53718 5.72532 5.4957 5.69573L5.1756 5.46692L4.8555 5.69573C4.81408 5.72538 4.75876 5.68518 4.77411 5.63661L4.89277 5.26149L4.5763 5.02776C4.53535 4.99752 4.55644 4.93249 4.60736 4.93208L5.00076 4.92903L5.12521 4.55579C5.1415 4.50745 5.20988 4.50745 5.22599 4.55579Z" fill="#F5F5F5"/>
<path d="M5.22599 8.00891L5.35044 8.38215L5.74384 8.3852C5.79476 8.38561 5.81591 8.45059 5.77495 8.48088L5.45843 8.71461L5.57708 9.08973C5.59243 9.13831 5.53718 9.17844 5.4957 9.14885L5.1756 8.9201L4.8555 9.14885C4.81408 9.17844 4.75876 9.13831 4.77411 9.08973L4.89277 8.71461L4.5763 8.48088C4.53535 8.45065 4.55644 8.38561 4.60736 8.3852L5.00076 8.38215L5.12521 8.00891C5.1415 7.96057 5.20988 7.96057 5.22599 8.00891Z" fill="#F5F5F5"/>
<path d="M5.22599 11.1808L5.35044 11.554L5.74384 11.5571C5.79476 11.5575 5.81591 11.6225 5.77495 11.6528L5.45843 11.8865L5.57708 12.2616C5.59243 12.3102 5.53718 12.3503 5.4957 12.3207L5.1756 12.0919L4.8555 12.3207C4.81408 12.3503 4.75876 12.3102 4.77411 12.2616L4.89277 11.8865L4.5763 11.6528C4.53535 11.6225 4.55644 11.5575 4.60736 11.5571L5.00076 11.554L5.12521 11.1808C5.1415 11.1324 5.20988 11.1324 5.22599 11.1808Z" fill="#F5F5F5"/>
<path d="M5.22599 14.0695L5.35044 14.4427L5.74384 14.4457C5.79476 14.4462 5.81591 14.5111 5.77495 14.5414L5.45843 14.7752L5.57708 15.1503C5.59243 15.1989 5.53718 15.239 5.4957 15.2094L5.1756 14.9806L4.8555 15.2094C4.81408 15.239 4.75876 15.1989 4.77411 15.1503L4.89277 14.7752L4.5763 14.5414C4.53535 14.5112 4.55644 14.4462 4.60736 14.4457L5.00076 14.4427L5.12521 14.0695C5.1415 14.0211 5.20988 14.0211 5.22599 14.0695Z" fill="#F5F5F5"/>
<path d="M6.74118 2.91711L6.86564 3.29036L7.25903 3.2934C7.30995 3.29381 7.3311 3.35879 7.29009 3.38903L6.97362 3.62276L7.09228 3.99788C7.10763 4.04645 7.05237 4.08665 7.01089 4.057L6.69079 3.82819L6.37069 4.057C6.32927 4.08665 6.27396 4.04645 6.28931 3.99788L6.40796 3.62276L6.09144 3.38903C6.05048 3.35879 6.07157 3.29375 6.12255 3.2934L6.51595 3.29036L6.6404 2.91711C6.65675 2.86877 6.72507 2.86877 6.74118 2.91711Z" fill="#F5F5F5"/>
<path d="M6.74118 6.36829L6.86564 6.74153L7.25903 6.74458C7.30995 6.74499 7.3311 6.80997 7.29009 6.84026L6.97362 7.07399L7.09228 7.44911C7.10763 7.49768 7.05237 7.53788 7.01089 7.50823L6.69079 7.27942L6.37069 7.50823C6.32927 7.53788 6.27396 7.49768 6.28931 7.44911L6.40796 7.07399L6.09144 6.84026C6.05048 6.81002 6.07157 6.74499 6.12255 6.74458L6.51595 6.74153L6.6404 6.36829C6.65675 6.31995 6.72507 6.31995 6.74118 6.36829Z" fill="#F5F5F5"/>
<path d="M6.74118 9.64949L6.86564 10.0227L7.25903 10.0258C7.30995 10.0262 7.3311 10.0912 7.29009 10.1215L6.97362 10.3552L7.09228 10.7303C7.10763 10.7789 7.05237 10.819 7.01089 10.7894L6.69079 10.5606L6.37069 10.7894C6.32927 10.8191 6.27396 10.7789 6.28931 10.7303L6.40796 10.3552L6.09144 10.1215C6.05048 10.0912 6.07157 10.0262 6.12255 10.0258L6.51595 10.0227L6.6404 9.64949C6.65675 9.60121 6.72507 9.60121 6.74118 9.64949Z" fill="#F5F5F5"/>
<path d="M6.74118 12.5968L6.86564 12.97L7.25903 12.9731C7.30995 12.9735 7.3311 13.0385 7.29009 13.0688L6.97362 13.3025L7.09228 13.6776C7.10763 13.7262 7.05237 13.7664 7.01089 13.7367L6.69079 13.508L6.37069 13.7367C6.32927 13.7664 6.27396 13.7262 6.28931 13.6776L6.40796 13.3025L6.09144 13.0688C6.05048 13.0385 6.07157 12.9735 6.12255 12.9731L6.51595 12.97L6.6404 12.5968C6.65675 12.5485 6.72507 12.5485 6.74118 12.5968Z" fill="#F5F5F5"/>
<path d="M8.25626 1.44246L8.38071 1.8157L8.77411 1.81875C8.82503 1.81916 8.84618 1.88414 8.80517 1.91438L8.4887 2.14811L8.60735 2.52322C8.62271 2.5718 8.56745 2.61193 8.52597 2.58234L8.20587 2.35354L7.88577 2.58234C7.84435 2.61199 7.78903 2.5718 7.80439 2.52322L7.92304 2.14811L7.60657 1.91438C7.56562 1.88414 7.58671 1.8191 7.63769 1.81875L8.03108 1.8157L8.15554 1.44246C8.17183 1.39418 8.24015 1.39418 8.25626 1.44246Z" fill="#F5F5F5"/>
<path d="M8.25669 4.55579L8.38114 4.92904L8.77454 4.93208C8.82546 4.93249 8.84661 4.99747 8.8056 5.02777L8.48913 5.2615L8.60784 5.63656C8.62319 5.68513 8.56794 5.72527 8.52646 5.69568L8.20636 5.46687L7.88626 5.69568C7.84483 5.72532 7.78952 5.68513 7.80487 5.63656L7.92353 5.26144L7.60706 5.02771C7.5661 4.99747 7.5872 4.93243 7.63817 4.93202L8.03157 4.92898L8.15603 4.55573C8.17226 4.50745 8.24058 4.50745 8.25669 4.55579Z" fill="#F5F5F5"/>
<path d="M8.25626 8.00891L8.38071 8.38215L8.77411 8.3852C8.82503 8.38561 8.84618 8.45059 8.80517 8.48088L8.4887 8.71461L8.60735 9.08973C8.62271 9.13831 8.56745 9.17844 8.52597 9.14885L8.20587 8.9201L7.88577 9.14885C7.84435 9.17844 7.78903 9.13831 7.80439 9.08973L7.92304 8.71461L7.60657 8.48088C7.56562 8.45065 7.58671 8.38561 7.63769 8.3852L8.03108 8.38215L8.15554 8.00891C8.17183 7.96057 8.24015 7.96057 8.25626 8.00891Z" fill="#F5F5F5"/>
<path d="M8.25626 11.1808L8.38071 11.554L8.77411 11.5571C8.82503 11.5575 8.84618 11.6225 8.80517 11.6528L8.4887 11.8865L8.60735 12.2616C8.62271 12.3102 8.56745 12.3503 8.52597 12.3207L8.20587 12.0919L7.88577 12.3207C7.84435 12.3503 7.78903 12.3102 7.80439 12.2616L7.92304 11.8865L7.60657 11.6528C7.56562 11.6225 7.58671 11.5575 7.63769 11.5571L8.03108 11.554L8.15554 11.1808C8.17183 11.1324 8.24015 11.1324 8.25626 11.1808Z" fill="#F5F5F5"/>
<path d="M8.25626 14.0695L8.38071 14.4427L8.77411 14.4457C8.82503 14.4462 8.84618 14.5111 8.80517 14.5414L8.4887 14.7752L8.60735 15.1503C8.62271 15.1989 8.56745 15.239 8.52597 15.2094L8.20587 14.9806L7.88577 15.2094C7.84435 15.239 7.78903 15.1989 7.80439 15.1503L7.92304 14.7752L7.60657 14.5414C7.56562 14.5112 7.58671 14.4462 7.63769 14.4457L8.03108 14.4427L8.15554 14.0695C8.17183 14.0211 8.24015 14.0211 8.25626 14.0695Z" fill="#F5F5F5"/>
<path d="M9.77195 2.91711L9.8964 3.29036L10.2898 3.2934C10.3407 3.29381 10.3619 3.35879 10.3209 3.38903L10.0043 3.62276L10.123 3.99788C10.1383 4.04645 10.083 4.08665 10.0416 4.057L9.7215 3.82819L9.4014 4.057C9.35997 4.08665 9.30466 4.04645 9.32001 3.99788L9.43867 3.62276L9.1222 3.38903C9.08124 3.35879 9.10234 3.29375 9.15326 3.2934L9.54665 3.29036L9.67111 2.91711C9.68751 2.86877 9.75583 2.86877 9.77195 2.91711Z" fill="#F5F5F5"/>
<path d="M9.77195 6.36829L9.8964 6.74153L10.2898 6.74458C10.3407 6.74499 10.3619 6.80997 10.3209 6.84026L10.0043 7.07399L10.123 7.44911C10.1383 7.49768 10.083 7.53788 10.0416 7.50823L9.7215 7.27942L9.4014 7.50823C9.35997 7.53788 9.30466 7.49768 9.32001 7.44911L9.43867 7.07399L9.1222 6.84026C9.08124 6.81002 9.10234 6.74499 9.15326 6.74458L9.54665 6.74153L9.67111 6.36829C9.68751 6.31995 9.75583 6.31995 9.77195 6.36829Z" fill="#F5F5F5"/>
<path d="M9.77195 9.64949L9.8964 10.0227L10.2898 10.0258C10.3407 10.0262 10.3619 10.0912 10.3209 10.1215L10.0043 10.3552L10.123 10.7303C10.1383 10.7789 10.083 10.819 10.0416 10.7894L9.7215 10.5606L9.4014 10.7894C9.35997 10.8191 9.30466 10.7789 9.32001 10.7303L9.43867 10.3552L9.1222 10.1215C9.08124 10.0912 9.10234 10.0262 9.15326 10.0258L9.54665 10.0227L9.67111 9.64949C9.68751 9.60121 9.75583 9.60121 9.77195 9.64949Z" fill="#F5F5F5"/>
<path d="M9.77195 12.5968L9.8964 12.97L10.2898 12.9731C10.3407 12.9735 10.3619 13.0385 10.3209 13.0688L10.0043 13.3025L10.123 13.6776C10.1383 13.7262 10.083 13.7664 10.0416 13.7367L9.7215 13.508L9.4014 13.7367C9.35997 13.7664 9.30466 13.7262 9.32001 13.6776L9.43867 13.3025L9.1222 13.0688C9.08124 13.0385 9.10234 12.9735 9.15326 12.9731L9.54665 12.97L9.67111 12.5968C9.68751 12.5485 9.75583 12.5485 9.77195 12.5968Z" fill="#F5F5F5"/>
<path d="M11.2871 1.44246L11.4116 1.8157L11.805 1.81875C11.8559 1.81916 11.8771 1.88414 11.836 1.91438L11.5195 2.14811L11.6382 2.52322C11.6535 2.5718 11.5982 2.61193 11.5568 2.58234L11.2367 2.35354L10.9166 2.58234C10.8752 2.61199 10.8199 2.5718 10.8352 2.52322L10.9539 2.14811L10.6373 1.91438C10.5964 1.88414 10.6175 1.8191 10.6684 1.81875L11.0618 1.8157L11.1863 1.44246C11.2027 1.39418 11.271 1.39418 11.2871 1.44246Z" fill="#F5F5F5"/>
<path d="M11.2871 4.55579L11.4116 4.92903L11.805 4.93208C11.8559 4.93249 11.8771 4.99747 11.836 5.02776L11.5195 5.26149L11.6382 5.63661C11.6535 5.68518 11.5982 5.72532 11.5568 5.69573L11.2367 5.46692L10.9166 5.69573C10.8752 5.72538 10.8199 5.68518 10.8352 5.63661L10.9539 5.26149L10.6373 5.02776C10.5964 4.99752 10.6175 4.93249 10.6684 4.93208L11.0618 4.92903L11.1863 4.55579C11.2027 4.50745 11.271 4.50745 11.2871 4.55579Z" fill="#F5F5F5"/>
<path d="M11.2871 8.00891L11.4116 8.38215L11.805 8.3852C11.8559 8.38561 11.8771 8.45059 11.836 8.48088L11.5195 8.71461L11.6382 9.08973C11.6535 9.13831 11.5982 9.17844 11.5568 9.14885L11.2367 8.9201L10.9166 9.14885C10.8752 9.17844 10.8199 9.13831 10.8352 9.08973L10.9539 8.71461L10.6373 8.48088C10.5964 8.45065 10.6175 8.38561 10.6684 8.3852L11.0618 8.38215L11.1863 8.00891C11.2027 7.96057 11.271 7.96057 11.2871 8.00891Z" fill="#F5F5F5"/>
<path d="M11.2871 11.1808L11.4116 11.554L11.805 11.5571C11.8559 11.5575 11.8771 11.6225 11.836 11.6528L11.5195 11.8865L11.6382 12.2616C11.6535 12.3102 11.5982 12.3503 11.5568 12.3207L11.2367 12.0919L10.9166 12.3207C10.8752 12.3503 10.8199 12.3102 10.8352 12.2616L10.9539 11.8865L10.6373 11.6528C10.5964 11.6225 10.6175 11.5575 10.6684 11.5571L11.0618 11.554L11.1863 11.1808C11.2027 11.1324 11.271 11.1324 11.2871 11.1808Z" fill="#F5F5F5"/>
<path d="M11.2871 14.0695L11.4116 14.4427L11.805 14.4457C11.8559 14.4462 11.8771 14.5111 11.836 14.5414L11.5195 14.7752L11.6382 15.1503C11.6535 15.1989 11.5982 15.239 11.5568 15.2094L11.2367 14.9806L10.9166 15.2094C10.8752 15.239 10.8199 15.1989 10.8352 15.1503L10.9539 14.7752L10.6373 14.5414C10.5964 14.5112 10.6175 14.4462 10.6684 14.4457L11.0618 14.4427L11.1863 14.0695C11.2027 14.0211 11.271 14.0211 11.2871 14.0695Z" fill="#F5F5F5"/>
<path d="M12.8027 2.91711L12.9272 3.29036L13.3206 3.2934C13.3715 3.29381 13.3927 3.35879 13.3517 3.38903L13.0352 3.62276L13.1538 3.99788C13.1692 4.04645 13.1138 4.08665 13.0724 4.057L12.7523 3.82819L12.4322 4.057C12.3908 4.08665 12.3355 4.04645 12.3508 3.99788L12.4695 3.62276L12.153 3.38903C12.112 3.35879 12.1331 3.29375 12.184 3.2934L12.5775 3.29036L12.7019 2.91711C12.7183 2.86877 12.7866 2.86877 12.8027 2.91711Z" fill="#F5F5F5"/>
<path d="M12.8027 6.36829L12.9272 6.74153L13.3206 6.74458C13.3715 6.74499 13.3927 6.80997 13.3517 6.84026L13.0352 7.07399L13.1538 7.44911C13.1692 7.49768 13.1138 7.53788 13.0724 7.50823L12.7523 7.27942L12.4322 7.50823C12.3908 7.53788 12.3355 7.49768 12.3508 7.44911L12.4695 7.07399L12.153 6.84026C12.112 6.81002 12.1331 6.74499 12.184 6.74458L12.5775 6.74153L12.7019 6.36829C12.7183 6.31995 12.7866 6.31995 12.8027 6.36829Z" fill="#F5F5F5"/>
<path d="M12.8027 9.64949L12.9272 10.0227L13.3206 10.0258C13.3715 10.0262 13.3927 10.0912 13.3517 10.1215L13.0352 10.3552L13.1538 10.7303C13.1692 10.7789 13.1138 10.819 13.0724 10.7894L12.7523 10.5606L12.4322 10.7894C12.3908 10.8191 12.3355 10.7789 12.3508 10.7303L12.4695 10.3552L12.153 10.1215C12.112 10.0912 12.1331 10.0262 12.184 10.0258L12.5775 10.0227L12.7019 9.64949C12.7183 9.60121 12.7866 9.60121 12.8027 9.64949Z" fill="#F5F5F5"/>
<path d="M12.8027 12.5968L12.9272 12.97L13.3206 12.9731C13.3715 12.9735 13.3927 13.0385 13.3517 13.0688L13.0352 13.3025L13.1538 13.6776C13.1692 13.7262 13.1138 13.7664 13.0724 13.7367L12.7523 13.508L12.4322 13.7367C12.3908 13.7664 12.3355 13.7262 12.3508 13.6776L12.4695 13.3025L12.153 13.0688C12.112 13.0385 12.1331 12.9735 12.184 12.9731L12.5775 12.97L12.7019 12.5968C12.7183 12.5485 12.7866 12.5485 12.8027 12.5968Z" fill="#F5F5F5"/>
<path d="M14.3183 1.44246L14.4428 1.8157L14.8362 1.81875C14.8871 1.81916 14.9083 1.88414 14.8673 1.91438L14.5508 2.14811L14.6694 2.52322C14.6848 2.5718 14.6295 2.61193 14.588 2.58234L14.2679 2.35354L13.9478 2.58234C13.9064 2.61199 13.8511 2.5718 13.8665 2.52322L13.9851 2.14811L13.6686 1.91438C13.6276 1.88414 13.6487 1.8191 13.6996 1.81875L14.093 1.8157L14.2175 1.44246C14.2339 1.39418 14.3022 1.39418 14.3183 1.44246Z" fill="#F5F5F5"/>
<path d="M14.3183 4.55579L14.4428 4.92903L14.8362 4.93208C14.8871 4.93249 14.9083 4.99747 14.8673 5.02776L14.5508 5.26149L14.6694 5.63661C14.6848 5.68518 14.6295 5.72532 14.588 5.69573L14.2679 5.46692L13.9478 5.69573C13.9064 5.72538 13.8511 5.68518 13.8665 5.63661L13.9851 5.26149L13.6686 5.02776C13.6276 4.99752 13.6487 4.93249 13.6996 4.93208L14.093 4.92903L14.2175 4.55579C14.2339 4.50745 14.3022 4.50745 14.3183 4.55579Z" fill="#F5F5F5"/>
<path d="M14.3183 8.00891L14.4428 8.38215L14.8362 8.3852C14.8871 8.38561 14.9083 8.45059 14.8673 8.48088L14.5508 8.71461L14.6694 9.08973C14.6848 9.13831 14.6295 9.17844 14.588 9.14885L14.2679 8.9201L13.9478 9.14885C13.9064 9.17844 13.8511 9.13831 13.8665 9.08973L13.9851 8.71461L13.6686 8.48088C13.6276 8.45065 13.6487 8.38561 13.6996 8.3852L14.093 8.38215L14.2175 8.00891C14.2339 7.96057 14.3022 7.96057 14.3183 8.00891Z" fill="#F5F5F5"/>
<path d="M14.3183 11.1808L14.4428 11.554L14.8362 11.5571C14.8871 11.5575 14.9083 11.6225 14.8673 11.6528L14.5508 11.8865L14.6694 12.2616C14.6848 12.3102 14.6295 12.3503 14.588 12.3207L14.2679 12.0919L13.9478 12.3207C13.9064 12.3503 13.8511 12.3102 13.8665 12.2616L13.9851 11.8865L13.6686 11.6528C13.6276 11.6225 13.6487 11.5575 13.6996 11.5571L14.093 11.554L14.2175 11.1808C14.2339 11.1324 14.3022 11.1324 14.3183 11.1808Z" fill="#F5F5F5"/>
<path d="M14.3183 14.0695L14.4428 14.4427L14.8362 14.4457C14.8871 14.4462 14.9083 14.5111 14.8673 14.5414L14.5508 14.7752L14.6694 15.1503C14.6848 15.1989 14.6295 15.239 14.588 15.2094L14.2679 14.9806L13.9478 15.2094C13.9064 15.239 13.8511 15.1989 13.8665 15.1503L13.9851 14.7752L13.6686 14.5414C13.6276 14.5112 13.6487 14.4462 13.6996 14.4457L14.093 14.4427L14.2175 14.0695C14.2339 14.0211 14.3022 14.0211 14.3183 14.0695Z" fill="#F5F5F5"/>
</g>
<defs>
<clipPath id="clip0_3147_91290">
<rect width="30" height="30" fill="white"/>
</clipPath>
</defs>
</svg>
