<svg width="25" height="24" viewBox="0 0 25 24" fill="none" xmlns="http://www.w3.org/2000/svg">
<path d="M6.6665 7L9.6665 2M15.6665 2L18.6665 7M9.91325 22H15.4198C17.2887 22 18.2232 22 18.9891 21.6653C19.6646 21.3701 20.2453 20.894 20.6672 20.2896C21.1457 19.6041 21.3289 18.6878 21.6955 16.8551L22.1355 14.6551C22.6603 12.0311 22.9227 10.7191 22.5675 9.69225C22.2559 8.79163 21.633 8.03184 20.811 7.5497C19.8738 7 18.5358 7 15.8598 7H9.47325C6.79722 7 5.45921 7 4.52201 7.5497C3.69998 8.03184 3.07711 8.79163 2.76554 9.69225C2.41031 10.7191 2.67272 12.0311 3.19753 14.6551L3.63753 16.8551C4.00406 18.6878 4.18733 19.6041 4.66579 20.2896C5.08771 20.894 5.66844 21.3701 6.34387 21.6653C7.10982 22 8.0443 22 9.91325 22Z" stroke="#263682" stroke-width="1.5" stroke-linecap="round" stroke-linejoin="round"/>
<path d="M15.4951 17.2979L9.83826 11.641" stroke="#263682" stroke-width="1.5" stroke-linecap="round"/>
<path d="M15.4951 11.6411L9.83826 17.298" stroke="#263682" stroke-width="1.5" stroke-linecap="round"/>
</svg>
