<svg width="31" height="30" viewBox="0 0 31 30" fill="none" xmlns="http://www.w3.org/2000/svg">
<path d="M12.3473 10.4142C12.3473 12.4879 10.5911 14.1687 8.59284 14.1687C6.5946 14.1687 4.83838 12.5499 4.83838 10.4142L5.43642 6.93577C5.64267 5.73611 6.683 4.85938 7.90027 4.85938H24.0745C25.2403 4.85938 26.2513 5.66515 26.5114 6.80156L27.3384 10.4142C27.3384 12.4331 25.5821 14.1687 23.5839 14.1687C21.5856 14.1687 19.8283 12.4879 19.8283 10.4142M6.36792 19.1275V21.2912C6.36792 24.4728 8.34913 26.7203 11.5332 26.7203H20.6414C23.8267 26.7203 25.8079 24.4728 25.8079 21.2912V19.1275M12.3335 9.24414V10.4178C12.3335 12.4915 14.0142 14.1722 16.088 14.1722C18.1616 14.1722 19.8424 12.4915 19.8424 10.4178V9.24414M11.5228 26.444C11.5228 24.748 12.8976 23.3733 14.5936 23.3733H17.5837C19.2797 23.3733 20.6545 24.748 20.6545 26.444M19.331 19.8945C19.331 21.7069 17.8618 23.1761 16.0494 23.1761C14.2371 23.1761 12.7679 21.7069 12.7679 19.8945C12.7679 18.0822 14.2371 16.613 16.0494 16.613C17.8618 16.613 19.331 18.0822 19.331 19.8945Z" stroke="#1F6A84" stroke-width="1.5" stroke-linecap="round" stroke-linejoin="round"/>
</svg>
