<svg width="24" height="25" viewBox="0 0 24 25" fill="none" xmlns="http://www.w3.org/2000/svg">
<path d="M15 10.3784C17.2091 10.3784 19 8.58756 19 6.37842C19 4.16928 17.2091 2.37842 15 2.37842M17 22.3784H19.8C21.5673 22.3784 23 20.9457 23 19.1784V19.1784C23 16.5275 20.851 14.3784 18.2 14.3784H17M12 6.37842C12 8.58756 10.2091 10.3784 8 10.3784C5.79086 10.3784 4 8.58756 4 6.37842C4 4.16928 5.79086 2.37842 8 2.37842C10.2091 2.37842 12 4.16928 12 6.37842ZM4.2 22.3784H11.8C13.5673 22.3784 15 20.9457 15 19.1784V19.1784C15 16.5275 12.851 14.3784 10.2 14.3784H5.8C3.14903 14.3784 1 16.5275 1 19.1784V19.1784C1 20.9457 2.43269 22.3784 4.2 22.3784Z" stroke="#8D99D2" stroke-width="1.5" stroke-linecap="round" stroke-linejoin="round"/>
</svg>
