<svg width="31" height="30" viewBox="0 0 31 30" fill="none" xmlns="http://www.w3.org/2000/svg">
<path d="M6.17287 24.3936C6.03431 23.5959 6.09155 22.7691 6.09155 21.9634C6.09155 18.9266 8.5533 16.4649 11.59 16.4649H16.9442C17.7635 16.4649 18.541 16.6441 19.2396 16.9654M20.3717 20.4297H21.5866C22.9291 20.4297 24.0165 21.5171 24.0165 22.8596C24.0165 24.2008 22.9291 25.2893 21.5866 25.2893H15.5M17.9322 22.8247L15.5024 25.2544L17.9322 27.6842M20.0679 10.2314C20.0679 13.4765 17.4372 16.1072 14.192 16.1072C10.9468 16.1072 8.31611 13.4765 8.31611 10.2314C8.31611 6.98619 10.9468 4.35547 14.192 4.35547C17.4372 4.35547 20.0679 6.98619 20.0679 10.2314Z" stroke="#172461" stroke-width="1.5" stroke-linecap="round" stroke-linejoin="round"/>
</svg>
