<svg width="42" height="31" viewBox="0 0 42 31" fill="none" xmlns="http://www.w3.org/2000/svg">
<path d="M15 17.5C19.4183 17.5 23 13.9183 23 9.5C23 5.08172 19.4183 1.5 15 1.5C10.5817 1.5 7 5.08172 7 9.5C7 13.9183 10.5817 17.5 15 17.5Z" stroke="#626262" stroke-width="2" stroke-linecap="round" stroke-linejoin="round"/>
<path d="M15 17.5C7.268 17.5 1 22.872 1 29.5H29C29 22.872 22.732 17.5 15 17.5Z" stroke="#626262" stroke-width="2" stroke-linecap="round" stroke-linejoin="round"/>
<path d="M21 4.5L20.2501 3.8385C19.9367 4.19373 19.9156 4.72005 20.1994 5.09925L21 4.5ZM21 15.03L20.2145 14.4111C19.9067 14.8018 19.9328 15.3594 20.2758 15.7196L21 15.03ZM41 29.5V30.5C41.5523 30.5 42 30.0523 42 29.5H41ZM29 28.5C28.4477 28.5 28 28.9477 28 29.5C28 30.0523 28.4477 30.5 29 30.5V28.5ZM23.3113 10.0968L24.3102 10.1433L23.3113 10.0968ZM27.0001 18.5C28.5039 18.4999 29.9838 18.123 31.3045 17.4037L30.3478 15.6473C29.3206 16.2068 28.1696 16.4999 26.9999 16.5L27.0001 18.5ZM31.3045 17.4037C32.6251 16.6843 33.7445 15.6455 34.5603 14.3821L32.8801 13.2972C32.2456 14.2798 31.375 15.0878 30.3478 15.6473L31.3045 17.4037ZM34.5603 14.3821C35.3761 13.1188 35.8623 11.6711 35.9745 10.1714L33.9801 10.0222C33.8928 11.1886 33.5146 12.3146 32.8801 13.2972L34.5603 14.3821ZM35.9745 10.1714C36.0867 8.67175 35.8213 7.16787 35.2026 5.79718L33.3797 6.62003C33.8609 7.68612 34.0673 8.85581 33.9801 10.0222L35.9745 10.1714ZM35.2026 5.79718C34.5838 4.42648 33.6315 3.23269 32.4325 2.32486L31.2252 3.91933C32.1577 4.62542 32.8984 5.55393 33.3797 6.62003L35.2026 5.79718ZM32.4325 2.32486C31.2336 1.41702 29.8263 0.8241 28.3392 0.600257L28.0415 2.57798C29.1981 2.75208 30.2927 3.21324 31.2252 3.91933L32.4325 2.32486ZM28.3392 0.600257C26.852 0.376413 25.3325 0.528788 23.9195 1.04346L24.6039 2.92269C25.703 2.52239 26.8848 2.40388 28.0415 2.57798L28.3392 0.600257ZM23.9195 1.04346C22.4147 1.59155 21.1542 2.81348 20.2501 3.8385L21.7499 5.1615C22.6144 4.18152 23.5967 3.28956 24.6039 2.92269L23.9195 1.04346ZM20.2758 15.7196C22.3171 17.8633 25.2107 18.5 27 18.5V16.5C25.5613 16.5 23.2709 15.9647 21.7242 14.3404L20.2758 15.7196ZM27 18.5C34.3299 18.5 40 23.5634 40 29.5H42C42 22.1806 35.1341 16.5 27 16.5V18.5ZM41 28.5H29V30.5H41V28.5ZM20.6193 15.9547L26.6193 18.4247L27.3807 16.5753L21.3807 14.1053L20.6193 15.9547ZM21 4.5C20.1994 5.09925 20.1993 5.09912 20.1992 5.099C20.1992 5.09897 20.1991 5.09886 20.1991 5.09882C20.199 5.09872 20.199 5.09867 20.199 5.09867C20.199 5.09867 20.1991 5.09886 20.1994 5.09925C20.2 5.10001 20.2011 5.10154 20.2028 5.10382C20.2062 5.10838 20.2117 5.11592 20.2193 5.12633C20.2345 5.14715 20.2578 5.17938 20.2881 5.22205C20.3487 5.30744 20.4367 5.43422 20.5429 5.59448C20.7558 5.91605 21.0379 6.36702 21.3155 6.88493C21.8976 7.97125 22.3538 9.16135 22.3124 10.0503L24.3102 10.1433C24.3788 8.67013 23.6793 7.06182 23.0783 5.94027C22.7643 5.35424 22.4479 4.84892 22.2103 4.49017C22.0912 4.31027 21.991 4.16589 21.9195 4.06516C21.8838 4.01476 21.8552 3.9752 21.835 3.94748C21.8249 3.93362 21.8168 3.92271 21.8111 3.91488C21.8082 3.91097 21.8058 3.90782 21.8041 3.90546C21.8032 3.90428 21.8025 3.9033 21.8019 3.90251C21.8016 3.90212 21.8013 3.90178 21.8011 3.90148C21.801 3.90134 21.8009 3.90115 21.8008 3.90108C21.8007 3.90091 21.8006 3.90075 21 4.5ZM22.3124 10.0503C22.275 10.8531 21.8103 11.9058 21.2552 12.8558C20.9902 13.3093 20.7269 13.7023 20.5299 13.9819C20.4316 14.1213 20.3507 14.2313 20.2952 14.3053C20.2675 14.3422 20.2462 14.3701 20.2324 14.388C20.2255 14.397 20.2205 14.4035 20.2174 14.4074C20.2159 14.4093 20.2149 14.4106 20.2144 14.4112C20.2142 14.4116 20.2141 14.4117 20.2141 14.4117C20.2141 14.4117 20.2141 14.4116 20.2142 14.4115C20.2142 14.4115 20.2143 14.4114 20.2143 14.4114C20.2144 14.4113 20.2145 14.4111 21 15.03C21.7855 15.6489 21.7856 15.6487 21.7857 15.6486C21.7858 15.6485 21.7859 15.6483 21.786 15.6482C21.7862 15.648 21.7865 15.6476 21.7867 15.6473C21.7873 15.6466 21.788 15.6457 21.7888 15.6447C21.7904 15.6426 21.7926 15.6398 21.7953 15.6364C21.8006 15.6295 21.808 15.62 21.8173 15.6079C21.836 15.5836 21.8623 15.5491 21.8953 15.5051C21.9612 15.4172 22.0539 15.2913 22.1646 15.1342C22.3854 14.8209 22.6814 14.3791 22.9819 13.8649C23.5577 12.8797 24.2487 11.4658 24.3102 10.1433L22.3124 10.0503Z" fill="#626262"/>
</svg>
