<svg width="30" height="30" viewBox="0 0 30 30" fill="none" xmlns="http://www.w3.org/2000/svg">
<path d="M10.4339 17.4648C10.4339 15.7688 11.8087 14.3941 13.5047 14.3941H16.4948C18.1908 14.3941 19.5655 15.7688 19.5655 17.4648M8.81836 24.6938H21.1787M13.392 20.9976L13.088 24.009M16.5286 20.9976L16.8327 24.009M8.78514 4.10547H21.2136C23.9951 4.10547 26.25 6.36033 26.25 9.14182V15.9624C26.25 18.7439 23.9951 20.9988 21.2136 20.9988H8.78514C6.00486 20.9988 3.75 18.7439 3.75 15.9624V9.14182C3.75 6.36033 6.00486 4.10547 8.78514 4.10547ZM18.242 10.9152C18.242 12.7275 16.7728 14.1967 14.9605 14.1967C13.1481 14.1967 11.6789 12.7275 11.6789 10.9152C11.6789 9.10286 13.1481 7.63367 14.9605 7.63367C16.7728 7.63367 18.242 9.10286 18.242 10.9152Z" stroke="#027547" stroke-width="1.5" stroke-linecap="round" stroke-linejoin="round"/>
</svg>
