<svg width="24" height="24" viewBox="0 0 24 24" fill="none" xmlns="http://www.w3.org/2000/svg">
<path fill-rule="evenodd" clip-rule="evenodd" d="M15.5842 10.5577L11.5112 14.6327C11.3702 14.7737 11.1792 14.8527 10.9802 14.8527C10.7812 14.8527 10.5902 14.7737 10.4502 14.6327L8.47322 12.6527C8.18123 12.3587 8.18123 11.8837 8.47423 11.5907C8.76823 11.2987 9.24222 11.2997 9.53523 11.5917L10.9812 13.0407L14.5232 9.49667C14.8162 9.20367 15.2912 9.20367 15.5842 9.49667C15.8772 9.78967 15.8772 10.2647 15.5842 10.5577ZM20.7042 10.0857L20.0052 9.38667C19.6862 9.06667 19.5112 8.64067 19.5112 8.18967V7.18967C19.5112 5.70067 18.2992 4.48967 16.8112 4.48967H15.8092C15.3562 4.48967 14.9312 4.31467 14.6132 3.99667L13.9022 3.28667C12.8452 2.23867 11.1332 2.24367 10.0842 3.29767L9.38722 3.99667C9.06622 4.31567 8.64123 4.49067 8.18923 4.49067H7.18823C5.71723 4.49167 4.51723 5.67567 4.49023 7.14167C4.48922 7.15767 4.48823 7.17367 4.48823 7.19067V8.18767C4.48823 8.63967 4.31323 9.06467 3.99423 9.38367L3.28623 10.0927C3.28523 10.0957 3.28223 10.0967 3.28023 10.0987C2.23523 11.1567 2.24423 12.8687 3.29723 13.9117L3.99623 14.6127C4.31423 14.9317 4.49023 15.3557 4.49023 15.8077V16.8127C4.49023 18.3007 5.70023 19.5117 7.18823 19.5117H8.18723C8.64023 19.5127 9.06523 19.6877 9.38323 20.0047L10.0962 20.7157C10.6042 21.2207 11.2782 21.4987 11.9952 21.4987H12.0072C12.7282 21.4957 13.4042 21.2117 13.9102 20.7027L14.6112 20.0027C14.9262 19.6887 15.3622 19.5087 15.8072 19.5087H16.8132C18.2982 19.5087 19.5092 18.2997 19.5122 16.8127V15.8097C19.5122 15.3587 19.6872 14.9337 20.0042 14.6147L20.7152 13.9037C21.7652 12.8477 21.7592 11.1347 20.7042 10.0857Z" fill="#47B0D6"/>
</svg>
