<svg width="17" height="17" viewBox="0 0 17 17" fill="none" xmlns="http://www.w3.org/2000/svg">
<path fill-rule="evenodd" clip-rule="evenodd" d="M6.87632 1.70752C7.01839 1.47073 6.94161 1.1636 6.70482 1.02152C6.46803 0.87945 6.1609 0.956233 6.01883 1.19302L4.13271 4.33655C3.60269 4.38702 3.15613 4.48934 2.76495 4.71878C2.11418 5.10048 1.62107 5.70198 1.37441 6.41497C1.22082 6.85893 1.21264 7.3344 1.27395 7.88842C1.33423 8.43309 1.46897 9.10678 1.63989 9.96134L1.64464 9.98509L1.93797 11.4518L1.9418 11.4709C2.06073 12.0656 2.1554 12.5389 2.26136 12.9194C2.37014 13.3101 2.49939 13.6367 2.70377 13.9295C3.03779 14.408 3.49754 14.7849 4.03226 15.0186C4.35945 15.1616 4.70506 15.2243 5.10947 15.2543C5.50338 15.2836 5.98611 15.2836 6.59256 15.2836H6.61207H10.2831H10.3026C10.909 15.2836 11.3918 15.2836 11.7857 15.2543C12.1901 15.2243 12.5357 15.1616 12.8629 15.0186C13.3976 14.7849 13.8574 14.408 14.1914 13.9295C14.3958 13.6367 14.525 13.3101 14.6338 12.9194C14.7398 12.5389 14.8344 12.0656 14.9533 11.4709L14.9534 11.4709L14.9572 11.4518L15.2505 9.98509L15.2553 9.9614C15.4262 9.10681 15.5609 8.4331 15.6212 7.88842C15.6825 7.3344 15.6743 6.85893 15.5207 6.41497C15.2741 5.70198 14.781 5.10048 14.1302 4.71878C13.739 4.48934 13.2925 4.38702 12.7624 4.33655L10.8763 1.19302C10.7342 0.956233 10.4271 0.87945 10.1903 1.02152C9.95354 1.1636 9.87675 1.47073 10.0188 1.70752L11.5663 4.28671C11.2725 4.2836 10.9515 4.2836 10.6006 4.2836H10.5764H6.31874H6.29451C5.94365 4.2836 5.62269 4.2836 5.3288 4.28671L6.87632 1.70752Z" fill="#C29613"/>
<path d="M6.54297 8.99707L6.54297 11.1619" stroke="#FFF7D7" stroke-linecap="round"/>
<path d="M10.3516 8.99707L10.3516 11.1619" stroke="#FFF7D7" stroke-linecap="round"/>
</svg>
