<svg width="24" height="24" viewBox="0 0 24 24" fill="none" xmlns="http://www.w3.org/2000/svg">
<g id="Notifier-Outline" clip-path="url(#clip0_3147_90974)">
<path id="Vector" d="M5.98266 19.206C6.29833 19.9263 6.91081 20.4903 7.69843 20.7014C8.49541 20.9149 9.30776 20.7326 9.94133 20.2668M6.60122 1.78016C5.44731 2.42493 4.48859 3.32245 3.81671 4.34115M19.1826 8.46848C19.1094 7.24913 18.7309 5.98522 18.0477 4.83916M8.61528 17.1738C4.03154 15.9455 2.07544 14.7645 2.5301 12.2482C3.1889 9.78949 4.62525 10.3426 5.43389 7.3247C6.06574 4.9666 8.9271 2.85935 12.2148 3.74028C15.5024 4.62119 16.9268 7.87681 16.2952 10.234C15.4866 13.2518 17.0072 13.4901 16.3479 15.9506C15.4803 18.3654 13.198 18.4017 8.61528 17.1738Z" stroke="#263682" stroke-width="1.5" stroke-linecap="round" stroke-linejoin="round"/>
<circle id="Ellipse 195" cx="17.3477" cy="17.4062" r="4.25" fill="#F97066" stroke="#F5F6FC" stroke-width="1.5"/>
</g>
<defs>
<clipPath id="clip0_3147_90974">
<rect width="24" height="24" fill="white"/>
</clipPath>
</defs>
</svg>
