<svg width="25" height="25" viewBox="0 0 25 25" fill="none" xmlns="http://www.w3.org/2000/svg">
<path fill-rule="evenodd" clip-rule="evenodd" d="M1.32642 12.9489C1.32642 7.01179 6.13936 2.19885 12.0764 2.19885C18.0135 2.19885 22.8264 7.01179 22.8264 12.9489C22.8264 18.8859 18.0135 23.6989 12.0764 23.6989C6.13936 23.6989 1.32642 18.8859 1.32642 12.9489ZM12.8264 8.94885C12.8264 8.53464 12.4906 8.19885 12.0764 8.19885C11.6622 8.19885 11.3264 8.53464 11.3264 8.94885V12.1989H8.07642C7.6622 12.1989 7.32642 12.5346 7.32642 12.9489C7.32642 13.3631 7.6622 13.6989 8.07642 13.6989H11.3264V16.9489C11.3264 17.3631 11.6622 17.6989 12.0764 17.6989C12.4906 17.6989 12.8264 17.3631 12.8264 16.9489V13.6989H16.0764C16.4906 13.6989 16.8264 13.3631 16.8264 12.9489C16.8264 12.5346 16.4906 12.1989 16.0764 12.1989H12.8264V8.94885Z" fill="#263682"/>
</svg>
