<svg width="25" height="24" viewBox="0 0 25 24" fill="none" xmlns="http://www.w3.org/2000/svg">
<path d="M19.0975 6.70372C18.7502 4.98448 17.2314 3.68945 15.4099 3.68945H6.80399C4.72572 3.68945 3.0415 5.37367 3.0415 7.45194V12.5465C3.0415 14.6247 4.72572 16.309 6.80399 16.309H10.6463" stroke="#263682" stroke-width="1.25" stroke-linecap="round" stroke-linejoin="round"/>
<path d="M6.45752 19.9609H11.3107" stroke="#263682" stroke-width="1.5" stroke-linecap="round" stroke-linejoin="round"/>
<path d="M9.09985 16.3027L8.50439 19.9601" stroke="#263682" stroke-width="1.5" stroke-linecap="round" stroke-linejoin="round"/>
<path d="M18.867 9.49805C20.0666 9.49805 21.0396 10.471 21.0406 11.6716V14.9048V18.138C21.0406 19.3387 20.0676 20.3117 18.867 20.3117H15.554C14.3533 20.3117 13.3804 19.3387 13.3804 18.138L13.3794 11.6716C13.3794 10.472 14.3533 9.49805 15.553 9.49805H18.867Z" stroke="#263682" stroke-width="1.5" stroke-linecap="round" stroke-linejoin="round"/>
<path d="M17.2114 17.6738V17.6838" stroke="#263682" stroke-width="1.5" stroke-linecap="round" stroke-linejoin="round"/>
</svg>
