<svg width="16" height="17" viewBox="0 0 16 17" fill="none" xmlns="http://www.w3.org/2000/svg">
<path fill-rule="evenodd" clip-rule="evenodd" d="M12.0824 6.39156C12.0824 4.55089 10.4424 2.58089 8.00102 2.58089C5.55971 2.58089 3.91971 4.55156 3.91971 6.39223C3.91971 7.39759 3.67505 7.82359 3.41505 8.27426C3.16171 8.71426 2.89971 9.16959 2.90105 10.0916C3.06971 12.1216 4.89905 12.5189 8.00102 12.5189C11.1037 12.5189 12.933 12.1216 13.103 10.0636C13.103 9.16893 12.841 8.71359 12.587 8.27359C12.3277 7.82293 12.0824 7.39692 12.0824 6.39156Z" fill="#263682"/>
<path fill-rule="evenodd" clip-rule="evenodd" d="M9.38909 13.1856H6.65641C6.46441 13.1856 6.28907 13.2962 6.20574 13.4689C6.12307 13.6429 6.14641 13.8483 6.26641 13.9983C6.70109 14.5409 7.34042 14.8523 8.01975 14.8523C8.70309 14.8523 9.34442 14.5409 9.77909 13.9983C9.89975 13.8483 9.92309 13.6429 9.83975 13.4689C9.75642 13.2962 9.58175 13.1856 9.38909 13.1856Z" fill="#263682"/>
<path fill-rule="evenodd" clip-rule="evenodd" d="M2.85758 4.90815C3.09424 4.19482 3.51824 3.52815 4.08224 2.97948C4.28091 2.78681 4.28558 2.47081 4.09291 2.27281C3.90024 2.07481 3.58358 2.07015 3.38558 2.26215C2.70691 2.92215 2.19558 3.72815 1.90824 4.59281C1.82158 4.85482 1.96358 5.13815 2.22558 5.22548C2.27758 5.24215 2.33091 5.25082 2.38291 5.25082C2.59291 5.25082 2.78758 5.11815 2.85758 4.90815Z" fill="#263682"/>
<path fill-rule="evenodd" clip-rule="evenodd" d="M14.1003 4.59925C13.811 3.72925 13.2983 2.91925 12.6183 2.25725C12.421 2.06592 12.1037 2.06925 11.911 2.26725C11.719 2.46459 11.723 2.78125 11.921 2.97392C12.487 3.52525 12.9123 4.19659 13.1517 4.91525C13.2217 5.12459 13.4163 5.25725 13.6263 5.25725C13.6783 5.25725 13.7317 5.24925 13.7837 5.23125C14.0457 5.14459 14.1877 4.86125 14.1003 4.59925Z" fill="#263682"/>
</svg>
