<svg width="17" height="17" viewBox="0 0 17 17" fill="none" xmlns="http://www.w3.org/2000/svg">
<g clip-path="url(#clip0_4255_22799)">
<path fill-rule="evenodd" clip-rule="evenodd" d="M6.50754 1.53879C6.50754 1.26711 6.2873 1.04688 6.01562 1.04688C5.74395 1.04688 5.52371 1.26711 5.52371 1.53879V1.73898C4.71339 1.78387 4.14624 1.88885 3.66435 2.13438C2.92387 2.51168 2.32184 3.11371 1.94455 3.85419C1.51562 4.696 1.51562 5.79799 1.51562 8.00198V9.74226C1.51562 11.9463 1.51562 13.0482 1.94455 13.8901C2.32184 14.6305 2.92387 15.2326 3.66435 15.6099C4.50617 16.0388 5.60816 16.0388 7.81215 16.0388H9.55243C11.7564 16.0388 12.8584 16.0388 13.7002 15.6099C14.4407 15.2326 15.0427 14.6305 15.42 13.8901C15.849 13.0482 15.849 11.9463 15.849 9.74226V8.00199C15.849 5.798 15.849 4.696 15.42 3.85419C15.0427 3.11371 14.4407 2.51168 13.7002 2.13438C13.2183 1.88885 12.6512 1.78387 11.8409 1.73898V1.53879C11.8409 1.26711 11.6206 1.04688 11.349 1.04688C11.0773 1.04688 10.857 1.26711 10.857 1.53879V1.71004C10.4696 1.70546 10.0377 1.70546 9.55243 1.70546H7.81216C7.32685 1.70546 6.89497 1.70546 6.50754 1.71004V1.53879ZM4.52375 6.20552C4.52375 5.93384 4.74399 5.7136 5.01567 5.7136H12.349C12.6207 5.7136 12.8409 5.93384 12.8409 6.20552C12.8409 6.4772 12.6207 6.69743 12.349 6.69743H5.01567C4.74399 6.69743 4.52375 6.4772 4.52375 6.20552ZM4.85709 9.20552C4.85709 8.74975 5.22656 8.38027 5.68234 8.38027C6.13811 8.38027 6.50759 8.74975 6.50759 9.20552C6.50759 9.66129 6.13811 10.0308 5.68234 10.0308C5.22656 10.0308 4.85709 9.66129 4.85709 9.20552ZM7.85709 9.20552C7.85709 8.74975 8.22656 8.38027 8.68234 8.38027C9.13811 8.38027 9.50759 8.74975 9.50759 9.20552C9.50759 9.66129 9.13811 10.0308 8.68234 10.0308C8.22656 10.0308 7.85709 9.66129 7.85709 9.20552ZM10.8571 9.20552C10.8571 8.74975 11.2266 8.38027 11.6823 8.38027C12.1381 8.38027 12.5076 8.74975 12.5076 9.20552C12.5076 9.66129 12.1381 10.0308 11.6823 10.0308C11.2266 10.0308 10.8571 9.66129 10.8571 9.20552ZM4.85709 11.8722C4.85709 11.4164 5.22656 11.0469 5.68234 11.0469C6.13811 11.0469 6.50759 11.4164 6.50759 11.8722C6.50759 12.328 6.13811 12.6974 5.68234 12.6974C5.22656 12.6974 4.85709 12.328 4.85709 11.8722ZM7.85709 11.8722C7.85709 11.4164 8.22656 11.0469 8.68234 11.0469C9.13811 11.0469 9.50759 11.4164 9.50759 11.8722C9.50759 12.328 9.13811 12.6974 8.68234 12.6974C8.22656 12.6974 7.85709 12.328 7.85709 11.8722ZM10.8571 11.8722C10.8571 11.4164 11.2266 11.0469 11.6823 11.0469C12.1381 11.0469 12.5076 11.4164 12.5076 11.8722C12.5076 12.328 12.1381 12.6974 11.6823 12.6974C11.2266 12.6974 10.8571 12.328 10.8571 11.8722Z" fill="#914BEB"/>
</g>
<defs>
<clipPath id="clip0_4255_22799">
<rect width="16" height="16" fill="white" transform="translate(0.682129 0.87207)"/>
</clipPath>
</defs>
</svg>
