<svg width="54" height="54" viewBox="0 0 54 54" fill="none" xmlns="http://www.w3.org/2000/svg">
<rect width="54" height="54" rx="10" fill="#275AFF"/>
<path d="M14.5 23.25H39.5H39.0883C37.4923 23.25 36.6942 23.25 36.1377 23.7145C35.5811 24.179 35.4383 24.9641 35.1528 26.5345L33.8472 33.7155C33.5617 35.2859 33.4189 36.071 32.8623 36.5355C32.3058 37 31.5077 37 29.9117 37H24.0883C22.4923 37 21.6942 37 21.1377 36.5355C20.5811 36.071 20.4383 35.2859 20.1528 33.7155L18.8472 26.5345C18.5617 24.9641 18.4189 24.179 17.8623 23.7145C17.3058 23.25 16.5077 23.25 14.9117 23.25H14.5Z" fill="#275AFF" stroke="#1AF9FF" stroke-linecap="round"/>
<path d="M27 18.25L27 15.75" stroke="#1AF9FF" stroke-linecap="round"/>
<path d="M24.5 32L23.875 28.25" stroke="#1AF9FF" stroke-linecap="round"/>
<path d="M29.5 32L30.125 28.25" stroke="#1AF9FF" stroke-linecap="round"/>
</svg>
