<svg width="25" height="24" viewBox="0 0 25 24" fill="none" xmlns="http://www.w3.org/2000/svg">
<path d="M6.05664 7L9.05664 2M15.0566 2L18.0566 7M9.30339 22H14.8099C16.6788 22 17.6133 22 18.3793 21.6653C19.0547 21.3701 19.6354 20.894 20.0574 20.2896C20.5358 19.6041 20.7191 18.6878 21.0856 16.8551L21.5256 14.6551C22.0504 12.0311 22.3128 10.7191 21.9576 9.69225C21.646 8.79163 21.0232 8.03184 20.2011 7.5497C19.2639 7 17.9259 7 15.2499 7H8.86339C6.18736 7 4.84934 7 3.91214 7.5497C3.09012 8.03184 2.46724 8.79163 2.15567 9.69225C1.80045 10.7191 2.06286 12.0311 2.58767 14.6551L3.02767 16.8551C3.3942 18.6878 3.57747 19.6041 4.05593 20.2896C4.47785 20.894 5.05858 21.3701 5.73401 21.6653C6.49996 22 7.43443 22 9.30339 22Z" stroke="#D92D20" stroke-width="1.5" stroke-linecap="round" stroke-linejoin="round"/>
<path d="M14.8848 17.2979L9.22791 11.641" stroke="#D92D20" stroke-width="1.5" stroke-linecap="round"/>
<path d="M14.8848 11.6411L9.22791 17.298" stroke="#D92D20" stroke-width="1.5" stroke-linecap="round"/>
</svg>
