<svg width="13" height="12" viewBox="0 0 13 12" fill="none" xmlns="http://www.w3.org/2000/svg">
<g clip-path="url(#clip0_5679_46028)">
<path fill-rule="evenodd" clip-rule="evenodd" d="M1.46582 6C1.46582 3.03147 3.87229 0.625 6.84082 0.625C9.80935 0.625 12.2158 3.03147 12.2158 6C12.2158 8.96853 9.80935 11.375 6.84082 11.375C3.87229 11.375 1.46582 8.96853 1.46582 6ZM7.33273 4.00005C7.33273 3.72837 7.11249 3.50813 6.84081 3.50813C6.56914 3.50813 6.3489 3.72837 6.3489 4.00005V6.00005C6.3489 6.16452 6.4311 6.31811 6.56795 6.40935L8.06795 7.40935C8.294 7.56004 8.59941 7.49896 8.75011 7.27291C8.90081 7.04686 8.83973 6.74145 8.61368 6.59075L7.33273 5.73678V4.00005Z" fill="#F79009"/>
</g>
<defs>
<clipPath id="clip0_5679_46028">
<rect width="12" height="12" fill="white" transform="translate(0.84082)"/>
</clipPath>
</defs>
</svg>
