<svg width="46" height="29" viewBox="0 0 46 29" fill="none" xmlns="http://www.w3.org/2000/svg">
<path d="M15 27.5C16.0609 27.5 17.0783 27.0786 17.8284 26.3284C18.5786 25.5783 19 24.5609 19 23.5C19 22.4391 18.5786 21.4217 17.8284 20.6716C17.0783 19.9214 16.0609 19.5 15 19.5C13.9391 19.5 12.9217 19.9214 12.1716 20.6716C11.4214 21.4217 11 22.4391 11 23.5C11 24.5609 11.4214 25.5783 12.1716 26.3284C12.9217 27.0786 13.9391 27.5 15 27.5V27.5ZM35 27.5C36.0609 27.5 37.0783 27.0786 37.8284 26.3284C38.5786 25.5783 39 24.5609 39 23.5C39 22.4391 38.5786 21.4217 37.8284 20.6716C37.0783 19.9214 36.0609 19.5 35 19.5C33.9391 19.5 32.9217 19.9214 32.1716 20.6716C31.4214 21.4217 31 22.4391 31 23.5C31 24.5609 31.4214 25.5783 32.1716 26.3284C32.9217 27.0786 33.9391 27.5 35 27.5V27.5Z" stroke="#626262" stroke-width="1.5" stroke-miterlimit="1.5" stroke-linecap="round" stroke-linejoin="round"/>
<path d="M19.1 23.5H29V2.7C29 2.38174 28.8736 2.07652 28.6485 1.85147C28.4235 1.62643 28.1183 1.5 27.8 1.5H1M10.3 23.5H6.2C6.04241 23.5 5.88637 23.469 5.74078 23.4087C5.59519 23.3484 5.4629 23.26 5.35147 23.1485C5.24004 23.0371 5.15165 22.9048 5.09134 22.7592C5.03104 22.6136 5 22.4576 5 22.3V12.5" stroke="#626262" stroke-width="2" stroke-linecap="round"/>
<path d="M3 7.5H11" stroke="#626262" stroke-width="2" stroke-linecap="round" stroke-linejoin="round"/>
<path d="M29 7.5H40.22C40.452 7.50006 40.6789 7.56734 40.8734 7.6937C41.0679 7.82006 41.2217 8.00009 41.316 8.212L44.896 16.268C44.9642 16.421 44.9996 16.5865 45 16.754V22.3C45 22.4576 44.969 22.6136 44.9087 22.7592C44.8484 22.9048 44.76 23.0371 44.6485 23.1485C44.5371 23.26 44.4048 23.3484 44.2592 23.4087C44.1136 23.469 43.9576 23.5 43.8 23.5H40M29 23.5H31" stroke="#626262" stroke-width="2" stroke-linecap="round"/>
</svg>
