<svg width="31" height="31" viewBox="0 0 31 31" fill="none" xmlns="http://www.w3.org/2000/svg">
<g clip-path="url(#clip0_5401_9351)">
<path d="M11.9311 22.8567C13.8908 22.8567 15.7647 21.2689 16.108 19.3092C16.4513 17.3495 15.1496 15.7617 13.1756 15.7617C11.2016 15.7617 9.34205 17.3495 8.99874 19.3092C8.65544 21.2689 9.95714 22.8567 11.9311 22.8567Z" stroke="#552099" stroke-width="1.8" stroke-linecap="round" stroke-linejoin="round"/>
<path d="M21.7156 13.7176L12.9756 10.0414C12.4893 9.85545 11.8885 9.95558 11.4021 10.2989L10.4866 10.9426C10.0146 11.2716 9.90016 11.9153 10.2864 12.23L15.2071 16.4641" stroke="#552099" stroke-width="1.8" stroke-linecap="round" stroke-linejoin="round"/>
<path d="M12.9756 19.3096H21.5439C21.5439 19.3096 24.0329 15.5905 28.9393 14.1887C31.2137 13.545 30.1123 9.01046 26.5791 7.95194C25.8638 7.73737 25.0342 8.38107 25.0342 9.15351C25.0342 10.1548 24.9913 11.4279 24.6766 12.2719" stroke="#552099" stroke-width="1.8" stroke-linecap="round" stroke-linejoin="round"/>
<path d="M18.0966 12.2584C17.9822 11.5002 19.8847 8.31035 24.7053 10.3559" stroke="#552099" stroke-width="1.8" stroke-linecap="round" stroke-linejoin="round"/>
<path d="M25.0769 19.4961L23.718 17.2217" stroke="#552099" stroke-width="1.8" stroke-linecap="round" stroke-linejoin="round"/>
<path d="M25.4345 15.7624C25.5346 15.748 25.6348 15.748 25.7349 15.748C27.6946 15.748 29.0106 17.3501 28.6673 19.2955C28.324 21.2409 26.4358 22.8573 24.4761 22.8573C22.5164 22.8573 21.2004 21.2552 21.5437 19.2955" stroke="#552099" stroke-width="1.8" stroke-linecap="round" stroke-linejoin="round"/>
<path d="M12.2748 9.95312H5.02246" stroke="#552099" stroke-width="1.8" stroke-linecap="round" stroke-linejoin="round"/>
<path d="M10.8871 12.7568H1.78955" stroke="#552099" stroke-width="1.8" stroke-linecap="round" stroke-linejoin="round"/>
<path d="M13.176 15.7617H5.02246" stroke="#552099" stroke-width="1.8" stroke-linecap="round" stroke-linejoin="round"/>
<path d="M8.999 19.3086H6.96777" stroke="#552099" stroke-width="1.8" stroke-linecap="round" stroke-linejoin="round"/>
</g>
<defs>
<clipPath id="clip0_5401_9351">
<rect width="30" height="30" fill="white" transform="translate(0.958496 0.382812)"/>
</clipPath>
</defs>
</svg>
