<svg width="31" height="31" viewBox="0 0 31 31" fill="none" xmlns="http://www.w3.org/2000/svg">
<path d="M8.40706 23.6446C10.5887 23.6446 12.3573 21.876 12.3573 19.6944C12.3573 17.5128 10.5887 15.7441 8.40706 15.7441C6.22539 15.7441 4.45679 17.5128 4.45679 19.6944C4.45679 21.876 6.22539 23.6446 8.40706 23.6446Z" stroke="#914BEB" stroke-width="1.8" stroke-miterlimit="10" stroke-linecap="round" stroke-linejoin="round"/>
<path d="M17.4968 13.4801L7.06632 9.39666C6.48932 9.19692 5.84573 9.30788 5.3686 9.68516L4.4809 10.4064C4.01485 10.7726 4.02595 11.4828 4.50308 11.8378L10.8058 16.5427" stroke="#914BEB" stroke-width="1.8" stroke-miterlimit="10" stroke-linecap="round" stroke-linejoin="round"/>
<path d="M8.87402 19.6938H18.4057C18.4057 19.6938 20.4474 15.5661 25.6294 14.0014C28.0262 13.2802 25.9179 8.24251 21.7901 7.0663C20.9578 6.83329 20.1589 7.54343 20.3143 8.39785C20.5251 9.50748 20.7138 10.9278 20.5251 11.871" stroke="#914BEB" stroke-width="1.8" stroke-miterlimit="10" stroke-linecap="round" stroke-linejoin="round"/>
<path d="M13.1789 11.8601C12.9015 11.0168 14.3995 7.4771 20.1585 9.75184" stroke="#914BEB" stroke-width="1.8" stroke-miterlimit="10" stroke-linecap="round" stroke-linejoin="round"/>
<path d="M22.3676 19.8943L20.4146 17.3643" stroke="#914BEB" stroke-width="1.8" stroke-miterlimit="10" stroke-linecap="round" stroke-linejoin="round"/>
<path d="M22.0334 15.7547C22.1443 15.7324 22.2553 15.7324 22.3663 15.7324C24.5523 15.7324 26.3276 17.5078 26.3276 19.6827C26.3276 21.8687 24.5523 23.644 22.3663 23.644C20.1803 23.644 18.416 21.8687 18.416 19.6827" stroke="#914BEB" stroke-width="1.8" stroke-miterlimit="10" stroke-linecap="round" stroke-linejoin="round"/>
</svg>
