<svg width="25" height="24" viewBox="0 0 25 24" fill="none" xmlns="http://www.w3.org/2000/svg">
<path d="M11.8372 16.3816C12.6584 16.261 13.4942 16.3836 14.3232 16.3631C16.2467 16.3174 17.7529 14.6916 19.2172 13.5892C19.9654 13.0258 21.0123 13.1008 21.674 13.7643C22.4076 14.5018 22.4076 15.6966 21.674 16.4332C20.0929 18.0211 18.6957 19.4932 16.5532 20.326C13.5798 21.4829 10.8205 20.9225 7.80914 20.326C6.64353 20.0964 5.57034 20.0818 4.39111 20.0818" stroke="#F5F6FC" stroke-width="1.5" stroke-linecap="round" stroke-linejoin="round"/>
<path d="M11.8372 16.3456H13.4611C14.6199 16.3456 15.5569 15.5128 15.5569 14.353C15.5569 13.3898 14.904 12.6192 13.97 12.3847C12.6331 12.049 11.2992 11.7863 9.90396 11.8204C7.6924 11.8739 6.14538 13.1056 4.39209 14.279" stroke="#F5F6FC" stroke-width="1.5" stroke-linecap="round" stroke-linejoin="round"/>
<path d="M20.8618 13.2123L20.8463 6.69438C20.8414 4.31645 19.6845 2.99418 17.3056 3.00002L9.79723 3.01656C7.42514 3.02142 6.31498 4.3505 6.31984 6.72843L6.33541 12.9943" stroke="#F5F6FC" stroke-width="1.5" stroke-linecap="round" stroke-linejoin="round"/>
<path d="M15.594 3L15.6057 8.41651L13.5985 7.76171L11.5796 8.42819L11.5737 3.01751" stroke="#F5F6FC" stroke-width="1.5" stroke-linecap="round" stroke-linejoin="round"/>
</svg>
