<svg width="16" height="17" viewBox="0 0 16 17" fill="none" xmlns="http://www.w3.org/2000/svg">
<path fill-rule="evenodd" clip-rule="evenodd" d="M6.70375 6.75335C6.61708 6.80586 6.61834 6.93201 6.70602 6.98277L8.47101 8.00467C8.53301 8.04054 8.60948 8.04054 8.67142 8.00467L13.6386 5.12866C13.7125 5.08591 13.7279 4.98547 13.666 4.92677C13.5651 4.83116 13.4548 4.7446 13.3319 4.67266L11.7621 3.76865C11.7201 3.7444 11.6681 3.74498 11.6265 3.77016L6.70375 6.75335Z" fill="#B985FD"/>
<path fill-rule="evenodd" clip-rule="evenodd" d="M5.45615 6.25908C5.49831 6.2835 5.55044 6.28298 5.59211 6.25772L10.5109 3.27629C10.5977 3.22371 10.5963 3.09737 10.5084 3.04674L9.54788 2.49335C8.94321 2.14002 8.19188 2.14068 7.59188 2.49268L3.80319 4.67335C3.68221 4.74452 3.57338 4.82988 3.47358 4.92412C3.41146 4.98278 3.42679 5.08339 3.50072 5.12622L5.45615 6.25908Z" fill="#B985FD"/>
<path fill-rule="evenodd" clip-rule="evenodd" d="M9.16628 8.87374C9.10448 8.90954 9.06648 8.97547 9.06648 9.04687V14.6423C9.06648 14.7298 9.14955 14.7936 9.23182 14.7638C9.33968 14.7247 9.44482 14.6758 9.54582 14.6169L13.3345 12.4362C13.9365 12.0835 14.3105 11.4342 14.3105 10.7415V6.36821C14.3105 6.2793 14.3016 6.1918 14.2874 6.10542C14.2729 6.01702 14.1735 5.97425 14.0959 6.01914L9.16628 8.87374Z" fill="#B985FD"/>
<path fill-rule="evenodd" clip-rule="evenodd" d="M8.06648 9.04147C8.06648 8.97014 8.02848 8.9042 7.96668 8.8684L6.2233 7.8588C6.13441 7.80727 6.02315 7.8714 6.02315 7.97414V8.87287C6.02315 9.14887 5.79915 9.37287 5.52315 9.37287C5.24715 9.37287 5.02315 9.14887 5.02315 8.87287V7.2404C5.02315 7.1928 4.9978 7.14885 4.95662 7.12501L3.04114 6.01611C2.96378 5.97132 2.86466 6.01384 2.85024 6.10207C2.83594 6.18959 2.82715 6.2783 2.82715 6.36819V10.7415C2.82715 11.4335 3.20115 12.0829 3.80582 12.4369L7.58982 14.6162C7.68995 14.6744 7.79422 14.7233 7.90102 14.7625C7.98328 14.7927 8.06648 14.7289 8.06648 14.6412V9.04147Z" fill="#B985FD"/>
</svg>
