<svg width="31" height="31" viewBox="0 0 31 31" fill="none" xmlns="http://www.w3.org/2000/svg">
<g clip-path="url(#clip0_5401_9513)">
<path d="M11.4677 23.1459C13.5165 23.1459 15.1764 21.4859 15.1764 19.4372C15.1764 17.3884 13.5165 15.7285 11.4677 15.7285C9.41897 15.7285 7.75903 17.3884 7.75903 19.4372C7.75903 21.4859 9.41897 23.1459 11.4677 23.1459Z" stroke="#7233C2" stroke-width="1.8" stroke-linecap="round" stroke-linejoin="round"/>
<path d="M20.0066 13.59L10.1965 9.74676C9.65816 9.55236 9.04503 9.65704 8.5964 10.0159L7.75896 10.6889C7.32528 11.0328 7.32528 11.7058 7.77391 12.0348L13.6958 16.4613" stroke="#7233C2" stroke-width="1.8" stroke-linecap="round" stroke-linejoin="round"/>
<path d="M11.9009 19.437H20.8585C20.8585 19.437 22.7727 15.5488 27.6478 14.0833C29.9059 13.4104 27.917 8.66984 24.0438 7.56321C23.2662 7.3389 22.5035 8.01184 22.6531 8.81938C22.8475 9.86619 23.0269 11.1971 22.8475 12.0794" stroke="#7233C2" stroke-width="1.8" stroke-linecap="round" stroke-linejoin="round"/>
<path d="M15.9538 12.0649C15.6995 11.2723 17.1052 7.9375 22.5187 10.076" stroke="#7233C2" stroke-width="1.8" stroke-linecap="round" stroke-linejoin="round"/>
<path d="M24.5972 19.6316L22.7578 17.2539" stroke="#7233C2" stroke-width="1.8" stroke-linecap="round" stroke-linejoin="round"/>
<path d="M24.2836 15.7278C24.3882 15.7129 24.4929 15.7129 24.5976 15.7129C26.6463 15.7129 28.3212 17.3878 28.3212 19.4216C28.3212 21.4703 26.6463 23.1452 24.5976 23.1452C22.5489 23.1452 20.8889 21.4703 20.8889 19.4216" stroke="#7233C2" stroke-width="1.8" stroke-linecap="round" stroke-linejoin="round"/>
<path d="M9.37375 9.65723H3.8855" stroke="#7233C2" stroke-width="1.8" stroke-linecap="round" stroke-linejoin="round"/>
<path d="M7.93825 12.5879H1.55273" stroke="#7233C2" stroke-width="1.8" stroke-linecap="round" stroke-linejoin="round"/>
<path d="M10.3307 15.7285H6.45752" stroke="#7233C2" stroke-width="1.8" stroke-linecap="round" stroke-linejoin="round"/>
</g>
<defs>
<clipPath id="clip0_5401_9513">
<rect width="30" height="30" fill="white" transform="translate(0.0756836 0.333008)"/>
</clipPath>
</defs>
</svg>
