<svg width="21" height="21" viewBox="0 0 21 21" fill="none" xmlns="http://www.w3.org/2000/svg">
<g clip-path="url(#clip0_5533_70410)">
<path d="M17.3866 17.9763C18.7459 17.9763 19.8479 16.8743 19.8479 15.515C19.8479 14.1557 18.7459 13.0537 17.3866 13.0537C16.0273 13.0537 14.9253 14.1557 14.9253 15.515C14.9253 16.8743 16.0273 17.9763 17.3866 17.9763Z" stroke="#263682" stroke-width="1.25" stroke-linecap="round" stroke-linejoin="round"/>
<path d="M5.70739 17.9763C7.06672 17.9763 8.16868 16.8743 8.16868 15.515C8.16868 14.1557 7.06672 13.0537 5.70739 13.0537C4.34805 13.0537 3.24609 14.1557 3.24609 15.515C3.24609 16.8743 4.34805 17.9763 5.70739 17.9763Z" stroke="#263682" stroke-width="1.25" stroke-linecap="round" stroke-linejoin="round"/>
<path d="M1.04346 3.25586H8.11826C9.03874 3.25586 9.78493 4.00205 9.78493 4.92253V8.71247C9.78493 9.63294 9.03874 10.3791 8.11826 10.3791H3.66008C2.73961 10.3791 1.99342 9.63294 1.99342 8.71247V5.18824" stroke="#263682" stroke-width="1.25" stroke-linecap="round" stroke-linejoin="round"/>
<path d="M13.2456 8.28516H15.5428" stroke="#263682" stroke-width="1.25" stroke-linecap="round" stroke-linejoin="round"/>
<path d="M15.5431 8.50684L15.6879 8.76744C16.4601 10.196 16.1898 11.9623 15.0123 13.0916C13.5934 14.4525 11.3638 14.4815 9.9063 13.1592L6.9624 10.4759" stroke="#263682" stroke-width="1.25" stroke-linecap="round" stroke-linejoin="round"/>
<path d="M5.70786 13.0439H1.75049" stroke="#263682" stroke-width="1.25" stroke-linecap="round" stroke-linejoin="round"/>
</g>
<defs>
<clipPath id="clip0_5533_70410">
<rect width="20" height="20" fill="white" transform="translate(0.5 0.616211)"/>
</clipPath>
</defs>
</svg>
