<svg width="24" height="24" viewBox="0 0 24 24" fill="none" xmlns="http://www.w3.org/2000/svg">
<path d="M11.3787 16.3816C12.1999 16.261 13.0357 16.3836 13.8647 16.3631C15.7882 16.3174 17.2944 14.6916 18.7587 13.5892C19.5069 13.0258 20.5538 13.1008 21.2155 13.7643C21.9491 14.5018 21.9491 15.6966 21.2155 16.4332C19.6344 18.0211 18.2372 19.4932 16.0947 20.326C13.1213 21.4829 10.362 20.9225 7.35065 20.326C6.18504 20.0964 5.11185 20.0818 3.93262 20.0818" stroke="#263682" stroke-width="1.5" stroke-linecap="round" stroke-linejoin="round"/>
<path d="M11.3787 16.3456H13.0026C14.1614 16.3456 15.0984 15.5128 15.0984 14.353C15.0984 13.3898 14.4455 12.6192 13.5115 12.3847C12.1746 12.049 10.8407 11.7863 9.44546 11.8204C7.2339 11.8739 5.68688 13.1056 3.93359 14.279" stroke="#263682" stroke-width="1.5" stroke-linecap="round" stroke-linejoin="round"/>
<path d="M20.4033 13.2123L20.3878 6.69438C20.3829 4.31645 19.226 2.99418 16.8471 3.00002L9.33873 3.01656C6.96664 3.02142 5.85648 4.3505 5.86134 6.72843L5.87691 12.9943" stroke="#263682" stroke-width="1.5" stroke-linecap="round" stroke-linejoin="round"/>
<path d="M15.1355 3L15.1472 8.41651L13.14 7.76171L11.1211 8.42819L11.1152 3.01751" stroke="#263682" stroke-width="1.5" stroke-linecap="round" stroke-linejoin="round"/>
</svg>
