<svg width="25" height="25" viewBox="0 0 25 25" fill="none" xmlns="http://www.w3.org/2000/svg">
<g clip-path="url(#clip0_5582_61824)">
<path d="M21.2226 21.6718C22.8538 21.6718 24.1761 20.3494 24.1761 18.7182C24.1761 17.087 22.8538 15.7646 21.2226 15.7646C19.5914 15.7646 18.269 17.087 18.269 18.7182C18.269 20.3494 19.5914 21.6718 21.2226 21.6718Z" fill="#263682" stroke="#263682" stroke-width="1.5" stroke-linecap="round" stroke-linejoin="round"/>
<path d="M7.2077 21.6718C8.8389 21.6718 10.1613 20.3494 10.1613 18.7182C10.1613 17.087 8.8389 15.7646 7.2077 15.7646C5.5765 15.7646 4.25415 17.087 4.25415 18.7182C4.25415 20.3494 5.5765 21.6718 7.2077 21.6718Z" fill="#263682" stroke="#263682" stroke-width="1.5" stroke-linecap="round" stroke-linejoin="round"/>
<path d="M1.6106 4.00781H12.1004V12.5557H2.75055V4.00781" stroke="#263682" stroke-width="1.5" stroke-linecap="round" stroke-linejoin="round"/>
<path d="M12.1004 4.00781H2.75055V12.5557H12.1004V4.00781Z" fill="#263682"/>
<path d="M1.6106 4.00781H12.1004V12.5557H2.75055V4.00781" stroke="#263682" stroke-width="1.5" stroke-linecap="round" stroke-linejoin="round"/>
<path d="M19.0103 10.3086L19.184 10.6213C20.1106 12.3355 19.7863 14.4551 18.3732 15.8103C16.6706 17.4434 13.995 17.4782 12.2461 15.8914L8.71338 12.6714" stroke="#263682" stroke-width="1.5" stroke-linecap="round" stroke-linejoin="round"/>
<path d="M7.20783 15.7529H2.45898" stroke="#263682" stroke-width="1.5" stroke-linecap="round" stroke-linejoin="round"/>
<path d="M16.2151 10.043H18.9717" stroke="#263682" stroke-width="1.5" stroke-linecap="round" stroke-linejoin="round"/>
</g>
<defs>
<clipPath id="clip0_5582_61824">
<rect width="24" height="24" fill="white" transform="translate(0.958496 0.839844)"/>
</clipPath>
</defs>
</svg>
