<svg width="24" height="25" viewBox="0 0 24 25" fill="none" xmlns="http://www.w3.org/2000/svg">
<g clip-path="url(#clip0_3949_75946)">
<path d="M20.2641 21.3041C21.8953 21.3041 23.2177 19.9817 23.2177 18.3505C23.2177 16.7193 21.8953 15.397 20.2641 15.397C18.6329 15.397 17.3105 16.7193 17.3105 18.3505C17.3105 19.9817 18.6329 21.3041 20.2641 21.3041Z" stroke="#8D99D2" stroke-width="1.5" stroke-linecap="round" stroke-linejoin="round"/>
<path d="M6.24921 21.3041C7.88041 21.3041 9.20276 19.9817 9.20276 18.3505C9.20276 16.7193 7.88041 15.397 6.24921 15.397C4.618 15.397 3.29565 16.7193 3.29565 18.3505C3.29565 19.9817 4.618 21.3041 6.24921 21.3041Z" stroke="#8D99D2" stroke-width="1.5" stroke-linecap="round" stroke-linejoin="round"/>
<path d="M0.6521 3.64111H9.14187C10.2464 3.64111 11.1419 4.53654 11.1419 5.64111V10.189C11.1419 11.2936 10.2464 12.189 9.14187 12.189H3.79205C2.68748 12.189 1.79205 11.2936 1.79205 10.189V5.95997" stroke="#8D99D2" stroke-width="1.5" stroke-linecap="round" stroke-linejoin="round"/>
<path d="M15.2949 9.67529H18.0516" stroke="#8D99D2" stroke-width="1.5" stroke-linecap="round" stroke-linejoin="round"/>
<path d="M18.0518 9.94189L18.2255 10.2546C19.1521 11.9688 18.8278 14.0884 17.4147 15.4436C15.7121 17.0767 13.0365 17.1115 11.2876 15.5247L7.75488 12.3047" stroke="#8D99D2" stroke-width="1.5" stroke-linecap="round" stroke-linejoin="round"/>
<path d="M6.24934 15.3857H1.50049" stroke="#8D99D2" stroke-width="1.5" stroke-linecap="round" stroke-linejoin="round"/>
</g>
<defs>
<clipPath id="clip0_3949_75946">
<rect width="24" height="24" fill="white" transform="translate(0 0.472656)"/>
</clipPath>
</defs>
</svg>
