<svg width="25" height="25" viewBox="0 0 25 25" fill="none" xmlns="http://www.w3.org/2000/svg">
<path d="M10.589 3.60315C11.7594 2.42415 13.6701 2.42415 14.8505 3.59415L15.5808 4.32315C15.8609 4.60315 16.241 4.76415 16.6412 4.76415H17.6716C19.3322 4.76415 20.6827 6.11315 20.6827 7.77315V8.80415C20.6827 9.20315 20.8427 9.58315 21.1228 9.86315L21.8431 10.5832C22.4133 11.1432 22.7234 11.9032 22.7234 12.7032C22.7334 13.5032 22.4233 14.2642 21.8631 14.8332L21.1228 15.5732C20.8427 15.8532 20.6827 16.2332 20.6827 16.6342V17.6632C20.6827 19.3232 19.3322 20.6742 17.6716 20.6742H16.6412C16.241 20.6742 15.8609 20.8332 15.5808 21.1132L14.8605 21.8332C14.2703 22.4242 13.5001 22.7132 12.7298 22.7132C11.9595 22.7132 11.1892 22.4242 10.599 21.8442L9.86874 21.1132C9.58864 20.8332 9.2085 20.6742 8.80835 20.6742H7.77798C6.11738 20.6742 4.76689 19.3232 4.76689 17.6632V16.6342C4.76689 16.2332 4.60683 15.8532 4.32673 15.5632L3.60647 14.8532C2.43604 13.6842 2.42604 11.7732 3.59647 10.5942L4.32673 9.86315C4.60683 9.58315 4.76689 9.20315 4.76689 8.79315V7.77315C4.76689 6.11315 6.11738 4.76415 7.77798 4.76415H8.80835C9.2085 4.76415 9.58864 4.60315 9.86874 4.32315L10.589 3.60315ZM15.3007 14.4132C14.8105 14.4132 14.4204 14.8042 14.4204 15.2832C14.4204 15.7732 14.8105 16.1632 15.3007 16.1632C15.7809 16.1632 16.171 15.7732 16.171 15.2832C16.171 14.8042 15.7809 14.4132 15.3007 14.4132ZM15.9109 9.52315C15.5708 9.18415 15.0206 9.18415 14.6805 9.52315L9.53862 14.6632C9.1985 15.0032 9.1985 15.5632 9.53862 15.9032C9.69868 16.0732 9.91876 16.1632 10.1488 16.1632C10.3889 16.1632 10.609 16.0732 10.7691 15.9032L15.9109 10.7642C16.2511 10.4242 16.2511 9.86315 15.9109 9.52315ZM10.1588 9.27315C9.67867 9.27315 9.27852 9.66315 9.27852 10.1432C9.27852 10.6342 9.67867 11.0232 10.1588 11.0232C10.639 11.0232 11.0292 10.6342 11.0292 10.1432C11.0292 9.66315 10.639 9.27315 10.1588 9.27315Z" fill="#5D4800"/>
</svg>
