<svg width="60" height="60" viewBox="0 0 60 60" fill="none" xmlns="http://www.w3.org/2000/svg">
<path fill-rule="evenodd" clip-rule="evenodd" d="M23.4144 51.0442V49.7875H22.1599V51.0442H23.4144ZM20.365 51.0442V49.7875H19.105V51.0442H20.365ZM53.6272 42.1439C53.6272 41.8856 53.4151 41.6749 53.1571 41.6749H41.8694C41.6087 41.6749 41.3994 41.8829 41.3994 42.1439C41.3994 42.4055 41.6082 42.6123 41.8694 42.6123H53.1571C53.4155 42.6123 53.6272 42.4028 53.6272 42.1439ZM25.5428 16.6553C25.5428 16.4043 25.3395 16.205 25.0893 16.205C24.8411 16.205 24.6413 16.4077 24.6413 16.6553C24.6413 16.9029 24.8412 17.1055 25.0893 17.1055C25.3396 17.1054 25.5428 16.9063 25.5428 16.6553ZM37.6729 17.1054C37.9231 17.1054 38.1264 16.9062 38.1264 16.6552C38.1264 16.4041 37.9232 16.2049 37.6729 16.2049C37.4247 16.2049 37.2249 16.4075 37.2249 16.6552C37.2249 16.9029 37.4248 17.1054 37.6729 17.1054ZM6.8412 57.6558H2.34424V41.7112H6.8412V57.6558ZM17.0785 47.8093L25.4409 45.5445V57.6559H17.0785V47.8093ZM43.9992 49.1459C43.9992 48.8868 43.7879 48.6769 43.5291 48.6769H41.0049V47.5761H54.0159V57.6557H49.9822V55.1314C49.9822 54.874 49.7763 54.6625 49.5176 54.6625H46.9879V52.1382C46.9879 51.8801 46.7825 51.6698 46.5234 51.6698H43.9992V49.1459ZM37.3655 44.0317V42.2545L47.5105 37.4186L57.6554 42.2545V44.0317H37.3655ZM27.1748 14.6208C26.6255 14.0535 25.8788 13.7391 25.0893 13.7391C24.2992 13.7391 23.554 14.0578 23.0027 14.622L22.8993 14.7278H20.6298V2.34375H33.5084V14.7278H27.2786L27.1748 14.6208ZM37.3986 6.32109H39.25C39.4727 6.32109 39.6505 6.4166 39.7713 6.60363L41.5668 9.38039H37.3986V6.32109ZM25.0893 18.6335C24.0002 18.6335 23.1111 17.7446 23.1111 16.6553C23.1111 15.566 24.0002 14.6764 25.0893 14.6764C26.1815 14.6764 27.0676 15.5633 27.0676 16.6553C27.0676 17.7472 26.1814 18.6335 25.0893 18.6335ZM35.6947 16.6553C35.6947 15.5633 36.5807 14.6764 37.6729 14.6764C38.7651 14.6764 39.6512 15.5633 39.6512 16.6553C39.6512 17.7472 38.765 18.6335 37.6729 18.6335C36.5808 18.6335 35.6947 17.7472 35.6947 16.6553Z" fill="#E5F0FF"/>
<path fill-rule="evenodd" clip-rule="evenodd" d="M12.5058 51.2396V49.5909C12.5058 49.5055 12.5775 49.436 12.6603 49.436H14.309C14.3972 49.436 14.4689 49.5055 14.4689 49.5909V51.2396C14.4689 51.3251 14.3972 51.3957 14.309 51.3957H12.6603C12.5775 51.3957 12.5058 51.3252 12.5058 51.2396ZM9.45648 51.2396V49.5909C9.45648 49.5055 9.5282 49.436 9.61094 49.436H11.2598C11.348 49.436 11.4142 49.5055 11.4142 49.5909V51.2396C11.4142 51.3251 11.348 51.3957 11.2598 51.3957H9.61094C9.52809 51.3957 9.45648 51.3252 9.45648 51.2396ZM18.7536 51.2396V49.5909C18.7536 49.5055 18.8253 49.436 18.9135 49.436H20.5623C20.6451 49.436 20.7168 49.5055 20.7168 49.5909V51.2396C20.7168 51.3251 20.6451 51.3957 20.5623 51.3957H18.9135C18.8253 51.3957 18.7536 51.3252 18.7536 51.2396ZM21.8085 51.2396V49.5909C21.8085 49.5055 21.8747 49.436 21.963 49.436H23.6117C23.6944 49.436 23.7661 49.5055 23.7661 49.5909V51.2396C23.7661 51.3251 23.6944 51.3957 23.6117 51.3957H21.963C21.8746 51.3957 21.8085 51.3252 21.8085 51.2396ZM25.8945 16.6553C25.8945 17.098 25.536 17.4571 25.0894 17.4571C24.6483 17.4571 24.2898 17.0981 24.2898 16.6553C24.2898 16.2124 24.6483 15.8535 25.0894 15.8535C25.5361 15.8535 25.8945 16.2124 25.8945 16.6553ZM38.4781 16.6553C38.4781 17.098 38.1196 17.4571 37.673 17.4571C37.2319 17.4571 36.8734 17.0981 36.8734 16.6553C36.8734 16.2124 37.2319 15.8535 37.673 15.8535C38.1197 15.8535 38.4781 16.2124 38.4781 16.6553ZM53.9788 42.1439C53.9788 42.5972 53.6093 42.9639 53.1572 42.9639H41.8695C41.4118 42.9639 41.0479 42.5972 41.0479 42.1439C41.0479 41.6918 41.4119 41.3234 41.8695 41.3234H53.1572C53.6093 41.3234 53.9788 41.6917 53.9788 42.1439ZM56.3058 57.3043H55.3077V47.1079C55.3077 46.6546 54.9382 46.2873 54.4861 46.2873H40.535C40.0828 46.2873 39.7134 46.6546 39.7134 47.1079V57.3043H38.7153V45.3207H56.3058V57.3043ZM41.3566 55.9516V57.3043H42.7076V55.9516H41.3566ZM41.3566 52.959V54.3111H42.7076V52.959H41.3566ZM41.3566 49.9659V51.3186H42.7076V49.9659H41.3566ZM47.3396 55.9516V57.3043H48.6961V55.9516H47.3396ZM45.7019 55.9516H44.3508V57.3043H45.7019V55.9516ZM45.7019 54.3111V52.959H44.3508V54.3111H45.7019ZM53.6645 57.3043V47.9278H41.3566V48.3254H43.5292C43.9814 48.3254 44.3508 48.6921 44.3508 49.146V51.3186H46.5235C46.9757 51.3186 47.3396 51.6853 47.3396 52.1386V54.3112H49.5177C49.9698 54.3112 50.3338 54.6796 50.3338 55.1318V57.3045L53.6645 57.3043ZM37.7172 42.4764V43.6801H57.3039V42.4764L47.5105 37.808L37.7172 42.4764ZM58.4785 41.2191L47.8635 36.1575C47.643 36.0511 47.3837 36.0511 47.1577 36.1575L36.5427 41.2191C36.2615 41.3548 36.0795 41.6432 36.0795 41.9597V44.5001C36.0795 44.9528 36.4435 45.3206 36.9011 45.3206H37.0776V58.1248C37.0776 58.578 37.4416 58.9447 37.8937 58.9447H57.1275C57.5797 58.9447 57.9491 58.578 57.9491 58.1248V45.3206H58.1256C58.5777 45.3206 58.9472 44.9528 58.9472 44.5001V41.9597C58.9471 41.6432 58.7651 41.3548 58.4785 41.2191ZM46.722 32.1134L46.9701 31.9226C47.3341 31.6462 47.8469 31.7135 48.1226 32.0726C48.3984 32.4315 48.3321 32.9466 47.9738 33.2229L46.1982 34.5888C46.0493 34.7036 45.8728 34.7592 45.6964 34.7592C45.4483 34.7592 45.2056 34.6489 45.0457 34.4388L43.6782 32.6621C43.4024 32.3032 43.4686 31.7882 43.827 31.5118C44.191 31.2355 44.7038 31.3028 44.9795 31.6623L45.0953 31.8096C45.178 28.5942 44.0697 25.4528 41.9412 22.9785C41.6434 22.6349 41.682 22.1171 42.0239 21.8216C42.3658 21.5255 42.8842 21.5641 43.182 21.907C45.6412 24.7607 46.8873 28.4017 46.722 32.1134ZM19.6689 23.6038L19.3601 23.6452C18.9079 23.7047 18.4998 23.3888 18.4393 22.9399C18.3786 22.4905 18.693 22.078 19.1451 22.0185L21.3673 21.7235C21.8139 21.6634 22.2276 21.9799 22.2882 22.4289L22.5804 24.6505C22.6411 25.0999 22.3268 25.5124 21.8746 25.5714C21.428 25.6315 21.0143 25.3155 20.9538 24.8661L20.9317 24.6825C19.2498 27.4242 18.6378 30.6987 19.2443 33.9074C19.3326 34.3523 19.0403 34.782 18.5937 34.8669C18.544 34.8757 18.4889 34.8807 18.4393 34.8807C18.0532 34.8807 17.7114 34.6072 17.6342 34.2141C16.9339 30.5126 17.6727 26.7353 19.6689 23.6038ZM25.0894 57.3043V46.0039L17.43 48.0784V57.3043H25.0894ZM15.7923 57.3043V46.0039L8.13297 48.0784V57.3043H15.7923ZM2.69594 57.3043V42.0629H6.48977V57.3043H2.69594ZM6.48977 38.1697V40.4223H2.69594V38.1697H6.48977ZM26.4073 44.2801C26.2088 44.124 25.9441 44.0728 25.696 44.1395L17.43 46.3778V44.9313C17.43 44.676 17.3143 44.435 17.1102 44.2801C16.9062 44.124 16.6415 44.0728 16.3989 44.1395L8.13297 46.3778V37.9801C8.13297 37.18 7.48234 36.5293 6.68277 36.5293H2.50293C1.70336 36.5293 1.05273 37.18 1.05273 37.9801V58.1248C1.05273 58.578 1.42223 58.9447 1.87434 58.9447H25.9111C26.3632 58.9447 26.7327 58.578 26.7327 58.1248V44.9313C26.7327 44.676 26.6114 44.435 26.4073 44.2801ZM28.3539 16.7974C28.3594 16.7505 28.3594 16.7031 28.3594 16.6552C28.3594 16.4368 28.3374 16.2234 28.2987 16.0166H34.4692C34.4307 16.2234 34.4085 16.4368 34.4085 16.6552V16.7974H28.3539ZM25.0894 18.282C25.9882 18.282 26.7161 17.5525 26.7161 16.6553C26.7161 15.7581 25.9882 15.028 25.0894 15.028C24.1961 15.028 23.4627 15.7581 23.4627 16.6553C23.4627 17.5523 24.1961 18.282 25.0894 18.282ZM20.4409 16.7974V16.0166H21.8856C21.8471 16.2234 21.8249 16.4368 21.8249 16.6552C21.8249 16.7031 21.8249 16.7505 21.8304 16.7974H20.4409ZM33.1568 2.6952V14.3761H27.4274C26.8374 13.7667 26.0103 13.3874 25.0894 13.3874C24.1741 13.3874 23.347 13.7667 22.7514 14.3761H20.9813V2.6952H33.1568ZM36.1125 6.67266V9.84891C36.1125 10.3022 36.4765 10.6695 36.9286 10.6695H41.7868V14.3762H40.0111C39.4156 13.7668 38.5885 13.3875 37.6731 13.3875C36.7578 13.3875 35.9307 13.7668 35.3351 14.3762H34.8003V6.67266H36.1125ZM39.4762 6.79453C39.421 6.7091 39.3549 6.67266 39.2501 6.67266H37.7502V9.02895H40.921L39.4762 6.79453ZM42.5421 16.7974H40.9375C40.943 16.7505 40.943 16.7031 40.943 16.6552C40.943 16.4368 40.921 16.2234 40.8768 16.0166H42.5421V16.7974ZM37.673 18.282C38.5718 18.282 39.2997 17.5525 39.2997 16.6553C39.2997 15.7581 38.5718 15.028 37.673 15.028C36.7742 15.028 36.0463 15.7581 36.0463 16.6553C36.0463 17.5523 36.7742 18.282 37.673 18.282ZM37.673 19.9229C38.82 19.9229 39.8236 19.3312 40.408 18.4385H42.8178C43.5733 18.4385 44.1854 17.8264 44.1854 17.0743V15.7404C44.1854 15.2055 43.8711 14.7429 43.4243 14.5195V10.4401C43.4243 10.0608 43.3251 9.72164 43.1211 9.40348L40.8546 5.90297C40.4962 5.34938 39.9118 5.03227 39.25 5.03227H34.8V1.87523C34.8 1.42195 34.4305 1.05469 33.9784 1.05469H20.1597C19.7075 1.05469 19.3436 1.42195 19.3436 1.87523V14.6529C19.0128 14.9021 18.7977 15.2959 18.7977 15.7403V17.0742C18.7977 17.8263 19.4098 18.4384 20.1598 18.4384H22.3545C22.939 19.3311 23.9481 19.9228 25.0895 19.9228C26.2364 19.9228 27.2455 19.3311 27.8301 18.4384H34.938C35.5225 19.3314 36.5316 19.9229 37.673 19.9229Z" fill="#275AFF"/>
</svg>
