<svg xmlns="http://www.w3.org/2000/svg" width="12" height="12" viewBox="0 0 12 12" fill="none">
  <path fill-rule="evenodd" clip-rule="evenodd" d="M8.4855 1.25879H3.514C2.2655 1.25879 1.25 2.27479 1.25 3.52329V6.2513C1.25 7.5003 2.2655 8.5163 3.514 8.5163H8.4855C9.734 8.5163 10.75 7.5003 10.75 6.2513V3.52329C10.75 2.27479 9.734 1.25879 8.4855 1.25879Z" fill="#914BEB"/>
  <path fill-rule="evenodd" clip-rule="evenodd" d="M8.2189 9.86621H3.72339C3.48189 9.86621 3.28589 10.0627 3.28589 10.3037C3.28589 10.5447 3.48189 10.7412 3.72339 10.7412H8.2189C8.4599 10.7412 8.6564 10.5447 8.6564 10.3037C8.6564 10.0627 8.4599 9.86621 8.2189 9.86621Z" fill="#263682"/>
</svg>