<svg xmlns="http://www.w3.org/2000/svg" width="13" height="13" viewBox="0 0 13 13" fill="none">
  <path fill-rule="evenodd" clip-rule="evenodd" d="M9.38198 1.75879H4.41048C3.16198 1.75879 2.14648 2.77479 2.14648 4.02329V6.7513C2.14648 8.0003 3.16198 9.0163 4.41048 9.0163H9.38198C10.6305 9.0163 11.6465 8.0003 11.6465 6.7513V4.02329C11.6465 2.77479 10.6305 1.75879 9.38198 1.75879Z" fill="#58C2E8"/>
  <path d="M4.62012 10.6995H9.11563C9.17253 10.6995 9.21979 10.7468 9.21979 10.8037C9.21979 10.8606 9.17253 10.9079 9.11563 10.9079H4.62012C4.56296 10.9079 4.51595 10.8609 4.51595 10.8037C4.51595 10.7466 4.56296 10.6995 4.62012 10.6995Z" fill="#263682" stroke="#58C2E8" stroke-width="0.666667"/>
</svg>