<svg width="17" height="16" viewBox="0 0 17 16" fill="none" xmlns="http://www.w3.org/2000/svg">
<path fill-rule="evenodd" clip-rule="evenodd" d="M12.1786 11.8485C11.292 11.8485 10.572 11.1285 10.572 10.2419C10.572 10.1885 10.5653 10.1419 10.5453 10.0952C10.6386 9.95519 10.7653 9.76853 10.9386 9.56186L11.7853 10.6552C11.8853 10.7819 12.032 10.8485 12.1786 10.8485C12.2853 10.8485 12.392 10.8152 12.4853 10.7485C12.7053 10.5752 12.7453 10.2619 12.5786 10.0485L11.6453 8.84186C11.732 8.76853 11.8186 8.69519 11.912 8.62853C11.972 8.64186 12.0386 8.64186 12.0986 8.63519C12.112 8.62853 12.1253 8.62853 12.1386 8.62853C13.0653 8.63519 13.792 9.34186 13.792 10.2419C13.792 11.1285 13.072 11.8485 12.1786 11.8485ZM4.98528 10.7419H6.26528C6.05194 11.3885 5.44528 11.8485 4.73861 11.8485C3.85194 11.8485 3.12528 11.1285 3.12528 10.2419C3.12528 9.35519 3.85194 8.63519 4.73861 8.63519C5.44528 8.63519 6.05194 9.09519 6.26528 9.74186H4.98528C4.70528 9.74186 4.48528 9.96853 4.48528 10.2419C4.48528 10.5219 4.70528 10.7419 4.98528 10.7419ZM13.1986 7.84186C13.452 7.72186 13.7253 7.61519 14.0186 7.52853C14.512 7.37519 14.7986 6.96186 14.792 6.38852C14.7853 5.25519 13.6186 3.66185 11.9653 3.18852C11.6453 3.09519 11.2986 3.18185 11.052 3.40185C10.852 3.58852 10.7386 3.84852 10.7453 4.12185C11.112 4.39519 11.4186 4.77519 11.652 5.24852C11.732 5.41519 11.6653 5.61519 11.4986 5.69519C11.452 5.72185 11.3986 5.72852 11.352 5.72852C11.232 5.72852 11.112 5.66185 11.052 5.54852C10.7186 4.86852 10.232 4.45519 9.61863 4.30185C9.0053 4.15519 8.33863 4.30185 7.8653 4.52852C7.8253 4.55519 7.7853 4.57519 7.7453 4.60185C7.6453 4.67519 7.55863 4.74852 7.4853 4.81519C7.23863 5.04185 7.07861 5.31519 6.99861 5.56185L4.13195 4.43519C3.71195 4.28852 3.25861 4.36852 2.90528 4.64852L2.43861 5.02852C2.23195 5.18185 2.11861 5.42185 2.12528 5.67519C2.12528 5.93519 2.25195 6.16852 2.45195 6.32185L4.27194 7.68186C3.05194 7.89519 2.12528 8.96853 2.12528 10.2419C2.12528 11.6819 3.29861 12.8485 4.73861 12.8485C6.00528 12.8485 7.06528 11.9419 7.29863 10.7419H9.61863C9.85197 11.9419 10.912 12.8485 12.1786 12.8485C13.6186 12.8485 14.792 11.6819 14.792 10.2419C14.792 9.16186 14.132 8.23519 13.1986 7.84186Z" fill="#914BEB"/>
</svg>
