<svg width="17" height="17" viewBox="0 0 17 17" fill="none" xmlns="http://www.w3.org/2000/svg">
<g id="edit_24px">
<path id="Vector" d="M8.04069 1.83398H7.70736V1.83398C6.46812 1.83398 5.8485 1.83398 5.33447 1.94325C3.40286 2.35382 1.89386 3.86282 1.48329 5.79443C1.37402 6.30846 1.37402 6.92808 1.37402 8.16731V8.50065C1.37402 10.0506 1.37402 10.8256 1.54439 11.4614C2.00673 13.1869 3.35447 14.5346 5.07993 14.9969C5.71576 15.1673 6.49074 15.1673 8.04069 15.1673H8.37402C9.61326 15.1673 10.2329 15.1673 10.7469 15.0581C12.6785 14.6475 14.1875 13.1385 14.5981 11.2069C14.7074 10.6928 14.7074 10.0732 14.7074 8.83398V8.83398V8.50065M11.374 3.16732C11.2074 4.33399 12.2074 5.33398 13.374 5.16732M7.37402 9.16732L7.61075 8.22042C7.77078 7.5803 7.85079 7.26025 7.97946 6.96184C8.0937 6.69692 8.23626 6.44513 8.40466 6.21087C8.59434 5.94701 8.82762 5.71373 9.29418 5.24717L11.7074 2.83398C12.2596 2.2817 13.1551 2.2817 13.7074 2.83398V2.83398C14.2596 3.38627 14.2596 4.2817 13.7074 4.83398L11.2942 7.24717C10.8276 7.71373 10.5943 7.94701 10.3305 8.13669C10.0962 8.30509 9.84443 8.44765 9.5795 8.56188C9.2811 8.69055 8.96104 8.77057 8.32092 8.93059L7.37402 9.16732Z" stroke="#263682" stroke-width="1.25" stroke-linecap="round" stroke-linejoin="round"/>
</g>
</svg>
