<svg width="48" height="48" viewBox="0 0 48 48" fill="none" xmlns="http://www.w3.org/2000/svg">
<path fill-rule="evenodd" clip-rule="evenodd" d="M27.766 4.25855C28.0517 4.51709 28.0945 4.94506 28.1801 5.80099L28.4622 8.62182C28.6255 10.2554 28.7072 11.0721 29.26 11.3011C29.8128 11.5301 30.4481 11.0103 31.7187 9.97073L33.9128 8.17559C34.5785 7.63088 34.9114 7.35853 35.2963 7.37772C35.6811 7.39691 35.9852 7.70104 36.5935 8.30929L39.6906 11.4065C40.2989 12.0147 40.603 12.3188 40.6222 12.7037C40.6414 13.0885 40.3691 13.4214 39.8243 14.0871L38.0292 16.2813C36.9896 17.5519 36.4698 18.1871 36.6988 18.74C36.9278 19.2928 37.7445 19.3745 39.3781 19.5378L42.199 19.8199C43.0549 19.9055 43.4829 19.9483 43.7415 20.234C44 20.5197 44 20.9498 44 21.81V26.19C44 27.0502 44 27.4803 43.7415 27.766C43.4829 28.0517 43.0549 28.0945 42.199 28.1801L39.3788 28.4621C37.7453 28.6255 36.9285 28.7071 36.6995 29.26C36.4705 29.8128 36.9903 30.4481 38.0299 31.7187L39.8244 33.912C40.3691 34.5777 40.6415 34.9106 40.6223 35.2954C40.6031 35.6803 40.299 35.9844 39.6907 36.5927L36.5936 39.6898C35.9853 40.2981 35.6812 40.6022 35.2964 40.6214C34.9115 40.6406 34.5786 40.3682 33.9129 39.8235L31.7188 38.0284C30.4482 36.9888 29.8129 36.469 29.2601 36.698C28.7073 36.927 28.6256 37.7438 28.4623 39.3773L28.1801 42.199C28.0945 43.0549 28.0517 43.4829 27.766 43.7415C27.4803 44 27.0502 44 26.19 44H21.81C20.9498 44 20.5197 44 20.234 43.7415C19.9483 43.4829 19.9055 43.0549 19.8199 42.199L19.5378 39.3781C19.3745 37.7445 19.2928 36.9278 18.74 36.6988C18.1871 36.4698 17.5519 36.9896 16.2813 38.0292L14.0871 39.8244C13.4213 40.3691 13.0884 40.6415 12.7036 40.6223C12.3187 40.6031 12.0146 40.299 11.4064 39.6907L8.3092 36.5936C7.70095 35.9853 7.39682 35.6812 7.37763 35.2963C7.35843 34.9115 7.63079 34.5786 8.1755 33.9129L9.97071 31.7187C11.0103 30.4481 11.5301 29.8128 11.3011 29.26C11.0721 28.7072 10.2553 28.6255 8.6218 28.4622L5.80099 28.1801H5.80097C4.94505 28.0945 4.51709 28.0517 4.25855 27.766C4 27.4803 4 27.0502 4 26.19V21.81C4 20.9498 4 20.5197 4.25855 20.234C4.5171 19.9483 4.94506 19.9055 5.80099 19.8199L8.62256 19.5377C10.2561 19.3744 11.0729 19.2927 11.3018 18.7399C11.5308 18.1871 11.011 17.5518 9.97146 16.2812L8.17559 14.0862C7.63088 13.4205 7.35853 13.0876 7.37772 12.7028C7.39691 12.3179 7.70104 12.0138 8.30929 11.4056L11.4065 8.30839C12.0147 7.70013 12.3188 7.39601 12.7037 7.37681C13.0885 7.35762 13.4214 7.62997 14.0871 8.17469L16.2813 9.96994C17.5519 11.0095 18.1872 11.5293 18.7401 11.3003C19.2929 11.0713 19.3745 10.2546 19.5379 8.62103L19.8199 5.80099C19.9055 4.94506 19.9483 4.51709 20.234 4.25855C20.5197 4 20.9498 4 21.81 4H26.19C27.0502 4 27.4803 4 27.766 4.25855ZM24 32C28.4183 32 32 28.4183 32 24C32 19.5817 28.4183 16 24 16C19.5817 16 16 19.5817 16 24C16 28.4183 19.5817 32 24 32Z" fill="#1AF9FF"/>
<path d="M28.1801 5.80099L27.1851 5.9005V5.9005L28.1801 5.80099ZM28.4622 8.62182L29.4572 8.52232V8.52232L28.4622 8.62182ZM31.7187 9.97073L31.0855 9.19677L31.7187 9.97073ZM33.9128 8.17559L34.546 8.94955L33.9128 8.17559ZM35.2963 7.37772L35.2464 8.37648L35.2963 7.37772ZM36.5935 8.30929L35.8864 9.0164V9.0164L36.5935 8.30929ZM39.6906 11.4065L40.3977 10.6993V10.6993L39.6906 11.4065ZM40.6222 12.7037L41.621 12.6539L41.621 12.6539L40.6222 12.7037ZM39.8243 14.0871L39.0504 13.4539L39.8243 14.0871ZM38.0292 16.2813L38.8031 16.9145L38.0292 16.2813ZM36.6988 18.74L35.7749 19.1226L35.7749 19.1226L36.6988 18.74ZM39.3781 19.5378L39.4776 18.5428L39.3781 19.5378ZM42.199 19.8199L42.2985 18.8249L42.199 19.8199ZM43.7415 20.234L43 20.905L43 20.905L43.7415 20.234ZM43.7415 27.766L43 27.095L43 27.095L43.7415 27.766ZM42.199 28.1801L42.2985 29.1751H42.2985L42.199 28.1801ZM39.3788 28.4621L39.2793 27.4671L39.3788 28.4621ZM36.6995 29.26L35.7757 28.8773L35.7756 28.8773L36.6995 29.26ZM38.0299 31.7187L38.8039 31.0854L38.0299 31.7187ZM39.8244 33.912L40.5984 33.2787L39.8244 33.912ZM40.6223 35.2954L41.6211 35.3453L41.6211 35.3453L40.6223 35.2954ZM35.2964 40.6214L35.3462 41.6202H35.3462L35.2964 40.6214ZM33.9129 39.8235L34.5461 39.0496L33.9129 39.8235ZM31.7188 38.0284L31.0856 38.8023L31.7188 38.0284ZM29.2601 36.698L28.8774 35.7741L28.8774 35.7741L29.2601 36.698ZM28.4623 39.3773L27.4672 39.2778L28.4623 39.3773ZM28.1801 42.199L27.1851 42.0995L28.1801 42.199ZM27.766 43.7415L27.095 43L27.095 43L27.766 43.7415ZM20.234 43.7415L20.905 43L20.905 43L20.234 43.7415ZM19.8199 42.199L18.8249 42.2985V42.2985L19.8199 42.199ZM19.5378 39.3781L20.5328 39.2786L19.5378 39.3781ZM18.74 36.6988L19.1226 35.7749L19.1226 35.7749L18.74 36.6988ZM16.2813 38.0292L16.9145 38.8031L16.2813 38.0292ZM14.0871 39.8244L13.4538 39.0505H13.4538L14.0871 39.8244ZM12.7036 40.6223L12.6538 41.6211L12.6538 41.6211L12.7036 40.6223ZM11.4064 39.6907L10.6993 40.3978H10.6993L11.4064 39.6907ZM8.3092 36.5936L7.60209 37.3007L8.3092 36.5936ZM7.37763 35.2963L6.37887 35.3462V35.3462L7.37763 35.2963ZM8.1755 33.9129L8.94946 34.5461H8.94946L8.1755 33.9129ZM9.97071 31.7187L10.7447 32.352L9.97071 31.7187ZM11.3011 29.26L12.225 28.8773L11.3011 29.26ZM8.6218 28.4622L8.72131 27.4671H8.72131L8.6218 28.4622ZM5.80099 28.1801L5.9005 27.1851L5.85087 27.1801H5.80099V28.1801ZM5.80097 28.1801L5.70147 29.1751L5.7511 29.1801H5.80097V28.1801ZM4.25855 27.766L5 27.095H5L4.25855 27.766ZM4.25855 20.234L3.5171 19.563L3.51709 19.563L4.25855 20.234ZM5.80099 19.8199L5.9005 20.8149L5.80099 19.8199ZM8.62256 19.5377L8.52306 18.5427H8.52306L8.62256 19.5377ZM9.97146 16.2812L10.7454 15.648L9.97146 16.2812ZM8.17559 14.0862L7.40164 14.7195L7.40164 14.7195L8.17559 14.0862ZM8.30929 11.4056L9.0164 12.1127H9.0164L8.30929 11.4056ZM11.4065 8.30839L10.6994 7.60128H10.6994L11.4065 8.30839ZM14.0871 8.17469L13.4539 8.94864L14.0871 8.17469ZM16.2813 9.96994L16.9146 9.19598L16.2813 9.96994ZM19.5379 8.62103L20.5329 8.72054L19.5379 8.62103ZM19.8199 5.80099L20.8149 5.9005V5.9005L19.8199 5.80099ZM20.234 4.25855L19.563 3.51709L19.563 3.5171L20.234 4.25855ZM29.1751 5.70149C29.135 5.30013 29.0973 4.9035 29.0223 4.57987C28.9408 4.22844 28.7895 3.83605 28.437 3.51709L27.095 5C27.0283 4.93959 27.0412 4.89046 27.0739 5.03163C27.1131 5.20061 27.1396 5.44593 27.1851 5.9005L29.1751 5.70149ZM29.4572 8.52232L29.1751 5.70149L27.1851 5.9005L27.4671 8.72132L29.4572 8.52232ZM29.6427 10.3772C29.8166 10.4493 29.7721 10.5909 29.6848 10.2442C29.5973 9.89612 29.5423 9.37289 29.4572 8.52232L27.4671 8.72132C27.5454 9.50429 27.613 10.2062 27.7453 10.7321C27.8779 11.2595 28.1506 11.924 28.8773 12.225L29.6427 10.3772ZM31.0855 9.19677C30.4239 9.73807 30.015 10.0692 29.707 10.2534C29.4002 10.4368 29.4688 10.3052 29.6427 10.3772L28.8773 12.225C29.604 12.526 30.2667 12.249 30.7334 11.9699C31.1989 11.6916 31.743 11.243 32.352 10.7447L31.0855 9.19677ZM33.2795 7.40164L31.0855 9.19677L32.352 10.7447L34.546 8.94955L33.2795 7.40164ZM35.3461 6.37896C34.8713 6.35528 34.4869 6.52576 34.1808 6.71664C33.8989 6.89242 33.5917 7.14621 33.2795 7.40164L34.546 8.94955C34.8996 8.66026 35.0918 8.50552 35.239 8.41374C35.3619 8.33707 35.3364 8.38096 35.2464 8.37648L35.3461 6.37896ZM37.3006 7.60219C37.0154 7.31696 36.735 7.03387 36.472 6.83092C36.1864 6.61052 35.8208 6.40264 35.3461 6.37896L35.2464 8.37648C35.1565 8.37199 35.1354 8.32577 35.2502 8.4143C35.3875 8.52027 35.5633 8.69337 35.8864 9.0164L37.3006 7.60219ZM40.3977 10.6993L37.3006 7.60219L35.8864 9.0164L38.9835 12.1136L40.3977 10.6993ZM41.621 12.6539C41.5973 12.1791 41.3894 11.8135 41.169 11.5279C40.9661 11.2649 40.683 10.9846 40.3977 10.6993L38.9835 12.1136C39.3066 12.4366 39.4797 12.6124 39.5856 12.7498C39.6742 12.8645 39.6279 12.8434 39.6235 12.7535L41.621 12.6539ZM40.5983 14.7204C40.8537 14.4082 41.1075 14.1011 41.2833 13.8192C41.4742 13.5131 41.6446 13.1286 41.621 12.6539L39.6235 12.7535C39.619 12.6636 39.6629 12.638 39.5862 12.761C39.4944 12.9081 39.3397 13.1003 39.0504 13.4539L40.5983 14.7204ZM38.8031 16.9145L40.5983 14.7204L39.0504 13.4539L37.2552 15.648L38.8031 16.9145ZM37.6227 18.3573C37.6947 18.5312 37.563 18.5998 37.7465 18.293C37.9307 17.9849 38.2618 17.5761 38.8031 16.9145L37.2552 15.648C36.7569 16.257 36.3083 16.8011 36.03 17.2666C35.7509 17.7333 35.4739 18.3959 35.7749 19.1226L37.6227 18.3573ZM39.4776 18.5428C38.627 18.4577 38.1038 18.4027 37.7557 18.3152C37.409 18.2279 37.5506 18.1834 37.6227 18.3573L35.7749 19.1226C36.0759 19.8493 36.7404 20.122 37.2677 20.2547C37.7937 20.387 38.4956 20.4545 39.2786 20.5328L39.4776 18.5428ZM42.2985 18.8249L39.4776 18.5428L39.2786 20.5328L42.0995 20.8149L42.2985 18.8249ZM44.4829 19.563C44.1639 19.2105 43.7716 19.0592 43.4201 18.9777C43.0965 18.9027 42.6999 18.865 42.2985 18.8249L42.0995 20.8149C42.5541 20.8604 42.7994 20.8869 42.9684 20.9261C43.1095 20.9588 43.0604 20.9717 43 20.905L44.4829 19.563ZM45 21.81C45 21.4066 45.0019 21.0082 44.9595 20.6787C44.9134 20.3209 44.8019 19.9154 44.4829 19.563L43 20.905C42.9396 20.8382 42.9574 20.7906 42.9759 20.9344C42.9981 21.1064 43 21.3531 43 21.81H45ZM45 26.19V21.81H43V26.19H45ZM44.4829 28.437C44.8019 28.0846 44.9134 27.6791 44.9595 27.3213C45.0019 26.9918 45 26.5934 45 26.19H43C43 26.6469 42.9981 26.8936 42.9759 27.0656C42.9574 27.2094 42.9396 27.1618 43 27.095L44.4829 28.437ZM42.2985 29.1751C42.6999 29.135 43.0965 29.0973 43.4201 29.0223C43.7716 28.9408 44.1639 28.7895 44.4829 28.437L43 27.095C43.0604 27.0283 43.1095 27.0412 42.9684 27.0739C42.7994 27.1131 42.5541 27.1396 42.0995 27.1851L42.2985 29.1751ZM39.4783 29.4572L42.2985 29.1751L42.0995 27.1851L39.2793 27.4671L39.4783 29.4572ZM37.6234 29.6427C37.5514 29.8165 37.4098 29.772 37.7564 29.6848C38.1045 29.5972 38.6278 29.5422 39.4783 29.4572L39.2793 27.4671C38.4963 27.5454 37.7944 27.6129 37.2685 27.7452C36.7411 27.8779 36.0767 28.1506 35.7757 28.8773L37.6234 29.6427ZM38.8039 31.0854C38.2626 30.4238 37.9315 30.015 37.7473 29.7069C37.5638 29.4001 37.6954 29.4688 37.6234 29.6426L35.7756 28.8773C35.4746 29.604 35.7517 30.2667 36.0308 30.7334C36.3091 31.1988 36.7577 31.7429 37.256 32.3519L38.8039 31.0854ZM40.5984 33.2787L38.8039 31.0854L37.256 32.3519L39.0505 34.5452L40.5984 33.2787ZM41.6211 35.3453C41.6447 34.8705 41.4743 34.4861 41.2834 34.1799C41.1076 33.898 40.8538 33.5909 40.5984 33.2787L39.0505 34.5452C39.3398 34.8988 39.4945 35.091 39.5863 35.2382C39.663 35.3611 39.6191 35.3356 39.6235 35.2456L41.6211 35.3453ZM40.3978 37.2998C40.6831 37.0145 40.9661 36.7342 41.1691 36.4712C41.3895 36.1856 41.5974 35.82 41.6211 35.3453L39.6235 35.2456C39.628 35.1557 39.6743 35.1346 39.5857 35.2493C39.4797 35.3867 39.3067 35.5625 38.9836 35.8856L40.3978 37.2998ZM37.3007 40.3969L40.3978 37.2998L38.9836 35.8856L35.8865 38.9827L37.3007 40.3969ZM35.3462 41.6202C35.8209 41.5965 36.1865 41.3886 36.4721 41.1682C36.7351 40.9652 37.0155 40.6821 37.3007 40.3969L35.8865 38.9827C35.5634 39.3057 35.3876 39.4788 35.2503 39.5848C35.1355 39.6733 35.1566 39.6271 35.2465 39.6226L35.3462 41.6202ZM33.2796 40.5975C33.5918 40.8529 33.899 41.1067 34.1808 41.2825C34.487 41.4734 34.8714 41.6438 35.3462 41.6202L35.2465 39.6226C35.3365 39.6182 35.362 39.662 35.2391 39.5854C35.0919 39.4936 34.8997 39.3388 34.5461 39.0496L33.2796 40.5975ZM31.0856 38.8023L33.2796 40.5975L34.5461 39.0496L32.3521 37.2544L31.0856 38.8023ZM29.6428 37.6219C29.4689 37.6939 29.4003 37.5623 29.7071 37.7457C30.0151 37.93 30.424 38.261 31.0856 38.8023L32.3521 37.2544C31.7431 36.7562 31.199 36.3076 30.7335 36.0292C30.2668 35.7502 29.6041 35.4731 28.8774 35.7741L29.6428 37.6219ZM29.4573 39.4768C29.5424 38.6262 29.5974 38.103 29.6849 37.7549C29.7721 37.4082 29.8167 37.5499 29.6428 37.6219L28.8774 35.7741C28.1507 36.0751 27.878 36.7396 27.7454 37.267C27.6131 37.7929 27.5455 38.4948 27.4672 39.2778L29.4573 39.4768ZM29.1751 42.2985L29.4573 39.4768L27.4672 39.2778L27.1851 42.0995L29.1751 42.2985ZM28.437 44.4829C28.7895 44.1639 28.9408 43.7716 29.0223 43.4201C29.0973 43.0965 29.135 42.6999 29.1751 42.2985L27.1851 42.0995C27.1396 42.5541 27.1131 42.7994 27.0739 42.9684C27.0412 43.1095 27.0283 43.0604 27.095 43L28.437 44.4829ZM26.19 45C26.5934 45 26.9918 45.0019 27.3213 44.9595C27.6791 44.9134 28.0846 44.8019 28.437 44.4829L27.095 43C27.1618 42.9396 27.2094 42.9574 27.0656 42.9759C26.8936 42.9981 26.6469 43 26.19 43V45ZM21.81 45H26.19V43H21.81V45ZM19.563 44.4829C19.9154 44.8019 20.3209 44.9134 20.6787 44.9595C21.0082 45.0019 21.4066 45 21.81 45V43C21.3531 43 21.1064 42.9981 20.9344 42.9759C20.7906 42.9574 20.8382 42.9396 20.905 43L19.563 44.4829ZM18.8249 42.2985C18.865 42.6999 18.9027 43.0965 18.9777 43.4201C19.0592 43.7716 19.2105 44.1639 19.563 44.4829L20.905 43C20.9717 43.0604 20.9588 43.1095 20.9261 42.9684C20.8869 42.7994 20.8604 42.5541 20.8149 42.0995L18.8249 42.2985ZM18.5428 39.4776L18.8249 42.2985L20.8149 42.0995L20.5328 39.2786L18.5428 39.4776ZM18.3573 37.6227C18.1834 37.5506 18.2279 37.409 18.3152 37.7557C18.4027 38.1038 18.4577 38.627 18.5428 39.4776L20.5328 39.2786C20.4545 38.4956 20.387 37.7937 20.2547 37.2678C20.122 36.7404 19.8493 36.0759 19.1226 35.7749L18.3573 37.6227ZM16.9145 38.8031C17.5761 38.2618 17.9849 37.9307 18.293 37.7465C18.5998 37.5631 18.5312 37.6947 18.3573 37.6227L19.1226 35.7749C18.3959 35.4739 17.7333 35.7509 17.2666 36.03C16.8011 36.3083 16.257 36.7569 15.648 37.2552L16.9145 38.8031ZM14.7203 40.5984L16.9145 38.8031L15.648 37.2552L13.4538 39.0505L14.7203 40.5984ZM12.6538 41.6211C13.1285 41.6447 13.513 41.4743 13.8191 41.2834C14.101 41.1076 14.4081 40.8538 14.7203 40.5984L13.4538 39.0505C13.1002 39.3398 12.9081 39.4945 12.7609 39.5863C12.6379 39.663 12.6635 39.6191 12.7534 39.6235L12.6538 41.6211ZM10.6993 40.3978C10.9845 40.6831 11.2648 40.9661 11.5278 41.1691C11.8134 41.3895 12.179 41.5974 12.6538 41.6211L12.7534 39.6235C12.8433 39.628 12.8644 39.6743 12.7497 39.5857C12.6123 39.4797 12.4365 39.3067 12.1135 38.9836L10.6993 40.3978ZM7.60209 37.3007L10.6993 40.3978L12.1135 38.9836L9.01631 35.8865L7.60209 37.3007ZM6.37887 35.3462C6.40255 35.8209 6.61043 36.1865 6.83083 36.4721C7.03378 36.7351 7.31687 37.0154 7.60209 37.3007L9.01631 35.8865C8.69328 35.5634 8.52018 35.3876 8.41421 35.2503C8.32568 35.1355 8.3719 35.1566 8.37639 35.2465L6.37887 35.3462ZM7.40154 33.2796C7.14612 33.5918 6.89233 33.8989 6.71655 34.1808C6.52567 34.487 6.35519 34.8714 6.37887 35.3462L8.37639 35.2465C8.38087 35.3365 8.33698 35.362 8.41365 35.2391C8.50543 35.0919 8.66017 34.8997 8.94946 34.5461L7.40154 33.2796ZM9.19675 31.0855L7.40154 33.2796L8.94946 34.5461L10.7447 32.352L9.19675 31.0855ZM10.3772 29.6427C10.3052 29.4688 10.4368 29.4002 10.2534 29.707C10.0691 30.015 9.73806 30.4239 9.19675 31.0855L10.7447 32.352C11.2429 31.743 11.6915 31.1989 11.9699 30.7334C12.2489 30.2667 12.526 29.604 12.225 28.8773L10.3772 29.6427ZM8.5223 29.4572C9.37287 29.5423 9.8961 29.5973 10.2442 29.6848C10.5909 29.7721 10.4492 29.8166 10.3772 29.6427L12.225 28.8773C11.924 28.1506 11.2595 27.8779 10.7321 27.7453C10.2062 27.613 9.50427 27.5454 8.72131 27.4671L8.5223 29.4572ZM5.70149 29.1751L8.5223 29.4572L8.72131 27.4671L5.9005 27.1851L5.70149 29.1751ZM5.80097 29.1801H5.80099V27.1801H5.80097V29.1801ZM3.51709 28.437C3.83605 28.7895 4.22843 28.9408 4.57987 29.0222C4.90349 29.0973 5.30011 29.135 5.70147 29.1751L5.90048 27.1851C5.44592 27.1396 5.2006 27.1131 5.03163 27.0739C4.89046 27.0412 4.93959 27.0283 5 27.095L3.51709 28.437ZM3 26.19C3 26.5934 2.99806 26.9918 3.04052 27.3213C3.08663 27.6791 3.19813 28.0846 3.51709 28.437L5 27.095C5.06041 27.1618 5.04264 27.2094 5.02412 27.0656C5.00194 26.8936 5 26.6469 5 26.19H3ZM3 21.81V26.19H5V21.81H3ZM3.51709 19.563C3.19813 19.9154 3.08664 20.3209 3.04052 20.6787C2.99806 21.0082 3 21.4066 3 21.81H5C5 21.3531 5.00194 21.1064 5.02412 20.9344C5.04264 20.7906 5.06041 20.8382 5 20.905L3.51709 19.563ZM5.70149 18.8249C5.30013 18.865 4.9035 18.9027 4.57987 18.9777C4.22844 19.0592 3.83606 19.2105 3.5171 19.563L5 20.905C4.93959 20.9717 4.89046 20.9588 5.03163 20.9261C5.20061 20.8869 5.44593 20.8604 5.9005 20.8149L5.70149 18.8249ZM8.52306 18.5427L5.70149 18.8249L5.9005 20.8149L8.72206 20.5328L8.52306 18.5427ZM10.378 18.3572C10.45 18.1833 10.5916 18.2279 10.2449 18.3151C9.89685 18.4027 9.37363 18.4576 8.52306 18.5427L8.72206 20.5328C9.50503 20.4545 10.207 20.387 10.7329 20.2546C11.2602 20.122 11.9247 19.8493 12.2257 19.1226L10.378 18.3572ZM9.19751 16.9144C9.73881 17.576 10.0699 17.9849 10.2541 18.2929C10.4376 18.5997 10.3059 18.5311 10.378 18.3572L12.2257 19.1226C12.5267 18.3959 12.2497 17.7332 11.9706 17.2665C11.6923 16.801 11.2437 16.257 10.7454 15.648L9.19751 16.9144ZM7.40164 14.7195L9.19751 16.9144L10.7454 15.648L8.94955 13.453L7.40164 14.7195ZM6.37896 12.653C6.35528 13.1277 6.52576 13.5121 6.71664 13.8183C6.89242 14.1002 7.14621 14.4073 7.40164 14.7195L8.94955 13.453C8.66027 13.0994 8.50553 12.9072 8.41374 12.76C8.33707 12.6371 8.38096 12.6627 8.37648 12.7526L6.37896 12.653ZM7.60219 10.6984C7.31697 10.9837 7.03387 11.264 6.83092 11.527C6.61052 11.8126 6.40264 12.1782 6.37896 12.653L8.37648 12.7526C8.37199 12.8425 8.32577 12.8636 8.4143 12.7489C8.52027 12.6115 8.69337 12.4357 9.0164 12.1127L7.60219 10.6984ZM10.6994 7.60128L7.60219 10.6984L9.0164 12.1127L12.1136 9.01549L10.6994 7.60128ZM12.6539 6.37805C12.1791 6.40173 11.8135 6.60962 11.5279 6.83001C11.2649 7.03296 10.9846 7.31606 10.6994 7.60128L12.1136 9.01549C12.4366 8.69246 12.6124 8.51937 12.7498 8.41339C12.8645 8.32486 12.8434 8.37109 12.7535 8.37557L12.6539 6.37805ZM14.7204 7.40073C14.4082 7.1453 14.1011 6.89151 13.8192 6.71573C13.5131 6.52485 13.1286 6.35438 12.6539 6.37805L12.7535 8.37557C12.6636 8.38006 12.638 8.33616 12.761 8.41284C12.9081 8.50462 13.1003 8.65936 13.4539 8.94864L14.7204 7.40073ZM16.9146 9.19598L14.7204 7.40073L13.4539 8.94864L15.6481 10.7439L16.9146 9.19598ZM18.3574 10.3764C18.5313 10.3044 18.5999 10.436 18.2931 10.2526C17.985 10.0684 17.5762 9.73728 16.9146 9.19598L15.6481 10.7439C16.2571 11.2422 16.8012 11.6908 17.2666 11.9691C17.7333 12.2482 18.396 12.5252 19.1227 12.2242L18.3574 10.3764ZM18.5429 8.52153C18.4578 9.3721 18.4028 9.89533 18.3152 10.2434C18.228 10.5901 18.1835 10.4485 18.3574 10.3764L19.1227 12.2242C19.8494 11.9232 20.1221 11.2587 20.2548 10.7314C20.3871 10.2054 20.4546 9.5035 20.5329 8.72054L18.5429 8.52153ZM18.8249 5.70149L18.5429 8.52153L20.5329 8.72054L20.8149 5.9005L18.8249 5.70149ZM19.563 3.5171C19.2105 3.83606 19.0592 4.22844 18.9777 4.57987C18.9027 4.9035 18.865 5.30013 18.8249 5.70149L20.8149 5.9005C20.8604 5.44593 20.8869 5.20061 20.9261 5.03163C20.9588 4.89046 20.9717 4.93959 20.905 5L19.563 3.5171ZM21.81 3C21.4066 3 21.0082 2.99806 20.6787 3.04052C20.3209 3.08663 19.9154 3.19813 19.563 3.51709L20.905 5C20.8382 5.06041 20.7906 5.04264 20.9344 5.02412C21.1064 5.00194 21.3531 5 21.81 5V3ZM26.19 3H21.81V5H26.19V3ZM28.437 3.51709C28.0846 3.19813 27.6791 3.08663 27.3213 3.04052C26.9918 2.99806 26.5934 3 26.19 3V5C26.6469 5 26.8936 5.00194 27.0656 5.02412C27.2094 5.04264 27.1618 5.06041 27.095 5L28.437 3.51709ZM31 24C31 27.866 27.866 31 24 31V33C28.9706 33 33 28.9706 33 24H31ZM24 17C27.866 17 31 20.134 31 24H33C33 19.0294 28.9706 15 24 15V17ZM17 24C17 20.134 20.134 17 24 17V15C19.0294 15 15 19.0294 15 24H17ZM24 31C20.134 31 17 27.866 17 24H15C15 28.9706 19.0294 33 24 33V31Z" fill="#275AFF"/>
</svg>
