<svg width="17" height="17" viewBox="0 0 17 17" fill="none" xmlns="http://www.w3.org/2000/svg">
<g id="edit_24px">
<path id="Vector" d="M8.54167 1.83398H8.20833V1.83398C6.9691 1.83398 6.34948 1.83398 5.83544 1.94325C3.90384 2.35382 2.39484 3.86282 1.98426 5.79443C1.875 6.30846 1.875 6.92808 1.875 8.16731V8.50065C1.875 10.0506 1.875 10.8256 2.04537 11.4614C2.50771 13.1869 3.85544 14.5346 5.5809 14.9969C6.21674 15.1673 6.99171 15.1673 8.54167 15.1673H8.875C10.1142 15.1673 10.7339 15.1673 11.2479 15.0581C13.1795 14.6475 14.6885 13.1385 15.0991 11.2069C15.2083 10.6928 15.2083 10.0732 15.2083 8.83398V8.83398V8.50065M11.875 3.16732C11.7083 4.33399 12.7083 5.33398 13.875 5.16732M7.875 9.16732L8.11172 8.22042C8.27175 7.5803 8.35177 7.26025 8.48044 6.96184C8.59467 6.69692 8.73723 6.44513 8.90563 6.21087C9.09531 5.94701 9.32859 5.71373 9.79515 5.24717L12.2083 2.83398C12.7606 2.2817 13.656 2.2817 14.2083 2.83398V2.83398C14.7606 3.38627 14.7606 4.2817 14.2083 4.83398L11.7952 7.24717C11.3286 7.71373 11.0953 7.94701 10.8314 8.13669C10.5972 8.30509 10.3454 8.44765 10.0805 8.56188C9.78207 8.69055 9.46201 8.77057 8.8219 8.93059L7.875 9.16732Z" stroke="#263682" stroke-width="1.25" stroke-linecap="round" stroke-linejoin="round"/>
</g>
</svg>
