<svg width="48" height="48" viewBox="0 0 48 48" fill="none" xmlns="http://www.w3.org/2000/svg">
<path d="M6 18C6 17.0572 6 16.5858 6.29289 16.2929C6.58579 16 7.05719 16 8 16H40C40.9428 16 41.4142 16 41.7071 16.2929C42 16.5858 42 17.0572 42 18V24C42 24.9428 42 25.4142 41.7071 25.7071C41.4142 26 40.9428 26 40 26H38C37.0572 26 36.5858 26 36.2929 26.2929C36 26.5858 36 27.0572 36 28V38C36 38.9428 36 39.4142 35.7071 39.7071C35.4142 40 34.9428 40 34 40H14C13.0572 40 12.5858 40 12.2929 39.7071C12 39.4142 12 38.9428 12 38V28C12 27.0572 12 26.5858 11.7071 26.2929C11.4142 26 10.9428 26 10 26H8C7.05719 26 6.58579 26 6.29289 25.7071C6 25.4142 6 24.9428 6 24V18Z" fill="#1AF9FF" stroke="#275AFF" stroke-width="2"/>
<path d="M10 26H38" stroke="#275AFF" stroke-width="2" stroke-linecap="round"/>
<path d="M24 14L24 40" stroke="#275AFF" stroke-width="2" stroke-linecap="round"/>
<path d="M24 14L20.8362 10.8362C19.6287 9.62865 18.1566 8.71886 16.5365 8.17884L12.6325 6.87748C11.3374 6.4458 10 7.40974 10 8.77485V12.5585C10 13.4193 10.5509 14.1836 11.3675 14.4558L16 16" stroke="#275AFF" stroke-width="2" stroke-linecap="round"/>
<path d="M24 14L27.1638 10.8362C28.3713 9.62865 29.8434 8.71886 31.4635 8.17884L35.3675 6.87748C36.6626 6.4458 38 7.40974 38 8.77485V12.5585C38 13.4193 37.4491 14.1836 36.6325 14.4558L32 16" stroke="#275AFF" stroke-width="2" stroke-linecap="round"/>
</svg>
