<svg version="1.2" xmlns="http://www.w3.org/2000/svg" viewBox="0 0 15 15" width="15" height="15"><style>.a{fill:#275aff}.b{fill:none;stroke:#a6b8f1;stroke-width:1.2}</style><path class="a" d="m12.5 6.5l-6.6 6.6c-0.2 0.2-0.3 0.3-0.4 0.4-0.2 0-0.3 0.1-0.6 0.1l-3.7 0.8c-0.3 0-0.5 0.1-0.6 0-0.1-0.1 0-0.3 0-0.6l0.8-3.7c0-0.3 0.1-0.4 0.1-0.6 0.1-0.1 0.2-0.2 0.4-0.4l6.6-6.6z"/><path class="b" d="m1.9 14.4q-0.2 0.1-0.5 0.1c-0.1 0-0.4 0-0.7-0.2-0.2-0.3-0.2-0.6-0.2-0.7q0-0.3 0.1-0.5 0 0 0-0.1l0.7-2.6q0 0 0-0.1 0.1-0.3 0.2-0.6 0.2-0.3 0.4-0.5 0 0 0.1 0l7.2-7.2q0.5-0.5 0.8-0.8c0.3-0.2 0.6-0.4 1-0.4 0.4 0 0.7 0.2 1 0.4q0.3 0.3 0.8 0.8l0.2 0.2q0.5 0.5 0.8 0.8c0.2 0.3 0.4 0.6 0.4 1 0 0.4-0.2 0.7-0.4 1q-0.3 0.3-0.8 0.8l-7.2 7.2q0 0.1 0 0.1-0.2 0.2-0.5 0.4-0.3 0.1-0.6 0.2-0.1 0-0.1 0l-2.6 0.7q-0.1 0-0.1 0z"/><path class="b" d="m8.5 2.5l4 4"/></svg>