<svg width="17" height="17" viewBox="0 0 17 17" fill="none" xmlns="http://www.w3.org/2000/svg">
<g id="edit_24px">
<path id="Vector" d="M8.50016 1.83398H8.16683V1.83398C6.92759 1.83398 6.30798 1.83398 5.79394 1.94325C3.86233 2.35382 2.35333 3.86282 1.94276 5.79443C1.8335 6.30846 1.8335 6.92808 1.8335 8.16731V8.50065C1.8335 10.0506 1.8335 10.8256 2.00387 11.4614C2.4662 13.1869 3.81394 14.5346 5.5394 14.9969C6.17523 15.1673 6.95021 15.1673 8.50016 15.1673H8.8335C10.0727 15.1673 10.6924 15.1673 11.2064 15.0581C13.138 14.6475 14.647 13.1385 15.0576 11.2069C15.1668 10.6928 15.1668 10.0732 15.1668 8.83398V8.83398V8.50065M11.8335 3.16732C11.6668 4.33399 12.6668 5.33398 13.8335 5.16732M7.8335 9.16732L8.07022 8.22042C8.23025 7.5803 8.31026 7.26025 8.43893 6.96184C8.55317 6.69692 8.69573 6.44513 8.86413 6.21087C9.05381 5.94701 9.28709 5.71373 9.75365 5.24717L12.1668 2.83398C12.7191 2.2817 13.6145 2.2817 14.1668 2.83398V2.83398C14.7191 3.38627 14.7191 4.2817 14.1668 4.83398L11.7536 7.24717C11.2871 7.71373 11.0538 7.94701 10.7899 8.13669C10.5557 8.30509 10.3039 8.44765 10.039 8.56188C9.74057 8.69055 9.42051 8.77057 8.78039 8.93059L7.8335 9.16732Z" stroke="#263682" stroke-width="1.25" stroke-linecap="round" stroke-linejoin="round"/>
</g>
</svg>
