<svg width="16" height="17" viewBox="0 0 16 17" fill="none" xmlns="http://www.w3.org/2000/svg">
<g id="edit-2_24px">
<path id="Vector" d="M13.3332 14.4997H2.6665M10.6665 3.16634C10.4998 4.33301 11.4998 5.33301 12.6665 5.16634M4.6665 11.1663L4.90322 10.2195C5.06325 9.57934 5.14327 9.25928 5.27194 8.96087C5.38618 8.69594 5.52874 8.44415 5.69714 8.20989C5.88683 7.94603 6.12011 7.71274 6.58668 7.24618L10.9999 2.833C11.5522 2.28072 12.4476 2.28073 12.9999 2.83303V2.83303C13.5522 3.3853 13.5521 4.2807 12.9999 4.83297L8.58666 9.24619C8.1201 9.71275 7.88682 9.94603 7.62295 10.1357C7.3887 10.3041 7.13691 10.4467 6.87198 10.5609C6.57358 10.6896 6.25352 10.7696 5.6134 10.9296L4.6665 11.1663Z" stroke="#263682" stroke-width="1.25" stroke-linecap="round" stroke-linejoin="round"/>
</g>
</svg>
