<svg width="48" height="48" viewBox="0 0 48 48" fill="none" xmlns="http://www.w3.org/2000/svg">
<path d="M30 26C31.3368 25.9999 32.6522 25.6649 33.8261 25.0255C35.0001 24.3861 35.9951 23.4627 36.7202 22.3397C37.4453 21.2167 37.8775 19.9299 37.9773 18.5968C38.077 17.2638 37.8411 15.927 37.2911 14.7086C36.7411 13.4902 35.8946 12.4291 34.8289 11.6221C33.7631 10.8151 32.5122 10.2881 31.1903 10.0891C29.8684 9.89015 28.5178 10.0256 27.2617 10.4831C26.0056 10.9406 24.8843 11.9975 24 13C24 13 26.4212 16.2346 26.3113 18.5968C26.2124 20.722 24 23.53 24 23.53M30 26C28.386 26 25.794 25.414 24 23.53M30 26C37.732 26 44 31.372 44 38H16.6721M30 26L29.8267 25.992C27.653 25.8923 25.5866 25.0191 24 23.53V23.53" stroke="#275AFF" stroke-width="2" stroke-linecap="round" stroke-linejoin="round"/>
<path d="M18 26C22.4183 26 26 22.4183 26 18C26 13.5817 22.4183 10 18 10C13.5817 10 10 13.5817 10 18C10 22.4183 13.5817 26 18 26Z" fill="#1AF9FF" stroke="#275AFF" stroke-width="2" stroke-linecap="round" stroke-linejoin="round"/>
<path d="M18 26C10.268 26 4 31.372 4 38H32C32 31.372 25.732 26 18 26Z" fill="#1AF9FF" stroke="#275AFF" stroke-width="2" stroke-linecap="round" stroke-linejoin="round"/>
</svg>
