<svg width="16" height="17" viewBox="0 0 16 17" fill="none" xmlns="http://www.w3.org/2000/svg">
<g id="Email_Solid-16px">
<path id="Vector" fill-rule="evenodd" clip-rule="evenodd" d="M11.8652 11.0049C11.7698 11.0896 11.6518 11.1309 11.5332 11.1309C11.3958 11.1309 11.2585 11.0743 11.1592 10.9636L9.2945 8.86559L9.17917 8.95825C8.8165 9.22959 8.4045 9.36492 7.99517 9.36492C7.58917 9.36492 7.18517 9.23225 6.8325 8.96692L6.7385 8.89225L4.8345 10.9689C4.7365 11.0763 4.60117 11.1309 4.46584 11.1309C4.34517 11.1309 4.22384 11.0876 4.1285 10.9996C3.9245 10.8136 3.9105 10.4969 4.09784 10.2936L5.95584 8.26625L4.15317 6.82491C3.93784 6.65225 3.90317 6.33825 4.07517 6.12225C4.24917 5.90691 4.56317 5.87291 4.7785 6.04358L7.44517 8.17692C7.7865 8.43358 8.2105 8.43358 8.5665 8.16758L11.2205 6.04358C11.4365 5.87291 11.7505 5.90691 11.9238 6.12225C12.0965 6.33825 12.0612 6.65225 11.8458 6.82491L10.0765 8.24025L11.9065 10.2989C12.0905 10.5056 12.0718 10.8216 11.8652 11.0049ZM10.9332 2.76758H5.0665C3.0965 2.76758 1.6665 4.31024 1.6665 6.43424V10.5676C1.6665 12.6576 3.12784 14.2343 5.0665 14.2343H10.9332C12.9032 14.2343 14.3332 12.6916 14.3332 10.5676V6.43424C14.3332 4.34424 12.8712 2.76758 10.9332 2.76758Z" fill="#263682"/>
</g>
</svg>
