<svg width="16" height="17" viewBox="0 0 16 17" fill="none" xmlns="http://www.w3.org/2000/svg">
<path fill-rule="evenodd" clip-rule="evenodd" d="M11.8657 11.0049C11.7703 11.0896 11.6523 11.1309 11.5337 11.1309C11.3963 11.1309 11.259 11.0743 11.1597 10.9636L9.29499 8.86559L9.17966 8.95825C8.81699 9.22959 8.40499 9.36492 7.99566 9.36492C7.58966 9.36492 7.18566 9.23225 6.83299 8.96692L6.73899 8.89225L4.83499 10.9689C4.73699 11.0763 4.60166 11.1309 4.46633 11.1309C4.34566 11.1309 4.22433 11.0876 4.12899 10.9996C3.92499 10.8136 3.91099 10.4969 4.09833 10.2936L5.95633 8.26625L4.15366 6.82491C3.93833 6.65225 3.90366 6.33825 4.07566 6.12225C4.24966 5.90691 4.56366 5.87291 4.77899 6.04358L7.44566 8.17692C7.78699 8.43358 8.21099 8.43358 8.56699 8.16758L11.221 6.04358C11.437 5.87291 11.751 5.90691 11.9243 6.12225C12.097 6.33825 12.0617 6.65225 11.8463 6.82491L10.077 8.24025L11.907 10.2989C12.091 10.5056 12.0723 10.8216 11.8657 11.0049ZM10.9337 2.76758H5.06699C3.09699 2.76758 1.66699 4.31024 1.66699 6.43424V10.5676C1.66699 12.6576 3.12833 14.2343 5.06699 14.2343H10.9337C12.9037 14.2343 14.3337 12.6916 14.3337 10.5676V6.43424C14.3337 4.34424 12.8717 2.76758 10.9337 2.76758Z" fill="#263682"/>
</svg>
