<svg width="49" height="49" viewBox="0 0 49 49" fill="none" xmlns="http://www.w3.org/2000/svg">
<g id="Google-Authenticator">
<path id="Vector" d="M22.05 20.3268H17.5381L10.9525 8.91947C9.87336 7.05143 10.5134 4.66057 12.3833 3.58235C12.9982 3.22698 13.6699 3.05859 14.3332 3.05859C15.6831 3.05859 16.9966 3.75911 17.7204 5.01315L24.306 16.4186L22.05 20.3268Z" fill="#FCBC05"/>
<path id="Vector_2" d="M36.2295 44.8831C34.3615 45.9622 31.9706 45.3213 30.8906 43.4523L24.305 32.0468L17.7194 43.4523C16.6403 45.3203 14.2503 45.9622 12.3823 44.8831C11.1292 44.1593 10.4277 42.8457 10.4277 41.4959C10.4277 40.8326 10.5961 40.1609 10.9515 39.5441L17.5371 28.1387H31.0748L37.6603 39.5441C38.7395 41.414 38.0976 43.8039 36.2295 44.8831Z" fill="#E94335"/>
<path id="Vector_3" d="M48.1534 24.2326C48.1534 26.3909 46.4035 28.1408 44.2452 28.1408H31.075L28.8181 24.2326L26.5631 20.3253L24.3062 16.4172L30.8917 5.01172C31.9709 3.14182 34.3617 2.50178 36.2307 3.58092C38.0987 4.65914 38.7406 7.05 37.6615 8.91804L31.075 20.3263H44.2452C46.4044 20.3263 48.1534 22.0752 48.1534 24.2326Z" fill="#1973E8"/>
<path id="Vector_4" d="M22.0498 20.3242L19.7929 24.2315L17.5378 28.1396H4.36575C2.20839 28.1396 0.458496 26.3898 0.458496 24.2315C0.458496 23.1533 0.894804 22.1764 1.60276 21.4685C2.31072 20.7624 3.28567 20.3242 4.36575 20.3242H22.0498Z" fill="#34A853"/>
<path id="Vector_5" d="M31.0748 28.1396H17.5381L19.7931 24.2314L22.05 20.3251L24.306 16.416L26.5629 20.3251L28.8179 24.2314L31.0748 28.1396Z" fill="#174FA7"/>
</g>
</svg>
