<svg width="17" height="17" viewBox="0 0 17 17" fill="none" xmlns="http://www.w3.org/2000/svg">
<path fill-rule="evenodd" clip-rule="evenodd" d="M14.2355 7.23646C14.0641 6.90178 13.7241 6.69378 13.3481 6.69378H10.0295V3.16712C10.0295 2.72512 9.75879 2.35112 9.34012 2.21512C8.91946 2.07845 8.48546 2.22178 8.22679 2.57778L3.7628 8.72446C3.54147 9.03046 3.5108 9.42846 3.68214 9.76446C3.85347 10.0985 4.19347 10.3065 4.56947 10.3065H7.88746V13.8338C7.88746 14.2751 8.15812 14.6485 8.57679 14.7845C8.68212 14.8191 8.78879 14.8358 8.89346 14.8358C9.20412 14.8358 9.49812 14.6891 9.69146 14.4225L14.1548 8.2758C14.3761 7.9698 14.4068 7.5718 14.2355 7.23646Z" fill="#F79009"/>
</svg>
