<svg width="25" height="24" viewBox="0 0 25 24" fill="none" xmlns="http://www.w3.org/2000/svg">
<path fill-rule="evenodd" clip-rule="evenodd" d="M16.2512 10.5577L12.1782 14.6327C12.0372 14.7737 11.8462 14.8527 11.6472 14.8527C11.4482 14.8527 11.2572 14.7737 11.1172 14.6327L9.14022 12.6527C8.84823 12.3587 8.84823 11.8837 9.14123 11.5907C9.43523 11.2987 9.90921 11.2997 10.2022 11.5917L11.6482 13.0407L15.1902 9.49667C15.4832 9.20367 15.9582 9.20367 16.2512 9.49667C16.5442 9.78967 16.5442 10.2647 16.2512 10.5577ZM21.3712 10.0857L20.6722 9.38667C20.3532 9.06667 20.1782 8.64067 20.1782 8.18967V7.18967C20.1782 5.70067 18.9662 4.48967 17.4782 4.48967H16.4762C16.0232 4.48967 15.5982 4.31467 15.2802 3.99667L14.5692 3.28667C13.5122 2.23867 11.8002 2.24367 10.7512 3.29767L10.0542 3.99667C9.73321 4.31567 9.30823 4.49067 8.85623 4.49067H7.85523C6.38423 4.49167 5.18423 5.67567 5.15723 7.14167C5.15622 7.15767 5.15523 7.17367 5.15523 7.19067V8.18767C5.15523 8.63967 4.98023 9.06467 4.66123 9.38367L3.95323 10.0927C3.95223 10.0957 3.94923 10.0967 3.94723 10.0987C2.90223 11.1567 2.91123 12.8687 3.96423 13.9117L4.66323 14.6127C4.98123 14.9317 5.15723 15.3557 5.15723 15.8077V16.8127C5.15723 18.3007 6.36723 19.5117 7.85523 19.5117H8.85423C9.30723 19.5127 9.73222 19.6877 10.0502 20.0047L10.7632 20.7157C11.2712 21.2207 11.9452 21.4987 12.6622 21.4987H12.6742C13.3952 21.4957 14.0712 21.2117 14.5772 20.7027L15.2782 20.0027C15.5932 19.6887 16.0292 19.5087 16.4742 19.5087H17.4802C18.9652 19.5087 20.1762 18.2997 20.1792 16.8127V15.8097C20.1792 15.3587 20.3542 14.9337 20.6712 14.6147L21.3822 13.9037C22.4322 12.8477 22.4262 11.1347 21.3712 10.0857Z" fill="#4659B5"/>
</svg>
