<svg width="17" height="17" viewBox="0 0 17 17" fill="none" xmlns="http://www.w3.org/2000/svg">
<path fill-rule="evenodd" clip-rule="evenodd" d="M11.6148 9.66504C12.7032 9.66504 13.5843 10.5474 13.5843 11.6352C13.5843 12.7237 12.7032 13.6058 11.6148 13.6058C10.5262 13.6058 9.64429 12.7237 9.64429 11.6352C9.64429 10.5474 10.5262 9.66504 11.6148 9.66504Z" stroke="#7E8AC1" stroke-linecap="round" stroke-linejoin="round"/>
<path fill-rule="evenodd" clip-rule="evenodd" d="M7.23585 2.6582C8.32438 2.6582 9.20658 3.54042 9.20658 4.62892C9.20658 5.71678 8.32438 6.599 7.23585 6.599C6.14735 6.599 5.26538 5.71683 5.26538 4.62898C5.26538 3.54048 6.14735 2.6582 7.23585 2.6582Z" stroke="#7E8AC1" stroke-linecap="round" stroke-linejoin="round"/>
<path d="M3.33569 4.62988H5.26555M9.20558 4.62988H15.3357" stroke="#7E8AC1" stroke-linecap="round" stroke-linejoin="round"/>
<path d="M3.33569 11.6348H9.64418M13.5842 11.6348H15.3357" stroke="#7E8AC1" stroke-linecap="round" stroke-linejoin="round"/>
</svg>
