<svg width="17" height="17" viewBox="0 0 17 17" fill="none" xmlns="http://www.w3.org/2000/svg">
<path fill-rule="evenodd" clip-rule="evenodd" d="M9.30469 8.35239C10.22 8.21306 10.9407 7.71306 10.9407 7.15372C10.9407 6.99106 10.808 6.8584 10.6454 6.8584C9.94735 6.8584 9.37135 7.51506 9.30469 8.35239Z" fill="#7233C2"/>
<path fill-rule="evenodd" clip-rule="evenodd" d="M6.14154 8.35699C5.83554 8.01099 5.65354 7.60099 5.65354 7.15365C5.65354 6.43967 6.23487 5.85833 6.94954 5.85833C7.45421 5.85833 7.91489 6.051 8.29756 6.359V3.575C8.29756 3.46454 8.20802 3.375 8.09755 3.375H5.20021C3.46354 3.375 2.29688 4.655 2.29688 6.56033V8.15699C2.29688 8.26745 2.38642 8.35699 2.49687 8.35699H6.14154Z" fill="#7233C2"/>
<path fill-rule="evenodd" clip-rule="evenodd" d="M9.29883 6.35833C9.68149 6.051 10.1422 5.85833 10.6462 5.85833C11.3602 5.85833 11.9415 6.43967 11.9415 7.15365C11.9415 7.60099 11.7595 8.01099 11.4535 8.35699H15.0982C15.2086 8.35699 15.2982 8.26745 15.2982 8.15699V6.56033C15.2982 4.655 14.1288 3.375 12.3882 3.375H9.49883C9.38836 3.375 9.29883 3.46454 9.29883 3.575V6.35833Z" fill="#7233C2"/>
<path fill-rule="evenodd" clip-rule="evenodd" d="M6.6543 7.15373C6.6543 7.71239 7.37496 8.21306 8.2903 8.35173C8.22364 7.51506 7.6483 6.8584 6.9503 6.8584C6.78696 6.8584 6.6543 6.99107 6.6543 7.15373Z" fill="#7233C2"/>
<path fill-rule="evenodd" clip-rule="evenodd" d="M9.89949 9.35742L11.1302 10.7101C11.3162 10.9148 11.3008 11.2308 11.0968 11.4168C10.8928 11.6028 10.5768 11.5881 10.3908 11.3834L9.29883 10.1828V14.0601C9.29883 14.1706 9.38836 14.2601 9.49883 14.2601H12.3875C14.1282 14.2601 15.2982 12.9801 15.2982 11.0748V9.55742C15.2982 9.44696 15.2086 9.35742 15.0982 9.35742H9.89949Z" fill="#7233C2"/>
<path fill-rule="evenodd" clip-rule="evenodd" d="M8.29756 10.1824L7.20554 11.3824C7.10687 11.4911 6.97154 11.5458 6.83621 11.5458C6.71554 11.5458 6.59554 11.5031 6.49954 11.4158C6.29554 11.2298 6.28021 10.9138 6.46621 10.7091L7.69689 9.35645H2.49687C2.38641 9.35645 2.29688 9.44598 2.29688 9.55645V11.0738C2.29688 12.9791 3.46354 14.2591 5.20021 14.2591H8.09756C8.20802 14.2591 8.29756 14.1696 8.29756 14.0591V10.1824Z" fill="#7233C2"/>
</svg>
