<svg width="25" height="24" viewBox="0 0 25 24" fill="none" xmlns="http://www.w3.org/2000/svg">
<g id="Gift_Card">
<path id="Vector" d="M7.10435 4.95312H17.8849C20.2657 4.95312 21.75 6.72585 21.75 9.23047V16.0017C21.75 18.5063 20.2561 20.279 17.8849 20.279H7.10435C4.7235 20.279 3.25 18.5063 3.25 16.0017V9.23047C3.25 6.72585 4.7235 4.95312 7.10435 4.95312Z" stroke="#DC6803" stroke-width="1.5" stroke-linecap="round" stroke-linejoin="round"/>
<path id="Vector_2" d="M12.5016 12.162C12.5016 10.3751 13.7421 8.92773 15.2723 8.92773C15.9316 8.92773 16.465 9.46111 16.465 10.1204C16.465 11.5587 14.69 12.7253 12.5006 12.7253C10.3101 12.7253 8.53516 11.5587 8.53516 10.1204C8.53516 9.46111 9.06954 8.92773 9.72877 8.92773C11.258 8.92773 12.4986 10.3751 12.4986 12.162" stroke="#DC6803" stroke-width="1.5" stroke-linecap="round" stroke-linejoin="round"/>
<path id="Vector_3" d="M9.55859 15.9589L12.5017 12.7246L15.4438 15.9589" stroke="#DC6803" stroke-width="1.5" stroke-linecap="round" stroke-linejoin="round"/>
<path id="Vector_4" d="M21.7403 12.6738H3.26172" stroke="#DC6803" stroke-width="1.5" stroke-linecap="round" stroke-linejoin="round"/>
<path id="Vector_5" d="M12.501 5.07227V20.2795" stroke="#DC6803" stroke-width="1.5" stroke-linecap="round" stroke-linejoin="round"/>
</g>
</svg>
