<svg width="49" height="49" viewBox="0 0 49 49" fill="none" xmlns="http://www.w3.org/2000/svg">
<path d="M13.8903 10.2002H35.4514C40.213 10.2002 43.1816 13.7456 43.1816 18.7549V32.2973C43.1816 37.3065 40.1938 40.8519 35.4514 40.8519H13.8903C9.12864 40.8519 6.18164 37.3065 6.18164 32.2973V18.7549C6.18164 13.7456 9.12864 10.2002 13.8903 10.2002Z" stroke="#263682" stroke-width="2" stroke-linecap="round" stroke-linejoin="round"/>
<path d="M24.6848 24.6199C24.6848 21.0461 27.1658 18.1514 30.2262 18.1514C31.5448 18.1514 32.6116 19.2181 32.6116 20.5367C32.6116 23.4133 29.0616 25.7465 24.6828 25.7465C20.3018 25.7465 16.752 23.4133 16.752 20.5367C16.752 19.2181 17.8207 18.1514 19.1392 18.1514C22.1976 18.1514 24.6788 21.0461 24.6788 24.6199" stroke="#263682" stroke-width="2" stroke-linecap="round" stroke-linejoin="round"/>
<path d="M18.7988 32.2137L24.685 25.7451L30.5692 32.2137" stroke="#263682" stroke-width="2" stroke-linecap="round" stroke-linejoin="round"/>
<path d="M43.1622 25.6455H6.20508" stroke="#263682" stroke-width="2" stroke-linecap="round" stroke-linejoin="round"/>
<path d="M24.6855 10.4385V40.8529" stroke="#263682" stroke-width="2" stroke-linecap="round" stroke-linejoin="round"/>
</svg>
