<svg width="24" height="25" viewBox="0 0 24 25" fill="none" xmlns="http://www.w3.org/2000/svg">
<g id="Analytics07">
<path id="Vector" d="M12.5 3.85059C14.5405 3.85059 16.5204 4.54398 18.1151 5.81705C19.7098 7.09012 20.8245 8.86729 21.2764 10.8571C21.7284 12.8469 21.4908 14.9312 20.6026 16.7683C19.7143 18.6053 18.2282 20.086 16.3879 20.9674C14.5477 21.8489 12.4625 22.0789 10.4743 21.6196C8.48617 21.1604 6.7131 20.0391 5.4459 18.4398C4.17869 16.8405 3.49257 14.858 3.50006 12.8175C3.50755 10.777 4.2082 8.7997 5.48712 7.20972M12.5 7.35059C11.4361 7.35059 10.395 7.65916 9.50295 8.2389C8.61088 8.81864 7.9061 9.64467 7.47401 10.6169C7.04193 11.5891 6.9011 12.6657 7.06858 13.7164C7.23606 14.767 7.70466 15.7465 8.4176 16.5362C9.13055 17.3259 10.0572 17.8919 11.0853 18.1655C12.1134 18.4392 13.1989 18.4087 14.21 18.078C15.2212 17.7472 16.1147 17.1302 16.7824 16.3019C17.45 15.4735 17.863 14.4693 17.9714 13.4109M12.4998 14.8506C12.8866 14.8506 13.2652 14.7383 13.5896 14.5275C13.914 14.3167 14.1703 14.0163 14.3274 13.6628C14.4845 13.3093 14.5357 12.9178 14.4748 12.5357C14.4139 12.1537 14.2435 11.7975 13.9843 11.5103C13.725 11.2232 13.388 11.0174 13.0142 10.9178C12.6403 10.8183 12.2456 10.8294 11.8779 10.9497" stroke="#263682" stroke-width="1.5" stroke-linecap="round"/>
</g>
</svg>
