<svg width="25" height="45" viewBox="0 0 25 45" fill="none" xmlns="http://www.w3.org/2000/svg">
<path d="M15.2906 10.936H10.6245V15.736H15.2906V10.936Z" fill="#263682"/>
<path d="M18.982 24.2985C18.6597 23.6074 18.4657 23.19 18.4657 22.136C18.4657 21.082 18.6597 20.6647 18.982 19.9736C19.3941 19.0911 19.9585 17.8804 19.9585 15.7344H15.2924C15.2924 16.7884 15.0983 17.2057 14.776 17.8968C14.3639 18.7793 13.7995 19.99 13.7995 22.136C13.7995 24.282 14.3639 25.4927 14.776 26.3752C14.8498 26.5335 14.9171 26.6787 14.9765 26.8206C15.589 28.2771 14.6927 29.9958 13.1549 30.1278C13.0908 30.1327 13.025 30.136 12.9593 30.136C11.6701 30.136 10.6262 29.0606 10.6262 27.736H5.9585C5.9585 31.7129 9.0933 34.936 12.9577 34.936C13.2431 34.936 13.5221 34.9162 13.7979 34.8832C17.053 34.4824 19.6218 31.7839 19.9264 28.409C19.9457 28.1863 19.9441 27.962 19.928 27.7393C19.928 27.7393 19.928 27.7377 19.928 27.736C19.8094 26.0783 19.3379 25.0639 18.9804 24.2985H18.982Z" fill="#263682"/>
</svg>
