<svg width="41" height="40" viewBox="0 0 41 40" fill="none" xmlns="http://www.w3.org/2000/svg">
<path d="M15.5454 13.7223C15.5454 16.4642 13.3326 18.677 10.5907 18.677C7.84876 18.677 5.63599 16.4642 5.63599 13.7223L10.7664 6.22472C11.3187 5.41763 12.2337 4.93506 13.2117 4.93506H27.7884C28.7664 4.93506 29.6814 5.41763 30.2337 6.22472L35.3639 13.7223C35.3639 16.4642 33.1511 18.677 30.4092 18.677C27.6673 18.677 25.455 16.4642 25.455 13.7223M15.5454 13.7223C15.5454 16.4642 17.7584 18.677 20.5003 18.677C23.2422 18.677 25.455 16.4642 25.455 13.7223M15.5454 13.7223L17.5179 4.93506M25.455 13.7223L23.611 4.93506M8.02572 23.311V31.3607C8.02572 33.4062 9.68392 35.0644 11.7294 35.0644H29.2718C31.3173 35.0644 32.9755 33.4062 32.9755 31.3607V18.4205M15.5034 23.5355H25.5124C26.3306 23.5355 26.9939 24.1988 26.9939 25.017V29.2856C26.9939 30.1038 26.3306 30.7671 25.5124 30.7671H15.5034C14.6852 30.7671 14.0219 30.1038 14.0219 29.2856V25.017C14.0219 24.1988 14.6852 23.5355 15.5034 23.5355Z" stroke="#58C2E8" stroke-width="2" stroke-linecap="round" stroke-linejoin="round"/>
</svg>
