<svg width="19" height="19" viewBox="0 0 19 19" fill="none" xmlns="http://www.w3.org/2000/svg">
<path d="M5.9787 15.059L5.40879 15.3319C4.80969 15.6187 4.11646 15.1816 4.11719 14.5168L4.12449 5.32601C4.12449 3.50901 5.13515 2.38232 6.94923 2.38232H12.4236C14.242 2.38232 15.2308 3.50901 15.2308 5.32601L15.2439 14.5154C15.2447 15.1802 14.5515 15.6179 13.9516 15.3305L13.3861 15.0597C13.0461 14.8963 12.6527 14.8846 12.3032 15.0276L10.6934 15.6836C10.0447 15.9485 9.31714 15.9485 8.66847 15.6836L7.06161 15.0276C6.71208 14.8846 6.31875 14.8963 5.9787 15.059Z" stroke="#4659B5" stroke-linecap="round" stroke-linejoin="round"/>
<path d="M11.8032 10.7802H7.56055M11.8032 7.48438H7.56055" stroke="#4659B5" stroke-linecap="round" stroke-linejoin="round"/>
</svg>
