<svg width="62" height="19" viewBox="0 0 62 19" fill="none" xmlns="http://www.w3.org/2000/svg">
<path d="M7.59225 0.359375H4.02637V3.9053H7.59225V0.359375Z" fill="#203289"/>
<path d="M10.4069 10.24C10.1596 9.73219 10.0081 9.42274 10.0081 8.64513C10.0081 7.86752 10.1596 7.55807 10.4069 7.05024C10.7181 6.39959 11.1568 5.50297 11.1568 3.91602H7.59093C7.59093 4.69362 7.43936 5.00308 7.19206 5.5109C6.88094 6.16155 6.44219 7.05818 6.44219 8.64513C6.44219 10.2321 6.87296 11.1287 7.19206 11.7794C7.2479 11.8984 7.30374 12.0015 7.34363 12.1126C7.81429 13.1917 7.12824 14.4613 5.95556 14.5565C5.9077 14.5565 5.85984 14.5565 5.80399 14.5565C4.82278 14.5565 4.01706 13.763 4.01706 12.7791H0.451172C0.451172 15.715 2.84439 18.1034 5.80399 18.1034C6.01938 18.1034 6.23477 18.0875 6.45016 18.0637C8.9391 17.7701 10.9015 15.7705 11.1329 13.279C11.1488 13.1124 11.1488 12.9458 11.1329 12.7871C11.0451 11.5651 10.6782 10.8113 10.4069 10.2479V10.24Z" fill="#203289"/>
<path d="M14.252 10.9998C14.252 7.38155 16.7569 3.91406 21.1683 3.91406C25.5719 3.91406 28.0847 7.38155 28.0847 10.9998C28.0847 14.618 25.5798 18.1014 21.1683 18.1014C16.7648 18.1014 14.252 14.6101 14.252 10.9998ZM24.7981 10.9998C24.7981 8.96057 23.5217 6.94514 21.1604 6.94514C18.7991 6.94514 17.5466 8.96057 17.5466 10.9998C17.5466 13.039 18.823 15.0306 21.1604 15.0306C23.4977 15.0306 24.7981 13.0549 24.7981 10.9998Z" fill="#203289"/>
<path d="M31.3154 17.8372V4.18945H40.0267C42.763 4.18945 44.1431 6.18108 44.1431 8.38694C44.1431 9.25976 43.808 10.1326 43.1618 10.7991C44.167 11.4815 44.6456 12.5209 44.6456 13.6239C44.6456 15.8456 43.2655 17.8452 40.5134 17.8452H31.3234L31.3154 17.8372ZM34.4904 9.54541H40.0267C40.633 9.54541 40.9681 9.109 40.9681 8.50596V8.13303C40.9681 7.50618 40.633 7.09357 40.0267 7.09357H34.4904V9.54541ZM34.4904 14.9252H40.5054C41.1117 14.9252 41.4866 14.4888 41.4866 13.8857V13.489C41.4866 12.8621 41.1117 12.4495 40.5054 12.4495H34.4904V14.9252Z" fill="#203289"/>
<path d="M47.9932 17.8372V4.18945H57.4543C60.2145 4.18945 61.5707 6.18108 61.5707 8.38694C61.5707 10.2357 60.5256 11.9417 58.4595 12.3543C58.5233 12.4575 58.6031 12.5447 58.651 12.6479L61.7861 17.8452H58.2122L54.9973 12.4654H51.1761V17.8452H48.0011L47.9932 17.8372ZM51.1682 9.54541H57.4543C58.0606 9.54541 58.3957 9.109 58.3957 8.50596V8.13303C58.3957 7.50618 58.0606 7.09357 57.4543 7.09357H51.1682V9.54541Z" fill="#203289"/>
</svg>
