<svg width="31" height="31" viewBox="0 0 31 31" fill="none" xmlns="http://www.w3.org/2000/svg">
<path fill-rule="evenodd" clip-rule="evenodd" d="M15.7426 7.4707C11.0965 7.4707 7.33008 11.2371 7.33008 15.8832C7.33008 20.5293 11.0965 24.2957 15.7426 24.2957C20.3887 24.2957 24.1551 20.5293 24.1551 15.8832C24.1551 11.2371 20.3887 7.4707 15.7426 7.4707ZM4.58008 15.8832C4.58008 9.71832 9.5777 4.7207 15.7426 4.7207C21.9075 4.7207 26.9051 9.71832 26.9051 15.8832C26.9051 22.0481 21.9075 27.0457 15.7426 27.0457C9.5777 27.0457 4.58008 22.0481 4.58008 15.8832Z" fill="#B6C2FF"/>
<path d="M17.0297 2.37988H14.2422V11.4327H17.0297V2.37988Z" fill="#B6C2FF"/>
<path d="M19.2418 16.3709C19.0543 15.9709 18.9293 15.7334 18.9293 15.1209C18.9293 14.5084 19.0418 14.2709 19.2418 13.8709C19.4918 13.3584 19.8293 12.6584 19.8293 11.4209H17.0418C17.0418 12.0334 16.9293 12.2709 16.7293 12.6709C16.4793 13.1834 16.1418 13.8834 16.1418 15.1209C16.1418 16.3584 16.4793 17.0584 16.7293 17.5709C16.7793 17.6584 16.8168 17.7459 16.8543 17.8334C17.2168 18.6709 16.6793 19.6709 15.7668 19.7459C15.7293 19.7459 15.6918 19.7459 15.6543 19.7459C14.8793 19.7459 14.2543 19.1209 14.2543 18.3584H11.4668C11.4668 20.6584 13.3418 22.5084 15.6543 22.5084C15.8293 22.5084 15.9918 22.5084 16.1543 22.4834C18.1043 22.2584 19.6293 20.6959 19.8168 18.7459C19.8168 18.6209 19.8168 18.4834 19.8168 18.3584C19.7418 17.3959 19.4668 16.8209 19.2543 16.3709H19.2418Z" fill="#B6C2FF"/>
<path fill-rule="evenodd" clip-rule="evenodd" d="M14.2676 29.2459V20.5459H17.0176V29.2459H14.2676Z" fill="#B6C2FF"/>
</svg>
