<svg width="31" height="31" viewBox="0 0 31 31" fill="none" xmlns="http://www.w3.org/2000/svg">
<g clip-path="url(#clip0_5154_58709)">
<path d="M17.5542 9.73242C17.5542 10.5566 17.3126 11.324 17.0142 11.9635C16.4884 13.0862 16.5452 14.3936 17.1563 15.4736C17.4689 16.042 17.7247 16.6815 17.7247 17.321C17.7247 19.0405 16.7868 20.6037 14.5983 20.6037C12.4099 20.6037 11.2588 19.0547 11.2588 17.321" stroke="#263682" stroke-width="1.5" stroke-miterlimit="10"/>
<path d="M15.3965 9.73242L15.3965 0.89209" stroke="#263682" stroke-width="1.5" stroke-miterlimit="10"/>
<path d="M15.0703 20.5894L15.0703 28.5908" stroke="#263682" stroke-width="1.5" stroke-miterlimit="10"/>
<path d="M15.1837 25.9182C21.329 25.9182 26.3108 20.9364 26.3108 14.7911C26.3108 8.64582 21.329 3.66406 15.1837 3.66406C9.0384 3.66406 4.05664 8.64582 4.05664 14.7911C4.05664 20.9364 9.0384 25.9182 15.1837 25.9182Z" stroke="#263682" stroke-width="1.5" stroke-miterlimit="10"/>
</g>
<defs>
<clipPath id="clip0_5154_58709">
<rect width="30" height="30" fill="white" transform="translate(0.183594 0.132324)"/>
</clipPath>
</defs>
</svg>
