<svg width="18" height="19" viewBox="0 0 18 19" fill="none" xmlns="http://www.w3.org/2000/svg">
<g id="Group">
<path id="Vector" fill-rule="evenodd" clip-rule="evenodd" d="M9.0012 12.4496C8.94937 12.4368 8.8968 12.4689 8.88426 12.5208C8.7299 13.1431 8.41575 13.808 7.87352 14.2803C7.45834 14.642 6.90806 14.8759 6.1879 14.9154C6.12035 14.9191 6.05187 14.924 5.98134 14.9253C5.93119 14.924 5.88928 14.9636 5.88797 15.014C5.88666 15.0642 5.92633 15.1062 5.97647 15.1075C6.05056 15.1129 6.12297 15.1172 6.19407 15.1169C6.97112 15.112 7.56705 14.832 8.01385 14.4418C8.58826 13.94 8.91476 13.229 9.07249 12.5671C9.08521 12.515 9.05322 12.4625 9.00139 12.4499L9.0012 12.4496Z" fill="#021859"/>
<path id="Vector_2" fill-rule="evenodd" clip-rule="evenodd" d="M8.50274 7.18057C9.20233 7.12529 9.83811 7.15827 10.5502 7.21618C10.64 7.22349 10.7289 7.19369 10.7966 7.13391C10.8642 7.07413 10.9046 6.98942 10.9085 6.89928C10.9151 6.75086 10.8217 6.6165 10.6805 6.57096C9.90359 6.3294 9.06649 6.38224 8.41967 6.48756C8.25539 6.51474 8.13471 6.65679 8.13471 6.82357C8.13452 6.82901 8.13452 6.83463 8.13452 6.84007C8.13452 6.93545 8.17419 7.02653 8.24416 7.09118C8.31414 7.15584 8.40788 7.18826 8.50274 7.18039V7.18057Z" fill="#021859"/>
<path id="Vector_3" fill-rule="evenodd" clip-rule="evenodd" d="M16.4651 10.6413C16.3697 10.5948 16.1526 10.5446 15.9025 10.5459C15.7221 10.5469 15.5257 10.5765 15.3477 10.6376C15.3206 10.646 15.3054 10.6749 15.3138 10.702C15.3223 10.7292 15.3511 10.7444 15.3782 10.7359C15.5479 10.6885 15.7332 10.6786 15.9021 10.6805C16.1283 10.6831 16.3259 10.7112 16.4133 10.7513C16.4436 10.7656 16.4797 10.7526 16.4941 10.7223C16.5083 10.6919 16.4954 10.6557 16.4651 10.6413Z" fill="#021859"/>
<path id="Vector_4" fill-rule="evenodd" clip-rule="evenodd" d="M11.3533 13.2709C11.3589 13.2462 11.3434 13.2216 11.3187 13.216C11.294 13.2104 11.2695 13.2259 11.2638 13.2507C11.2638 13.2507 11.2328 13.3603 11.2036 13.486C11.1654 13.651 11.1293 13.8428 11.1293 13.8428C11.1237 13.8678 11.1392 13.8927 11.1643 13.8983C11.1892 13.9039 11.2141 13.8884 11.2197 13.8635C11.2197 13.8635 11.2698 13.6746 11.3063 13.5095C11.3342 13.3833 11.3533 13.2709 11.3533 13.2709Z" fill="#021859"/>
<path id="Vector_5" fill-rule="evenodd" clip-rule="evenodd" d="M12.8013 12.7741C12.7766 12.7685 12.7521 12.784 12.7465 12.8088C12.7465 12.8088 12.7155 12.9184 12.6863 13.0441C12.6481 13.2089 12.612 13.4009 12.612 13.4009C12.6064 13.4259 12.6219 13.4508 12.6468 13.4564C12.6717 13.462 12.6966 13.4465 12.7022 13.4214C12.7022 13.4214 12.7523 13.2325 12.7888 13.0674C12.8167 12.9413 12.8358 12.8288 12.8358 12.8288C12.8414 12.8041 12.8258 12.7795 12.8011 12.7739L12.8013 12.7741Z" fill="#021859"/>
<path id="Vector_6" fill-rule="evenodd" clip-rule="evenodd" d="M9.65729 13.4665C9.6326 13.4609 9.60808 13.4764 9.60247 13.5012C9.60247 13.5012 9.57141 13.6108 9.54222 13.7367C9.50387 13.9014 9.46794 14.0935 9.46794 14.0935C9.46233 14.1184 9.47786 14.1434 9.50293 14.149C9.52782 14.1546 9.5527 14.1391 9.55831 14.114C9.55831 14.114 9.60846 13.9251 9.64494 13.76C9.67282 13.6338 9.69191 13.5214 9.69191 13.5214C9.69752 13.4967 9.68199 13.4721 9.65729 13.4665Z" fill="#021859"/>
<path id="Vector_7" fill-rule="evenodd" clip-rule="evenodd" d="M13.8209 13.7521C13.7962 13.7465 13.7717 13.7621 13.766 13.7868C13.766 13.7868 13.735 13.8964 13.7058 14.0222C13.6676 14.1869 13.6315 14.379 13.6315 14.379C13.6259 14.4039 13.6414 14.4288 13.6663 14.4344C13.6912 14.4401 13.7161 14.4245 13.7217 14.3996C13.7217 14.3996 13.7718 14.2107 13.8083 14.0456C13.8362 13.9195 13.8553 13.807 13.8553 13.807C13.8609 13.7823 13.8454 13.7577 13.8207 13.7521H13.8209Z" fill="#021859"/>
<path id="Vector_8" fill-rule="evenodd" clip-rule="evenodd" d="M11.4119 14.943C11.3872 14.9374 11.3627 14.953 11.3571 14.9777C11.3571 14.9777 11.3261 15.0873 11.2969 15.2133C11.2587 15.378 11.2226 15.5701 11.2226 15.5701C11.217 15.595 11.2325 15.6199 11.2574 15.6256C11.2823 15.6312 11.3072 15.6156 11.3128 15.5905C11.3128 15.5905 11.3629 15.4016 11.3994 15.2365C11.4273 15.1104 11.4464 14.998 11.4464 14.998C11.452 14.9732 11.4364 14.9487 11.4117 14.943H11.4119Z" fill="#021859"/>
<path id="Vector_9" fill-rule="evenodd" clip-rule="evenodd" d="M12.5858 14.4548C12.5611 14.4491 12.5366 14.4647 12.5309 14.4894C12.5309 14.4894 12.4999 14.5991 12.4707 14.725C12.4325 14.8897 12.3964 15.0818 12.3964 15.0818C12.3908 15.1067 12.4063 15.1317 12.4312 15.1373C12.4561 15.1429 12.481 15.1274 12.4866 15.1022C12.4866 15.1022 12.5367 14.9133 12.5732 14.7482C12.6011 14.6221 12.6202 14.5097 12.6202 14.5097C12.6258 14.4849 12.6103 14.4604 12.5856 14.4548H12.5858Z" fill="#021859"/>
<path id="Vector_10" fill-rule="evenodd" clip-rule="evenodd" d="M11.9305 16.3967C11.9058 16.391 11.8813 16.4066 11.8757 16.4313C11.8757 16.4313 11.8446 16.541 11.8154 16.6667C11.7772 16.8314 11.7411 17.0235 11.7411 17.0235C11.7355 17.0484 11.7511 17.0734 11.7761 17.079C11.801 17.0846 11.8259 17.0691 11.8315 17.0439C11.8315 17.0439 11.8817 16.855 11.9181 16.6899C11.946 16.5638 11.9651 16.4514 11.9651 16.4514C11.9707 16.4266 11.9552 16.4021 11.9305 16.3965V16.3967Z" fill="#021859"/>
<path id="Vector_11" fill-rule="evenodd" clip-rule="evenodd" d="M10.4361 16.4958C10.4114 16.4902 10.3869 16.5057 10.3813 16.5304C10.3813 16.5304 10.3502 16.6401 10.321 16.766C10.2829 16.9307 10.2468 17.1228 10.2468 17.1228C10.2411 17.1477 10.2567 17.1727 10.2816 17.1783C10.3064 17.1839 10.3313 17.1684 10.3369 17.1433C10.3369 17.1433 10.3871 16.9544 10.4236 16.7893C10.4514 16.6631 10.4705 16.5507 10.4705 16.5507C10.4761 16.526 10.4606 16.5014 10.4359 16.4958H10.4361Z" fill="#021859"/>
<path id="Vector_12" fill-rule="evenodd" clip-rule="evenodd" d="M10.234 14.5744C10.2093 14.5688 10.1847 14.5843 10.1791 14.6091C10.1791 14.6091 10.1481 14.7187 10.1189 14.8444C10.0807 15.0092 10.0446 15.2013 10.0446 15.2013C10.039 15.2262 10.0545 15.2511 10.0794 15.2567C10.1043 15.2623 10.1292 15.2468 10.1348 15.2217C10.1348 15.2217 10.1849 15.0328 10.2214 14.8677C10.2493 14.7416 10.2684 14.6291 10.2684 14.6291C10.274 14.6044 10.2585 14.5798 10.2338 14.5742L10.234 14.5744Z" fill="#021859"/>
<path id="Vector_13" fill-rule="evenodd" clip-rule="evenodd" d="M9.37507 15.3512C9.35037 15.3456 9.32586 15.3612 9.32025 15.3859C9.32025 15.3859 9.28919 15.4955 9.26 15.6213C9.22183 15.786 9.18572 15.9781 9.18572 15.9781C9.1801 16.003 9.19563 16.0279 9.22071 16.0336C9.24559 16.0392 9.27047 16.0236 9.27609 15.9985C9.27609 15.9985 9.32623 15.8096 9.36272 15.6445C9.3906 15.5184 9.40968 15.406 9.40968 15.406C9.41529 15.3812 9.39976 15.3567 9.37507 15.3511V15.3512Z" fill="#021859"/>
<path id="Vector_14" fill-rule="evenodd" clip-rule="evenodd" d="M13.149 15.7648C13.1243 15.7592 13.0998 15.7748 13.0942 15.7995C13.0942 15.7995 13.0631 15.9091 13.0339 16.0351C12.9958 16.1998 12.9596 16.3919 12.9596 16.3919C12.954 16.4168 12.9696 16.4417 12.9944 16.4473C13.0193 16.453 13.0442 16.4374 13.0498 16.4123C13.0498 16.4123 13.1 16.2234 13.1365 16.0583C13.1643 15.9322 13.1834 15.8197 13.1834 15.8197C13.189 15.795 13.1735 15.7704 13.1488 15.7648H13.149Z" fill="#021859"/>
<path id="Vector_15" fill-rule="evenodd" clip-rule="evenodd" d="M5.24921 15.7975C5.22452 15.7919 5.2 15.8075 5.19439 15.8322C5.19439 15.8322 5.16389 15.9396 5.13527 16.0629C5.09785 16.2244 5.06267 16.4126 5.06267 16.4126C5.05706 16.4375 5.07259 16.4624 5.09747 16.4681C5.12236 16.4737 5.14724 16.4581 5.15285 16.4332C5.15285 16.4332 5.20225 16.2482 5.23799 16.0863C5.2653 15.9626 5.28401 15.8526 5.28401 15.8526C5.28963 15.8279 5.2741 15.8034 5.2494 15.7977L5.24921 15.7975Z" fill="#021859"/>
<path id="Vector_16" fill-rule="evenodd" clip-rule="evenodd" d="M5.05842 14.0549C5.03372 14.0492 5.00921 14.0648 5.00359 14.0895C5.00359 14.0895 4.97254 14.1992 4.94335 14.3251C4.90518 14.4898 4.86907 14.6819 4.86907 14.6819C4.86345 14.7068 4.87898 14.7318 4.90387 14.7374C4.92875 14.743 4.95364 14.7274 4.95925 14.7023C4.95925 14.7023 5.0094 14.5134 5.04588 14.3483C5.07376 14.2222 5.09284 14.1098 5.09284 14.1098C5.09846 14.085 5.08293 14.0605 5.05823 14.0549H5.05842Z" fill="#021859"/>
<path id="Vector_17" fill-rule="evenodd" clip-rule="evenodd" d="M4.07233 14.9123C4.04763 14.9067 4.02312 14.9222 4.01751 14.947C4.01751 14.947 3.98645 15.0566 3.95726 15.1823C3.91909 15.3472 3.88298 15.5391 3.88298 15.5391C3.87737 15.5641 3.8929 15.589 3.91778 15.5946C3.94267 15.6002 3.96755 15.5847 3.97317 15.5596C3.97317 15.5596 4.02331 15.3707 4.0598 15.2056C4.08768 15.0795 4.10676 14.967 4.10676 14.967C4.11237 14.9423 4.09684 14.9177 4.07215 14.9121L4.07233 14.9123Z" fill="#021859"/>
<path id="Vector_18" fill-rule="evenodd" clip-rule="evenodd" d="M3.98903 13.329C3.99464 13.3043 3.97911 13.2797 3.95441 13.2741C3.92971 13.2685 3.9052 13.284 3.89959 13.3088C3.89959 13.3088 3.86853 13.4184 3.83934 13.5443C3.80117 13.7091 3.76506 13.9011 3.76506 13.9011C3.75945 13.9261 3.77498 13.951 3.80005 13.9566C3.82494 13.9622 3.84982 13.9467 3.85543 13.9216C3.85543 13.9216 3.90558 13.7327 3.94206 13.5676C3.96994 13.4414 3.98903 13.329 3.98903 13.329Z" fill="#021859"/>
<path id="Vector_19" fill-rule="evenodd" clip-rule="evenodd" d="M8.64509 16.7409C8.62039 16.7353 8.59588 16.7508 8.59026 16.7756C8.59026 16.7756 8.55921 16.8852 8.53002 17.0109C8.49185 17.1757 8.45574 17.3678 8.45574 17.3678C8.45012 17.3927 8.46565 17.4176 8.49072 17.4232C8.51561 17.4288 8.54049 17.4133 8.54611 17.3884C8.54611 17.3884 8.59625 17.1995 8.63274 17.0344C8.66062 16.9082 8.6797 16.7958 8.6797 16.7958C8.68531 16.7711 8.66978 16.7465 8.64509 16.7409Z" fill="#021859"/>
<path id="Vector_20" fill-rule="evenodd" clip-rule="evenodd" d="M8.09601 15.5534C8.07132 15.5478 8.0468 15.5633 8.04119 15.5881C8.04119 15.5881 8.01013 15.6977 7.98094 15.8234C7.94278 15.9882 7.90666 16.1803 7.90666 16.1803C7.90105 16.2052 7.91658 16.2301 7.94165 16.2357C7.96654 16.2413 7.99142 16.2258 7.99704 16.2009C7.99704 16.2009 8.04718 16.012 8.08366 15.8469C8.11154 15.7207 8.13063 15.6083 8.13063 15.6083C8.13624 15.5836 8.12071 15.559 8.09601 15.5534Z" fill="#021859"/>
<path id="Vector_21" fill-rule="evenodd" clip-rule="evenodd" d="M7.03377 13C7.22611 12.9172 7.40274 12.8526 7.53876 12.82C7.57731 12.8113 7.60163 12.7731 7.59302 12.7345C7.58442 12.6959 7.54625 12.6715 7.5077 12.6802C7.36401 12.7096 7.17709 12.771 6.97259 12.8505C6.72879 12.9451 6.46011 13.0654 6.21201 13.1884C6.06494 13.2615 5.93004 13.3246 5.81385 13.3362C5.74481 13.343 5.68531 13.325 5.63891 13.2645C5.59138 13.2024 5.59849 13.0771 5.61627 12.9095C5.64433 12.6481 5.72666 12.2993 5.83705 11.912C5.98542 11.3916 6.18675 10.8043 6.37647 10.2659C6.63973 9.51925 6.88221 8.86785 6.97352 8.6336C6.98774 8.59949 6.97165 8.55995 6.9376 8.54571C6.90336 8.53147 6.86407 8.54758 6.84985 8.58188C6.74731 8.81238 6.46086 9.44936 6.17346 10.1905C5.96503 10.728 5.75734 11.32 5.60485 11.8451C5.48772 12.2484 5.40446 12.6134 5.38033 12.8865C5.35862 13.1337 5.39193 13.3143 5.46471 13.4031C5.56724 13.5276 5.6926 13.5662 5.83817 13.5463C5.9742 13.5278 6.13155 13.4528 6.30088 13.3604C6.53925 13.2305 6.79764 13.1016 7.03321 13.0002L7.03377 13Z" fill="#021859"/>
<path id="Vector_22" fill-rule="evenodd" clip-rule="evenodd" d="M16.8577 9.90515C16.7827 9.86617 16.6991 9.83113 16.607 9.80115C16.3619 8.30025 16.1207 5.62622 16.218 3.81087C16.2996 2.29048 15.508 2.37257 14.7521 2.48257C14.8568 1.53994 14.5616 0.886099 13.5256 0.755668C12.0198 0.566206 10.7538 0.813576 7.94595 0.682021C6.24181 0.602188 5.15941 0.31809 3.91105 0.48244C2.37997 0.684084 0.740934 3.21268 0.783781 4.11146C0.844403 5.38129 2.64528 5.66164 4.55824 5.79676C4.54795 5.96842 4.53354 6.13914 4.51558 6.30911C4.24035 6.32186 3.97822 6.35315 3.74153 6.39176C3.57725 6.41893 3.45676 6.56098 3.45657 6.72777C3.45657 6.7332 3.45657 6.73882 3.45657 6.74426C3.45657 6.83964 3.49623 6.93072 3.56621 6.99538C3.63619 7.06003 3.72993 7.09245 3.82498 7.08458C4.02537 7.06883 4.22052 7.06078 4.41379 7.05797C4.40219 7.12805 4.39041 7.19795 4.37787 7.26786C4.35953 7.36999 4.3397 7.47194 4.31949 7.57369C3.31269 7.55027 2.61217 7.5319 2.61217 7.5319C2.52367 7.52966 2.45013 7.59975 2.44789 7.68839C2.44564 7.77703 2.51562 7.85086 2.60412 7.85311C2.60412 7.85311 2.62395 7.85367 2.66156 7.85461C2.59252 8.20336 2.51749 8.66062 2.52947 9.10532C2.53863 9.44883 2.60262 9.7839 2.74913 10.0601C2.93155 10.3958 3.19256 10.6332 3.49137 10.7754C3.29491 11.4812 3.10724 12.1914 2.96411 12.9159C2.79441 13.7952 2.74351 14.637 2.95214 15.3748C3.16674 16.1344 3.65116 16.7884 4.5603 17.2663C4.92328 17.4561 5.33809 17.6218 5.78789 17.7648C6.37652 17.9518 7.02502 18.1004 7.69018 18.2273C8.74077 18.425 9.8329 18.5234 10.8015 18.415C11.5717 18.3288 12.2645 18.1122 12.8039 17.7207C13.3082 17.3547 13.691 16.8857 13.9825 16.3398C14.3767 15.6016 14.6054 14.7244 14.7674 13.7898C14.7893 13.6639 14.8189 13.4358 14.8497 13.1764C14.9057 12.7061 14.9665 12.1315 14.9925 11.8819C15.2666 11.9244 15.9263 12.001 16.4882 11.8669C16.8854 11.7719 17.2327 11.5723 17.3884 11.2012C17.5598 10.7927 17.4643 10.2211 16.8585 9.90553L16.8577 9.90515ZM4.62578 7.30946C4.63869 7.22569 4.65067 7.14155 4.6619 7.0574C5.05781 7.06115 5.45166 7.08608 5.8719 7.12037C5.96171 7.12749 6.05077 7.09788 6.11832 7.0381C6.18586 6.97832 6.22628 6.89361 6.2302 6.80347C6.23675 6.65505 6.14339 6.52069 6.00212 6.47515C5.58619 6.34585 5.15323 6.30124 4.74123 6.30368C4.75339 6.14026 4.76218 5.9761 4.76705 5.81119C5.68255 5.87116 6.61003 5.90508 7.37266 6.00459C9.09983 6.23003 10.7013 5.26548 12.763 4.49151C12.4737 5.40715 12.4222 6.85126 12.5323 8.38758C11.9831 8.04407 11.5397 7.77084 11.5397 7.77084C11.5133 7.75435 11.483 7.74517 11.4519 7.74442C11.4519 7.74442 9.79529 7.68989 7.91602 7.64641C7.21475 7.63011 6.48261 7.62129 5.79388 7.60686C5.36691 7.59787 4.95677 7.58888 4.58125 7.58026C4.5966 7.4903 4.61156 7.40016 4.62541 7.30983L4.62578 7.30946ZM7.88889 8.00921C7.89487 8.00921 7.90105 8.00959 7.90722 8.00978C9.42296 8.05194 10.7935 8.07968 11.2672 8.08886C11.2594 8.17544 11.2487 8.27083 11.2323 8.37221C11.1911 8.62539 11.1202 8.91474 11.0332 9.19996C10.9858 9.35569 10.9305 9.50936 10.873 9.6561C10.7782 9.89785 10.6739 10.1197 10.5476 10.2835C10.1843 10.7327 9.67405 10.9625 9.18421 10.9567C8.68165 10.9507 8.20303 10.6937 7.93697 10.1829C7.80394 9.93307 7.75567 9.60718 7.74856 9.27005C7.7392 8.82403 7.81947 8.36097 7.8887 8.00959L7.88889 8.00921ZM4.61194 8.38083C4.64693 8.38439 4.68173 8.38833 4.7169 8.39357C4.84114 8.41175 4.96819 8.43987 5.10702 8.48503C5.19776 8.51651 5.28402 8.56767 5.35399 8.63551C5.42117 8.70054 5.47299 8.78131 5.499 8.87482C5.56374 9.09951 5.50349 9.2708 5.38374 9.39561C5.24903 9.53616 5.04452 9.6203 4.85798 9.66059C4.74403 9.68458 4.64188 9.69545 4.54346 9.6992C4.50529 9.7007 4.46768 9.7007 4.43026 9.70032C4.64524 9.60943 4.8301 9.39954 4.87613 9.13756C4.93301 8.81316 4.83534 8.50602 4.61194 8.38121V8.38083ZM4.0046 8.44848C3.87138 8.57067 3.77427 8.79011 3.71664 8.97789C3.62889 9.26311 3.68091 9.46888 3.81188 9.59669C3.74059 9.56745 3.67174 9.53278 3.60794 9.49306C3.41391 9.37256 3.26048 9.20839 3.22568 9.01181H3.22456C3.20454 8.86807 3.25599 8.74345 3.34655 8.64357C3.43599 8.545 3.56359 8.47097 3.70111 8.42468C3.7608 8.40463 3.83078 8.39077 3.90169 8.3814C3.97373 8.37184 4.04651 8.36715 4.11031 8.36715C4.11592 8.36715 4.12116 8.36715 4.12678 8.36696C4.08393 8.38702 4.04277 8.41381 4.00478 8.44867L4.0046 8.44848ZM4.21266 9.84556C4.32698 9.85118 4.43587 9.85549 4.54945 9.85081C4.65572 9.84649 4.7663 9.83413 4.88923 9.8077C5.15061 9.75279 5.43913 9.61786 5.58413 9.38998C5.67731 9.24344 5.71454 9.05904 5.65018 8.83153C5.61482 8.71122 5.5469 8.60777 5.45915 8.52494C5.37233 8.44324 5.26624 8.38158 5.15454 8.34448C4.96837 8.2787 4.80204 8.24084 4.63514 8.22117C4.57807 8.21442 4.52082 8.21048 4.46282 8.20749C4.48377 8.10666 4.50379 8.00547 4.52306 7.90427C4.91224 7.91514 5.33996 7.92751 5.78602 7.94081C5.93757 7.94531 6.09156 7.95037 6.24648 7.95543C6.23694 8.04651 6.22646 8.14208 6.21112 8.24103C6.1722 8.49196 6.11046 8.762 6.03431 9.02568C5.98098 9.21045 5.91624 9.39092 5.84383 9.55977C5.76693 9.7393 5.68161 9.90609 5.5759 10.0438C5.21292 10.4932 4.70306 10.7232 4.21322 10.7173C4.0931 10.716 3.97429 10.6997 3.8594 10.6696C3.93181 10.3894 4.00516 10.11 4.07701 9.83038C4.12229 9.83731 4.16775 9.84275 4.21247 9.84499L4.21266 9.84556ZM2.96617 9.94413C2.83576 9.69938 2.78599 9.40142 2.77345 9.09708C2.75511 8.66025 2.81779 8.20955 2.87205 7.86923C2.87262 7.86623 2.87318 7.86323 2.87393 7.86023C3.15776 7.86754 3.64667 7.88028 4.25195 7.89696C4.22968 7.99891 4.20667 8.10085 4.18291 8.20261C4.15784 8.20261 4.13333 8.2028 4.10769 8.20318C4.03734 8.20543 3.95726 8.21292 3.8783 8.22604C3.79785 8.23953 3.7187 8.25883 3.65153 8.28413C3.45769 8.35647 3.28462 8.47865 3.1862 8.63626C3.11454 8.75095 3.08049 8.88363 3.10519 9.03036H3.10388C3.13456 9.26499 3.29884 9.47601 3.52524 9.62349C3.60363 9.67446 3.68951 9.71737 3.77876 9.75167C3.70448 10.0174 3.62908 10.2833 3.55424 10.5494C3.31605 10.4213 3.11005 10.22 2.96617 9.94394V9.94413ZM17.1792 11.1131C17.0854 11.3682 16.7599 11.5683 16.4353 11.6446C15.7501 11.8056 14.9111 11.6261 14.9111 11.6261C14.8784 11.6193 14.8443 11.6266 14.8172 11.6463C14.79 11.666 14.7725 11.6961 14.7687 11.7295C14.7687 11.7295 14.6903 12.3655 14.6112 12.9405C14.5655 13.2726 14.5195 13.584 14.489 13.7383C14.3124 14.6337 14.0725 15.4713 13.6803 16.1747C13.4053 16.6679 13.055 17.0944 12.5906 17.4226C12.0956 17.7719 11.4609 17.9535 10.7598 18.0236C9.82729 18.1167 8.77857 18.0099 7.77064 17.809C7.12325 17.6817 6.4929 17.5309 5.91942 17.3485C5.49488 17.2136 5.10159 17.062 4.75807 16.8843C3.96605 16.4773 3.53702 15.9181 3.34356 15.2616C3.14298 14.5808 3.18789 13.8014 3.33458 12.9855C3.459 12.276 3.62683 11.579 3.80421 10.8866C3.93705 10.9188 4.07383 10.9353 4.21228 10.9351C4.60689 10.9342 5.00972 10.7976 5.35849 10.5373C5.4947 10.4357 5.62399 10.3167 5.7398 10.1767C5.92915 9.94844 6.07996 9.64691 6.1911 9.31933C6.31496 8.95428 6.38288 8.55661 6.44201 8.20786C6.45641 8.12316 6.47157 8.0422 6.48485 7.96405C6.87871 7.97736 7.2778 7.99141 7.67054 8.00322C7.59588 8.292 7.52983 8.65219 7.50981 9.0165C7.48418 9.48312 7.53769 9.95481 7.72012 10.2991C8.03969 10.8869 8.5997 11.1731 9.18346 11.1735C9.7328 11.1737 10.3052 10.9203 10.71 10.4145C10.8964 10.19 11.0594 9.86336 11.183 9.50824C11.3209 9.11282 11.4044 8.68198 11.4639 8.33585C11.4749 8.27214 11.4854 8.21198 11.495 8.15464C11.7015 8.28601 12.1146 8.54799 12.5691 8.83284C12.6288 9.49324 12.7164 10.1628 12.826 10.8079C12.9749 11.684 14.6303 11.8298 14.713 10.8959C14.7405 10.5856 14.7775 10.2858 14.8333 10.006C15.2612 9.9252 15.6225 9.89803 15.925 9.91171C17.0183 9.94095 17.3945 10.5283 17.1794 11.1135L17.1792 11.1131Z" fill="#021859"/>
<path id="Vector_23" fill-rule="evenodd" clip-rule="evenodd" d="M6.66437 15.9792C6.63968 15.9736 6.61516 15.9891 6.60955 16.0138C6.60955 16.0138 6.57849 16.1235 6.5493 16.2492C6.51113 16.4141 6.47502 16.606 6.47502 16.606C6.46941 16.631 6.48494 16.6559 6.51001 16.6615C6.5349 16.6671 6.55978 16.6516 6.56539 16.6266C6.56539 16.6266 6.61554 16.4377 6.65202 16.2726C6.6799 16.1465 6.69899 16.0341 6.69899 16.0341C6.7046 16.0094 6.68907 15.9848 6.66437 15.9792Z" fill="#021859"/>
<path id="Vector_24" fill-rule="evenodd" clip-rule="evenodd" d="M8.11923 9.43985C8.15011 9.67428 8.31401 9.8853 8.54059 10.0328C8.74211 10.1641 8.99245 10.2429 9.2282 10.2547C9.34252 10.2603 9.45142 10.2646 9.56499 10.2601C9.67127 10.2556 9.78185 10.2434 9.90477 10.217C10.1662 10.1621 10.4547 10.0272 10.5997 9.79928C10.6929 9.65273 10.7301 9.46833 10.6657 9.24082C10.6304 9.12051 10.5624 9.01707 10.4747 8.93443C10.3879 8.85272 10.2818 8.79106 10.1701 8.75396C9.98392 8.68818 9.81758 8.65033 9.65068 8.63065C9.4821 8.61078 9.31334 8.60966 9.12305 8.61247C9.0527 8.61472 8.97262 8.62221 8.89366 8.63552C8.81321 8.64901 8.73406 8.66831 8.66689 8.69361C8.47305 8.76595 8.29998 8.88814 8.20156 9.04574C8.1299 9.16043 8.09585 9.29311 8.12054 9.43985H8.11923ZM9.73245 8.80287C9.85669 8.82105 9.98373 8.84916 10.1226 8.89432C10.2133 8.9258 10.2996 8.97696 10.3695 9.0448C10.4367 9.10983 10.4885 9.1906 10.5145 9.28411C10.5793 9.50881 10.5192 9.68009 10.3995 9.8049C10.2648 9.94545 10.0603 10.0296 9.87371 10.0699C9.75977 10.0939 9.65761 10.1047 9.55919 10.1083C9.52102 10.1098 9.48341 10.1098 9.44599 10.1094C9.66098 10.0185 9.84583 9.80865 9.89186 9.54666C9.94874 9.22227 9.85107 8.91512 9.62767 8.79031C9.66247 8.79387 9.69746 8.79781 9.73245 8.80306V8.80287ZM8.36191 9.05286C8.45135 8.9541 8.57895 8.88026 8.71647 8.83398C8.77616 8.81411 8.84614 8.80006 8.91705 8.79069C8.98908 8.78113 9.06187 8.77663 9.12567 8.77644C9.13128 8.77644 9.13652 8.77644 9.14213 8.77626C9.09929 8.79631 9.05813 8.82311 9.02014 8.85796C8.88674 8.98015 8.78982 9.1996 8.73219 9.38737C8.64444 9.6726 8.69645 9.87836 8.82742 10.0062C8.75614 9.97694 8.68728 9.94227 8.62348 9.90254C8.42945 9.78204 8.27603 9.61788 8.24123 9.42129H8.23992C8.2199 9.27756 8.27135 9.15293 8.36191 9.05305V9.05286Z" fill="#021859"/>
</g>
</svg>
