<svg width="54" height="55" viewBox="0 0 54 55" fill="none" xmlns="http://www.w3.org/2000/svg">
<g id="Settings-Language">
<path id="Vector" d="M18.7127 9.14258H37.5184C44.0914 9.14258 48.1807 13.7827 48.1807 20.3493V38.0681C48.1807 44.6347 44.0914 49.2749 37.5164 49.2749H18.7127C12.1397 49.2749 8.04834 44.6347 8.04834 38.0681V20.3493C8.04834 13.7827 12.1592 9.14258 18.7127 9.14258Z" stroke="#263682" stroke-width="2.5" stroke-linecap="round" stroke-linejoin="round"/>
<path id="Vector_2" d="M29.5386 35.8613C31.1655 36.5121 32.107 36.6053 33.9725 36.6053C35.0572 36.6053 36.5845 36.1151 37.6041 35.8981" stroke="#263682" stroke-width="2.50827" stroke-linecap="round" stroke-linejoin="round"/>
<path id="Vector_3" d="M28.1323 38.6265L33.5925 27.9297L39.0548 38.6265" stroke="#263682" stroke-width="2.50827" stroke-linecap="round" stroke-linejoin="round"/>
<path id="Vector_4" d="M20.9995 26.0215C21.518 28.1518 22.5115 30.0911 23.85 31.7183C24.31 32.2714 24.8154 32.792 25.3555 33.2758" stroke="#263682" stroke-width="2.50827" stroke-linecap="round" stroke-linejoin="round"/>
<path id="Vector_5" d="M29.0406 21.7266C29.1706 21.9999 28.5047 31.6382 17.8447 34.9008" stroke="#263682" stroke-width="2.50827" stroke-linecap="round" stroke-linejoin="round"/>
<path id="Vector_6" d="M17.1758 21.7266H32.669" stroke="#263682" stroke-width="2.50827" stroke-linecap="round" stroke-linejoin="round"/>
<path id="Vector_7" d="M24.522 19.793V21.7215" stroke="#263682" stroke-width="2.50827" stroke-linecap="round" stroke-linejoin="round"/>
</g>
</svg>
