<svg width="30" height="31" viewBox="0 0 30 31" fill="none" xmlns="http://www.w3.org/2000/svg">
<g id="Group">
<path id="Vector" d="M6.5625 0.255859C2.93813 0.255859 0 3.19398 0 6.81836V23.6934C0 27.3177 2.93813 30.2559 6.5625 30.2559H6.7241V0.255859H6.5625Z" fill="#FF4B55"/>
<path id="Vector_2" d="M23.4375 0.255859H23.2759V30.2559H23.4375C27.0619 30.2559 30 27.3177 30 23.6934V6.81836C30 3.19398 27.0619 0.255859 23.4375 0.255859Z" fill="#FF4B55"/>
<path id="Vector_3" d="M18.1387 17.5259L21.208 15.772L20.5037 15.4199C20.3062 15.3211 20.1931 15.1078 20.2223 14.8888L20.4514 13.1708L19.152 13.5488C18.8649 13.6323 18.5671 13.4558 18.5025 13.1639L18.378 12.6014L17.1579 14.0293C16.9888 14.2273 16.6666 14.076 16.7107 13.8195L17.2317 10.7897L16.4339 11.0079C16.2009 11.0716 15.9549 10.9656 15.8412 10.7525L15.0011 9.17807V9.17578L15.0005 9.17695L14.9999 9.17578V9.17807L14.1598 10.7525C14.0461 10.9656 13.8 11.0717 13.567 11.0079L12.7693 10.7898L13.2903 13.8196C13.3344 14.0762 13.0121 14.2273 12.843 14.0294L11.6229 12.6015L11.4985 13.164C11.4339 13.4559 11.136 13.6324 10.849 13.5489L9.54953 13.1708L9.77863 14.8889C9.80781 15.1078 9.69479 15.3212 9.49727 15.4199L8.79297 15.7721L11.8623 17.526C12.1802 17.7076 12.3195 18.093 12.1913 18.4359L11.9289 19.1377L14.5589 18.9132C14.7044 18.9008 14.8283 19.0179 14.824 19.164L14.7412 21.979H15.2585L15.1757 19.1638C15.1714 19.0178 15.2953 18.9006 15.4408 18.913L18.0721 19.1377L17.8097 18.4359C17.6815 18.0929 17.8208 17.7076 18.1387 17.5259Z" fill="#FF4B55"/>
</g>
</svg>
