<svg width="17" height="17" viewBox="0 0 17 17" fill="none" xmlns="http://www.w3.org/2000/svg">
<path d="M4.44759 5.38314L6.44759 2.0498M10.4476 2.0498L12.4476 5.38314M6.61209 15.3831H10.2831C11.5291 15.3831 12.152 15.3831 12.6627 15.16C13.113 14.9632 13.5001 14.6458 13.7814 14.2428C14.1004 13.7859 14.2226 13.175 14.4669 11.9532L14.7602 10.4866C15.1101 8.73719 15.2851 7.86251 15.0482 7.17797C14.8405 6.57756 14.4253 6.07103 13.8773 5.7496C13.2525 5.38314 12.3604 5.38314 10.5764 5.38314H6.31875C4.53474 5.38314 3.64273 5.38314 3.01793 5.7496C2.46991 6.07103 2.05466 6.57756 1.84695 7.17797C1.61013 7.86251 1.78507 8.73719 2.13494 10.4866L2.42828 11.9532C2.67263 13.175 2.79481 13.7859 3.11378 14.2428C3.39506 14.6458 3.78222 14.9632 4.2325 15.16C4.74314 15.3831 5.36612 15.3831 6.61209 15.3831Z" stroke="#C29613" stroke-width="1.25" stroke-linecap="round" stroke-linejoin="round"/>
<path d="M6.54297 9.59668L6.54297 11.7616" stroke="#C29613" stroke-width="1.25" stroke-linecap="round"/>
<path d="M10.3516 9.59668L10.3516 11.7616" stroke="#C29613" stroke-width="1.25" stroke-linecap="round"/>
</svg>
