<svg width="25" height="24" viewBox="0 0 25 24" fill="none" xmlns="http://www.w3.org/2000/svg">
<path d="M20.2363 17C21.6261 17.5273 22.4585 18.1987 22.4585 18.9299C22.4585 20.6255 17.9813 22 12.4585 22C6.93565 22 2.4585 20.6255 2.4585 18.9299C2.4585 18.1987 3.29094 17.5273 4.68072 17M14.4585 8C14.4585 9.10457 13.5631 10 12.4585 10C11.3539 10 10.4585 9.10457 10.4585 8C10.4585 6.89543 11.3539 6 12.4585 6C13.5631 6 14.4585 6.89543 14.4585 8ZM12.4585 18C14.0141 18 19.4585 15.0816 19.4585 8.80006C19.4585 4.80003 16.3474 2 12.4585 2C8.56961 2 5.4585 4.80003 5.4585 8.80006C5.4585 15.0816 10.9029 18 12.4585 18Z" stroke="#7E8AC1" stroke-width="1.5" stroke-linecap="round" stroke-linejoin="round"/>
</svg>
