<svg width="17" height="17" viewBox="0 0 17 17" fill="none" xmlns="http://www.w3.org/2000/svg">
<path fill-rule="evenodd" clip-rule="evenodd" d="M9.30469 8.86216C10.22 8.72282 10.9407 8.22282 10.9407 7.66349C10.9407 7.50083 10.808 7.36816 10.6454 7.36816C9.94735 7.36816 9.37135 8.02482 9.30469 8.86216Z" fill="#F5EDFF"/>
<path fill-rule="evenodd" clip-rule="evenodd" d="M6.14154 8.86675C5.83554 8.52075 5.65354 8.11075 5.65354 7.66342C5.65354 6.94943 6.23487 6.3681 6.94954 6.3681C7.45421 6.3681 7.91489 6.56077 8.29756 6.86877V4.08477C8.29756 3.97431 8.20802 3.88477 8.09755 3.88477H5.20021C3.46354 3.88477 2.29688 5.16477 2.29688 7.0701V8.66675C2.29688 8.77722 2.38642 8.86675 2.49687 8.86675H6.14154Z" fill="#F5EDFF"/>
<path fill-rule="evenodd" clip-rule="evenodd" d="M9.29883 6.8681C9.68149 6.56077 10.1422 6.3681 10.6462 6.3681C11.3602 6.3681 11.9415 6.94943 11.9415 7.66342C11.9415 8.11075 11.7595 8.52075 11.4535 8.86675H15.0982C15.2086 8.86675 15.2982 8.77722 15.2982 8.66675V7.0701C15.2982 5.16477 14.1288 3.88477 12.3882 3.88477H9.49883C9.38836 3.88477 9.29883 3.97431 9.29883 4.08477V6.8681Z" fill="#F5EDFF"/>
<path fill-rule="evenodd" clip-rule="evenodd" d="M6.6543 7.66349C6.6543 8.22216 7.37496 8.72282 8.2903 8.86149C8.22364 8.02482 7.6483 7.36816 6.9503 7.36816C6.78696 7.36816 6.6543 7.50083 6.6543 7.66349Z" fill="#F5EDFF"/>
<path fill-rule="evenodd" clip-rule="evenodd" d="M9.89949 9.86719L11.1302 11.2199C11.3162 11.4245 11.3008 11.7405 11.0968 11.9265C10.8928 12.1125 10.5768 12.0979 10.3908 11.8932L9.29883 10.6925V14.5699C9.29883 14.6803 9.38836 14.7699 9.49883 14.7699H12.3875C14.1282 14.7699 15.2982 13.4899 15.2982 11.5845V10.0672C15.2982 9.95672 15.2086 9.86719 15.0982 9.86719H9.89949Z" fill="#F5EDFF"/>
<path fill-rule="evenodd" clip-rule="evenodd" d="M8.29756 10.6922L7.20554 11.8922C7.10687 12.0009 6.97154 12.0555 6.83621 12.0555C6.71554 12.0555 6.59554 12.0129 6.49954 11.9255C6.29554 11.7395 6.28021 11.4235 6.46621 11.2189L7.69689 9.86621H2.49687C2.38641 9.86621 2.29688 9.95574 2.29688 10.0662V11.5835C2.29688 13.4889 3.46354 14.7689 5.20021 14.7689H8.09756C8.20802 14.7689 8.29756 14.6793 8.29756 14.5689V10.6922Z" fill="#F5EDFF"/>
</svg>
