<svg width="16" height="17" viewBox="0 0 16 17" fill="none" xmlns="http://www.w3.org/2000/svg">
<path d="M6.65642 13.9495C6.98396 14.3589 7.4757 14.6164 8.0193 14.6164C8.56936 14.6164 9.06103 14.3589 9.38863 13.9495M4.04797 2.62142C3.41616 3.23572 2.95366 3.9791 2.69678 4.75102M13.3038 4.75749C13.0463 3.98492 12.5844 3.23634 11.9468 2.61621M8.00103 12.1866C4.83741 12.1866 3.374 11.7636 3.23258 10.0647C3.23258 8.36781 4.25296 8.47614 4.25296 6.39324C4.25296 4.76572 5.73194 2.91504 8.00103 2.91504C10.2701 2.91504 11.7491 4.76572 11.7491 6.3926C11.7491 8.47548 12.7694 8.36654 12.7694 10.0647C12.6274 11.7695 11.164 12.1866 8.00103 12.1866Z" stroke="#263682" stroke-linecap="round" stroke-linejoin="round"/>
</svg>
