<svg width="31" height="31" viewBox="0 0 31 31" fill="none" xmlns="http://www.w3.org/2000/svg">
<path d="M5.35156 10.728C6.64676 10.728 7.29436 10.728 7.79081 10.9761C8.24648 11.2038 8.61592 11.5732 8.8436 12.0289C9.09166 12.5253 9.09166 13.173 9.09166 14.4681V22.0163C9.09166 23.3115 9.09166 23.9591 8.8436 24.4556C8.61592 24.9112 8.24648 25.2807 7.79081 25.5083C7.29436 25.7563 6.64676 25.7563 5.35156 25.7563" stroke="#93370D" stroke-width="1.5" stroke-linecap="round" stroke-linejoin="round"/>
<path d="M9.0918 12.2971C10.8809 12.2971 13.5952 10.4099 14.6517 5.65906C14.7871 5.04999 14.9435 4.75167 15.5896 4.50732C20.1602 4.50732 19.2132 10.7943 18.1741 12.4932H21.4438C26.2917 12.4932 26.0151 16.2616 26.0151 19.9803C26.0151 23.5432 23.7257 25.6919 20.4016 25.6919H14.6577C12.7301 25.6919 10.8249 24.5151 9.0918 23.7971" stroke="#93370D" stroke-width="1.5" stroke-linecap="round" stroke-linejoin="round"/>
</svg>
