<svg width="31" height="31" viewBox="0 0 31 31" fill="none" xmlns="http://www.w3.org/2000/svg">
<path fill-rule="evenodd" clip-rule="evenodd" d="M22.3568 12.093H19.8364C19.4032 12.093 19.1101 11.602 19.2517 11.1926C20.1146 8.69631 20.3603 3.59008 16.1762 3.50791C16.1101 3.50661 16.0411 3.51835 15.9798 3.54335C15.3507 3.80025 15.1931 4.11922 15.0607 4.74142C14.2175 8.54305 12.3794 10.6395 10.7061 11.4671C10.6142 11.5125 10.59 11.6268 10.6359 11.7185C11.163 12.6894 11.163 13.6327 11.163 15.2001V22.8984C11.163 23.6133 11.163 24.2013 11.1102 24.7218C11.0847 24.9727 11.2112 25.2199 11.4413 25.3228C12.6141 25.8476 13.8375 26.2968 15.0607 26.2968H21.2472C24.812 26.2968 27.281 23.9804 27.281 20.1521C27.281 16.1433 27.5723 12.093 22.3568 12.093Z" fill="#FFFAEB"/>
<path fill-rule="evenodd" clip-rule="evenodd" d="M7.62513 11.634C7.18819 11.4329 5.73313 11.3941 4.42927 11.3858C3.93408 11.383 3.5332 11.7852 3.5332 12.279V25.8629C3.5332 26.358 3.93408 26.7589 4.42927 26.7562C5.73313 26.7492 7.18819 26.7104 7.62513 26.5078C8.13835 26.272 8.55448 25.8975 8.80415 25.4259C9.08158 24.9265 9.08158 24.2608 9.08158 22.943V15.1989C9.08158 13.8812 9.08158 13.2153 8.80415 12.716C8.55448 12.2444 8.13835 11.8699 7.62513 11.634Z" fill="#FFFAEB"/>
</svg>
