<svg width="16" height="16" viewBox="0 0 16 16" fill="none" xmlns="http://www.w3.org/2000/svg">
<g id="List">
<path id="Vector" d="M5.66675 12.5078H13.6672" stroke="#58C2E8" stroke-linecap="round" stroke-linejoin="round"/>
<path id="Vector_2" d="M5.66675 8.50781H13.6672" stroke="#58C2E8" stroke-linecap="round" stroke-linejoin="round"/>
<path id="Vector_3" d="M5.66675 4.50781H13.6672" stroke="#58C2E8" stroke-linecap="round" stroke-linejoin="round"/>
<path id="Vector_4" d="M3.00763 4.49768V4.54033M3.18047 4.50685C3.18047 4.60286 3.10258 4.68069 3.00656 4.68069C2.91056 4.68069 2.83276 4.60286 2.83276 4.50685C2.83276 4.41084 2.91056 4.33301 3.00656 4.33301C3.10258 4.33301 3.18047 4.41084 3.18047 4.50685Z" stroke="#58C2E8" stroke-linecap="round" stroke-linejoin="round"/>
<path id="Vector_5" d="M3.00763 8.58361V8.62628M3.18047 8.59281C3.18047 8.68881 3.10258 8.76661 3.00656 8.76661C2.91056 8.76661 2.83276 8.68881 2.83276 8.59281C2.83276 8.49681 2.91056 8.41895 3.00656 8.41895C3.10258 8.41895 3.18047 8.49681 3.18047 8.59281Z" stroke="#58C2E8" stroke-linecap="round" stroke-linejoin="round"/>
<path id="Vector_6" d="M3.00763 12.4977V12.5403M3.18047 12.5069C3.18047 12.6029 3.10258 12.6807 3.00656 12.6807C2.91056 12.6807 2.83276 12.6029 2.83276 12.5069C2.83276 12.4108 2.91056 12.333 3.00656 12.333C3.10258 12.333 3.18047 12.4108 3.18047 12.5069Z" stroke="#58C2E8" stroke-linecap="round" stroke-linejoin="round"/>
</g>
</svg>
