<svg width="12" height="12" viewBox="0 0 12 12" fill="none" xmlns="http://www.w3.org/2000/svg">
<g id="Location_Solid">
<g id="Vector">
<path fill-rule="evenodd" clip-rule="evenodd" d="M6.00012 0.625C3.86713 0.625 2.12512 2.17482 2.12512 4.40003C2.12512 6.0891 2.86014 7.3317 3.69683 8.14646C4.11367 8.55238 4.5579 8.85467 4.95479 9.05701C5.33883 9.2528 5.7179 9.375 6.00012 9.375C6.28233 9.375 6.66141 9.2528 7.04544 9.05701C7.44233 8.85467 7.88656 8.55238 8.3034 8.14646C9.14009 7.3317 9.87512 6.0891 9.87512 4.40003C9.87512 2.17482 8.1331 0.625 6.00012 0.625ZM7.00012 4C7.00012 4.55228 6.5524 5 6.00012 5C5.44783 5 5.00012 4.55228 5.00012 4C5.00012 3.44772 5.44783 3 6.00012 3C6.5524 3 7.00012 3.44772 7.00012 4Z" fill="#914BEB"/>
<path fill-rule="evenodd" clip-rule="evenodd" d="M2.29903 8.99498C2.5724 8.89126 2.70993 8.58557 2.60621 8.3122C2.50249 8.03883 2.1968 7.9013 1.92343 8.00502C1.54631 8.1481 1.20673 8.32412 0.951844 8.54118C0.699705 8.7559 0.470703 9.06527 0.470703 9.46493C0.470703 9.92795 0.774831 10.2679 1.08205 10.4909C1.40104 10.7224 1.82856 10.9089 2.3092 11.0565C3.27699 11.3536 4.58181 11.5294 6.00012 11.5294C7.41842 11.5294 8.72324 11.3536 9.69103 11.0565C10.1717 10.9089 10.5992 10.7224 10.9182 10.4909C11.2254 10.2679 11.5295 9.92795 11.5295 9.46493C11.5295 9.06527 11.3005 8.7559 11.0484 8.54118C10.7935 8.32412 10.4539 8.1481 10.0768 8.00502C9.80343 7.9013 9.49774 8.03883 9.39402 8.3122C9.2903 8.58557 9.42784 8.89126 9.70121 8.99498C10.019 9.11555 10.235 9.23921 10.3619 9.34731C10.4318 9.40682 10.4579 9.44625 10.4672 9.46463C10.4559 9.48755 10.4178 9.54573 10.2962 9.63401C10.1092 9.76977 9.80445 9.91406 9.38027 10.0443C8.53842 10.3028 7.34323 10.4706 6.00012 10.4706C4.657 10.4706 3.46182 10.3028 2.61996 10.0443C2.19578 9.91406 1.89107 9.76977 1.70403 9.63401C1.58241 9.54573 1.54429 9.48754 1.53302 9.46463C1.54228 9.44625 1.56845 9.40682 1.63833 9.34731C1.76527 9.23921 1.98126 9.11555 2.29903 8.99498Z" fill="#914BEB"/>
</g>
</g>
</svg>
