<svg width="25" height="24" viewBox="0 0 25 24" fill="none" xmlns="http://www.w3.org/2000/svg">
<path d="M19.8188 17C21.2086 17.5273 22.041 18.1987 22.041 18.9299C22.041 20.6255 17.5639 22 12.041 22C6.51817 22 2.04102 20.6255 2.04102 18.9299C2.04102 18.1987 2.87346 17.5273 4.26324 17M14.041 8C14.041 9.10457 13.1456 10 12.041 10C10.9364 10 10.041 9.10457 10.041 8C10.041 6.89543 10.9364 6 12.041 6C13.1456 6 14.041 6.89543 14.041 8ZM12.041 18C13.5966 18 19.041 15.0816 19.041 8.80006C19.041 4.80003 15.9299 2 12.041 2C8.15213 2 5.04102 4.80003 5.04102 8.80006C5.04102 15.0816 10.4855 18 12.041 18Z" stroke="#263682" stroke-width="1.5" stroke-linecap="round" stroke-linejoin="round"/>
</svg>
