<svg width="25" height="25" viewBox="0 0 25 25" fill="none" xmlns="http://www.w3.org/2000/svg">
<path d="M7.4585 8.63232V7.43232C7.4585 5.75217 7.4585 4.91209 7.78548 4.27035C8.0731 3.70587 8.53204 3.24692 9.09652 2.9593C9.73826 2.63232 10.5783 2.63232 12.2585 2.63232H12.6585C14.3387 2.63232 15.1787 2.63232 15.8205 2.9593C16.385 3.24692 16.8439 3.70587 17.1315 4.27035C17.4585 4.91209 17.4585 5.75217 17.4585 7.43232V8.63232M12.4585 14.6323V16.6323M9.8585 22.6323H15.0585C17.2987 22.6323 18.4188 22.6323 19.2745 22.1964C20.0271 21.8129 20.639 21.2009 21.0225 20.4483C21.4585 19.5926 21.4585 18.4725 21.4585 16.2323V15.0323C21.4585 12.7921 21.4585 11.672 21.0225 10.8164C20.639 10.0637 20.0271 9.45179 19.2745 9.0683C18.4188 8.63232 17.2987 8.63232 15.0585 8.63232H9.8585C7.61829 8.63232 6.49818 8.63232 5.64253 9.0683C4.88989 9.45179 4.27796 10.0637 3.89447 10.8164C3.4585 11.672 3.4585 12.7921 3.4585 15.0323V16.2323C3.4585 18.4725 3.4585 19.5926 3.89447 20.4483C4.27796 21.2009 4.88989 21.8129 5.64253 22.1964C6.49818 22.6323 7.61829 22.6323 9.8585 22.6323Z" stroke="#7E8AC1" stroke-width="1.5" stroke-linecap="round"/>
</svg>
