<svg width="46" height="49" viewBox="0 0 46 49" fill="none" xmlns="http://www.w3.org/2000/svg">
<path fill-rule="evenodd" clip-rule="evenodd" d="M22.8531 32.1412C22.7149 32.1073 22.5746 32.1927 22.5412 32.3311C22.1296 33.9908 21.2919 35.7638 19.8459 37.0232C18.7388 37.9877 17.2714 38.6113 15.3509 38.7168C15.1708 38.7268 14.9882 38.7398 14.8001 38.7432C14.6664 38.7398 14.5546 38.8452 14.5511 38.9796C14.5476 39.1136 14.6534 39.2255 14.7871 39.229C14.9847 39.2435 15.1778 39.255 15.3674 39.254C17.4395 39.241 19.0286 38.4944 20.2201 37.4539C21.7519 36.1156 22.6225 34.2196 23.0432 32.4546C23.0771 32.3157 22.9918 32.1757 22.8536 32.1422L22.8531 32.1412Z" fill="#021859"/>
<path fill-rule="evenodd" clip-rule="evenodd" d="M21.5237 18.0903C23.3892 17.9428 25.0846 18.0308 26.9836 18.1852C27.2231 18.2047 27.4601 18.1252 27.6407 17.9658C27.8209 17.8064 27.9286 17.5805 27.9391 17.3401C27.9566 16.9444 27.7076 16.586 27.3309 16.4646C25.2593 15.8204 23.027 15.9614 21.3021 16.2422C20.8641 16.3147 20.5422 16.6935 20.5422 17.1383C20.5417 17.1527 20.5417 17.1677 20.5417 17.1822C20.5417 17.4366 20.6475 17.6795 20.8341 17.8519C21.0207 18.0243 21.2707 18.1107 21.5237 18.0898V18.0903Z" fill="#021859"/>
<path fill-rule="evenodd" clip-rule="evenodd" d="M42.7569 27.3199C42.5024 27.1959 41.9236 27.062 41.2565 27.0655C40.7756 27.068 40.2517 27.1469 39.7772 27.3099C39.7048 27.3324 39.6644 27.4093 39.6869 27.4818C39.7093 27.5542 39.7862 27.5947 39.8585 27.5722C40.311 27.4458 40.805 27.4193 41.2555 27.4243C41.8588 27.4313 42.3857 27.5063 42.6187 27.6132C42.6995 27.6512 42.7958 27.6167 42.8342 27.5357C42.8721 27.4548 42.8377 27.3583 42.7569 27.3199Z" fill="#021859"/>
<path fill-rule="evenodd" clip-rule="evenodd" d="M29.1252 34.3316C29.1402 34.2657 29.0988 34.2002 29.0329 34.1852C28.967 34.1702 28.9017 34.2117 28.8867 34.2776C28.8867 34.2776 28.8039 34.57 28.726 34.9053C28.6243 35.3451 28.528 35.8568 28.528 35.8568C28.513 35.9233 28.5544 35.9898 28.6213 36.0047C28.6876 36.0197 28.754 35.9782 28.7689 35.9118C28.7689 35.9118 28.9027 35.4081 29 34.9678C29.0743 34.6315 29.1252 34.3316 29.1252 34.3316Z" fill="#021859"/>
<path fill-rule="evenodd" clip-rule="evenodd" d="M32.987 33.0075C32.9211 32.9925 32.8558 33.0339 32.8408 33.0999C32.8408 33.0999 32.758 33.3922 32.6801 33.7276C32.5784 34.1668 32.4821 34.6791 32.4821 34.6791C32.4671 34.7455 32.5085 34.812 32.5749 34.827C32.6412 34.842 32.7076 34.8005 32.7226 34.7335C32.7226 34.7335 32.8563 34.2298 32.9536 33.7895C33.0279 33.4532 33.0788 33.1534 33.0788 33.1534C33.0938 33.0874 33.0524 33.0219 32.9865 33.0069L32.987 33.0075Z" fill="#021859"/>
<path fill-rule="evenodd" clip-rule="evenodd" d="M24.6022 34.8537C24.5364 34.8387 24.471 34.8801 24.456 34.9461C24.456 34.9461 24.3732 35.2384 24.2954 35.5743C24.1931 36.0135 24.0973 36.5258 24.0973 36.5258C24.0823 36.5922 24.1237 36.6587 24.1906 36.6737C24.257 36.6887 24.3233 36.6472 24.3383 36.5803C24.3383 36.5803 24.472 36.0765 24.5693 35.6362C24.6436 35.2999 24.6945 35.0001 24.6945 35.0001C24.7095 34.9341 24.6681 34.8686 24.6022 34.8537Z" fill="#021859"/>
<path fill-rule="evenodd" clip-rule="evenodd" d="M35.7053 35.6149C35.6394 35.5999 35.574 35.6413 35.5591 35.7073C35.5591 35.7073 35.4762 35.9997 35.3984 36.335C35.2966 36.7743 35.2003 37.2865 35.2003 37.2865C35.1854 37.353 35.2268 37.4194 35.2931 37.4344C35.3595 37.4494 35.4258 37.4079 35.4408 37.3415C35.4408 37.3415 35.5745 36.8377 35.6718 36.3975C35.7462 36.0611 35.7971 35.7613 35.7971 35.7613C35.812 35.6953 35.7706 35.6299 35.7048 35.6149H35.7053Z" fill="#021859"/>
<path fill-rule="evenodd" clip-rule="evenodd" d="M29.2814 38.7902C29.2156 38.7752 29.1502 38.8167 29.1352 38.8826C29.1352 38.8826 29.0524 39.175 28.9746 39.5108C28.8728 39.9501 28.7765 40.4623 28.7765 40.4623C28.7615 40.5288 28.8029 40.5952 28.8693 40.6102C28.9357 40.6252 29.002 40.5837 29.017 40.5168C29.017 40.5168 29.1507 40.013 29.248 39.5728C29.3223 39.2364 29.3732 38.9366 29.3732 38.9366C29.3882 38.8706 29.3468 38.8052 29.2809 38.7902H29.2814Z" fill="#021859"/>
<path fill-rule="evenodd" clip-rule="evenodd" d="M32.4116 37.4884C32.3457 37.4734 32.2803 37.5149 32.2654 37.5809C32.2654 37.5809 32.1825 37.8732 32.1047 38.209C32.0029 38.6483 31.9066 39.1605 31.9066 39.1605C31.8917 39.227 31.9331 39.2935 31.9994 39.3084C32.0658 39.3234 32.1321 39.282 32.1471 39.215C32.1471 39.215 32.2808 38.7113 32.3781 38.271C32.4525 37.9347 32.5034 37.6348 32.5034 37.6348C32.5183 37.5689 32.4769 37.5034 32.4111 37.4884H32.4116Z" fill="#021859"/>
<path fill-rule="evenodd" clip-rule="evenodd" d="M30.6642 42.6676C30.5984 42.6526 30.533 42.6941 30.518 42.7601C30.518 42.7601 30.4352 43.0524 30.3574 43.3877C30.2556 43.827 30.1593 44.3392 30.1593 44.3392C30.1443 44.4057 30.1858 44.4722 30.2526 44.4872C30.319 44.5022 30.3853 44.4607 30.4003 44.3937C30.4003 44.3937 30.534 43.89 30.6313 43.4497C30.7056 43.1134 30.7565 42.8135 30.7565 42.8135C30.7715 42.7476 30.7301 42.6821 30.6642 42.6671V42.6676Z" fill="#021859"/>
<path fill-rule="evenodd" clip-rule="evenodd" d="M26.6796 42.9323C26.6138 42.9173 26.5484 42.9588 26.5334 43.0247C26.5334 43.0247 26.4506 43.3171 26.3728 43.6529C26.271 44.0921 26.1747 44.6044 26.1747 44.6044C26.1597 44.6708 26.2011 44.7373 26.2675 44.7523C26.3339 44.7673 26.4002 44.7258 26.4152 44.6589C26.4152 44.6589 26.5489 44.1551 26.6462 43.7149C26.7205 43.3785 26.7714 43.0787 26.7714 43.0787C26.7864 43.0127 26.745 42.9473 26.6791 42.9323H26.6796Z" fill="#021859"/>
<path fill-rule="evenodd" clip-rule="evenodd" d="M26.1403 37.8078C26.0745 37.7928 26.0091 37.8342 25.9941 37.9002C25.9941 37.9002 25.9113 38.1926 25.8335 38.5279C25.7317 38.9671 25.6354 39.4794 25.6354 39.4794C25.6204 39.5458 25.6618 39.6123 25.7282 39.6273C25.7945 39.6423 25.8609 39.6008 25.8759 39.5338C25.8759 39.5338 26.0096 39.0301 26.1069 38.5898C26.1812 38.2535 26.2321 37.9537 26.2321 37.9537C26.2471 37.8877 26.2057 37.8222 26.1398 37.8072L26.1403 37.8078Z" fill="#021859"/>
<path fill-rule="evenodd" clip-rule="evenodd" d="M23.8498 39.879C23.7839 39.8641 23.7186 39.9055 23.7036 39.9715C23.7036 39.9715 23.6208 40.2638 23.5429 40.5991C23.4412 41.0384 23.3449 41.5506 23.3449 41.5506C23.3299 41.6171 23.3713 41.6836 23.4382 41.6986C23.5045 41.7136 23.5709 41.6721 23.5858 41.6051C23.5858 41.6051 23.7196 41.1014 23.8169 40.6611C23.8912 40.3248 23.9421 40.025 23.9421 40.025C23.9571 39.959 23.9156 39.8935 23.8498 39.8785V39.879Z" fill="#021859"/>
<path fill-rule="evenodd" clip-rule="evenodd" d="M33.9138 40.9821C33.8479 40.9671 33.7825 41.0086 33.7676 41.0745C33.7676 41.0745 33.6847 41.3669 33.6069 41.7027C33.5051 42.142 33.4088 42.6542 33.4088 42.6542C33.3939 42.7206 33.4353 42.7871 33.5016 42.8021C33.568 42.8171 33.6343 42.7756 33.6493 42.7086C33.6493 42.7086 33.783 42.2049 33.8803 41.7647C33.9547 41.4283 34.0056 41.1285 34.0056 41.1285C34.0205 41.0625 33.9791 40.9971 33.9133 40.9821H33.9138Z" fill="#021859"/>
<path fill-rule="evenodd" clip-rule="evenodd" d="M12.8477 41.07C12.7818 41.055 12.7165 41.0964 12.7015 41.1624C12.7015 41.1624 12.6202 41.4488 12.5438 41.7776C12.444 42.2084 12.3502 42.7101 12.3502 42.7101C12.3353 42.7766 12.3767 42.843 12.443 42.858C12.5094 42.873 12.5757 42.8315 12.5907 42.7651C12.5907 42.7651 12.7224 42.2718 12.8177 41.8401C12.8906 41.5102 12.9405 41.2169 12.9405 41.2169C12.9554 41.1509 12.914 41.0855 12.8482 41.0705L12.8477 41.07Z" fill="#021859"/>
<path fill-rule="evenodd" clip-rule="evenodd" d="M12.3388 36.423C12.2729 36.408 12.2076 36.4495 12.1926 36.5154C12.1926 36.5154 12.1098 36.8078 12.032 37.1436C11.9302 37.5829 11.8339 38.0951 11.8339 38.0951C11.8189 38.1616 11.8603 38.228 11.9267 38.243C11.993 38.258 12.0594 38.2165 12.0744 38.1496C12.0744 38.1496 12.2081 37.6458 12.3054 37.2056C12.3797 36.8693 12.4306 36.5694 12.4306 36.5694C12.4456 36.5034 12.4042 36.438 12.3383 36.423H12.3388Z" fill="#021859"/>
<path fill-rule="evenodd" clip-rule="evenodd" d="M9.70916 38.7091C9.6433 38.6941 9.57794 38.7356 9.56297 38.8016C9.56297 38.8016 9.48015 39.0939 9.40231 39.4292C9.30053 39.869 9.20423 40.3807 9.20423 40.3807C9.18926 40.4472 9.23067 40.5137 9.29703 40.5287C9.36339 40.5437 9.42975 40.5022 9.44472 40.4352C9.44472 40.4352 9.57844 39.9315 9.67573 39.4912C9.75008 39.1549 9.80097 38.855 9.80097 38.855C9.81594 38.7891 9.77452 38.7236 9.70866 38.7086L9.70916 38.7091Z" fill="#021859"/>
<path fill-rule="evenodd" clip-rule="evenodd" d="M9.48726 34.4869C9.50223 34.4209 9.46081 34.3555 9.39495 34.3405C9.32909 34.3255 9.26373 34.3669 9.24876 34.4329C9.24876 34.4329 9.16594 34.7253 9.0881 35.0611C8.98632 35.5004 8.89002 36.0126 8.89002 36.0126C8.87505 36.079 8.91646 36.1455 8.98332 36.1605C9.04968 36.1755 9.11604 36.134 9.13101 36.067C9.13101 36.067 9.26473 35.5633 9.36202 35.123C9.43636 34.7867 9.48726 34.4869 9.48726 34.4869Z" fill="#021859"/>
<path fill-rule="evenodd" clip-rule="evenodd" d="M21.9035 43.5856C21.8376 43.5706 21.7723 43.6121 21.7573 43.678C21.7573 43.678 21.6745 43.9704 21.5966 44.3057C21.4949 44.745 21.3986 45.2572 21.3986 45.2572C21.3836 45.3237 21.425 45.3901 21.4919 45.4051C21.5582 45.4201 21.6246 45.3787 21.6396 45.3122C21.6396 45.3122 21.7733 44.8084 21.8706 44.3682C21.9449 44.0319 21.9958 43.732 21.9958 43.732C22.0108 43.6661 21.9694 43.6006 21.9035 43.5856Z" fill="#021859"/>
<path fill-rule="evenodd" clip-rule="evenodd" d="M20.4389 40.4186C20.373 40.4036 20.3077 40.4451 20.2927 40.511C20.2927 40.511 20.2099 40.8034 20.132 41.1387C20.0303 41.578 19.934 42.0902 19.934 42.0902C19.919 42.1567 19.9604 42.2231 20.0273 42.2381C20.0936 42.2531 20.16 42.2116 20.175 42.1452C20.175 42.1452 20.3087 41.6415 20.406 41.2012C20.4803 40.8649 20.5312 40.565 20.5312 40.565C20.5462 40.4991 20.5048 40.4336 20.4389 40.4186Z" fill="#021859"/>
<path fill-rule="evenodd" clip-rule="evenodd" d="M17.6066 33.6093C18.1195 33.3884 18.5905 33.216 18.9532 33.1291C19.056 33.1061 19.1209 33.0041 19.0979 32.9012C19.075 32.7983 18.9732 32.7333 18.8704 32.7563C18.4872 32.8347 17.9888 32.9986 17.4434 33.2105C16.7933 33.4629 16.0768 33.7837 15.4152 34.1116C15.023 34.3064 14.6633 34.4749 14.3534 34.5059C14.1693 34.5238 14.0107 34.4759 13.8869 34.3144C13.7602 34.149 13.7792 33.8147 13.8266 33.3679C13.9014 32.6708 14.1209 31.7408 14.4153 30.7079C14.811 29.3201 15.3478 27.7539 15.8538 26.3182C16.5558 24.3272 17.2024 22.5901 17.4459 21.9655C17.4838 21.8745 17.4409 21.7691 17.3501 21.7311C17.2588 21.6931 17.154 21.7361 17.1161 21.8275C16.8427 22.4422 16.0788 24.1408 15.3124 26.1173C14.7566 27.5505 14.2028 29.1292 13.7961 30.5295C13.4838 31.6049 13.2618 32.5784 13.1974 33.3065C13.1395 33.9656 13.2283 34.4474 13.4224 34.6842C13.6958 35.0161 14.0301 35.119 14.4183 35.0661C14.781 35.0166 15.2007 34.8167 15.6522 34.5703C16.2879 34.224 16.9769 33.8802 17.6051 33.6098L17.6066 33.6093Z" fill="#021859"/>
<path fill-rule="evenodd" clip-rule="evenodd" d="M43.8038 25.3566C43.6037 25.2527 43.3807 25.1592 43.1352 25.0793C42.4816 21.0769 41.8385 13.9461 42.0979 9.10519C42.3155 5.05083 40.2044 5.26972 38.1887 5.56306C38.4681 3.04939 37.6808 1.3058 34.9181 0.957986C30.9026 0.452753 27.5267 1.11241 20.0391 0.761593C15.4947 0.548705 12.6083 -0.20889 9.27931 0.229379C5.19644 0.767095 0.825679 7.51003 0.939937 9.90676C1.1016 13.293 5.90394 14.0406 11.0052 14.4009C10.9777 14.8586 10.9393 15.3139 10.8914 15.7672C10.1575 15.8012 9.45843 15.8846 8.82726 15.9876C8.38919 16.06 8.06787 16.4388 8.06737 16.8836C8.06737 16.8981 8.06737 16.9131 8.06737 16.9276C8.06737 17.1819 8.17315 17.4248 8.35975 17.5972C8.54636 17.7696 8.79633 17.8561 9.04979 17.8351C9.58416 17.7931 10.1046 17.7716 10.62 17.7641C10.589 17.951 10.5576 18.1374 10.5242 18.3238C10.4753 18.5962 10.4224 18.868 10.3685 19.1394C7.68368 19.0769 5.81563 19.028 5.81563 19.028C5.57963 19.022 5.38354 19.2089 5.37756 19.4452C5.37157 19.6816 5.55817 19.8785 5.79417 19.8845C5.79417 19.8845 5.84706 19.886 5.94735 19.8885C5.76324 20.8185 5.56316 22.0379 5.5951 23.2237C5.61954 24.1398 5.79018 25.0333 6.18086 25.7699C6.66733 26.6649 7.36336 27.2981 8.16017 27.6774C7.63628 29.5594 7.13584 31.4534 6.75415 33.3854C6.3016 35.7301 6.16589 37.9749 6.72221 39.9424C7.2945 41.9678 8.58627 43.7119 11.0106 44.9862C11.9786 45.4925 13.0848 45.9342 14.2842 46.3155C15.8539 46.8143 17.5833 47.2106 19.357 47.5489C22.1586 48.0761 25.0709 48.3385 27.654 48.0496C29.7076 47.8198 31.5552 47.2421 32.9937 46.1981C34.3383 45.2221 35.3592 43.9713 36.1365 42.5156C37.1878 40.5471 37.7975 38.2078 38.2296 35.7156C38.288 35.3798 38.3668 34.7716 38.4491 34.08C38.5983 32.8257 38.7605 31.2935 38.8298 30.6278C39.5608 30.7413 41.3201 30.9457 42.8184 30.5878C43.8777 30.3345 44.8037 29.8023 45.2188 28.8128C45.6759 27.7234 45.4214 26.1992 43.8058 25.3576L43.8038 25.3566ZM11.1853 18.4348C11.2197 18.2114 11.2516 17.987 11.2816 17.7626C12.3373 17.7726 13.3876 17.8391 14.5083 17.9305C14.7477 17.9495 14.9852 17.8706 15.1654 17.7111C15.3455 17.5517 15.4533 17.3258 15.4637 17.0855C15.4812 16.6897 15.2322 16.3314 14.8555 16.2099C13.7464 15.8651 12.5918 15.7462 11.4931 15.7527C11.5256 15.3169 11.549 14.8791 11.562 14.4394C14.0033 14.5993 16.4766 14.6897 18.5103 14.9551C23.1161 15.5563 27.3865 12.9841 32.8844 10.9202C32.113 13.3619 31.9758 17.2129 32.2692 21.3097C30.8048 20.3937 29.6223 19.6651 29.6223 19.6651C29.552 19.6211 29.4711 19.5967 29.3883 19.5947C29.3883 19.5947 24.9706 19.4492 19.9592 19.3333C18.0892 19.2898 16.1368 19.2663 14.3002 19.2278C13.1616 19.2039 12.0679 19.1799 11.0665 19.1569C11.1074 18.917 11.1474 18.6766 11.1843 18.4358L11.1853 18.4348ZM19.8869 20.3008C19.9028 20.3008 19.9193 20.3018 19.9358 20.3023C23.9777 20.4147 27.6325 20.4887 28.8958 20.5132C28.8749 20.744 28.8464 20.9984 28.8025 21.2688C28.6928 21.9439 28.5037 22.7155 28.2717 23.4761C28.1454 23.8914 27.9977 24.3012 27.8446 24.6925C27.5916 25.3371 27.3137 25.9288 26.9769 26.3656C26.0079 27.5634 24.6473 28.1761 23.3411 28.1606C22.0009 28.1446 20.7246 27.4595 20.0151 26.0972C19.6604 25.4311 19.5316 24.562 19.5127 23.663C19.4877 22.4736 19.7018 21.2388 19.8864 20.3018L19.8869 20.3008ZM11.1484 21.2918C11.2417 21.3013 11.3345 21.3117 11.4283 21.3257C11.7596 21.3742 12.0983 21.4492 12.4686 21.5696C12.7106 21.6536 12.9406 21.79 13.1272 21.9709C13.3063 22.1443 13.4445 22.3597 13.5139 22.6091C13.6865 23.2082 13.5258 23.665 13.2065 23.9978C12.8473 24.3726 12.3019 24.597 11.8045 24.7045C11.5006 24.7684 11.2282 24.7974 10.9657 24.8074C10.864 24.8114 10.7637 24.8114 10.6639 24.8104C11.2372 24.568 11.7301 24.0083 11.8529 23.3097C12.0045 22.4446 11.7441 21.6256 11.1484 21.2928V21.2918ZM9.52878 21.4722C9.17353 21.798 8.91458 22.3832 8.7609 22.8839C8.5269 23.6445 8.6656 24.1932 9.01487 24.534C8.82477 24.4561 8.64116 24.3636 8.47102 24.2577C7.95361 23.9364 7.54447 23.4986 7.45167 22.9744H7.44868C7.39529 22.5911 7.5325 22.2587 7.77399 21.9924C8.01248 21.7295 8.35277 21.5321 8.71949 21.4087C8.87865 21.3552 9.06526 21.3182 9.25436 21.2933C9.44645 21.2678 9.64054 21.2553 9.81068 21.2553C9.82565 21.2553 9.83962 21.2553 9.85459 21.2548C9.74033 21.3082 9.63056 21.3797 9.52928 21.4727L9.52878 21.4722ZM10.0836 25.1977C10.3885 25.2127 10.6788 25.2242 10.9817 25.2117C11.2651 25.2002 11.56 25.1672 11.8878 25.0967C12.5848 24.9503 13.3542 24.5905 13.7409 23.9828C13.9893 23.592 14.0886 23.1003 13.917 22.4936C13.8227 22.1728 13.6416 21.8969 13.4076 21.6761C13.1761 21.4582 12.8932 21.2938 12.5953 21.1948C12.0988 21.0194 11.6553 20.9185 11.2102 20.866C11.058 20.848 10.9054 20.8375 10.7507 20.8295C10.8066 20.5606 10.86 20.2908 10.9114 20.0209C11.9492 20.0499 13.0898 20.0829 14.2792 20.1184C14.6834 20.1304 15.094 20.1439 15.5071 20.1574C15.4817 20.4002 15.4538 20.6551 15.4128 20.919C15.3091 21.5881 15.1444 22.3082 14.9413 23.0113C14.7991 23.5041 14.6265 23.9853 14.4334 24.4356C14.2283 24.9143 14.0008 25.3591 13.7189 25.7264C12.751 26.9248 11.3913 27.538 10.0851 27.5225C9.76478 27.519 9.44795 27.4755 9.1416 27.395C9.33469 26.6479 9.53028 25.9028 9.72187 25.1572C9.84262 25.1757 9.96386 25.1902 10.0831 25.1962L10.0836 25.1977ZM6.75963 25.4606C6.41187 24.8079 6.27915 24.0133 6.24572 23.2017C6.19682 22.0369 6.36397 20.835 6.50866 19.9275C6.51016 19.9195 6.51166 19.9115 6.51365 19.9035C7.27055 19.923 8.5743 19.957 10.1884 20.0014C10.129 20.2733 10.0676 20.5452 10.0043 20.8165C9.93742 20.8165 9.87205 20.817 9.8037 20.818C9.6161 20.824 9.40255 20.844 9.19199 20.879C8.97745 20.915 8.76639 20.9664 8.58727 21.0339C8.07036 21.2268 7.60884 21.5526 7.34639 21.9729C7.1553 22.2787 7.06449 22.6325 7.13035 23.0238H7.12686C7.20868 23.6495 7.64676 24.2122 8.25048 24.6055C8.45954 24.7414 8.68856 24.8559 8.92655 24.9473C8.72847 25.6559 8.5274 26.3651 8.32782 27.0747C7.69266 26.7329 7.14332 26.1962 6.75963 25.4601V25.4606ZM44.661 28.5779C44.411 29.2581 43.5429 29.7918 42.6772 29.9952C40.8501 30.4244 38.6128 29.9457 38.6128 29.9457C38.5255 29.9277 38.4347 29.9472 38.3623 29.9996C38.29 30.0521 38.2431 30.1326 38.2331 30.2216C38.2331 30.2216 38.024 31.9176 37.813 33.4508C37.6912 34.3364 37.5685 35.1669 37.4872 35.5782C37.0162 37.966 36.3765 40.1998 35.3307 42.0753C34.5973 43.3906 33.6633 44.528 32.4249 45.403C31.1047 46.3345 29.4122 46.8188 27.5427 47.0057C25.056 47.2541 22.2594 46.9692 19.5715 46.4335C17.8452 46.0942 16.1643 45.6919 14.635 45.2056C13.5029 44.8458 12.4541 44.4415 11.538 43.9678C9.426 42.8824 8.28192 41.3912 7.76601 39.6406C7.23114 37.825 7.35088 35.7466 7.74206 33.5708C8.07386 31.6788 8.52141 29.8203 8.99441 27.9737C9.34866 28.0597 9.71339 28.1037 10.0826 28.1032C11.1349 28.1007 12.2091 27.7364 13.1391 27.0422C13.5024 26.7714 13.8472 26.454 14.156 26.0807C14.6609 25.472 15.0631 24.668 15.3595 23.7944C15.6898 22.8209 15.8709 21.7605 16.0285 20.8305C16.067 20.6046 16.1074 20.3887 16.1428 20.1803C17.1931 20.2158 18.2573 20.2533 19.3046 20.2848C19.1055 21.0549 18.9294 22.0154 18.876 22.9869C18.8077 24.2312 18.9504 25.489 19.4368 26.4071C20.289 27.9747 21.7824 28.7378 23.3391 28.7388C24.804 28.7393 26.3303 28.0637 27.41 26.7149C27.9069 26.1162 28.3415 25.2452 28.6713 24.2982C29.039 23.2437 29.2616 22.0948 29.4202 21.1718C29.4497 21.0019 29.4776 20.8415 29.5031 20.6886C30.0539 21.0389 31.1556 21.7375 32.3675 22.4971C32.5267 24.2582 32.7602 26.0437 33.0526 27.7638C33.4497 30.1001 37.8639 30.4889 38.0844 27.9987C38.1578 27.1712 38.2565 26.3716 38.4052 25.6255C39.5463 25.4101 40.5098 25.3376 41.3166 25.3741C44.2319 25.4521 45.2353 27.0182 44.6615 28.5789L44.661 28.5779Z" fill="#021859"/>
<path fill-rule="evenodd" clip-rule="evenodd" d="M16.6215 41.5534C16.5557 41.5384 16.4903 41.5798 16.4753 41.6458C16.4753 41.6458 16.3925 41.9382 16.3147 42.2735C16.2129 42.7133 16.1166 43.225 16.1166 43.225C16.1016 43.2914 16.143 43.3579 16.2099 43.3729C16.2762 43.3879 16.3426 43.3464 16.3576 43.2799C16.3576 43.2799 16.4913 42.7762 16.5886 42.336C16.6629 41.9996 16.7138 41.6998 16.7138 41.6998C16.7288 41.6338 16.6874 41.5683 16.6215 41.5534Z" fill="#021859"/>
<path fill-rule="evenodd" clip-rule="evenodd" d="M20.5012 24.1151C20.5836 24.7403 21.0206 25.303 21.6249 25.6963C22.1622 26.0466 22.8298 26.2565 23.4585 26.288C23.7633 26.303 24.0537 26.3145 24.3566 26.3025C24.64 26.2905 24.9349 26.258 25.2627 26.1875C25.9597 26.0411 26.7291 25.6813 27.1157 25.0736C27.3642 24.6828 27.4635 24.1911 27.2919 23.5844C27.1976 23.2636 27.0165 22.9877 26.7825 22.7674C26.5509 22.5495 26.268 22.3851 25.9702 22.2861C25.4737 22.1107 25.0302 22.0098 24.5851 21.9573C24.1355 21.9043 23.6855 21.9013 23.1781 21.9088C22.9905 21.9148 22.7769 21.9348 22.5664 21.9703C22.3518 22.0062 22.1408 22.0577 21.9616 22.1252C21.4447 22.3181 20.9832 22.6439 20.7208 23.0642C20.5297 23.37 20.4389 23.7238 20.5047 24.1151H20.5012ZM24.8031 22.4165C25.1344 22.465 25.4732 22.54 25.8434 22.6604C26.0854 22.7444 26.3154 22.8808 26.502 23.0617C26.6812 23.2351 26.8194 23.4505 26.8887 23.6999C27.0614 24.299 26.9012 24.7558 26.5819 25.0886C26.2226 25.4634 25.6773 25.6878 25.1798 25.7952C24.876 25.8592 24.6036 25.8882 24.3411 25.8977C24.2393 25.9017 24.139 25.9017 24.0392 25.9007C24.6125 25.6583 25.1055 25.0986 25.2282 24.4C25.3799 23.5349 25.1195 22.7159 24.5237 22.383C24.6165 22.3925 24.7098 22.403 24.8031 22.417V22.4165ZM21.1484 23.0832C21.3869 22.8198 21.7271 22.6229 22.0939 22.4995C22.253 22.4465 22.4396 22.409 22.6287 22.384C22.8208 22.3586 23.0149 22.3466 23.1851 22.3461C23.2 22.3461 23.214 22.3461 23.229 22.3456C23.1147 22.399 23.0049 22.4705 22.9036 22.5635C22.5479 22.8893 22.2894 23.4745 22.1358 23.9752C21.9018 24.7358 22.0405 25.2845 22.3897 25.6253C22.1996 25.5474 22.016 25.4549 21.8459 25.349C21.3285 25.0277 20.9193 24.5899 20.8265 24.0657H20.823C20.7697 23.6824 20.9069 23.35 21.1484 23.0837V23.0832Z" fill="#021859"/>
</svg>
