<svg width="45" height="46" viewBox="0 0 45 46" fill="none" xmlns="http://www.w3.org/2000/svg">
<path fill-rule="evenodd" clip-rule="evenodd" d="M38.4509 27.8213C39.2973 27.7584 40.1296 27.6747 40.967 27.649C41.5275 27.632 42.09 27.644 42.6598 27.6884C42.7567 27.6955 42.8295 27.7836 42.8227 27.8848C42.8159 27.986 42.7316 28.062 42.6347 28.0544C42.0763 28.0128 41.5248 28.0117 40.9754 28.0205C40.1416 28.0336 39.3109 28.0757 38.4672 28.1113C38.3907 28.1157 38.3247 28.0544 38.3205 27.9745C38.3163 27.8946 38.375 27.8257 38.4515 27.8213H38.4509Z" fill="#193391"/>
<path fill-rule="evenodd" clip-rule="evenodd" d="M23.6336 22.3764C23.5142 21.9983 23.6587 21.6334 23.8782 21.3544C24.1731 20.9796 24.6303 20.688 25.0215 20.4883C25.6888 20.1332 26.4859 19.8963 27.2862 19.8328C28.108 19.7672 28.9319 19.8886 29.6321 20.2667C29.7547 20.3324 29.8736 20.4079 29.9883 20.4899C30.1014 20.5709 30.2098 20.659 30.3135 20.7493C30.401 20.8253 30.4879 20.9025 30.5681 20.9867C30.6273 21.0485 30.6817 21.1153 30.7315 21.1864C30.7791 21.2553 30.8184 21.3281 30.8509 21.4047C30.8839 21.4813 30.908 21.5617 30.9263 21.6444C31.0374 22.1658 30.8849 22.5394 30.6142 22.8086C30.2522 23.1686 29.6342 23.3218 29.1471 23.3836C28.7669 23.4291 28.2877 23.44 27.8021 23.4214C27.3381 23.4033 26.8678 23.359 26.4744 23.3005C25.958 23.2222 25.33 23.1391 24.7801 22.9979C24.3244 22.8808 23.7698 22.7944 23.6336 22.3758V22.3764ZM30.2502 22.4027C30.4047 22.2544 30.523 22.0487 30.4937 21.7565C30.3832 21.2433 29.8552 20.8756 29.2288 20.584C28.6208 20.3006 27.943 20.1666 27.634 20.1693C28.0771 20.3975 28.4065 20.9336 28.4416 21.5771C28.4699 22.0946 28.3013 22.5652 28.0184 22.8754C28.405 22.8781 28.7779 22.8633 29.0827 22.8239C29.4666 22.7774 29.9605 22.6811 30.2496 22.4032L30.2502 22.4027ZM23.9798 22.2051C24.1081 22.4317 24.5271 22.4574 24.8817 22.5378C25.3395 22.6412 25.8501 22.703 26.3026 22.7572C26.0952 22.4875 25.958 22.128 25.936 21.7259C25.902 21.1038 26.1518 20.549 26.5436 20.2601C26.0444 20.3553 25.5626 20.5178 25.1341 20.7296C24.778 20.9134 24.326 21.1514 24.0893 21.5191C23.9636 21.7149 23.8667 21.9847 23.9788 22.2051H23.9798Z" fill="#193391"/>
<path fill-rule="evenodd" clip-rule="evenodd" d="M21.7902 17.091C21.9881 17.0986 22.2474 17.0992 22.5548 17.115C25.3936 17.2638 32.3218 17.864 32.3218 17.864C32.526 17.8777 32.6811 18.0621 32.6674 18.2755C32.6538 18.4889 32.4778 18.6508 32.2736 18.6366C32.2736 18.6366 25.3354 18.293 22.5009 18.1064C22.1966 18.0867 21.941 18.0583 21.7451 18.0451C21.1831 18.0074 21.0202 17.7803 21.0271 17.5412C21.0333 17.3021 21.3046 17.0718 21.7902 17.091Z" fill="#193391"/>
<path fill-rule="evenodd" clip-rule="evenodd" d="M0.801949 6.6353C3.54169 2.57403 7.15506 1.07383 10.4934 0.65528C15.1035 0.0775205 19.3249 1.38514 25.0721 3.67319C31.4571 6.21511 37.3986 7.94511 39.2495 10.8531C40.7354 13.1882 41.145 20.0622 42.0317 25.4584C42.6754 25.5919 43.2625 25.8414 43.7491 26.2671C44.4561 26.9132 44.7683 27.7448 44.74 28.5453C44.7101 29.3889 44.3058 30.2025 43.5835 30.7316C43.1865 31.0215 42.8037 31.1802 42.3821 31.2606C42.1595 31.3028 41.9243 31.3225 41.6703 31.3307C41.9274 32.9687 42.248 35.2481 41.665 35.8236C41.3749 36.1103 40.8249 36.3188 40.2588 36.3729C39.6167 38.7945 38.5283 40.5392 37.1283 41.8053C33.3039 45.2647 27.0445 45.123 20.7621 45.4185C19.2459 45.4901 16.3427 45.5645 13.7774 45.2357C11.8379 44.9873 10.0933 44.4862 9.19978 43.637C8.14337 42.6331 7.43421 41.3457 6.95079 39.9374C6.2563 37.9147 6.03161 35.6392 5.87553 33.639C5.55028 29.5974 5.78859 25.4229 6.33277 21.2686C6.50822 19.9287 6.71615 18.591 6.94713 17.2598C6.44956 17.221 6.09184 17.1778 5.93262 17.1701C5.70374 17.1701 5.51781 16.9753 5.51833 16.7362C5.51833 16.4971 5.70479 16.3035 5.93367 16.3035C6.10127 16.2958 6.48361 16.2838 7.01521 16.2969C7.04821 16.298 7.08487 16.2991 7.11892 16.3002C7.31009 15.2492 7.51382 14.2031 7.72804 13.1657C6.21283 13.1581 4.71123 12.9513 3.22535 12.3697C0.988929 11.4943 -0.63732 8.76798 0.801949 6.63476V6.6353ZM8.28531 16.3538C8.66136 16.3746 9.06518 16.3992 9.48942 16.4255C11.3566 16.5409 13.5841 16.6996 15.2491 16.8402C16.6941 16.9622 17.7139 17.076 17.7139 17.076C17.8103 17.0826 17.8998 17.1302 17.9616 17.2079C18.0234 17.2855 18.0517 17.3862 18.0397 17.4863C18.0397 17.4863 17.9862 17.7976 17.9192 18.3065C17.8165 19.0861 17.6819 20.3275 17.5426 21.6007C17.3672 23.2054 17.2011 24.8632 17.1472 25.7139C17.0969 26.4794 16.9932 27.392 16.9712 28.1081C16.9597 28.4895 16.9602 28.8079 17.0335 28.9923C17.2132 29.4519 17.4923 29.581 17.8139 29.5186C18.4173 29.4004 19.095 28.8134 19.546 28.4435L20.6495 27.5419C20.7401 27.4669 20.8716 27.4833 20.9428 27.578C21.014 27.6726 20.9989 27.8099 20.9082 27.8844L19.8602 28.8462C19.3658 29.285 18.609 29.9547 17.9318 30.115C17.3499 30.2523 16.8073 30.08 16.4511 29.2538C16.3495 29.0125 16.3081 28.5951 16.3186 28.0901C16.3333 27.3657 16.4401 26.4416 16.4894 25.6674C16.5265 25.105 16.6151 24.1929 16.7214 23.1753C16.8879 21.5793 17.1126 19.7235 17.2352 18.5538C17.2671 18.2496 17.2917 17.9919 17.3095 17.7977C16.889 17.7862 16.1311 17.7626 15.1978 17.7211C13.5302 17.6466 11.3021 17.5219 9.43599 17.4147C8.96147 17.3873 8.51052 17.3616 8.09781 17.337C7.69504 19.4943 7.35408 21.6718 7.11473 23.8483C6.75596 27.1146 6.62397 30.377 6.84866 33.5591C6.98798 35.4789 7.18229 37.6647 7.83803 39.6086C8.26279 40.8692 8.88186 42.028 9.82043 42.9302C10.6087 43.6879 12.1721 44.0819 13.8905 44.3122C16.4003 44.6487 19.2432 44.5896 20.7281 44.5283C26.8214 44.2744 32.8985 44.5223 36.6313 41.1985C37.9103 40.0594 38.9012 38.4963 39.5245 36.3472C39.1002 36.2695 38.7341 36.072 38.5503 35.7153C37.9679 34.5838 36.9015 32.2411 37.6212 31.4866C38.3502 30.7223 41.0727 30.5877 41.498 30.5767C41.5341 30.5756 42.0254 30.5357 42.238 30.4881C42.5528 30.4181 42.8382 30.2939 43.131 30.069C43.6307 29.6866 43.9051 29.1126 43.9182 28.5196C43.9303 27.9566 43.7003 27.3794 43.2007 26.9291C42.6502 26.4115 41.9133 26.1883 41.1172 26.1281C40.7338 26.0991 40.3384 26.1111 39.9424 26.1396C39.1013 26.2808 38.168 26.4378 37.452 26.5581C36.7727 26.6725 36.1285 26.2036 35.9965 25.4978C35.3229 21.7916 35.445 17.8048 35.5424 14.1938C30.9507 13.8135 23.6485 11.8193 17.3399 12.1568C14.5111 12.3078 11.7133 12.9726 8.95833 13.1324C8.72421 14.1981 8.499 15.2727 8.28741 16.3533L8.28531 16.3538Z" fill="#193391"/>
<path fill-rule="evenodd" clip-rule="evenodd" d="M23.2177 31.4959C23.1852 31.2743 23.3308 31.067 23.5424 31.0331C23.7545 30.9991 23.953 31.1512 23.9855 31.3723C24.1662 32.553 23.6058 33.8272 22.5672 34.6572C21.7176 35.3362 20.5492 35.7159 19.2241 35.4888C18.672 35.3898 18.0907 35.2087 17.5638 34.9258C17.0165 34.6315 16.5288 34.2299 16.1764 33.7205C16.0381 33.5246 16.0779 33.2478 16.2659 33.1034C16.4534 32.9589 16.7184 33.0005 16.8567 33.1969C17.139 33.5892 17.5323 33.8841 17.9613 34.1106C18.4112 34.3475 18.903 34.5073 19.3723 34.5932C20.4366 34.7961 21.3851 34.5149 22.0769 33.9782C22.8788 33.3567 23.3449 32.3998 23.2166 31.4959H23.2177Z" fill="#193391"/>
<path fill-rule="evenodd" clip-rule="evenodd" d="M29.3045 27.0516C29.4025 26.9712 29.5423 26.9755 29.635 27.0625C29.8461 27.2655 30.0451 27.5062 30.2326 27.7825C30.3133 27.9018 30.2881 28.0659 30.176 28.1535C30.1645 28.1628 30.153 28.1715 30.1415 28.1803C30.0351 28.2635 29.8859 28.2481 29.7968 28.1458C29.6376 27.9625 29.3909 27.6797 29.2218 27.4854C29.1736 27.4302 29.1495 27.3563 29.1558 27.2819C29.1615 27.2075 29.1971 27.1386 29.2532 27.0926C29.2705 27.0784 29.2878 27.0647 29.3045 27.051V27.0516Z" fill="#193391"/>
<path fill-rule="evenodd" clip-rule="evenodd" d="M27.1567 26.9726C27.2546 26.896 27.3903 26.902 27.4819 26.9868C27.7255 27.2188 27.9533 27.4956 28.167 27.8141C28.2477 27.935 28.2199 28.1013 28.1047 28.1872C28.0785 28.2064 28.0518 28.2266 28.0261 28.2457C27.9198 28.3251 27.7731 28.3081 27.6857 28.2069C27.5081 28.0017 27.2153 27.6647 27.0237 27.4431C26.9749 27.3873 26.9514 27.3118 26.9582 27.2369C26.965 27.1614 27.0022 27.0924 27.0603 27.047C27.0928 27.0218 27.1253 26.9961 27.1567 26.972V26.9726Z" fill="#193391"/>
<path fill-rule="evenodd" clip-rule="evenodd" d="M25.0711 26.9198C25.169 26.8394 25.3078 26.8438 25.4005 26.9302C25.6566 27.1835 25.9646 27.5588 26.1951 27.8926C26.2747 28.0119 26.2495 28.1754 26.138 28.2624C26.1275 28.2706 26.1165 28.2789 26.106 28.2876C25.9992 28.3708 25.8494 28.3554 25.7604 28.2515C25.5571 28.0146 25.2031 27.6032 24.9878 27.3526C24.9402 27.2973 24.9166 27.2235 24.9229 27.1496C24.9292 27.0752 24.9642 27.0073 25.0203 26.9614C25.0371 26.9472 25.0543 26.9335 25.0711 26.9204V26.9198Z" fill="#193391"/>
<path fill-rule="evenodd" clip-rule="evenodd" d="M13.3245 26.3714C13.4224 26.291 13.5618 26.2954 13.655 26.3823C13.8661 26.5853 14.0651 26.8261 14.2531 27.1024C14.3332 27.2216 14.3086 27.3858 14.1965 27.4733C14.185 27.4821 14.1735 27.4914 14.162 27.5001C14.0557 27.5833 13.9064 27.568 13.8173 27.4656C13.6581 27.2824 13.4114 26.9995 13.2423 26.8053C13.1941 26.75 13.17 26.6762 13.1763 26.6017C13.182 26.5273 13.2177 26.4584 13.2737 26.4124C13.291 26.3982 13.3083 26.3845 13.325 26.3709L13.3245 26.3714Z" fill="#193391"/>
<path fill-rule="evenodd" clip-rule="evenodd" d="M11.1762 26.2924C11.2742 26.2158 11.4098 26.2218 11.5015 26.3066C11.745 26.5386 11.9728 26.8155 12.1865 27.1339C12.2672 27.2548 12.2394 27.4211 12.1242 27.507C12.098 27.5262 12.0713 27.5464 12.0456 27.5656C11.9393 27.6449 11.7932 27.6279 11.7052 27.5267C11.5277 27.3216 11.2349 26.9845 11.0432 26.7629C10.9945 26.7071 10.9709 26.6316 10.9777 26.5567C10.9845 26.4812 11.0217 26.4128 11.0798 26.3668C11.1123 26.3417 11.1448 26.3159 11.1762 26.2919V26.2924Z" fill="#193391"/>
<path fill-rule="evenodd" clip-rule="evenodd" d="M9.0877 26.2387C9.18564 26.1582 9.32443 26.1626 9.41714 26.249C9.67325 26.5024 9.98122 26.8777 10.2117 27.2114C10.2913 27.3307 10.2661 27.4943 10.1546 27.5813C10.1441 27.5895 10.1331 27.5977 10.1226 27.6065C10.0158 27.6896 9.86599 27.6743 9.77695 27.5703C9.57374 27.3334 9.21968 26.922 9.00442 26.6714C8.95676 26.6162 8.93319 26.5423 8.93948 26.4684C8.94576 26.3946 8.98085 26.3262 9.03689 26.2802C9.05365 26.266 9.07094 26.2523 9.0877 26.2392V26.2387Z" fill="#193391"/>
<path fill-rule="evenodd" clip-rule="evenodd" d="M8.02984 21.8637C7.91042 21.4856 8.05498 21.1207 8.27443 20.8417C8.5693 20.4669 9.02654 20.1753 9.41778 19.9756C10.085 19.6205 10.8822 19.3836 11.6825 19.3201C12.5042 19.2545 13.3281 19.3759 14.0284 19.754C14.1509 19.8197 14.2698 19.8952 14.3845 19.9772C14.4976 20.0582 14.6061 20.1463 14.7098 20.2366C14.7972 20.3126 14.8842 20.3898 14.9643 20.474C15.0235 20.5358 15.078 20.6026 15.1277 20.6737C15.1754 20.7427 15.2147 20.8154 15.2471 20.892C15.2801 20.9686 15.3042 21.049 15.3226 21.1317C15.4336 21.6531 15.2812 22.0267 15.0104 22.2959C14.6485 22.6559 14.0305 22.8091 13.5434 22.871C13.1631 22.9164 12.6839 22.9273 12.1984 22.9087C11.7343 22.8906 11.264 22.8463 10.8707 22.7878C10.3542 22.7095 9.72627 22.6264 9.17633 22.4852C8.72067 22.3681 8.16602 22.2817 8.02984 21.8632V21.8637ZM14.6464 21.89C14.8009 21.7417 14.9193 21.536 14.8899 21.2438C14.7794 20.7306 14.2515 20.363 13.6251 20.0713C13.017 19.7879 12.3393 19.6539 12.0303 19.6566C12.4733 19.8848 12.8028 20.4209 12.8379 21.0644C12.8662 21.5819 12.6975 22.0525 12.4147 22.3627C12.8012 22.3654 13.1741 22.3506 13.479 22.3112C13.8629 22.2647 14.3568 22.1684 14.6459 21.8905L14.6464 21.89ZM8.37604 21.6925C8.50436 21.919 8.92388 21.9447 9.27794 22.0251C9.7357 22.1285 10.2464 22.1903 10.6989 22.2445C10.4915 21.9748 10.3542 21.6153 10.3323 21.2132C10.2982 20.5911 10.548 20.0363 10.9398 19.7474C10.4407 19.8426 9.95882 20.0051 9.53039 20.2169C9.17424 20.4007 8.72224 20.6387 8.4855 21.0064C8.3598 21.2022 8.26291 21.472 8.37499 21.6925H8.37604Z" fill="#193391"/>
</svg>
