<svg width="43" height="52" viewBox="0 0 43 52" fill="none" xmlns="http://www.w3.org/2000/svg">
<path fill-rule="evenodd" clip-rule="evenodd" d="M20.2047 25.7132C20.1802 25.7074 20.1552 25.7021 20.1307 25.6963L20.5258 24.3681C20.5518 24.2867 20.5066 24.2001 20.4258 24.1741C20.3446 24.1481 20.2581 24.1933 20.2321 24.2742L19.7779 25.6212C19.5303 25.5755 19.2765 25.5399 19.0208 25.5139L19.2001 23.9001C19.2107 23.8159 19.1511 23.7384 19.0665 23.7278C18.9819 23.7172 18.905 23.7769 18.8939 23.8616L18.6622 25.4836C18.4137 25.4667 18.1662 25.458 17.9249 25.458L17.8163 24.1168C17.811 24.0316 17.7374 23.967 17.6528 23.9723C17.5678 23.9776 17.5033 24.0513 17.5086 24.136L17.5682 25.4633C17.25 25.4734 16.9472 25.497 16.6727 25.5336C16.4757 25.5601 16.2382 25.6222 16.0152 25.6983C15.7624 25.7845 15.5283 25.8884 15.3908 25.9751C15.0048 26.2182 14.8174 26.5182 14.777 26.8229C14.7328 27.1551 14.864 27.5022 15.138 27.8007L15.1418 27.7973C15.6518 28.3563 16.3574 28.7332 17.1366 28.9619C18.2417 29.2859 19.4991 29.31 20.5604 29.0981C21.1391 28.9864 21.8823 28.7424 22.2351 28.2922C22.4913 27.9658 22.5701 27.5354 22.275 26.9731C21.952 26.3684 21.1622 25.9481 20.2042 25.7127L20.2047 25.7132ZM15.3735 27.5869L15.3773 27.5836C15.1798 27.3626 15.074 27.1127 15.1101 26.8701C15.1428 26.6505 15.2942 26.4455 15.5759 26.2745C15.6979 26.1999 15.9061 26.1138 16.1296 26.0411C16.33 25.9756 16.543 25.9221 16.7194 25.901C17.1255 25.8514 17.5951 25.8316 18.0845 25.8451C17.6466 26.0358 17.2399 26.8234 17.2149 27.5075C17.1924 28.1276 17.4875 28.6533 18.2614 28.8805C18.0912 28.8622 17.9215 28.8396 17.7543 28.8078C16.8218 28.6297 15.957 28.2359 15.374 27.5879L15.3735 27.5869ZM21.9303 28.0578C21.6337 28.4521 20.9887 28.6562 20.4922 28.7655C20.0994 28.8497 19.6774 28.9008 19.2463 28.9157C19.4784 28.8343 19.664 28.6807 19.7981 28.4896C20.098 28.0621 20.1653 27.4439 20.099 26.9948C20.0701 26.7955 20.0091 26.5519 19.8875 26.3525C19.7875 26.1889 19.6265 26.0834 19.4611 25.9737C19.6822 26.0098 19.899 26.0541 20.1076 26.1065C20.9358 26.3145 21.64 26.6419 21.9197 27.1652C22.1255 27.5431 22.099 27.8339 21.9303 28.0587V28.0578Z" fill="#187F96"/>
<path fill-rule="evenodd" clip-rule="evenodd" d="M14.7762 37.559C14.7348 37.443 14.6074 37.3828 14.4916 37.4242C14.3762 37.4656 14.3157 37.5932 14.357 37.7092C14.5325 38.2816 14.5868 38.791 14.5796 39.2426C14.5656 40.1168 14.2479 40.7701 13.7413 41.2078C13.0698 41.7874 12.1147 41.9896 11.2822 41.8442C10.9039 41.7783 10.5482 41.6473 10.2583 41.4326C10.1564 41.3527 10.0089 41.371 9.92907 41.4735C9.84928 41.5756 9.86755 41.7234 9.96993 41.8033C10.3069 42.0816 10.726 42.2737 11.1817 42.3695C12.1661 42.5765 13.3116 42.3319 14.1186 41.6512C14.7492 41.1187 15.192 40.3166 15.1751 39.2392C15.1718 39.0177 15.1492 38.7838 15.0977 38.5402C15.0324 38.2296 14.9233 37.9042 14.7762 37.5595V37.559Z" fill="#187F96"/>
<path fill-rule="evenodd" clip-rule="evenodd" d="M23.0021 22.0184C21.7504 21.9424 20.6506 21.8042 19.274 21.7012C18.7789 21.6641 18.2478 21.6323 17.6618 21.6082C17.2999 21.5962 16.4342 21.5591 15.7786 21.5606C15.3253 21.5616 14.9633 21.5948 14.8749 21.641C14.7634 21.6964 14.7177 21.8321 14.773 21.9433C14.8283 22.055 14.9638 22.1008 15.0749 22.0454C15.1441 22.0127 15.4233 22.0314 15.7709 22.0435C16.4198 22.0656 17.2763 22.1277 17.6344 22.1518C18.2132 22.186 18.7376 22.2283 19.2264 22.2721C20.605 22.3968 21.7062 22.5451 22.9603 22.6371C23.1304 22.6486 23.2785 22.5191 23.29 22.3487C23.3015 22.1778 23.1722 22.03 23.0021 22.0184Z" fill="#187F96"/>
<path fill-rule="evenodd" clip-rule="evenodd" d="M15.9609 32.5981C16.2772 34.3707 20.1913 34.3086 20.2499 32.7054C20.3153 30.9251 15.6754 30.9973 15.9609 32.5981Z" fill="#187F96"/>
<path fill-rule="evenodd" clip-rule="evenodd" d="M32.7475 29.7568C32.8225 29.7443 32.873 29.6731 32.8605 29.5979C32.848 29.5228 32.7768 29.4723 32.7019 29.4848C32.5836 29.4949 32.3692 29.5147 32.1034 29.5609C31.7126 29.6288 31.2103 29.7385 30.7455 29.8666C30.1932 30.0187 29.6967 30.205 29.4742 30.3215C29.3915 30.361 29.3564 30.4597 29.3958 30.5425C29.4352 30.6253 29.5338 30.6605 29.6164 30.621L32.748 29.7568H32.7475Z" fill="#187F96"/>
<path fill-rule="evenodd" clip-rule="evenodd" d="M31.9883 32.891C32.3897 32.7186 32.7949 32.5058 33.1549 32.2459C33.8538 31.7408 34.383 31.0606 34.4205 30.1641C34.4681 29.2215 34.1739 28.6048 33.6937 28.2172C34.3619 23.9157 34.5777 21.288 33.8903 18.0619C32.3137 10.6657 27.2926 7.62356 22.857 7.14695C23.4554 6.78058 24.0433 6.40073 24.6013 5.98525C25.4776 5.3334 26.2899 4.60596 26.9941 3.7596C27.4037 3.26324 28.1847 2.31531 28.5981 1.53395C28.9005 0.96297 28.9731 0.458429 28.7481 0.220121C28.6356 0.101207 28.3862 0.0535451 28.0612 0.105058C27.3426 0.218676 26.176 0.715517 25.9751 0.801693C24.5566 1.41648 23.1497 2.17955 21.888 3.11063C20.6022 4.05953 19.4673 5.18271 18.6179 6.49461C18.4036 6.82632 18.1926 7.15995 17.9936 7.49936C17.758 7.49984 17.3692 7.52294 17.1432 7.56916C17.1394 7.35541 17.1269 7.14743 17.0952 6.95101C16.9582 6.18361 16.6924 5.44653 16.3059 4.75857C15.9353 4.09853 15.4532 3.48615 14.9 2.91999C14.5197 2.53581 13.5738 1.74578 12.8095 1.4858C12.2817 1.30623 11.8337 1.36737 11.6117 1.78622C11.4386 2.10589 11.6684 2.89688 12.1347 3.81978C12.8263 5.18849 13.9559 6.9096 14.6303 7.69819C14.6611 7.73237 14.7029 7.77907 14.7529 7.83443C8.83388 8.34138 5.72202 14.9432 5.10484 16.7491C4.53908 17.789 4.07331 18.9117 3.68156 20.0507C3.29078 19.9727 2.92018 19.8895 2.56544 19.7999C2.4597 19.772 2.35154 19.8351 2.32367 19.941C2.29579 20.0469 2.35875 20.1552 2.4645 20.1831C2.80914 20.2784 3.16772 20.368 3.54601 20.4527C3.44747 20.7522 3.35327 21.0526 3.26434 21.352C3.03362 22.1233 2.84808 22.8228 2.68561 23.53C2.52411 24.2324 2.38472 24.9421 2.24628 25.7364C2.23523 25.7985 2.24388 25.8592 2.26695 25.9126C2.15351 25.9699 2.05545 26.0263 1.98479 26.0763C1.61323 26.3406 1.44211 26.6507 1.41856 26.9569C1.39308 27.2914 1.54258 27.6304 1.83338 27.913L1.83675 27.9096C1.85934 27.9318 1.88385 27.951 1.90645 27.9727C1.88145 28.0073 1.86367 28.0478 1.8579 28.0935C1.76657 28.7516 1.70168 29.3756 1.65169 29.9956C1.61708 30.426 1.59016 30.855 1.56709 31.2926C0.989802 31.4847 0.599977 31.8352 0.688901 32.3344C0.768693 32.7802 1.07584 33.11 1.4921 33.3286C1.44211 35.9794 1.59352 38.9315 2.31933 41.6482C2.90383 43.8373 3.8623 45.8713 5.36487 47.4846C6.46032 48.6496 7.85619 49.6202 9.38521 50.3515C10.8815 51.0669 12.5048 51.5536 14.0958 51.7727C15.9002 52.0201 17.6797 51.9402 19.3048 51.5739C21.1314 51.1622 22.7633 50.3886 24.0217 49.3183C24.9099 48.5577 25.8107 47.4148 26.624 46.0677C27.6464 44.3755 28.5347 42.3631 29.1125 40.4143C29.2999 39.7831 29.4489 38.9387 29.5657 38.0529C31.9537 44.1969 36.6167 51.1247 41.1783 48.1234C44.7525 45.7721 39.5007 35.6727 31.9878 32.89L31.9883 32.891ZM30.2564 27.1552C30.2247 25.6175 30.0671 23.6663 29.7575 21.6457C29.5523 20.3078 29.2413 18.9415 28.7274 17.6494C28.066 16.012 27.1273 14.6269 26.0842 13.4864C25.6242 12.9833 25.1402 12.5317 24.6576 12.1187C23.8404 11.4192 23.0166 10.84 22.2307 10.4077C21.7519 10.1583 21.0953 9.89977 20.4209 9.69516C19.9581 9.55506 19.4923 9.40534 19.0688 9.33505C19.538 9.06304 20.0119 8.805 20.4733 8.55754C20.5627 8.50651 20.6512 8.45355 20.7406 8.40204C21.1146 8.45788 21.4914 8.47618 21.8606 8.54406C22.1384 8.59557 22.4138 8.65912 22.6849 8.73711C25.8847 9.63017 28.117 11.7032 29.6133 14.2943C31.125 16.9123 31.8898 20.0594 32.1282 23.077C32.182 23.7414 32.2349 24.5641 32.2647 25.3869C32.2902 26.0912 32.2238 27.1162 32.2051 27.6809C31.5629 27.6232 30.8616 27.7084 30.2257 27.8648C30.267 27.6212 30.2598 27.3093 30.2569 27.1552H30.2564ZM18.9362 6.7021C19.7629 5.42968 20.8694 4.34406 22.1177 3.42356C23.3564 2.51029 24.7355 1.75926 26.1275 1.15506C26.277 1.08814 26.9792 0.762215 27.6132 0.578308C27.8733 0.503205 28.1213 0.455058 28.3068 0.454095C28.3785 0.454095 28.4371 0.448321 28.4655 0.480576C28.5203 0.542681 28.5063 0.638004 28.4804 0.750658C28.4414 0.920603 28.3482 1.11895 28.2285 1.33367C27.8122 2.08278 27.0547 2.99798 26.6533 3.47555C25.9717 4.29495 25.1854 4.9988 24.337 5.62947C23.5722 6.19756 22.7628 6.71559 21.9226 7.18643C21.3621 7.50032 20.7867 7.78773 20.2147 8.07851C19.4534 8.49206 18.6511 8.92294 17.9065 9.42026C17.6729 9.57624 17.4456 9.73849 17.2259 9.90843C17.3807 9.57528 17.5384 9.22239 17.6364 9.0019C17.7768 8.6803 17.9349 8.36737 18.1056 8.06022C18.3622 7.59708 18.6458 7.14791 18.9357 6.7021H18.9362ZM12.7643 4.22755C12.2135 3.22473 11.7948 2.32109 11.9818 1.99612C12.1611 1.69523 12.5341 1.85699 12.935 2.07171C13.5522 2.40245 14.2164 2.99172 14.5068 3.30128C15.0177 3.84048 15.4503 4.42782 15.8007 5.04598C16.1598 5.67954 16.4333 6.34681 16.5761 7.05162C16.7347 7.77714 16.6385 8.67645 16.7294 9.46696L16.7318 9.48814C16.1627 8.84688 15.1888 7.72177 14.9423 7.42858C14.3659 6.76902 13.4329 5.44509 12.7638 4.22755H12.7643ZM1.7536 26.9862C1.77378 26.7653 1.91414 26.552 2.18572 26.3657C2.30348 26.2848 2.50633 26.1866 2.72551 26.1018C2.92211 26.0253 3.13167 25.9598 3.30664 25.929C3.70944 25.8568 4.17713 25.8111 4.66646 25.7976C4.23962 26.0123 3.8772 26.8211 3.89018 27.5057C3.90219 28.1258 4.22569 28.6346 5.01063 28.8185C4.83951 28.8099 4.66886 28.7964 4.50015 28.7738C3.55947 28.6476 2.67407 28.3025 2.05593 27.6877L2.0593 27.6843C1.84972 27.4744 1.73052 27.2308 1.75263 26.9867L1.7536 26.9862ZM6.70162 25.9459C7.53992 26.1076 8.2614 26.395 8.56951 26.9025C8.7959 27.2683 8.78533 27.5606 8.62911 27.7941C8.35513 28.2042 7.72161 28.444 7.23229 28.5802C6.84487 28.6862 6.42619 28.7608 5.99695 28.7993C6.22431 28.7049 6.40073 28.5417 6.52426 28.3434C6.80016 27.8995 6.83332 27.2789 6.74199 26.8341C6.7021 26.6367 6.62808 26.397 6.49541 26.2044C6.38678 26.0465 6.21999 25.9502 6.04887 25.8496C6.27142 25.8736 6.49013 25.9054 6.70162 25.9463V25.9459ZM28.6399 40.2703C28.1449 41.8417 27.4383 43.4507 26.6293 44.8897C25.7054 46.5323 24.6484 47.953 23.6044 48.8244C22.4162 49.8238 20.8766 50.5364 19.1582 50.9153C17.6071 51.2571 15.9108 51.3264 14.1915 51.0833C12.6711 50.8695 11.12 50.3992 9.6914 49.7112C8.24554 49.0151 6.92513 48.095 5.89169 46.9892C4.45736 45.4683 3.5489 43.5402 2.97786 41.4696C2.26647 38.8906 2.07853 36.0901 2.0891 33.552C3.3302 33.8615 4.94044 33.4668 4.97793 32.4428C5.01639 31.3904 3.41142 30.9855 2.1511 31.1607C2.16792 30.7838 2.18715 30.4111 2.21311 30.0385C2.25156 29.4824 2.30348 28.9221 2.3751 28.3371C2.82261 28.6284 3.34077 28.834 3.89306 28.963C5.01399 29.2254 6.27094 29.1796 7.31928 28.9091C7.8908 28.7656 8.6195 28.4806 8.94684 28.0117C9.18429 27.6713 9.23957 27.238 8.91368 26.6921C8.55798 26.1062 7.74565 25.7302 6.77661 25.5482C6.7521 25.5434 6.72662 25.5395 6.70162 25.5352L7.02271 24.1872C7.04386 24.1049 6.99435 24.0206 6.91215 23.9989C6.82996 23.9778 6.74584 24.0274 6.72421 24.1097L6.34496 25.4798C6.09549 25.4476 5.83978 25.4264 5.5831 25.4144L5.67298 23.7934C5.67923 23.7082 5.61482 23.6345 5.53022 23.6282C5.44514 23.622 5.3716 23.686 5.36536 23.7712L5.22356 25.4038C4.97457 25.4009 4.72702 25.4057 4.48621 25.4192L4.30355 24.0861C4.29345 24.0013 4.21656 23.9412 4.13244 23.9508C4.04784 23.9609 3.98775 24.0379 3.99737 24.1222L4.13003 25.4442C3.81327 25.4721 3.51189 25.5126 3.23983 25.5636C3.1312 25.5843 3.01006 25.618 2.88653 25.658C3.01727 24.9512 3.14898 24.3085 3.29943 23.673C3.46382 22.9798 3.65031 22.2942 3.88152 21.5388C3.97909 21.2221 4.08148 20.9038 4.18915 20.5866C4.63762 20.6747 5.11252 20.757 5.62395 20.8326C6.5579 20.9703 7.60961 21.0858 8.8233 21.1797C9.25831 21.2105 9.88751 21.3039 10.4355 21.4907C10.7864 21.6106 11.1051 21.7656 11.2944 21.9803C11.5579 22.2773 11.6208 22.6885 11.6035 23.1242C11.5761 23.8194 11.3329 24.5776 11.1488 25.138C10.7907 26.2467 10.3523 27.9606 9.9601 29.6105C9.801 30.2792 9.64285 30.9359 9.515 31.5406C9.20496 33.0065 9.04826 34.1711 9.12998 34.4378C9.20304 34.6699 9.47077 34.8287 9.87934 34.8802C10.323 34.9366 10.9484 34.9043 11.5021 34.9159C11.8881 34.9241 12.2361 34.9452 12.4298 35.068C12.5312 35.1325 12.6658 35.1022 12.7302 35.0006C12.7946 34.899 12.7643 34.7642 12.6629 34.6997C12.4923 34.5914 12.2327 34.5288 11.9256 34.5014C11.355 34.4503 10.6027 34.5119 10.0591 34.4619C9.89904 34.447 9.75965 34.4224 9.65535 34.3781C9.61065 34.3593 9.57123 34.3439 9.56066 34.3073C9.51644 34.1547 9.59478 33.681 9.71303 33.0157C9.86588 32.1563 10.099 31.0004 10.3893 29.8113C10.7941 28.1522 11.2916 26.4258 11.6742 25.3147C11.878 24.7129 12.1452 23.8969 12.1765 23.1483C12.2015 22.5556 12.0774 22.0053 11.7169 21.6033C11.4694 21.3284 11.0666 21.1142 10.6119 20.964C10.0154 20.7671 9.33089 20.6723 8.85839 20.6434C7.65623 20.5774 6.61318 20.4869 5.68644 20.3709C5.20625 20.3112 4.75827 20.2443 4.33384 20.1716C5.07359 18.0947 6.06329 16.078 7.50531 14.5903C8.66565 13.393 10.123 12.5467 11.9799 12.3035C15.1398 11.889 17.8926 12.3551 20.1426 13.4027C22.8243 14.6515 24.7859 16.7308 25.8525 19.1259C26.0491 19.5577 26.2275 20.0517 26.4072 20.5832C26.6466 21.2904 26.886 22.0636 27.1042 22.8676C27.6502 24.8785 28.1165 27.058 28.5515 28.7381C28.5703 28.8185 28.626 28.885 28.702 28.9168C28.7779 28.9485 28.8644 28.9418 28.9346 28.899C29.7498 28.3785 31.5446 27.8172 32.8026 28.1749C33.5755 28.3949 34.122 28.9832 34.0763 30.1492C34.0389 30.933 33.5611 31.5179 32.9463 31.9546C31.6446 32.8789 29.7282 33.1466 29.7282 33.1466C29.6345 33.1606 29.5638 33.239 29.5595 33.3339C29.5595 33.3339 29.4533 35.4714 29.1773 37.5397C29.0418 38.5564 28.8644 39.5559 28.6395 40.2708L28.6399 40.2703Z" fill="#187F96"/>
<path fill-rule="evenodd" clip-rule="evenodd" d="M13.3676 3.20723C13.1725 3.18315 12.9941 3.32662 12.9696 3.5269C12.9451 3.72717 13.0835 3.90963 13.2787 3.93322C13.4738 3.95729 13.6522 3.81383 13.6767 3.61355C13.7012 3.41328 13.5628 3.23082 13.3676 3.20723Z" fill="#187F96"/>
<path fill-rule="evenodd" clip-rule="evenodd" d="M14.6303 4.69258C14.4351 4.66851 14.2568 4.81197 14.2323 5.01225C14.2078 5.21252 14.3462 5.39498 14.5414 5.41857C14.7365 5.44265 14.9149 5.29918 14.9394 5.09891C14.9639 4.89863 14.8255 4.71617 14.6303 4.69258Z" fill="#187F96"/>
<path fill-rule="evenodd" clip-rule="evenodd" d="M15.5192 7.17053C15.7143 7.1946 15.8926 7.05113 15.9172 6.85086C15.9417 6.65058 15.8032 6.46812 15.6081 6.44453C15.4129 6.42046 15.2346 6.56393 15.2101 6.7642C15.1856 6.96448 15.324 7.14694 15.5192 7.17053Z" fill="#187F96"/>
<path fill-rule="evenodd" clip-rule="evenodd" d="M22.6515 4.75689C22.8515 4.78096 23.0337 4.64231 23.0572 4.44685C23.0808 4.25139 22.9375 4.07278 22.7376 4.04871C22.5376 4.02415 22.3559 4.16329 22.3319 4.35875C22.3083 4.55421 22.4516 4.73282 22.6515 4.75689Z" fill="#187F96"/>
<path fill-rule="evenodd" clip-rule="evenodd" d="M24.6825 4.12652C24.8825 4.15107 25.0647 4.01194 25.0882 3.81648C25.1118 3.62102 24.9685 3.44241 24.7686 3.41834C24.5686 3.39378 24.3869 3.53291 24.3629 3.72838C24.3393 3.92384 24.4826 4.10245 24.6825 4.12652Z" fill="#187F96"/>
<path fill-rule="evenodd" clip-rule="evenodd" d="M26.2931 2.55035C26.4931 2.5749 26.6748 2.43577 26.6988 2.24031C26.7224 2.04485 26.5796 1.86624 26.3792 1.84216C26.1792 1.81761 25.9975 1.95674 25.9735 2.1522C25.9499 2.34766 26.0927 2.52628 26.2931 2.55035Z" fill="#187F96"/>
<path fill-rule="evenodd" clip-rule="evenodd" d="M19.6259 7.58053C19.8258 7.60508 20.0075 7.46595 20.0316 7.27049C20.0551 7.07503 19.9124 6.89642 19.7119 6.87234C19.512 6.84827 19.3303 6.98692 19.3062 7.18238C19.2827 7.37784 19.4259 7.55646 19.6259 7.58053Z" fill="#187F96"/>
<path fill-rule="evenodd" clip-rule="evenodd" d="M23.0056 9.43103C22.8057 9.40648 22.624 9.54561 22.5999 9.74107C22.5764 9.93653 22.7196 10.1151 22.9196 10.1392C23.1195 10.1638 23.3017 10.0246 23.3253 9.82917C23.3488 9.63371 23.2056 9.4551 23.0056 9.43103Z" fill="#187F96"/>
<path fill-rule="evenodd" clip-rule="evenodd" d="M25.3726 10.4764C25.1726 10.4519 24.9909 10.591 24.9669 10.7865C24.9433 10.9819 25.0866 11.1606 25.2865 11.1846C25.4865 11.2092 25.6687 11.07 25.6922 10.8746C25.7158 10.6791 25.5725 10.5005 25.3726 10.4764Z" fill="#187F96"/>
<path fill-rule="evenodd" clip-rule="evenodd" d="M27.1939 12.6663C26.9939 12.6422 26.8117 12.7809 26.7882 12.9763C26.7646 13.1718 26.9079 13.3504 27.1078 13.3745C27.3078 13.399 27.4895 13.2599 27.5135 13.0644C27.5371 12.869 27.3938 12.6904 27.1939 12.6663Z" fill="#187F96"/>
<path fill-rule="evenodd" clip-rule="evenodd" d="M29.1455 14.8134C28.9456 14.7888 28.7639 14.9279 28.7398 15.1234C28.7163 15.3189 28.8595 15.4975 29.0595 15.5215C29.2594 15.5461 29.4416 15.407 29.4652 15.2115C29.4887 15.016 29.3455 14.8374 29.1455 14.8134Z" fill="#187F96"/>
<path fill-rule="evenodd" clip-rule="evenodd" d="M30.7162 20.6587C30.9162 20.6832 31.0984 20.5441 31.1219 20.3486C31.1455 20.1532 31.0022 19.9745 30.8023 19.9505C30.6023 19.9264 30.4206 20.065 30.3966 20.2605C30.373 20.456 30.5163 20.6346 30.7162 20.6587Z" fill="#187F96"/>
<path fill-rule="evenodd" clip-rule="evenodd" d="M30.6539 23.0492C30.6303 23.2446 30.7736 23.4233 30.9735 23.4473C31.1735 23.4714 31.3552 23.3327 31.3792 23.1373C31.4028 22.9418 31.2595 22.7632 31.0596 22.7391C30.8596 22.7146 30.6775 22.8537 30.6539 23.0492Z" fill="#187F96"/>
<path fill-rule="evenodd" clip-rule="evenodd" d="M30.7889 25.785C30.7654 25.9805 30.9086 26.1591 31.1086 26.1832C31.3085 26.2077 31.4902 26.0686 31.5142 25.8731C31.5378 25.6777 31.3946 25.499 31.1946 25.475C30.9946 25.4504 30.8125 25.5896 30.7889 25.785Z" fill="#187F96"/>
<path fill-rule="evenodd" clip-rule="evenodd" d="M29.9627 17.5096C29.7627 17.4851 29.581 17.6242 29.557 17.8197C29.5334 18.0151 29.6762 18.1938 29.8766 18.2178C30.0766 18.2424 30.2583 18.1032 30.2823 17.9078C30.3059 17.7123 30.1631 17.5337 29.9627 17.5096Z" fill="#187F96"/>
<path fill-rule="evenodd" clip-rule="evenodd" d="M21.5773 6.48345C21.7773 6.50801 21.959 6.36887 21.983 6.17341C22.0066 5.97795 21.8633 5.79934 21.6634 5.77527C21.4634 5.75072 21.2812 5.88985 21.2577 6.08531C21.2341 6.28077 21.3774 6.45938 21.5773 6.48345Z" fill="#187F96"/>
</svg>
