<svg width="59" height="40" viewBox="0 0 59 40" fill="none" xmlns="http://www.w3.org/2000/svg">
<path fill-rule="evenodd" clip-rule="evenodd" d="M19.7059 23.5654C19.7059 23.5654 19.7059 23.5654 19.7048 23.5665C19.5496 23.459 19.3376 23.4908 19.2209 23.6395C19.0167 23.9082 18.8301 24.2176 18.6593 24.5641C18.5837 24.7186 18.6348 24.9049 18.7786 24.9993C18.8546 25.0494 18.9474 25.0666 19.0364 25.0478C19.1255 25.029 19.2031 24.9758 19.2532 24.8996C19.4131 24.6544 19.6418 24.3032 19.8023 24.057C19.9085 23.8942 19.8658 23.6761 19.7059 23.5654Z" fill="#BD41BF"/>
<path fill-rule="evenodd" clip-rule="evenodd" d="M23.6229 23.4543C23.4916 23.3698 23.3171 23.3954 23.216 23.5159C23.029 23.745 22.8582 24.008 22.7008 24.3033C22.6263 24.4442 22.6742 24.619 22.8097 24.7025C22.9467 24.7865 23.1249 24.7489 23.2166 24.6174C23.3583 24.4134 23.563 24.1181 23.7115 23.9041C23.761 23.8332 23.7792 23.7455 23.7625 23.6605C23.7459 23.5759 23.6959 23.5013 23.6234 23.4543H23.6229Z" fill="#BD41BF"/>
<path fill-rule="evenodd" clip-rule="evenodd" d="M21.7051 23.4776C21.6056 23.4259 21.4837 23.4504 21.4123 23.536C21.2164 23.7771 21.0403 24.0536 20.8814 24.3625C20.8397 24.445 20.8325 24.541 20.8616 24.6286C20.8908 24.7163 20.9538 24.7888 21.0367 24.8295C21.1601 24.89 21.3091 24.8493 21.3847 24.7345C21.5092 24.5451 21.6978 24.2576 21.8478 24.0296C21.9077 23.9388 21.9259 23.8266 21.8989 23.7212C21.8718 23.6158 21.8009 23.5271 21.7045 23.4765L21.7051 23.4776Z" fill="#BD41BF"/>
<path fill-rule="evenodd" clip-rule="evenodd" d="M39.2969 20.1889C39.2969 20.1889 39.2969 20.1889 39.2964 20.1899C39.1208 20.12 38.9213 20.1993 38.8411 20.371C38.703 20.6788 38.5905 21.0221 38.5019 21.3989C38.4634 21.5664 38.5551 21.7365 38.716 21.7954C38.8015 21.8267 38.8958 21.8231 38.9781 21.7845C39.0604 21.7459 39.1245 21.6765 39.1557 21.5909C39.2563 21.3159 39.3995 20.9225 39.5006 20.6459C39.5673 20.4633 39.4766 20.2609 39.2959 20.1889H39.2969Z" fill="#BD41BF"/>
<path fill-rule="evenodd" clip-rule="evenodd" d="M42.7436 19.3479C42.7436 19.3479 42.7436 19.3479 42.7436 19.3489C42.5962 19.2952 42.4321 19.3599 42.3612 19.4997C42.231 19.7648 42.1231 20.0601 42.0367 20.3836C41.996 20.5381 42.082 20.6972 42.2331 20.7478C42.3852 20.7989 42.5508 20.7217 42.6102 20.5725C42.7019 20.3419 42.8353 20.0079 42.9317 19.7663C42.9634 19.686 42.9619 19.5962 42.9265 19.5174C42.891 19.4387 42.8254 19.3776 42.7446 19.3479H42.7436Z" fill="#BD41BF"/>
<path fill-rule="evenodd" clip-rule="evenodd" d="M40.892 19.8382C40.7836 19.81 40.6706 19.8617 40.62 19.9619C40.4835 20.241 40.3741 20.5499 40.2892 20.887C40.2668 20.9767 40.2819 21.0717 40.3299 21.1505C40.3783 21.2293 40.4559 21.2856 40.5461 21.3065C40.6799 21.3378 40.8159 21.2642 40.8638 21.1354C40.9425 20.923 41.0618 20.6 41.1561 20.3443C41.1936 20.2421 41.1868 20.1288 41.1363 20.0323C41.0858 19.9358 40.9972 19.8653 40.892 19.8377V19.8382Z" fill="#BD41BF"/>
<path fill-rule="evenodd" clip-rule="evenodd" d="M28.9397 30.7341C28.6605 30.9481 28.3573 31.066 28.0629 31.1474C27.5847 31.2794 27.1106 31.2596 26.7438 31.0394C26.3375 30.7957 26.0906 30.3324 26.1203 29.6807C26.1307 29.4547 26.164 29.2074 26.2422 28.9387C26.2885 28.8009 26.2146 28.6512 26.0776 28.6047C25.94 28.5583 25.7905 28.6319 25.7441 28.7696C25.2398 30.157 25.6717 31.1307 26.4042 31.5966C26.8376 31.8721 27.3945 31.9801 27.9603 31.8674C28.2057 31.8189 28.4557 31.7323 28.6886 31.5925C28.898 31.4667 29.0918 31.3039 29.2726 31.1067C29.3752 31.0149 29.3841 30.8568 29.2924 30.7534C29.2007 30.6507 29.0428 30.6418 28.9402 30.7336L28.9397 30.7341Z" fill="#BD41BF"/>
<path fill-rule="evenodd" clip-rule="evenodd" d="M34.9869 8.44866C35.0567 8.66676 35.2135 8.84678 35.4198 8.94592C35.6261 9.04506 35.8642 9.05393 36.0778 8.97149C37.1681 8.55458 38.2246 8.31299 39.3952 8.0928C39.6187 8.05054 39.8135 7.91644 39.9334 7.72286C40.0527 7.52928 40.086 7.29447 40.024 7.07532C39.9438 6.79043 39.6968 6.58537 39.403 6.55876C37.8891 6.43719 36.4674 6.94332 35.388 7.48911C35.0374 7.66703 34.867 8.0735 34.9874 8.44866H34.9863H34.9869Z" fill="#BD41BF"/>
<path fill-rule="evenodd" clip-rule="evenodd" d="M16.9507 12.2982C17.0205 12.5163 17.1773 12.6963 17.3836 12.7955C17.5899 12.8941 17.828 12.9035 18.0416 12.821C19.1319 12.4041 20.1884 12.1626 21.359 11.9429C21.5825 11.9006 21.7774 11.766 21.8972 11.5729C22.0165 11.3794 22.0498 11.1446 21.9878 10.9254H21.9883C21.9081 10.641 21.6612 10.4355 21.3674 10.4088C19.8535 10.2873 18.4318 10.7939 17.3523 11.3392C17.0017 11.5166 16.8314 11.9236 16.9517 12.2987H16.9507V12.2982Z" fill="#BD41BF"/>
<path fill-rule="evenodd" clip-rule="evenodd" d="M5.29817 21.9488C5.04238 21.9472 4.56674 21.9676 4.08798 22.0391C3.63579 22.1064 3.18464 22.2201 2.90176 22.3282C2.82622 22.3537 2.78611 22.4356 2.81164 22.5113C2.83717 22.5864 2.91896 22.6271 2.9945 22.6016C3.22059 22.5348 3.55557 22.4883 3.90617 22.4429C4.19218 22.4059 4.48859 22.3761 4.74647 22.348C4.97204 22.3234 5.16637 22.2963 5.30025 22.2895C5.39402 22.289 5.46956 22.2118 5.46904 22.1179C5.46852 22.0239 5.39142 21.9483 5.29765 21.9488H5.29817Z" fill="#BD41BF"/>
<path fill-rule="evenodd" clip-rule="evenodd" d="M55.8291 15.0814C55.6129 15.0287 55.4087 14.9921 55.2112 14.977C54.9909 14.9598 54.7804 14.9697 54.5777 14.9921L54.4949 15.0026C54.2251 15.0407 53.9661 15.1027 53.714 15.1988C53.4738 15.2901 53.2415 15.4116 53.0029 15.5452C52.9195 15.5885 52.8867 15.6913 52.93 15.7748C52.9732 15.8583 53.0758 15.8912 53.1592 15.8479C53.4379 15.7127 53.7109 15.6047 53.987 15.516C54.1714 15.4565 54.3569 15.4038 54.5507 15.3715L54.6246 15.36C54.807 15.3334 54.9961 15.3245 55.1956 15.3261C55.379 15.3276 55.5707 15.3365 55.7749 15.3647C55.853 15.3793 55.9286 15.3282 55.9432 15.2499C55.9578 15.1716 55.9067 15.096 55.8286 15.0814H55.8291Z" fill="#BD41BF"/>
<path fill-rule="evenodd" clip-rule="evenodd" d="M23.0484 14.5809C22.7265 14.4155 22.3608 14.3257 21.9805 14.2563C21.1042 14.104 20.1102 14.2031 19.16 14.4844C18.2259 14.7609 17.3377 15.2117 16.6354 15.7121C16.2218 16.0054 15.8196 16.3889 15.6201 16.8433C15.4773 17.1679 15.4315 17.5274 15.5492 17.9193C15.6847 18.3716 15.9837 18.7155 16.3609 18.9472C16.725 19.171 17.1627 19.29 17.5857 19.3015C17.9753 19.3124 18.364 19.2686 18.7484 19.1929C19.3085 19.0828 19.8607 18.9049 20.3952 18.7364C20.8609 18.5897 21.3428 18.4447 21.8033 18.2574C22.119 18.129 22.4243 17.9814 22.7088 17.8008L22.7129 17.8076C23.137 17.5525 23.8278 17.0369 24.0158 16.391C24.1331 15.9881 24.0716 15.5352 23.6668 15.0667C23.4886 14.8538 23.2792 14.6988 23.0484 14.5804V14.5809ZM18.6724 18.7943C18.3171 18.8606 17.9587 18.8976 17.5992 18.8835C17.2486 18.8699 16.8876 18.7687 16.5886 18.5798C16.3041 18.4003 16.0765 18.1384 15.978 17.793C15.8774 17.4403 15.9629 17.1262 16.1369 16.8543C16.327 16.5579 16.6198 16.3111 16.9126 16.1118C17.5357 15.6886 18.3134 15.3244 19.1261 15.0688C18.7984 15.4476 18.6672 16.1776 18.8313 16.9592C18.9839 17.686 19.3522 18.2694 19.7669 18.5198C19.4075 18.6258 19.0417 18.7254 18.6724 18.7938V18.7943ZM23.4865 16.5026C23.2589 16.9373 22.8051 17.2884 22.5087 17.483L22.5129 17.4898C22.2461 17.6563 21.9591 17.7919 21.6637 17.9088C21.4116 18.009 21.1527 18.0951 20.8937 18.177C21.1146 17.7706 21.1855 17.1491 21.0474 16.4911C20.8745 15.6678 20.4244 15.0312 19.9451 14.8512C20.615 14.7098 21.285 14.6592 21.8976 14.7562C22.1763 14.7979 22.4472 14.8491 22.6952 14.9446C22.9307 15.0348 23.1458 15.1632 23.3235 15.3641C23.6819 15.7773 23.6616 16.1676 23.4865 16.5026Z" fill="#BD41BF"/>
<path fill-rule="evenodd" clip-rule="evenodd" d="M42.3087 10.8147C41.9867 10.6488 41.6215 10.5591 41.2412 10.4892C40.3655 10.3357 39.371 10.4344 38.4203 10.7146C37.4862 10.9901 36.5974 11.4404 35.8947 11.9397C35.481 12.2324 35.0783 12.6159 34.8783 13.0699C34.735 13.3944 34.6892 13.7539 34.8064 14.1458C34.9418 14.5982 35.2398 14.9426 35.617 15.1742C35.9811 15.3981 36.4182 15.5176 36.8418 15.5296C37.2314 15.5405 37.6201 15.4972 38.0051 15.4221C38.5651 15.3125 39.1173 15.1351 39.6518 14.9671C40.1175 14.821 40.5994 14.6765 41.0605 14.4897C41.3762 14.3618 41.682 14.2142 41.9664 14.0341L41.9706 14.0409C42.3946 13.7863 43.0859 13.2713 43.2745 12.6253C43.3923 12.2225 43.3308 11.7696 42.9265 11.301C42.7489 11.0881 42.5389 10.9327 42.3087 10.8142V10.8147ZM37.929 15.024C37.5732 15.0897 37.2148 15.1268 36.8558 15.1121C36.5057 15.0981 36.1442 14.9968 35.8452 14.8074C35.5607 14.6274 35.3336 14.3655 35.2351 14.0201C35.1346 13.6673 35.2205 13.3532 35.3951 13.0814C35.5852 12.785 35.8785 12.5387 36.1713 12.3394C36.7949 11.9167 37.5732 11.5536 38.3859 11.2984C38.0582 11.6773 37.9259 12.4067 38.0894 13.1889C38.2416 13.9162 38.6094 14.4991 39.0235 14.75C38.6641 14.856 38.2984 14.9551 37.929 15.0234V15.024ZM42.7452 12.7365C42.5171 13.1711 42.0633 13.5212 41.7669 13.7159L41.7711 13.7226C41.5043 13.8891 41.2173 14.0242 40.9214 14.1411C40.6687 14.2408 40.4103 14.3269 40.1514 14.4083C40.3728 14.0023 40.4442 13.3809 40.3066 12.7229C40.1342 11.899 39.6851 11.2624 39.2059 11.0819C39.8758 10.941 40.5458 10.8914 41.1589 10.989C41.4376 11.0308 41.708 11.0824 41.956 11.1779C42.1915 11.2682 42.4061 11.3971 42.5837 11.5979C42.9422 12.0117 42.9213 12.402 42.7458 12.7365H42.7452Z" fill="#BD41BF"/>
<path fill-rule="evenodd" clip-rule="evenodd" d="M58.1835 15.0993C57.8678 13.8794 57.2119 13.1515 56.3434 12.7847C55.449 12.4069 54.2966 12.4309 53.0135 12.7549C52.7837 12.0192 52.4368 11.2402 52.0393 10.4888C51.8299 10.0938 51.6032 9.70979 51.3834 9.3388C50.7213 8.21958 50.0586 7.25532 49.6299 6.77841C49.0578 6.14183 48.4192 5.54961 47.7185 5.0153C46.1613 3.82877 44.3177 2.91356 42.3844 2.23472C41.5733 1.94982 40.7434 1.7119 39.9109 1.51049C37.8917 1.02106 35.8453 0.771119 33.9407 0.802426C32.2528 0.825384 30.4498 0.844176 28.6014 0.927661C27.4251 0.980883 26.2311 1.06331 25.0365 1.17811C21.8655 1.52614 18.7006 2.14237 15.8562 3.22924C13.8234 4.00618 11.9501 5.01948 10.3612 6.38498C9.03898 7.51099 7.93716 8.8358 7.07446 10.3244C6.73167 10.9156 6.41909 11.5298 6.16278 12.1736C5.78873 13.1134 5.5246 14.1084 5.3308 15.1369C5.21827 15.7494 5.1667 16.3537 5.14899 16.9673C5.12971 17.6367 5.14847 18.3166 5.16931 19.0278C3.91954 19.0883 2.85626 19.3737 2.08108 19.954C1.35643 20.4961 0.860482 21.2861 0.706278 22.4142C0.497375 23.6993 1.11574 25.1707 2.45825 26.086C3.35169 26.6949 4.57021 27.057 6.07838 26.9339C6.21643 27.3633 6.49098 28.1538 6.92754 29.1264C7.25158 29.8491 7.66417 30.6724 8.17627 31.5245C8.67014 32.3474 9.28174 33.1577 9.93138 33.8835C10.6466 34.6829 11.4073 35.3789 12.11 35.8741C13.9917 37.2532 16.1573 38.1809 18.5204 38.7027C20.7069 39.1853 23.0621 39.3163 25.5309 39.0966C26.4483 39.0043 27.3699 38.9192 28.2915 38.8122C30.43 38.5634 32.5748 38.2477 34.7216 37.8537C36.743 37.4827 38.7637 37.0257 40.7762 36.4376C42.6834 35.8814 44.4515 35.2949 46.1004 34.4314C47.2074 33.8511 48.2618 33.1483 49.2662 32.2446C50.8505 30.8206 51.9841 29.4833 52.7817 28.1788C53.8392 26.4475 54.3112 24.7716 54.4383 23.0199L54.4414 20.9787C55.7714 20.5978 56.7758 19.8757 57.4307 18.9866C58.2632 17.8564 58.5351 16.4523 58.1845 15.0998L58.1835 15.0993ZM56.7217 18.4622C56.122 19.2751 55.1671 19.9107 53.8996 20.2049C53.698 20.2519 53.5563 20.433 53.5579 20.6401L53.5516 22.949C53.4157 24.5587 52.9661 26.0964 51.9731 27.6758C51.2026 28.9015 50.1071 30.1496 48.5885 31.4775C47.6403 32.3056 46.6484 32.9469 45.6081 33.4697C44.0103 34.2732 42.2979 34.7982 40.4558 35.2986C38.473 35.836 36.484 36.2399 34.4976 36.5696C32.369 36.9229 30.2404 37.1697 28.1274 37.4243C27.2089 37.5349 26.2946 37.6565 25.3824 37.7692C23.0517 38.0849 20.8105 38.0776 18.7199 37.7019C16.4652 37.297 14.3887 36.4747 12.5648 35.2292C11.9068 34.7616 11.1952 34.1047 10.5279 33.3507C9.91627 32.6599 9.3427 31.8866 8.88009 31.1034C8.39351 30.279 8.00176 29.4822 7.69543 28.7841C7.07237 27.3643 6.80251 26.3547 6.80251 26.3547C6.74572 26.1454 6.54256 26.0108 6.32844 26.0411C4.89477 26.255 3.73511 25.9753 2.89794 25.428C1.80705 24.7142 1.26578 23.5553 1.41269 22.5211C1.5622 21.632 1.95552 21.0043 2.54525 20.5978C3.83097 19.7113 5.85958 19.9696 6.02941 19.9827C6.04244 19.9832 6.05442 19.9811 6.06692 19.9806C10.6623 20.2869 11.2072 18.4298 11.9871 15.5694C12.6226 13.2391 12.6362 9.6863 9.70164 8.36463C10.0944 7.91328 10.5164 7.48543 10.9691 7.08366C12.4648 5.76772 14.2303 4.76798 16.1625 4.02705C18.9356 2.96365 22.04 2.42413 25.136 2.11315C26.3144 1.97853 27.4923 1.88303 28.653 1.80268C30.4909 1.67641 32.2836 1.59502 33.9626 1.52353C36.5768 1.42961 39.4884 1.83921 42.1901 2.78886C43.6013 3.28455 44.947 3.9373 46.1733 4.71632C43.9452 6.73458 44.3672 8.99964 45.5794 11.0398C47.134 13.6555 48.2222 15.4077 52.6988 13.7625C53.9793 13.3591 55.1317 13.2303 56.0022 13.5971C56.6414 13.8663 57.1004 14.4215 57.3338 15.3195C57.6167 16.4131 57.3958 17.5475 56.7222 18.4611L56.7217 18.4622Z" fill="#BD41BF"/>
<path fill-rule="evenodd" clip-rule="evenodd" d="M31.418 14.8925C31.2622 14.6817 31.033 14.3086 30.7824 13.8849C30.3875 13.2171 29.9645 12.4135 29.6837 11.9053C29.5545 11.6715 29.4451 11.515 29.4284 11.4482C29.4159 11.3621 29.3362 11.3021 29.2503 11.3146C29.1643 11.3272 29.1044 11.407 29.1169 11.4931C29.1164 11.5531 29.1362 11.682 29.1945 11.8599C29.2914 12.1563 29.4998 12.5935 29.7311 13.0668C30.1416 13.9053 30.6652 14.8367 30.9418 15.2353C32.0322 16.7871 33.3846 19.4263 33.855 21.7482C34.203 23.4649 34.0895 25.0208 32.7662 25.7879C32.1145 26.1677 31.4961 26.0508 31.0111 25.6621C30.5204 25.2682 30.1635 24.617 30.0093 23.9288C29.9906 23.8401 29.915 23.7748 29.8244 23.7696C29.7343 23.7639 29.6509 23.8192 29.6212 23.9048C29.4446 24.389 29.157 24.7302 28.8387 24.9384C28.46 25.1862 28.0281 25.2431 27.6603 25.0553C27.118 24.7714 26.9565 24.2857 27.0227 23.8129C27.0972 23.2812 27.4436 22.7652 27.8557 22.5434C27.9244 22.5074 27.951 22.4218 27.9146 22.3535C27.8786 22.2846 27.7932 22.258 27.7249 22.2945C27.2363 22.5466 26.8179 23.1429 26.7143 23.7654C26.6142 24.3681 26.8023 24.9927 27.4848 25.3788C27.9666 25.658 28.5652 25.6402 29.0799 25.313C29.343 25.1455 29.5816 24.8935 29.7697 24.5648C30.038 25.3094 30.523 25.9533 31.1242 26.2815C31.6764 26.5825 32.3276 26.6285 33.0277 26.2596C34.6099 25.4211 34.9527 23.6219 34.5646 21.6073C34.0988 19.1899 32.5813 16.484 31.4185 14.893L31.418 14.8925Z" fill="#BD41BF"/>
</svg>
