<svg width="59" height="40" viewBox="0 0 59 40" fill="none" xmlns="http://www.w3.org/2000/svg">
<path fill-rule="evenodd" clip-rule="evenodd" d="M14.4828 20.1708C13.8365 20.0385 13.1597 19.9378 12.4991 19.8963C11.7894 19.8514 11.0988 19.8743 10.4863 19.9655C10.3991 19.9784 10.3386 20.06 10.3519 20.1479C10.3653 20.2352 10.4463 20.2958 10.534 20.2825C11.1265 20.1927 11.7947 20.1798 12.482 20.2114C13.1311 20.2414 13.7979 20.3102 14.4361 20.42C14.5048 20.4329 14.571 20.3875 14.5839 20.3188C14.5968 20.25 14.5515 20.1837 14.4828 20.1708Z" fill="#0C8E7E"/>
<path fill-rule="evenodd" clip-rule="evenodd" d="M30.7116 21.2888C30.6139 21.3098 30.552 21.4067 30.5729 21.5046C30.5944 21.6025 30.6906 21.6645 30.7884 21.6435C32.8374 21.2444 33.8326 21.8641 33.9384 22.6603C33.9794 22.9706 33.8688 23.2919 33.6305 23.5568C33.2006 24.0352 32.3808 24.3226 31.2269 24.0853C31.1034 24.0581 30.9814 24.1359 30.9537 24.2595C30.9266 24.3832 31.0043 24.5054 31.1277 24.5331C32.5104 24.8625 33.5089 24.4968 34.0346 23.9254C34.394 23.5349 34.5437 23.0427 34.4708 22.582C34.3197 21.6297 33.1491 20.7031 30.7111 21.2888H30.7116Z" fill="#0C8E7E"/>
<path fill-rule="evenodd" clip-rule="evenodd" d="M33.9874 28.7751C33.3821 29.2768 32.7049 29.5585 32.0142 29.6879C32.5295 28.8248 32.6772 27.8781 32.1582 27.3778C31.499 26.7424 30.4843 27.0962 30.0887 27.584C30.224 27.0704 29.9805 25.9495 29.1097 25.9395C28.0654 25.9271 27.451 26.9988 27.3023 28.2018C26.738 27.6136 26.3977 26.9071 26.4554 26.161C26.4682 26.035 26.3767 25.9223 26.2509 25.9094C26.1251 25.8965 26.0126 25.9882 25.9997 26.1142C25.8667 27.1673 26.3843 28.2132 27.2723 29.0104C27.3223 30.0273 27.7041 30.9882 28.4391 31.3338C29.5382 31.8504 30.7116 31.2627 31.5095 30.3715C31.6348 30.3581 31.7602 30.3399 31.8846 30.3166C32.7368 30.1562 33.559 29.759 34.2629 29.0859C34.3487 29.0095 34.3564 28.8777 34.2801 28.7918C34.2038 28.7059 34.0723 28.6982 33.9865 28.7746L33.9874 28.7751Z" fill="#0C8E7E"/>
<path fill-rule="evenodd" clip-rule="evenodd" d="M47.7198 21.188C48.267 21.1718 48.8389 21.1684 49.3966 21.1661C49.9871 21.1637 50.5605 21.1637 51.0695 21.1837C51.1577 21.1871 51.2321 21.1183 51.2354 21.03C51.2387 20.9417 51.1701 20.8672 51.0819 20.8639C50.6654 20.8472 50.2064 20.8367 49.7297 20.8433C49.0653 20.8524 48.368 20.8916 47.7079 20.935C47.6383 20.9383 47.5845 20.998 47.5878 21.0677C47.5911 21.1374 47.6507 21.1914 47.7203 21.188H47.7198Z" fill="#0C8E7E"/>
<path fill-rule="evenodd" clip-rule="evenodd" d="M20.3079 23.7719C20.2955 23.707 20.2559 23.6502 20.1992 23.6158C20.1577 23.5905 20.1153 23.5648 20.0758 23.5414C19.9814 23.4841 19.8594 23.5003 19.7836 23.581C19.5629 23.8216 19.3627 24.1042 19.1802 24.4259C19.1173 24.5381 19.1564 24.6804 19.2679 24.7448C19.3027 24.7649 19.3384 24.7854 19.3727 24.805C19.4757 24.8642 19.6058 24.837 19.6773 24.742C19.8322 24.5348 20.0967 24.1815 20.265 23.9572C20.3045 23.9042 20.3203 23.8369 20.3079 23.7719Z" fill="#0C8E7E"/>
<path fill-rule="evenodd" clip-rule="evenodd" d="M21.1842 24.2614C21.1842 24.2614 21.1828 24.2605 21.1819 24.2605C21.0841 24.1927 20.9507 24.2089 20.8725 24.2987C20.6947 24.5173 20.4912 24.8228 20.3401 25.093C20.2848 25.1957 20.3173 25.3236 20.4145 25.3876C20.516 25.4544 20.6519 25.4286 20.7219 25.3293C20.8644 25.1269 21.0956 24.798 21.2424 24.5899C21.2781 24.5388 21.2924 24.4753 21.2815 24.4137C21.2705 24.3521 21.2357 24.2972 21.1842 24.2619V24.2614Z" fill="#0C8E7E"/>
<path fill-rule="evenodd" clip-rule="evenodd" d="M38.7967 25.4907C38.7623 25.4339 38.7061 25.3943 38.6408 25.3818C38.576 25.369 38.5088 25.3847 38.4559 25.4243C38.4168 25.4535 38.3768 25.4835 38.3405 25.5112C38.2519 25.5776 38.2214 25.6969 38.2681 25.7976C38.4082 26.0922 38.5951 26.3839 38.8248 26.6732C38.9053 26.7739 39.0517 26.7906 39.1527 26.7109C39.1842 26.686 39.217 26.6603 39.248 26.6359C39.341 26.5624 39.3653 26.4311 39.3038 26.3294C39.1703 26.1084 38.942 25.7308 38.7971 25.4912L38.7967 25.4907Z" fill="#0C8E7E"/>
<path fill-rule="evenodd" clip-rule="evenodd" d="M39.7497 24.8221C39.7158 24.7696 39.6624 24.7328 39.6014 24.7199C39.5404 24.707 39.4766 24.719 39.4246 24.7533C39.4237 24.7538 39.4232 24.7543 39.4227 24.7557C39.3231 24.8211 39.2883 24.951 39.3421 25.0574C39.478 25.3042 39.6844 25.6069 39.8784 25.8479C39.9527 25.9372 40.0828 25.9554 40.1786 25.889C40.2787 25.8198 40.3054 25.6837 40.2396 25.5811C40.1057 25.3734 39.8879 25.0359 39.7501 24.8221H39.7497Z" fill="#0C8E7E"/>
<path fill-rule="evenodd" clip-rule="evenodd" d="M56.1297 30.3525C57.2126 28.8334 55.7141 26.3286 53.5798 27.0165C54.869 26.7206 54.8562 24.0683 53.085 24.01C55.8085 22.5497 53.7761 19.0993 51.883 19.1909C53.8939 17.6705 52.9501 13.25 49.7663 14.0653C51.2281 11.2569 48.55 9.11014 46.9828 10.6549C47.8998 8.36209 45.4376 6.49125 43.8576 8.19071C44.0888 5.87162 42.1413 4.59129 40.7409 5.66109C40.6308 2.69849 36.8545 1.09164 35.5472 3.52149C34.6878 0.609016 30.9315 0.706876 30.0121 2.30752C28.3525 0.0786477 24.4709 0.454347 24.2035 4.20319C20.9429 2.05356 18.1504 4.17263 18.382 6.77386C15.4794 4.75265 13.06 7.57108 13.8598 9.48393C10.1655 8.83565 9.11024 12.2551 10.6736 14.1512C8.52113 13.8476 7.2943 16.1448 9.08784 17.8953C6.38251 17.7807 6.03887 20.6636 7.78951 21.858C5.83916 22.0938 5.20478 24.4774 6.46735 26.0795C3.06855 26.0561 1.88937 29.0549 3.60379 31.2065C-1.36883 31.8538 -0.397472 37.4253 3.14385 36.7813C3.79635 39.7444 8.26852 37.2539 6.41206 34.1829C8.53733 34.93 9.97054 31.3086 7.67369 29.7347C10.7498 30.963 11.3556 27.3908 10.0754 26.1549C10.7927 26.1496 11.2965 25.6398 11.9209 24.9128C11.4366 25.7486 11.1111 27.6901 12.1459 28.4148C10.4352 29.1218 9.29421 31.7197 10.8685 34.0889C8.83618 34.1299 8.228 37.1465 9.31995 38.1557C10.5168 39.2617 11.5949 39.0006 12.6792 37.9542C14.0662 39.5859 16.4078 37.1918 15.1534 35.0346C15.8354 34.6197 16.4951 33.6645 16.8173 33.1513C17.2381 33.538 17.7043 33.8908 18.2214 34.2016C19.1236 34.7481 20.0326 35.1133 20.961 35.3635C22.3499 35.7378 23.7841 35.8518 25.314 35.913C27.3659 35.996 29.9106 36.862 32.6655 37.1174C33.7365 37.2167 34.8384 37.2257 35.9552 37.0706C37.1605 36.9002 38.3488 36.4538 39.4202 35.8919C41.6208 34.7376 43.3323 33.1275 43.7832 32.7331C43.9801 32.5599 44.1731 32.378 44.3638 32.1923C44.0468 33.4845 45.053 34.5018 46.1649 34.4355C43.4234 38.9295 48.4627 40.6614 49.1753 38.2282C52.3286 38.8121 52.6828 34.803 49.6586 34.499C50.9002 32.8415 49.9531 30.6055 48.518 30.773C49.1481 30.5329 49.6662 30.1458 49.3459 28.8311C50.0737 30.11 51.3029 30.1066 51.5703 30.0116C49.8368 31.7937 52.2023 33.6879 53.83 32.9255C53.2266 34.2101 53.6312 35.7358 55.0254 35.732C56.0415 35.7292 56.4338 34.9124 56.4552 33.9146C58.6501 34.4837 58.9918 30.9487 56.1297 30.3534V30.3525ZM43.3462 32.2185C42.901 32.5899 41.199 34.0908 39.0542 35.1787C38.0552 35.6852 36.9604 36.1092 35.8431 36.2629C34.7898 36.4104 33.7508 36.4003 32.7403 36.3077C29.9702 36.0538 27.4093 35.1916 25.3464 35.1114C23.8784 35.0537 22.501 34.9544 21.1698 34.592C20.3123 34.3591 19.4754 34.0149 18.6442 33.506C17.3072 32.6802 16.3616 31.5454 15.6934 30.247C15.0166 28.9313 14.6234 27.4452 14.4313 25.9181C14.3874 25.5801 14.3612 25.1619 14.346 24.7485C14.3116 23.8406 14.3283 22.9545 14.3283 22.9545C14.3312 22.8285 14.2768 22.7077 14.1801 22.6271C14.0833 22.5464 13.9551 22.5144 13.8317 22.5402C12.5729 22.8104 11.0796 22.7202 10.1107 22.1502C9.45388 21.764 9.06638 21.1377 9.25036 20.2354C9.42433 19.3819 10.0497 18.9742 10.8075 18.7933C11.5072 18.6267 12.3141 18.6424 13.0524 18.7212L14.6529 19.0663C16.2777 19.3131 17.9454 18.1459 17.9616 16.0746C20.6603 17.2036 22.909 15.2344 22.4143 12.4852C24.225 13.7016 27.4441 12.0751 26.7301 8.99891C28.0151 10.1986 30.5507 9.4486 31.0035 7.78638C31.0064 10.3131 33.4791 10.9485 35.3198 9.8749C35.407 12.511 37.4222 13.7779 39.1137 12.2074C38.3964 14.4596 40.6375 16.4546 42.7032 14.9714C42.4134 16.3777 43.6336 17.6366 45.2203 17.3812C45.0682 18.6204 46.0396 19.8101 47.6496 19.6902C47.6496 19.6902 49.16 19.5809 49.4913 19.5594C50.0561 19.5289 50.5866 19.6425 51.026 19.8077C51.7143 20.0659 52.1585 20.5433 52.1566 21.3606C52.1551 21.879 51.7915 22.449 50.9331 22.8376C50.2053 23.1675 49.1391 23.3656 47.6396 23.2959C47.5614 23.2921 47.4857 23.3231 47.4323 23.3804C47.3789 23.4377 47.3531 23.5155 47.3622 23.5928C47.3622 23.5928 47.4318 24.1886 47.4351 24.8421C47.4366 25.118 47.4265 25.4045 47.3932 25.6589C47.2168 26.9669 46.7107 28.1976 45.9962 29.2998C45.2727 30.4164 44.3356 31.3974 43.3462 32.2176V32.2185Z" fill="#0C8E7E"/>
<path fill-rule="evenodd" clip-rule="evenodd" d="M22.8867 16.1736C22.9482 16.5956 23.3347 16.8911 23.7575 16.84C24.8461 16.7131 25.8723 16.7403 27.0004 16.8167C27.2216 16.831 27.4375 16.7465 27.5905 16.5861C27.7435 16.4257 27.8179 16.2056 27.7931 15.9851C27.7935 15.9851 27.7935 15.9851 27.7935 15.9851C27.7664 15.7387 27.6015 15.5292 27.3684 15.4452C25.9909 14.9601 24.5978 15.0628 23.5006 15.2933C23.0959 15.3783 22.8276 15.764 22.8872 16.1736H22.8862H22.8867Z" fill="#0C8E7E"/>
<path fill-rule="evenodd" clip-rule="evenodd" d="M40.7905 16.4391C39.4388 15.8543 38.027 15.8552 36.9055 16.0046C36.4985 16.0591 36.2039 16.4214 36.2335 16.8319H36.2325C36.263 17.2544 36.6243 17.5752 37.0461 17.5552C38.1562 17.5079 39.1905 17.6105 40.3253 17.7705C40.5436 17.8005 40.7638 17.7323 40.9268 17.5848C41.0903 17.4368 41.1794 17.2239 41.1713 17.0038H41.1718C41.1627 16.7579 41.0145 16.5388 40.7895 16.4395L40.7905 16.4391Z" fill="#0C8E7E"/>
<path fill-rule="evenodd" clip-rule="evenodd" d="M27.8429 18.9998C27.8533 18.8547 27.7447 18.7287 27.5998 18.7182C27.4549 18.7077 27.3291 18.8165 27.3186 18.9616C27.1222 20.7976 26.1647 21.5433 25.2038 21.4765C24.9807 21.4607 24.7605 21.4034 24.5522 21.3079C23.7844 20.9561 23.191 20.0949 23.3159 18.8485C23.3354 18.7177 23.2453 18.596 23.1147 18.5764C22.9841 18.5568 22.8626 18.647 22.8431 18.7779C22.5314 20.3494 23.2425 21.5256 24.1995 22.0278C24.4993 22.1854 24.8292 22.2727 25.159 22.2861C26.4015 22.3367 27.7494 21.3824 27.8429 19.0003V18.9998Z" fill="#0C8E7E"/>
<path fill-rule="evenodd" clip-rule="evenodd" d="M40.7693 19.3955C40.6244 19.3922 40.5038 19.5077 40.5005 19.6528C40.4009 21.3723 39.4772 22.0664 38.5263 22.001C38.3104 21.9862 38.0964 21.9352 37.891 21.8516C37.1217 21.538 36.4907 20.7589 36.5507 19.6036C36.5641 19.4724 36.4687 19.3545 36.3372 19.3411C36.2061 19.3277 36.0884 19.4232 36.075 19.5545C35.8486 21.03 36.5993 22.1252 37.5683 22.5849C37.8576 22.7223 38.1712 22.7978 38.4829 22.8097C39.7388 22.8579 41.0548 21.9342 41.0262 19.6638C41.0295 19.5187 40.9142 19.3979 40.7693 19.3946V19.3955Z" fill="#0C8E7E"/>
</svg>
