<svg width="44" height="53" viewBox="0 0 44 53" fill="none" xmlns="http://www.w3.org/2000/svg">
<path fill-rule="evenodd" clip-rule="evenodd" d="M14.947 12.3875C15.1194 12.5255 15.34 12.5888 15.5593 12.5639C17.2556 12.3758 19.0648 12.2674 20.9625 12.2214C21.193 12.2163 21.4103 12.1149 21.5635 11.9427C21.7167 11.77 21.7907 11.5415 21.7692 11.3121C21.7519 11.1282 21.7336 10.9367 21.7167 10.7608C21.6783 10.3559 21.3523 10.0382 20.947 10.011C19.0549 9.89651 17.1061 9.99458 15.2918 10.1977C14.8392 10.2503 14.5132 10.659 14.5629 11.1127C14.5877 11.344 14.6149 11.5964 14.6402 11.8292C14.664 12.0492 14.7746 12.2505 14.947 12.3885V12.3875Z" fill="#0084C2"/>
<path fill-rule="evenodd" clip-rule="evenodd" d="M6.1056 19.0216C5.34154 18.9324 4.73723 18.839 4.09356 18.8104C3.67335 18.7917 3.23909 18.8071 2.73549 18.8372C2.64321 18.8386 2.56966 18.9146 2.57106 19.007C2.57247 19.0994 2.64836 19.1731 2.74065 19.1717C3.1023 19.1863 3.42507 19.2186 3.73378 19.2411C4.07389 19.2655 4.39572 19.2815 4.72551 19.3134C5.13823 19.3538 5.56359 19.4044 6.05594 19.4598C6.1768 19.4734 6.28596 19.3866 6.29954 19.2655C6.31313 19.1445 6.22646 19.0352 6.1056 19.0216Z" fill="#0084C2"/>
<path fill-rule="evenodd" clip-rule="evenodd" d="M15.9494 19.1565C15.934 19.1443 15.9185 19.1326 15.9031 19.1214C15.8145 19.0529 15.6899 19.058 15.6075 19.1336C15.4201 19.3095 15.2439 19.5174 15.0781 19.7557C15.0069 19.8585 15.0308 19.9992 15.1315 20.0734C15.1418 20.0809 15.1521 20.0889 15.1624 20.0964C15.258 20.1667 15.3915 20.1527 15.4707 20.064C15.6122 19.9059 15.8305 19.6609 15.9804 19.4934C16.023 19.4456 16.0441 19.3822 16.038 19.3184C16.0324 19.2546 16 19.196 15.9494 19.157V19.1565Z" fill="#0084C2"/>
<path fill-rule="evenodd" clip-rule="evenodd" d="M17.2812 19.2815C17.2526 19.2595 17.2231 19.2374 17.1955 19.2168C17.1083 19.1506 16.9865 19.1548 16.9046 19.2276C16.6858 19.4251 16.4806 19.6616 16.2881 19.9342C16.2155 20.0379 16.2394 20.1805 16.3419 20.2542C16.3654 20.2711 16.3888 20.288 16.4117 20.3044C16.5064 20.3729 16.6375 20.3593 16.7162 20.2729C16.876 20.0979 17.1393 19.8098 17.3117 19.6212C17.3557 19.5734 17.3772 19.5091 17.3712 19.4443C17.3655 19.3796 17.3327 19.3205 17.2807 19.281L17.2812 19.2815Z" fill="#0084C2"/>
<path fill-rule="evenodd" clip-rule="evenodd" d="M28.8774 19.0045C28.8877 19.0121 28.898 19.0196 28.9088 19.0275C29.0044 19.0979 29.1379 19.0838 29.2171 18.9952C29.3581 18.837 29.5768 18.5921 29.7267 18.4246C29.7694 18.3768 29.7905 18.3134 29.7844 18.2496C29.7783 18.1858 29.7464 18.1271 29.6958 18.0882C29.6804 18.0765 29.6649 18.0643 29.6495 18.053C29.5609 17.9845 29.4363 17.9897 29.3539 18.0652C29.1665 18.2411 28.9903 18.449 28.8245 18.6874C28.7538 18.7901 28.7772 18.9309 28.8779 19.005L28.8774 19.0045Z" fill="#0084C2"/>
<path fill-rule="evenodd" clip-rule="evenodd" d="M30.0856 19.1858C30.109 19.2027 30.1324 19.2196 30.1554 19.236C30.2505 19.3045 30.3812 19.2909 30.4599 19.2046C30.6196 19.0296 30.8829 18.7415 31.0553 18.5529C31.0989 18.505 31.1204 18.4407 31.1148 18.376C31.1087 18.3112 31.0759 18.2521 31.0244 18.2127C30.9953 18.1906 30.9663 18.1686 30.9386 18.1484C30.8515 18.0822 30.7297 18.0865 30.6477 18.1592C30.429 18.3572 30.2238 18.5932 30.0312 18.8658C29.9586 18.9695 29.9825 19.1122 30.0851 19.1858H30.0856Z" fill="#0084C2"/>
<path fill-rule="evenodd" clip-rule="evenodd" d="M43.7475 3.01369C43.562 1.67739 42.5797 1.05522 41.1307 0.721618C37.399 -0.137027 28.9395 0.0727051 23.2992 0.156224C14.0584 0.293232 7.46293 1.41463 8.93577 5.41977C6.24399 5.55161 5.20916 9.49387 5.41013 16.4686C4.71213 16.4226 4.08908 16.3907 3.45853 16.4663C3.01771 16.5188 2.57267 16.6216 2.09765 16.8088C1.9618 16.8623 1.83063 16.9247 1.70602 16.9983C1.58047 17.0725 1.46148 17.156 1.35092 17.2513C0.743799 17.7641 0.52737 18.6439 0.632774 19.5297C0.729277 20.3447 1.09374 21.1616 1.67416 21.6782C2.15199 22.093 2.8069 22.3651 3.50725 22.5336C4.37718 22.7428 5.31504 22.7944 6.04021 22.7869C6.14468 27.3561 6.75368 37.2657 7.49572 40.8926C8.42234 45.4209 10.596 49.9201 13.3786 51.3156C16.3866 52.8245 20.5063 52.1146 24.3228 51.2128C28.4092 50.2472 32.9903 49.3824 34.1708 47.5863C35.4539 45.634 35.2623 31.973 34.4406 22.1451L34.4345 22.1502C34.4285 21.5881 34.4163 21.0204 34.3961 20.4442C34.3676 19.6156 34.3338 18.7705 34.2771 17.9058C34.2537 17.5473 34.22 17.1865 34.1905 16.8205C34.1905 16.8205 34.1905 16.8196 34.1905 16.8191C34.4879 16.6643 34.7868 16.447 34.9508 16.1566C35.1185 15.8586 35.155 15.4875 34.926 15.0375C34.8252 14.8325 34.6884 14.6673 34.5278 14.528C34.391 14.4093 34.235 14.3107 34.0696 14.2221L33.99 11.8427C34.1563 11.8408 34.3226 11.839 34.4903 11.838C34.7208 11.8371 34.94 11.74 35.0965 11.5706C35.2529 11.4012 35.3316 11.1741 35.3138 10.9437C35.2998 10.7593 35.2853 10.5674 35.2717 10.3915C35.2408 9.98561 34.9208 9.66233 34.5161 9.62714C34.3179 9.61118 34.1193 9.59945 33.9202 9.58819C33.8982 8.7028 33.8733 7.54199 33.8504 6.63454C36.5923 6.45906 39.2311 6.09683 41.5186 5.31983C42.9296 4.84077 43.8604 3.82307 43.748 3.01275L43.7475 3.01369ZM22.2958 30.4749C21.7557 30.5757 21.2324 30.5406 20.7527 30.3979C20.243 30.2468 19.7825 29.9742 19.4049 29.6312C18.5575 28.8603 18.1312 27.7333 18.3659 26.7761C18.4019 26.6203 18.5575 26.5232 18.713 26.5589C18.8685 26.595 18.9655 26.7508 18.9299 26.9066C18.8817 27.1435 18.8938 27.3894 18.9435 27.6352C19.054 28.1833 19.3829 28.721 19.8467 29.1428C20.1582 29.4262 20.5297 29.6561 20.9443 29.7997C21.3364 29.9353 21.7641 30.0028 22.2166 29.9498C22.3614 29.9278 22.4963 30.0277 22.5183 30.1722C22.5403 30.3172 22.4405 30.4528 22.2958 30.4744V30.4749ZM34.6421 15.183C34.8088 15.5128 34.7892 15.7822 34.6697 16.0022C34.4392 16.4269 33.8775 16.6783 33.5449 16.7971L33.5468 16.8022C33.2962 16.8862 33.0353 16.9406 32.771 16.9782C32.5359 17.0115 32.2979 17.0312 32.0609 17.0471C32.3354 16.7637 32.5284 16.2551 32.5462 15.6682C32.5691 14.9179 32.2993 14.2765 31.9109 14.0658C32.5092 14.079 33.091 14.1719 33.5908 14.383C33.8546 14.4928 34.1066 14.6115 34.3132 14.7823C34.4444 14.8907 34.5577 15.0202 34.6425 15.1825L34.6421 15.183ZM31.137 17.1011C30.8143 17.1175 30.4873 17.1274 30.1636 17.11C29.86 17.0936 29.5597 17.0523 29.2693 16.9693C28.9821 16.8872 28.7034 16.7295 28.494 16.5108C28.2935 16.3021 28.1576 16.036 28.1445 15.7259C28.1314 15.4073 28.2654 15.1591 28.4659 14.9643C28.6814 14.7556 28.9718 14.6082 29.2529 14.5008C29.8642 14.2685 30.5979 14.1198 31.3352 14.0766C30.96 14.2906 30.6766 14.8921 30.6545 15.61C30.6349 16.257 30.833 16.8219 31.1366 17.1006L31.137 17.1011ZM33.4864 9.56943C31.9255 9.50608 30.3472 9.56989 28.858 9.70831C28.4045 9.75195 28.071 10.1545 28.1117 10.6092C28.1323 10.841 28.1548 11.0939 28.1759 11.3271C28.1956 11.5476 28.3024 11.7508 28.4724 11.892C28.6425 12.0332 28.8617 12.1008 29.0814 12.0797C30.506 11.9488 32.0098 11.876 33.5768 11.8502L33.6724 14.0344C33.0062 13.7561 32.2094 13.6487 31.4106 13.6881C30.6016 13.728 29.7954 13.9171 29.1297 14.1841C28.7409 14.3394 28.3422 14.5697 28.0939 14.8982C27.9197 15.129 27.8147 15.4063 27.8325 15.7409C27.8527 16.1294 28.0232 16.4625 28.2776 16.722C28.5258 16.9754 28.8533 17.1584 29.1906 17.2513C29.5026 17.3376 29.8249 17.3789 30.15 17.3939C30.6255 17.4155 31.1075 17.3803 31.5737 17.3493C31.9798 17.3226 32.3991 17.3001 32.8095 17.2391C33.0891 17.1973 33.365 17.1377 33.6297 17.0471L33.6316 17.0523C33.6911 17.0335 33.7571 17.0101 33.8265 16.9838C33.8387 17.4497 33.8476 17.91 33.8654 18.3633C33.9136 19.5818 33.9825 20.7581 34.0162 21.9081C34.0218 22.1057 34.027 22.3027 34.0317 22.4988L29.4862 26.4242C28.4963 24.5619 27.3294 23.4255 26.0922 22.5791C26.0964 22.4721 26.1002 22.3628 26.1025 22.2516C26.1189 21.5374 26.0983 20.7454 26.0571 19.9346C26.0097 19.0084 25.9362 18.0569 25.8467 17.1691C25.628 14.9916 25.3431 13.195 25.3417 13.0706C25.3417 12.9613 25.2527 12.8722 25.1436 12.8722C25.0344 12.8722 24.9454 12.9613 24.9454 13.0706C24.9435 13.194 25.1333 14.9559 25.3366 17.103C25.4584 18.3895 25.634 19.8126 25.6561 21.1086C25.6734 22.1216 25.9315 25.0466 23.6304 25.5205C22.1356 25.8288 21.1289 23.9933 21.0033 21.8002C17.5995 22.8719 14.9461 25.109 12.7668 28.0824C10.8349 26.1314 8.46075 23.2031 6.9153 22.413C6.59628 22.2502 6.35736 22.276 6.10158 22.2971C5.40404 22.3069 4.48305 22.261 3.63139 22.054C3.01677 21.9048 2.43822 21.673 2.01989 21.3085C1.51067 20.8759 1.17759 20.1782 1.09186 19.4786C1.00286 18.7546 1.17291 18.0269 1.67604 17.6154C1.76645 17.5431 1.86342 17.4802 1.96508 17.4249C2.06767 17.369 2.17588 17.3226 2.28691 17.2836C2.71883 17.1321 3.1203 17.0551 3.51708 17.0237C4.13686 16.9744 4.74398 17.0396 5.43075 17.1142C5.47478 17.1199 6.77242 17.2311 7.95059 17.3179C8.92874 17.3901 9.79211 16.683 9.91532 15.7085C10.3107 12.5822 11.1015 6.33378 11.1015 6.33378C16.2086 6.68756 21.387 6.86539 26.4079 6.82176C28.7081 6.80158 31.093 6.79361 33.4142 6.66129C33.4227 7.55654 33.4569 8.69248 33.4859 9.56896L33.4864 9.56943Z" fill="#0084C2"/>
<path fill-rule="evenodd" clip-rule="evenodd" d="M21.4786 14.7803C21.2514 14.5828 20.9745 14.4388 20.6817 14.3083C20.0044 14.0118 19.1831 13.8987 18.3619 13.939C17.5529 13.9789 16.7467 14.168 16.081 14.435C15.6922 14.5903 15.2935 14.8207 15.0452 15.1491C14.8705 15.38 14.766 15.6573 14.7834 15.9918C14.8035 16.3803 14.974 16.7135 15.2284 16.9729C15.4767 17.2263 15.8041 17.4093 16.1414 17.5022C16.4534 17.5885 16.7757 17.6298 17.1008 17.6448C17.5763 17.6664 18.0584 17.6312 18.5245 17.6003C18.9306 17.5735 19.3499 17.551 19.7603 17.49C20.0404 17.4482 20.3159 17.3886 20.5806 17.2981L20.5824 17.3037C20.9717 17.1794 21.6271 16.8969 21.9016 16.4094C22.0693 16.1115 22.1054 15.7403 21.8768 15.2904C21.7761 15.0853 21.6393 14.9201 21.4786 14.7808V14.7803ZM17.1149 17.361C16.8113 17.3445 16.511 17.3032 16.2201 17.2202C15.933 17.1381 15.6542 16.9804 15.4448 16.7618C15.2443 16.553 15.1085 16.2869 15.0958 15.9768C15.0827 15.6582 15.2167 15.41 15.4172 15.2153C15.6327 15.0065 15.9231 14.8592 16.2042 14.7517C16.8155 14.5195 17.5492 14.3707 18.2865 14.3275C17.9113 14.5415 17.6283 15.143 17.6063 15.8609C17.5866 16.5079 17.7848 17.0729 18.0884 17.3516C17.7656 17.368 17.4386 17.3783 17.1149 17.3605V17.361ZM21.621 16.2532C21.3905 16.6778 20.8288 16.9293 20.4962 17.048L20.4981 17.0532C20.2475 17.1372 19.987 17.1916 19.7223 17.2291C19.4872 17.2624 19.2492 17.2821 19.0122 17.2981C19.2867 17.0147 19.4797 16.5061 19.4975 15.9191C19.5204 15.1688 19.2506 14.5274 18.8622 14.3168C19.4605 14.3299 20.0423 14.4228 20.5417 14.6339C20.8054 14.7437 21.0575 14.8624 21.264 15.0332C21.3952 15.1416 21.5086 15.2711 21.5934 15.4335C21.7601 15.7633 21.7405 16.0326 21.621 16.2527V16.2532Z" fill="#0084C2"/>
</svg>
