<svg width="61" height="42" viewBox="0 0 61 42" fill="none" xmlns="http://www.w3.org/2000/svg">
<path fill-rule="evenodd" clip-rule="evenodd" d="M45.7381 26.3741C46.4444 26.4377 47.2171 26.4899 47.9612 26.5668C48.2821 26.5996 48.5973 26.6355 48.8993 26.6821C49.018 26.7027 49.1311 26.6227 49.1516 26.5038C49.172 26.3849 49.0922 26.2716 48.9735 26.2511C48.5656 26.1732 48.1337 26.1096 47.6956 26.0578C47.0518 25.9815 46.3952 25.9287 45.7888 25.8631C45.6481 25.8492 45.5222 25.9522 45.5078 26.0932C45.494 26.2342 45.5969 26.3603 45.7376 26.3741H45.7381Z" fill="#263682"/>
<path fill-rule="evenodd" clip-rule="evenodd" d="M24.9958 24.76C25.1647 24.4427 25.1898 24.0429 24.9308 23.5462C24.6289 22.9809 23.9554 22.6113 23.1463 22.4247C22.1525 22.1951 20.9585 22.231 20.1029 22.4114C19.934 22.4473 19.7318 22.5206 19.544 22.6072C19.3337 22.7041 19.1413 22.8168 19.0287 22.9081C18.7083 23.169 18.5635 23.4745 18.5497 23.7794C18.5353 24.0988 18.6648 24.4217 18.9094 24.6934L18.9135 24.6898C19.4759 25.3197 20.2687 25.6724 21.11 25.819C21.9391 25.963 22.8177 25.9071 23.5695 25.6924C24.0803 25.5499 24.7328 25.2551 24.9958 24.761V24.76ZM19.1709 24.4606L19.175 24.4571C19.0031 24.2592 18.9043 24.0285 18.9197 23.7999C18.933 23.5903 19.0466 23.3873 19.2707 23.2125C19.3659 23.1377 19.5302 23.0485 19.7073 22.9706C19.8685 22.8999 20.0404 22.8389 20.1847 22.8112C20.5061 22.7476 20.8771 22.7077 21.2661 22.6959C20.9304 22.9378 20.6571 23.6754 20.6714 24.3043C20.6842 24.8717 20.9329 25.3443 21.5266 25.5447C21.4053 25.5345 21.2845 25.5206 21.1653 25.5007C20.3981 25.372 19.6786 25.0393 19.172 24.4612L19.1709 24.4606ZM24.503 24.742C24.2466 25.0399 23.8126 25.2254 23.4641 25.3356C23.1606 25.4289 22.8336 25.495 22.4979 25.5314C22.6622 25.4391 22.7916 25.2956 22.8843 25.1239C23.113 24.699 23.1371 24.1029 23.0583 23.6749C23.0235 23.4852 22.96 23.2541 22.8479 23.0685C22.7671 22.9347 22.6489 22.8466 22.524 22.761C22.7021 22.7861 22.8766 22.8184 23.0455 22.8583C23.7143 23.0167 24.2901 23.2889 24.5403 23.7564C24.7732 24.1808 24.7102 24.5027 24.5035 24.7426L24.503 24.742Z" fill="#263682"/>
<path fill-rule="evenodd" clip-rule="evenodd" d="M37.6611 25.0147C37.9231 24.6513 38.0286 24.1761 37.7967 23.5708C37.5854 23.0357 36.8362 22.6902 35.9078 22.562C34.8838 22.4206 33.652 22.5149 32.8429 22.7368C32.674 22.7835 32.4857 22.8716 32.3137 22.9726C32.1259 23.0828 31.9565 23.2074 31.8511 23.3043C31.5492 23.5816 31.4182 23.9188 31.4197 24.2499C31.4212 24.5975 31.5691 24.9399 31.8281 25.1946L31.8322 25.1905C32.3178 25.6728 32.936 25.9476 33.5988 26.0721C34.5609 26.2531 35.6212 26.1147 36.5005 25.8015C36.9196 25.657 37.3837 25.4002 37.6611 25.0142V25.0147ZM34.1121 25.8107C33.347 25.7554 32.6162 25.4945 32.0747 24.9476L32.0788 24.9435C31.8936 24.7548 31.7871 24.5052 31.7907 24.252C31.7943 24.0193 31.8951 23.7856 32.1116 23.5949C32.2032 23.5139 32.3501 23.4109 32.5123 23.3191C32.6546 23.2386 32.8091 23.1674 32.9483 23.1315C33.2523 23.0521 33.6187 22.9941 34.0097 22.9608C33.695 23.2304 33.4724 23.9721 33.5235 24.5918C33.5747 25.211 33.9022 25.6985 34.6315 25.8159C34.458 25.823 34.284 25.8225 34.1116 25.8102L34.1121 25.8107ZM35.3874 25.7287C35.5629 25.6272 35.6944 25.4668 35.7819 25.2771C35.9851 24.8394 35.9733 24.2428 35.8689 23.8204C35.8229 23.6328 35.7456 23.4063 35.6228 23.2279C35.5363 23.1028 35.4176 23.0223 35.2917 22.9465C35.4805 22.9588 35.6668 22.9772 35.8459 23.0029C36.5844 23.109 37.2169 23.3084 37.3853 23.7338C37.5618 24.1664 37.504 24.5103 37.3228 24.7774C37.1013 25.1044 36.7185 25.3228 36.374 25.4545C36.0649 25.5703 35.7313 25.6636 35.3874 25.7282V25.7287Z" fill="#263682"/>
<path fill-rule="evenodd" clip-rule="evenodd" d="M27.2552 31.231C27.3258 31.1193 27.2926 30.9706 27.181 30.8999C26.8627 30.6979 26.4318 30.6559 25.9983 30.6605C25.6201 30.6646 25.2409 30.7072 24.9676 30.6462C24.8627 30.6231 24.7772 30.5857 24.7491 30.4883C24.6872 30.2735 24.8484 29.9291 25.0695 29.4498C25.3494 28.8429 25.7486 28.0577 26.179 27.1463C26.5198 26.4257 26.8796 25.6271 27.181 24.7583C27.42 24.0709 27.7347 23.139 27.7751 22.2815C27.8069 21.6049 27.6651 20.9765 27.2552 20.5157C26.9568 20.1846 26.4625 19.9944 25.9026 19.9129C25.2153 19.813 24.4313 19.8642 23.8986 19.9037C23.1698 19.9626 22.2937 20.0165 21.3541 19.9816C20.5486 19.9519 19.696 19.8586 18.85 19.6474C18.7339 19.6166 18.6146 19.6864 18.5839 19.8027C18.5532 19.9191 18.6228 20.0385 18.739 20.0692C19.611 20.3132 20.4928 20.4357 21.328 20.4906C22.2901 20.5541 23.1887 20.526 23.9374 20.4875C24.4359 20.4583 25.1693 20.4193 25.811 20.5213C26.2112 20.5849 26.5771 20.6951 26.788 20.9345C27.0935 21.2774 27.1677 21.7525 27.1503 22.2559C27.1226 23.0565 26.8524 23.932 26.6452 24.5783C26.3709 25.4333 26.0495 26.2257 25.7225 26.9316C25.2977 27.848 24.8642 28.6195 24.5899 29.2304C24.3044 29.8655 24.1897 30.3494 24.2788 30.6313C24.3653 30.9035 24.5705 31.0516 24.8673 31.1136C25.1698 31.1767 25.5869 31.1439 26.0034 31.1393C26.3397 31.1357 26.6779 31.148 26.9246 31.3048C27.0362 31.3756 27.1841 31.3422 27.2552 31.2305V31.231Z" fill="#263682"/>
<path fill-rule="evenodd" clip-rule="evenodd" d="M38.6583 20.1718C38.1803 20.2687 37.7034 20.3133 37.2264 20.321C36.0596 20.3394 34.8969 20.1749 33.7229 20.2318C33.443 20.2456 33.16 20.2697 32.8826 20.3235C32.6021 20.3773 32.3278 20.4588 32.0633 20.5619L31.2997 20.8986C31.2107 20.9525 31.182 21.0683 31.2352 21.1575C31.289 21.2467 31.4046 21.2754 31.4937 21.2221L32.2096 20.995C32.4568 20.9237 32.7117 20.8812 32.9681 20.8463C33.2265 20.8115 33.4865 20.7864 33.7449 20.7787C34.9127 20.7423 36.0663 20.9094 37.2264 20.9294C37.7412 20.9381 38.2571 20.9222 38.7776 20.8423C38.9623 20.8094 39.0856 20.6321 39.0529 20.4471C39.0201 20.262 38.8431 20.1385 38.6583 20.1713V20.1718Z" fill="#263682"/>
<path fill-rule="evenodd" clip-rule="evenodd" d="M32.3909 29.5702C32.265 29.5472 32.1442 29.6307 32.1207 29.7568C31.9886 30.3232 31.787 30.8224 31.5603 31.275C31.1714 32.0511 30.6673 32.6677 30.0926 33.1326C29.4314 33.6672 28.6898 33.9999 27.9693 34.1531C27.414 34.2715 26.8756 34.2987 26.3961 34.1998C26.2871 34.1716 26.1755 34.2372 26.1474 34.3464C26.1192 34.4556 26.1848 34.5673 26.2938 34.5955C26.9442 34.7969 27.7216 34.8267 28.5107 34.637C29.1954 34.473 29.8853 34.1403 30.504 33.6483C31.1534 33.1311 31.7348 32.434 32.1237 31.54C32.3433 31.0357 32.4917 30.4672 32.5766 29.8414C32.5997 29.7153 32.5168 29.5943 32.3904 29.5707L32.3909 29.5702Z" fill="#263682"/>
<path fill-rule="evenodd" clip-rule="evenodd" d="M18.7056 28.8991C18.9103 30.527 22.3304 30.6357 22.4461 29.178C22.575 27.5587 18.5208 27.4291 18.7056 28.8991Z" fill="#263682"/>
<path fill-rule="evenodd" clip-rule="evenodd" d="M34.7888 29.1501C34.9935 30.778 38.4137 30.8867 38.5293 29.4289C38.6583 27.8097 34.6041 27.68 34.7888 29.1501Z" fill="#263682"/>
<path fill-rule="evenodd" clip-rule="evenodd" d="M56.7725 28.7673C59.0017 27.7334 58.9838 25.0547 58.3385 24.0331C57.2735 22.3483 55.8964 21.4549 51.551 22.4103C51.4323 6.27048 43.5732 0.0309387 32.167 0.571702C19.3377 1.17961 12.9832 11.1789 11.9458 22.1976C6.27499 18.7736 -0.284764 24.8825 3.52632 29.0159C0.764858 29.4069 -1.09999 33.386 1.19525 35.5117C2.86001 37.054 5.53652 36.0509 6.95154 34.5132C6.69617 40.8798 15.1279 40.929 17.3679 37.0632C18.2865 38.6225 19.634 39.8219 21.5807 40.4134C22.5173 40.6984 23.7608 40.989 25.1799 41.214C27.7377 41.62 30.8605 41.8337 33.7243 41.6682C35.8737 41.5436 37.8824 41.1961 39.4151 40.5354C40.3158 40.1474 41.0563 39.6486 41.5885 39.0407C41.9212 38.6589 42.2482 38.1007 42.5609 37.4384C43.0624 39.6179 44.591 42.0234 48.0546 41.6661C50.1943 41.4452 51.398 39.357 50.9988 37.4564C53.9834 40.4416 56.6144 40.3524 58.5345 38.7696C62.2985 35.6665 58.7945 29.3147 56.7725 28.7678V28.7673ZM40.78 38.3242C40.3398 38.8183 39.7201 39.2058 38.9811 39.521C37.5451 40.134 35.6685 40.4565 33.6588 40.5825C30.8692 40.7573 27.8304 40.5369 25.3304 40.193C23.9553 40.0033 22.7419 39.7855 21.8289 39.5415C19.0567 38.7998 17.5711 36.6506 16.8132 34.0104C15.6904 30.101 16.1402 25.1444 16.3899 21.8142C16.4641 20.8414 16.5547 19.867 16.6704 18.8956C16.7333 18.3687 16.8045 17.8428 16.8833 17.3185C18.3659 18.0909 21.1033 17.3164 22.7424 15.0339C23.1928 19.3118 28.9808 20.6445 31.6911 15.1851C31.9065 18.9141 37.0907 20.1807 39.6341 15.7556C39.3189 18.6932 42.5394 20.5851 45.4109 18.8567C45.177 21.4226 44.9651 23.598 44.9651 23.598C44.9503 23.7476 45.002 23.8963 45.1064 24.0044C45.2108 24.1126 45.3577 24.1695 45.5071 24.1592C45.5071 24.1592 47.9149 23.9757 49.3438 24.843C49.9533 25.2131 50.3504 25.8066 50.1764 26.7503C50.0137 27.6314 49.419 28.0661 48.7107 28.2649C47.0669 28.7262 44.8587 28.0471 44.8587 28.0471C44.7297 28.0081 44.59 28.0251 44.4744 28.0942C44.3587 28.1634 44.2768 28.2783 44.2502 28.4105C44.2502 28.4105 43.5604 31.7145 42.5609 34.627C42.0317 36.1698 41.4243 37.6045 40.7805 38.3242H40.78Z" fill="#263682"/>
</svg>
