<svg id="logo_icon" xmlns="http://www.w3.org/2000/svg" width="24" height="24" viewBox="0 0 24 24">
  <path id="Path_37" data-name="Path 37" d="M12,23.5A11.5,11.5,0,1,1,23.5,12,11.5,11.5,0,0,1,12,23.5Z" fill="none" stroke="#14171a" stroke-width="1"/>
  <path id="Path_38" data-name="Path 38" d="M13.108,6.186H10.8V8.493h2.308Z" fill="#14171a"/>
  <path id="Path_39" data-name="Path 39" d="M14.932,12.61a1.959,1.959,0,0,1-.256-1.039,1.923,1.923,0,0,1,.256-1.038,4.226,4.226,0,0,0,.483-2.038H13.108a1.929,1.929,0,0,1-.256,1.039,4.223,4.223,0,0,0-.483,2.037,4.224,4.224,0,0,0,.483,2.038c.037.077.07.146.1.214a1.131,1.131,0,0,1-.9,1.59h-.1a1.154,1.154,0,0,1-1.154-1.15H8.492a3.462,3.462,0,0,0,6.908.323,2.075,2.075,0,0,0,0-.321,4.214,4.214,0,0,0-.469-1.653" fill="#14171a"/>
</svg>
