<svg xmlns="http://www.w3.org/2000/svg" width="25" height="25" viewBox="0 0 25 25" fill="none">
  <path d="M17.4942 10.5346L17.0532 10.0917C16.9354 10.209 16.8692 10.3684 16.8692 10.5347C16.8692 10.7009 16.9355 10.8603 17.0533 10.9776L17.4942 10.5346ZM22.1604 11.1596C22.5056 11.1596 22.7854 10.8798 22.7854 10.5346C22.7854 10.1894 22.5056 9.9096 22.1604 9.9096V11.1596ZM19.8175 9.10303C20.0621 8.85946 20.0629 8.46373 19.8193 8.21914C19.5758 7.97456 19.1801 7.97373 18.9355 8.21729L19.8175 9.10303ZM18.9356 12.851C19.1802 13.0945 19.576 13.0935 19.8195 12.8489C20.063 12.6042 20.062 12.2085 19.8174 11.965L18.9356 12.851ZM4.13281 18.1917H3.50781V18.2065L3.50851 18.2212L4.13281 18.1917ZM11.1569 14.6797L11.1628 14.0546L11.1524 14.0547L11.1569 14.6797ZM18.1811 18.1917L18.8052 18.225L18.806 18.2102L18.8061 18.1953L18.1811 18.1917ZM17.4942 11.1596H22.1604V9.9096H17.4942V11.1596ZM17.9352 10.9775L19.8175 9.10303L18.9355 8.21729L17.0532 10.0917L17.9352 10.9775ZM17.0533 10.9776L18.9356 12.851L19.8174 11.965L17.9351 10.0916L17.0533 10.9776ZM6.45077 19.7518C5.88713 19.7518 5.48718 19.5721 5.22359 19.3144C4.95728 19.0539 4.78094 18.6655 4.75711 18.1622L3.50851 18.2212C3.54489 18.9898 3.82386 19.6939 4.34964 20.2081C4.87814 20.7249 5.60707 21.0018 6.45077 21.0018V19.7518ZM4.75781 18.1917C4.75781 17.6647 4.89775 17.2559 5.14064 16.9246C5.38863 16.5864 5.77255 16.2907 6.31729 16.0465C7.42361 15.5505 9.07262 15.3196 11.1613 15.3047L11.1524 14.0547C9.0192 14.0699 7.15617 14.3006 5.80594 14.9059C5.12241 15.2123 4.54192 15.6272 4.13258 16.1855C3.71814 16.7507 3.50781 17.4243 3.50781 18.1917H4.75781ZM11.151 15.3047C13.244 15.3245 14.8973 15.5578 16.0052 16.0541C16.5508 16.2985 16.9341 16.5936 17.1804 16.93C17.4215 17.2591 17.5591 17.6648 17.5561 18.1881L18.8061 18.1953C18.8105 17.4292 18.6026 16.7563 18.1889 16.1914C17.7805 15.6338 17.1998 15.2195 16.5162 14.9133C15.1657 14.3083 13.2994 14.075 11.1628 14.0547L11.151 15.3047ZM17.557 18.1584C17.53 18.664 17.3525 19.0538 17.0861 19.3147C16.8229 19.5725 16.4249 19.7518 15.8631 19.7518V21.0018C16.7061 21.0018 17.4332 20.7245 17.9608 20.2077C18.4852 19.6941 18.7643 18.9913 18.8052 18.225L17.557 18.1584ZM15.8631 19.7518H6.45077V21.0018H15.8631V19.7518ZM11.163 12.3494C13.4686 12.3494 15.3377 10.4803 15.3377 8.17469H14.0877C14.0877 9.78995 12.7782 11.0994 11.163 11.0994V12.3494ZM15.3377 8.17469C15.3377 5.86906 13.4686 4 11.163 4V5.25C12.7782 5.25 14.0877 6.55943 14.0877 8.17469H15.3377ZM11.163 4C8.85736 4 6.98828 5.86907 6.98828 8.17469H8.23828C8.23828 6.55943 9.54771 5.25 11.163 5.25V4ZM6.98828 8.17469C6.98828 10.4803 8.85735 12.3494 11.163 12.3494V11.0994C9.54771 11.0994 8.23828 9.78996 8.23828 8.17469H6.98828Z" fill="#58C2E8"/>
</svg>