<svg width="93" height="45" viewBox="0 0 93 45" fill="none" xmlns="http://www.w3.org/2000/svg">
<g clip-path="url(#clip0_465_32319)">
<path d="M14.5889 10.9727H9.79443V15.7723H14.5889V10.9727Z" fill="#263682"/>
<path d="M18.3816 24.334C18.0504 23.643 17.8511 23.2257 17.8511 22.1717C17.8511 21.1178 18.0504 20.7005 18.3816 20.0094C18.805 19.127 19.385 17.9163 19.385 15.7705H14.5905C14.5905 16.8245 14.3912 17.2417 14.06 17.9328C13.6366 18.8152 13.0566 20.0259 13.0566 22.1717C13.0566 24.3175 13.6366 25.5282 14.06 26.4106C14.1358 26.5689 14.205 26.7141 14.266 26.8559C14.8953 28.3123 13.9743 30.031 12.3943 30.1629C12.3284 30.1679 12.2609 30.1712 12.1933 30.1712C10.8687 30.1712 9.79609 29.0958 9.79609 27.7713H5C5 31.748 8.22101 34.9708 12.1917 34.9708C12.4849 34.9708 12.7716 34.951 13.055 34.9181C16.3996 34.5173 19.039 31.8189 19.352 28.4443C19.3718 28.2216 19.3702 27.9973 19.3537 27.7746C19.3537 27.7746 19.3537 27.773 19.3537 27.7713C19.2318 26.1137 18.7474 25.0994 18.38 24.334H18.3816Z" fill="#263682"/>
<path d="M23.5535 25.3586C23.5535 20.4666 26.9228 15.7725 32.8491 15.7725C38.7754 15.7725 42.1447 20.4666 42.1447 25.3586C42.1447 30.2506 38.7754 34.9728 32.8491 34.9728C26.9228 34.9728 23.5535 30.2506 23.5535 25.3586ZM37.7341 25.3586C37.7341 22.6042 36.0207 19.8761 32.8474 19.8761C29.6742 19.8761 27.9887 22.6025 27.9887 25.3586C27.9887 28.1147 29.7022 30.8114 32.8474 30.8114C35.9927 30.8114 37.7341 28.1411 37.7341 25.3586Z" fill="#263682"/>
<path d="M46.4944 34.6083V16.1387H58.2037C61.8827 16.1387 63.7363 18.837 63.7363 21.8175C63.7363 22.9984 63.2865 24.1794 62.4166 25.0783C63.7643 26.0052 64.4101 27.4121 64.4101 28.9015C64.4101 31.91 62.5566 34.6083 58.8496 34.6083H46.4944ZM50.7633 23.391H58.2053C59.0192 23.391 59.469 22.8005 59.469 21.9857V21.4793C59.469 20.6365 59.0192 20.0741 58.2053 20.0741H50.7633V23.391ZM50.7633 30.6713H58.8512C59.6651 30.6713 60.1709 30.0808 60.1709 29.266V28.7316C60.1709 27.8888 59.6651 27.3264 58.8512 27.3264H50.7633V30.6713Z" fill="#263682"/>
<path d="M68.9014 34.6083V16.1387H81.6223C85.3293 16.1387 87.1549 18.837 87.1549 21.8175C87.1549 24.3196 85.7511 26.6254 82.97 27.1862C83.054 27.3264 83.1661 27.4385 83.2237 27.5804L87.4366 34.6083H82.6339L78.309 27.328H73.1702V34.6083H68.9014ZM73.1702 23.391H81.6223C82.4362 23.391 82.886 22.8005 82.886 21.9857V21.4793C82.886 20.6365 82.4362 20.0741 81.6223 20.0741H73.1702V23.391Z" fill="#263682"/>
</g>
<defs>
<clipPath id="clip0_465_32319">
<rect width="82.4348" height="24" fill="white" transform="translate(5 10.9727)"/>
</clipPath>
</defs>
</svg>
