<svg width="60" height="60" viewBox="0 0 60 60" fill="none" xmlns="http://www.w3.org/2000/svg">
<mask id="mask0_6_33" style="mask-type:luminance" maskUnits="userSpaceOnUse" x="0" y="0" width="60" height="60">
<path d="M60 0H0V60H60V0Z" fill="white"/>
</mask>
<g mask="url(#mask0_6_33)">
<path d="M27.5561 0H10.4578C8.51611 0 6.94211 1.5739 6.94211 3.5156V14.757L19.0069 16.5148L31.0717 14.757V3.5156C31.0717 1.5739 29.4977 0 27.5561 0Z" fill="#275AFF"/>
<path d="M27.5562 0H24.0405C25.9822 0 27.5562 1.5739 27.5562 3.5156V14.757H31.0718V3.5156C31.0718 1.5739 29.4977 0 27.5562 0Z" fill="white"/>
<path d="M25.9903 10.0156H12.0237C11.7648 10.0156 11.5549 9.80569 11.5549 9.54689V5.21089C11.5549 4.95209 11.7648 4.74219 12.0237 4.74219H25.9903C26.2492 4.74219 26.4591 4.95209 26.4591 5.21089V9.54689C26.4591 9.80569 26.2492 10.0156 25.9903 10.0156Z" fill="white"/>
<path d="M25.9902 4.74219H22.4746C22.7335 4.74219 22.9434 4.95209 22.9434 5.21089V9.54689C22.9434 9.80569 22.7335 10.0156 22.4746 10.0156H25.9902C26.2491 10.0156 26.459 9.80569 26.459 9.54689V5.21089C26.459 4.95209 26.2491 4.74219 25.9902 4.74219Z" fill="#E5F0FF"/>
<path d="M48.972 48.496H40.2529V28.0301L42.0107 25.5409L40.2529 23.0518V17.6875C40.2529 17.0403 40.7776 16.5156 41.4248 16.5156H47.8C48.447 16.5156 48.972 17.0403 48.972 17.6875V23.0518L47.214 25.5409L48.972 28.0301V48.496Z" fill="#275AFF"/>
<path d="M47.8 16.5156H44.2842C44.9314 16.5156 45.456 17.0403 45.456 17.6875V48.496H48.972V28.0301L47.214 25.3005L48.972 23.0518V17.6875C48.972 17.0403 48.447 16.5156 47.8 16.5156Z" fill="#E5F0FF"/>
<path d="M33.6192 59.122H4.3945V40.3231L6.1523 36.5004L4.3945 32.6778V15.5781C4.3945 15.1251 4.7618 14.7578 5.2148 14.7578H32.7989C33.252 14.7578 33.6192 15.1251 33.6192 15.5781V32.6778L31.8614 36.5004L33.6192 40.3231V59.122Z" fill="#E5F0FF"/>
<path d="M32.7988 14.7578H29.2832C29.7362 14.7578 30.1035 15.1251 30.1035 15.5781V59.122H33.6191V40.3231L31.8613 36.5004L33.6191 32.6778V15.5781C33.6191 15.1251 33.2519 14.7578 32.7988 14.7578Z" fill="#E5F0FF"/>
<path d="M55.605 59.123H33.6191V30.3906L54.869 38.8851C55.314 39.063 55.605 39.494 55.605 39.9733V59.123Z" fill="#E5F0FF"/>
<path d="M54.869 38.8851L33.6191 30.3906V33.5539L51.353 40.643C51.798 40.8209 52.09 41.2519 52.09 41.7312V59.123H55.605V39.9733C55.605 39.494 55.314 39.063 54.869 38.8851Z" fill="white"/>
<path d="M4.3945 32.6797H33.6192V40.325H4.3945V32.6797Z" fill="#275AFF"/>
<path d="M40.2532 23.0547H48.972V28.033H40.2532V23.0547Z" fill="white"/>
<path d="M45.456 23.0547H48.972V28.033H45.456V23.0547Z" fill="white"/>
<path d="M49.098 59.121H40.127V45.258C40.127 44.8048 40.4942 44.4375 40.9473 44.4375H48.278C48.731 44.4375 49.098 44.8048 49.098 45.258V59.121Z" fill="#275AFF"/>
<path d="M48.278 44.4375H44.762C45.215 44.4375 45.582 44.8048 45.582 45.258V59.121H49.098V45.258C49.098 44.8048 48.731 44.4375 48.278 44.4375Z" fill="white"/>
<path d="M11.9756 51.8051H8.46022C8.20132 51.8051 7.99152 51.5951 7.99152 51.3361V47.8201C7.99152 47.5611 8.20132 47.3521 8.46022 47.3521H11.9757C12.2346 47.3521 12.4445 47.5611 12.4445 47.8201V51.3361C12.4443 51.5951 12.2345 51.8051 11.9756 51.8051Z" fill="#275AFF"/>
<path d="M20.7648 51.8051H17.2493C16.9904 51.8051 16.7805 51.5951 16.7805 51.3361V47.8201C16.7805 47.5611 16.9904 47.3521 17.2493 47.3521H20.7648C21.0236 47.3521 21.2335 47.5611 21.2335 47.8201V51.3361C21.2335 51.5951 21.0236 51.8051 20.7648 51.8051Z" fill="#275AFF"/>
<path d="M29.5538 51.8051H26.0383C25.7795 51.8051 25.5696 51.5951 25.5696 51.3361V47.8201C25.5696 47.5611 25.7795 47.3521 26.0383 47.3521H29.5538C29.8127 47.3521 30.0226 47.5611 30.0226 47.8201V51.3361C30.0226 51.5951 29.8127 51.8051 29.5538 51.8051Z" fill="#275AFF"/>
<path d="M11.9756 26.3904H8.46022C8.20132 26.3904 7.99152 26.1805 7.99152 25.9216V22.4062C7.99152 22.1474 8.20132 21.9375 8.46022 21.9375H11.9757C12.2346 21.9375 12.4445 22.1474 12.4445 22.4062V25.9218C12.4443 26.1805 12.2345 26.3904 11.9756 26.3904Z" fill="#275AFF"/>
<path d="M20.7648 26.3904H17.2493C16.9904 26.3904 16.7805 26.1805 16.7805 25.9216V22.4062C16.7805 22.1474 16.9904 21.9375 17.2493 21.9375H20.7648C21.0236 21.9375 21.2335 22.1474 21.2335 22.4062V25.9218C21.2335 26.1805 21.0236 26.3904 20.7648 26.3904Z" fill="#275AFF"/>
<path d="M29.5538 26.3904H26.0383C25.7795 26.3904 25.5696 26.1805 25.5696 25.9216V22.4062C25.5696 22.1474 25.7795 21.9375 26.0383 21.9375H29.5538C29.8127 21.9375 30.0226 22.1474 30.0226 22.4062V25.9218C30.0226 26.1805 29.8127 26.3904 29.5538 26.3904Z" fill="#275AFF"/>
<path d="M46.442 13.4354V11.0876C46.442 10.3327 47.022 9.7113 47.774 9.6436C47.834 9.6382 47.894 9.6311 47.955 9.6224C49.421 9.4103 50.545 8.2594 50.718 6.7888C50.945 4.8671 49.505 3.2497 47.687 3.1336C47.469 3.1196 47.292 2.9529 47.264 2.7356C47.069 1.1929 45.752 0 44.157 0C42.5086 0 41.1609 1.2746 41.0352 2.8821C41.0202 3.0734 40.895 3.2341 40.7131 3.295C39.3471 3.7512 38.383 5.0846 38.4912 6.6272C38.6012 8.1964 39.8479 9.4813 41.413 9.64C41.4246 9.6411 41.4362 9.6423 41.4477 9.6432C42.2006 9.7117 42.7825 10.3315 42.7825 11.0875V13.4353C42.7825 13.6942 42.9924 13.9041 43.2512 13.9041H45.973C46.232 13.9042 46.442 13.6943 46.442 13.4354Z" fill="#E5F0FF"/>
<path d="M47.688 3.1335C47.469 3.1195 47.292 2.9528 47.264 2.7355C47.069 1.1929 45.753 0 44.1571 0C43.4249 0 42.7526 0.251799 42.2197 0.672199C44.6932 1.3985 46.5 3.6837 46.5 6.3921C46.5 8.8905 44.9624 11.0288 42.7826 11.9156V13.4353C42.7826 13.6942 42.9925 13.9041 43.2513 13.9041H45.973C46.232 13.9041 46.442 13.6942 46.442 13.4353V11.0876C46.442 10.3327 47.022 9.7113 47.774 9.6436C47.834 9.6382 47.894 9.6311 47.955 9.6224C49.421 9.4103 50.545 8.2594 50.718 6.7888C50.945 4.867 49.505 3.2496 47.688 3.1335Z" fill="#275AFF"/>
<path d="M59.121 60.0002H0.878899C0.393499 60.0002 0 59.6062 0 59.1212C0 58.6362 0.393499 58.2422 0.878899 58.2422H59.121C59.607 58.2422 60 58.6362 60 59.1212C60 59.6062 59.607 60.0002 59.121 60.0002Z" fill="#275AFF"/>
</g>
</svg>
