<svg width="15" height="15" viewBox="0 0 15 15" fill="none" xmlns="http://www.w3.org/2000/svg">
<path d="M14.0611 7.4769L13.4293 6.53149L14.0692 5.05025C14.1245 4.92231 14.111 4.77509 14.0335 4.65929C13.9573 4.54552 13.8294 4.47743 13.6928 4.47743C13.6904 4.47743 13.688 4.47748 13.6856 4.47748L12.0758 4.50557L11.4443 3.56059C11.3754 3.45754 11.2637 3.39117 11.1403 3.38002C11.017 3.36894 10.895 3.41406 10.8087 3.50304L9.79826 4.54571L10.3128 2.15507C10.3388 2.03391 10.3087 1.90745 10.2308 1.81106C10.153 1.71464 10.0357 1.65862 9.91179 1.65862H8.77467L7.8986 0.303652C7.823 0.186813 7.69333 0.116211 7.55415 0.116211C7.41497 0.116211 7.28528 0.186813 7.2097 0.303652L6.33361 1.65862H5.19644C5.07252 1.65862 4.95524 1.71464 4.87736 1.81106C4.79949 1.90745 4.76938 2.03391 4.79547 2.15507L5.31 4.54573L4.29943 3.50304C4.21316 3.41403 4.09131 3.36875 3.96788 3.38002C3.84446 3.3912 3.7327 3.45759 3.66385 3.56062L3.03248 4.50557L1.42267 4.47748C1.42027 4.47748 1.41789 4.47743 1.41548 4.47743C1.27885 4.47743 1.15096 4.54552 1.07475 4.65932C0.997178 4.77507 0.983724 4.92231 1.03899 5.05025L1.67894 6.53149L1.04716 7.47688C0.978283 7.57993 0.959744 7.70859 0.996631 7.8269C1.03352 7.94522 1.12195 8.04051 1.23717 8.08612L4.77349 9.48653L4.47213 10.6596C4.43746 10.7945 4.47366 10.9378 4.56824 11.04C4.6628 11.1423 4.80285 11.1897 4.94006 11.1656L7.144 10.7803V13.7061C7.144 13.9326 7.32764 14.1162 7.55415 14.1162C7.78067 14.1162 7.96431 13.9326 7.96431 13.7061V10.7803L10.1682 11.1657C10.1918 11.1698 10.2154 11.1718 10.2389 11.1718C10.3522 11.1718 10.4617 11.1248 10.54 11.0401C10.6346 10.9378 10.6708 10.7945 10.6361 10.6596L10.3348 9.48659L13.8711 8.08618C13.9863 8.04054 14.0747 7.94527 14.1116 7.82696C14.1485 7.70861 14.1299 7.57996 14.0611 7.4769Z" fill="#FF2323"/>
<path d="M14.0611 7.4769L13.4294 6.53149L14.0693 5.05025C14.1245 4.92231 14.1111 4.77509 14.0335 4.65929C13.9573 4.54552 13.8294 4.47743 13.6928 4.47743C13.6904 4.47743 13.688 4.47748 13.6856 4.47748L12.0758 4.50557L11.4444 3.56059C11.3755 3.45754 11.2638 3.39117 11.1403 3.38002C11.017 3.36894 10.895 3.41406 10.8088 3.50304L9.7983 4.54571L10.3128 2.15507C10.3389 2.03391 10.3088 1.90745 10.2309 1.81106C10.153 1.71464 10.0357 1.65862 9.91183 1.65862H8.77471L7.89865 0.303652C7.82304 0.186813 7.69338 0.116211 7.5542 0.116211V14.1162C7.78071 14.1162 7.96436 13.9326 7.96436 13.7061V10.7803L10.1682 11.1657C10.1918 11.1698 10.2155 11.1718 10.2389 11.1718C10.3522 11.1718 10.4617 11.1248 10.5401 11.0401C10.6346 10.9378 10.6708 10.7945 10.6362 10.6596L10.3349 9.48659L13.8711 8.08618C13.9863 8.04054 14.0748 7.94527 14.1117 7.82696C14.1486 7.70861 14.13 7.57996 14.0611 7.4769Z" fill="#FF2323"/>
</svg>
