<svg width="31" height="31" viewBox="0 0 31 31" fill="none" xmlns="http://www.w3.org/2000/svg">
<path fill-rule="evenodd" clip-rule="evenodd" d="M22.1768 4.771H8.18899C4.80522 4.771 2.68359 7.16693 2.68359 10.5575V19.7074C2.68359 23.0993 4.79441 25.4939 8.18899 25.4939H22.1755C25.5715 25.4939 27.6836 23.0993 27.6836 19.7074V10.5575C27.6836 7.16693 25.5715 4.771 22.1768 4.771Z" stroke="#1F6A84" stroke-width="1.5" stroke-linecap="round" stroke-linejoin="round"/>
<path fill-rule="evenodd" clip-rule="evenodd" d="M16.7853 15.1325C16.7853 17.3918 14.9529 19.2243 12.6934 19.2243C10.434 19.2243 8.60156 17.3918 8.60156 15.1325C8.60156 12.873 10.434 11.0405 12.6934 11.0405C14.9529 11.0405 16.7853 12.873 16.7853 15.1325Z" stroke="#1F6A84" stroke-width="1.5" stroke-linecap="round" stroke-linejoin="round"/>
<path fill-rule="evenodd" clip-rule="evenodd" d="M21.7659 15.1325C21.7659 17.3918 19.9334 19.2243 17.6739 19.2243C15.4145 19.2243 13.582 17.3918 13.582 15.1325C13.582 12.873 15.4145 11.0405 17.6739 11.0405C19.9334 11.0405 21.7659 12.873 21.7659 15.1325Z" stroke="#1F6A84" stroke-width="1.5" stroke-linecap="round" stroke-linejoin="round"/>
</svg>
