<svg width="35" height="24" viewBox="0 0 35 24" fill="none" xmlns="http://www.w3.org/2000/svg">
<rect x="1" y="0.5" width="33" height="23" rx="3.5" fill="white"/>
<rect x="1" y="0.5" width="33" height="23" rx="3.5" stroke="#F2F4F7"/>
<path fill-rule="evenodd" clip-rule="evenodd" d="M17.679 16.8288C16.4949 17.8268 14.959 18.4293 13.2807 18.4293C9.53582 18.4293 6.5 15.4296 6.5 11.7293C6.5 8.02899 9.53582 5.0293 13.2807 5.0293C14.959 5.0293 16.4949 5.63179 17.679 6.62984C18.863 5.63179 20.3989 5.0293 22.0773 5.0293C25.8221 5.0293 28.858 8.02899 28.858 11.7293C28.858 15.4296 25.8221 18.4293 22.0773 18.4293C20.3989 18.4293 18.863 17.8268 17.679 16.8288Z" fill="#ED0006"/>
<path fill-rule="evenodd" clip-rule="evenodd" d="M17.6787 16.8288C19.1366 15.5999 20.0611 13.7713 20.0611 11.7293C20.0611 9.68734 19.1366 7.85874 17.6787 6.62984C18.8628 5.63179 20.3987 5.0293 22.077 5.0293C25.8219 5.0293 28.8577 8.02899 28.8577 11.7293C28.8577 15.4296 25.8219 18.4293 22.077 18.4293C20.3987 18.4293 18.8628 17.8268 17.6787 16.8288Z" fill="#F9A000"/>
<path fill-rule="evenodd" clip-rule="evenodd" d="M17.6793 16.8278C19.1372 15.5989 20.0616 13.7703 20.0616 11.7283C20.0616 9.6864 19.1372 7.85781 17.6793 6.62891C16.2213 7.85781 15.2969 9.6864 15.2969 11.7283C15.2969 13.7703 16.2213 15.5989 17.6793 16.8278Z" fill="#FF5E00"/>
</svg>
