<svg width="25" height="24" viewBox="0 0 25 24" fill="none" xmlns="http://www.w3.org/2000/svg">
<path d="M18.6299 6V10M18.6299 6H14.6299M18.6299 6L16.2965 8.33333L14.6299 10M6.62988 18V14M6.62988 18H10.6299M6.62988 18L8.96322 15.6667L10.6299 14M10.6299 22H14.6299C17.4301 22 18.8303 22 19.8998 21.455C20.8406 20.9757 21.6055 20.2108 22.0849 19.27C22.6299 18.2004 22.6299 16.8003 22.6299 14V10C22.6299 7.19974 22.6299 5.79961 22.0849 4.73005C21.6055 3.78924 20.8406 3.02433 19.8998 2.54497C18.8303 2 17.4301 2 14.6299 2H10.6299C7.82962 2 6.42949 2 5.35993 2.54497C4.41912 3.02433 3.65422 3.78924 3.17485 4.73005C2.62988 5.79961 2.62988 7.19974 2.62988 10V14C2.62988 16.8003 2.62988 18.2004 3.17485 19.27C3.65422 20.2108 4.41912 20.9757 5.35993 21.455C6.42949 22 7.82962 22 10.6299 22Z" stroke="#263682" stroke-width="1.5" stroke-linecap="round" stroke-linejoin="round"/>
</svg>
