<svg width="17" height="17" viewBox="0 0 17 17" fill="none" xmlns="http://www.w3.org/2000/svg">
<g id="Money_Solid_16px">
<g id="Vector">
<path fill-rule="evenodd" clip-rule="evenodd" d="M14.401 4.93454C14.3063 4.9017 14.2115 4.97503 14.2115 5.07525V9.56472C14.2115 11.4814 12.8625 12.874 11.0048 12.874H3.9048C3.80455 12.874 3.7312 12.9689 3.76335 13.0638C4.09181 14.0341 4.92274 14.6428 6.04548 14.6428H13.5351C14.9959 14.6428 15.978 13.6209 15.978 12.0996V7.32711C15.978 6.15415 15.3582 5.26646 14.401 4.93454Z" fill="#12B76A"/>
<path fill-rule="evenodd" clip-rule="evenodd" d="M7.26019 6.27808C6.7638 6.27808 6.35856 6.68331 6.35856 7.18279C6.35856 7.67689 6.7638 8.07906 7.26019 8.07906C7.75582 8.07906 8.16029 7.67689 8.16029 7.18279C8.16029 6.68331 7.75582 6.27808 7.26019 6.27808Z" fill="#12B76A"/>
<path fill-rule="evenodd" clip-rule="evenodd" d="M10.0856 5.46641C9.76846 5.46641 9.51106 5.20902 9.51106 4.89188C9.51106 4.57473 9.76846 4.31734 10.0856 4.31734H10.9911C11.3082 4.31734 11.5656 4.57473 11.5656 4.89188C11.5656 5.20902 11.3082 5.46641 10.9911 5.46641H10.0856ZM7.26043 9.22772C6.12976 9.22772 5.20974 8.31076 5.20974 7.18238C5.20974 6.05014 6.12976 5.12935 7.26043 5.12935C8.38958 5.12935 9.30883 6.05014 9.30883 7.18238C9.30883 8.31076 8.38958 9.22772 7.26043 9.22772ZM4.4322 10.0466H3.52751C3.21036 10.0466 2.95297 9.79 2.95297 9.47209C2.95297 9.15494 3.21036 8.89755 3.52751 8.89755H4.4322C4.74935 8.89755 5.00674 9.15494 5.00674 9.47209C5.00674 9.79 4.74935 10.0466 4.4322 10.0466ZM13.4455 9.56478V4.79229C13.4455 3.27093 12.4649 2.24902 11.0056 2.24902H3.50912C2.07355 2.24902 1.0708 3.29467 1.0708 4.79229V9.56478C1.0708 11.0624 2.07355 12.108 3.50912 12.108H11.0049C12.4642 12.108 13.4455 11.0861 13.4455 9.56478Z" fill="#12B76A"/>
</g>
</g>
</svg>
