<svg width="30" height="30" viewBox="0 0 30 30" fill="none" xmlns="http://www.w3.org/2000/svg">
<g id="Money_Outline_24px">
<path id="Vector" d="M5.55437 3.99805H20.1871C22.6622 3.99805 24.2015 5.74404 24.2015 8.21606V17.5295C24.2015 20.0015 22.6622 21.7489 20.1858 21.7489H5.55437C3.08088 21.7489 1.5415 20.0015 1.5415 17.5295V8.21606C1.5415 5.74404 3.08816 3.99805 5.55437 3.99805Z" stroke="#027547" stroke-width="1.5" stroke-linecap="round" stroke-linejoin="round"/>
<path id="Vector_2" d="M24.1967 8.24805H24.4513C26.9204 8.24805 28.4584 9.99839 28.4584 12.4675V21.781C28.4584 24.2515 26.9204 26.0004 24.4368 26.0004H9.81699C7.33332 26.0004 5.79395 24.2515 5.79395 21.781" stroke="#027547" stroke-width="1.5" stroke-linecap="round" stroke-linejoin="round"/>
<path id="Vector_3" d="M5.58936 17.3418H7.35572" stroke="#027547" stroke-width="1.5" stroke-linecap="round" stroke-linejoin="round"/>
<path id="Vector_4" fill-rule="evenodd" clip-rule="evenodd" d="M15.7542 12.8736C15.7542 11.2833 14.4651 9.99414 12.8747 9.99414C11.283 9.99414 9.9939 11.2833 9.9939 12.8736C9.9939 14.4638 11.283 15.753 12.8747 15.753C14.4651 15.753 15.7542 14.4638 15.7542 12.8736Z" stroke="#027547" stroke-width="1.5" stroke-linecap="round" stroke-linejoin="round"/>
<path id="Vector_5" d="M20.1575 8.4043H18.3911" stroke="#027547" stroke-width="1.5" stroke-linecap="round" stroke-linejoin="round"/>
</g>
</svg>
