<svg width="17" height="17" viewBox="0 0 17 17" fill="none" xmlns="http://www.w3.org/2000/svg">
<g clip-path="url(#clip0_3239_3572)">
<path fill-rule="evenodd" clip-rule="evenodd" d="M14.2349 4.59485C14.1402 4.56201 14.0454 4.63535 14.0454 4.73557V9.22504C14.0454 11.1417 12.6964 12.5344 10.8387 12.5344H3.7387C3.63846 12.5344 3.56511 12.6292 3.59725 12.7241C3.92571 13.6945 4.75664 14.3032 5.87938 14.3032H13.369C14.8298 14.3032 15.8119 13.2812 15.8119 11.7599V6.98743C15.8119 5.81447 15.1921 4.92678 14.2349 4.59485Z" fill="#3CAF77"/>
<path fill-rule="evenodd" clip-rule="evenodd" d="M7.09401 5.93848C6.59762 5.93848 6.19238 6.34371 6.19238 6.84319C6.19238 7.33729 6.59762 7.73946 7.09401 7.73946C7.58964 7.73946 7.99411 7.33729 7.99411 6.84319C7.99411 6.34371 7.58964 5.93848 7.09401 5.93848Z" fill="#3CAF77"/>
<path fill-rule="evenodd" clip-rule="evenodd" d="M9.91958 5.12657C9.60244 5.12657 9.34505 4.86918 9.34505 4.55203C9.34505 4.23489 9.60244 3.9775 9.91958 3.9775H10.825C11.1422 3.9775 11.3996 4.23489 11.3996 4.55203C11.3996 4.86918 11.1422 5.12657 10.825 5.12657H9.91958ZM7.09441 8.88788C5.96374 8.88788 5.04372 7.97092 5.04372 6.84254C5.04372 5.71029 5.96374 4.78951 7.09441 4.78951C8.22356 4.78951 9.14281 5.71029 9.14281 6.84254C9.14281 7.97092 8.22356 8.88788 7.09441 8.88788ZM4.26619 9.70678H3.36149C3.04435 9.70678 2.78696 9.45015 2.78696 9.13224C2.78696 8.8151 3.04435 8.55771 3.36149 8.55771H4.26619C4.58333 8.55771 4.84072 8.8151 4.84072 9.13224C4.84072 9.45015 4.58333 9.70678 4.26619 9.70678ZM13.2795 9.22494V4.45245C13.2795 2.93108 12.2989 1.90918 10.8396 1.90918H3.3431C1.90754 1.90918 0.904785 2.95483 0.904785 4.45245V9.22494C0.904785 10.7226 1.90754 11.7682 3.3431 11.7682H10.8388C12.2981 11.7682 13.2795 10.7463 13.2795 9.22494Z" fill="#3CAF77"/>
</g>
<defs>
<clipPath id="clip0_3239_3572">
<rect width="16" height="16" fill="white" transform="translate(0.358398 0.106445)"/>
</clipPath>
</defs>
</svg>
