<svg width="17" height="16" viewBox="0 0 17 16" fill="none" xmlns="http://www.w3.org/2000/svg">
<g id="Location_Solid">
<g id="Vector">
<path fill-rule="evenodd" clip-rule="evenodd" d="M8.49999 0.833984C5.65601 0.833984 3.33332 2.90041 3.33332 5.86736C3.33332 8.11945 4.31336 9.77625 5.42894 10.8626C5.98473 11.4038 6.57704 11.8069 7.10622 12.0767C7.61827 12.3377 8.1237 12.5007 8.49999 12.5007C8.87628 12.5007 9.38171 12.3377 9.89376 12.0767C10.4229 11.8069 11.0153 11.4038 11.571 10.8626C12.6866 9.77625 13.6667 8.11945 13.6667 5.86736C13.6667 2.90041 11.344 0.833984 8.49999 0.833984ZM9.83332 5.33398C9.83332 6.07036 9.23637 6.66732 8.49999 6.66732C7.76361 6.66732 7.16666 6.07036 7.16666 5.33398C7.16666 4.5976 7.76361 4.00065 8.49999 4.00065C9.23637 4.00065 9.83332 4.5976 9.83332 5.33398Z" fill="#263682"/>
<path fill-rule="evenodd" clip-rule="evenodd" d="M3.5652 11.994C3.9297 11.8557 4.11307 11.4481 3.97478 11.0836C3.83649 10.7191 3.4289 10.5357 3.06441 10.674C2.56158 10.8648 2.10882 11.0995 1.76896 11.3889C1.43278 11.6752 1.12744 12.0877 1.12744 12.6206C1.12744 13.2379 1.53294 13.6912 1.94257 13.9885C2.36789 14.2972 2.93791 14.5459 3.57877 14.7426C4.86916 15.1388 6.60891 15.3732 8.49999 15.3732C10.3911 15.3732 12.1308 15.1388 13.4212 14.7426C14.0621 14.5459 14.6321 14.2972 15.0574 13.9885C15.467 13.6912 15.8725 13.2379 15.8725 12.6206C15.8725 12.0877 15.5672 11.6752 15.231 11.3889C14.8912 11.0995 14.4384 10.8648 13.9356 10.674C13.5711 10.5357 13.1635 10.7191 13.0252 11.0836C12.8869 11.4481 13.0703 11.8557 13.4348 11.994C13.8585 12.1547 14.1464 12.3196 14.3157 12.4637C14.4089 12.5431 14.4438 12.5957 14.4561 12.6202C14.4411 12.6507 14.3903 12.7283 14.2281 12.846C13.9787 13.027 13.5724 13.2194 13.0069 13.393C11.8844 13.7377 10.2908 13.9614 8.49999 13.9614C6.70917 13.9614 5.11559 13.7377 3.99312 13.393C3.42755 13.2194 3.02126 13.027 2.77188 12.846C2.60972 12.7283 2.55889 12.6507 2.54386 12.6202C2.55622 12.5957 2.5911 12.5431 2.68428 12.4637C2.85353 12.3196 3.14151 12.1547 3.5652 11.994Z" fill="#263682"/>
</g>
</g>
</svg>
