<svg width="24" height="25" viewBox="0 0 24 25" fill="none" xmlns="http://www.w3.org/2000/svg">
<path d="M16.6277 6.4873C18.7643 6.75097 20.0641 8.41471 20.0641 10.6963V17.4135C20.0641 19.9043 18.5094 21.6682 16.0186 21.6682H7.98302C5.49227 21.6682 3.9375 19.9043 3.9375 17.4135V10.6963C3.9375 8.42347 5.23736 6.7607 7.3652 6.49703M11.9944 9.23199V11.0864M9.38442 14.3701H14.6072M8.33594 17.7279H15.6554M14.14 4.28968C14.2879 4.66134 14.1964 5.08555 13.9094 5.36381C13.9094 5.36381 13.457 5.7024 13.3859 5.86975C13.2954 6.08379 13.2818 6.58973 13.3859 6.79697C13.491 7.00712 14.137 7.3603 14.137 7.3603C14.5282 7.65413 14.7588 8.11531 14.7588 8.6047C14.7588 8.95107 14.4776 9.23128 14.1312 9.23128H9.85802C9.51165 9.23128 9.23047 8.95107 9.23047 8.6047C9.23047 8.11531 9.46106 7.65413 9.85218 7.3603C9.85218 7.3603 10.4982 7.00712 10.6033 6.79697C10.7074 6.58973 10.6938 6.08379 10.6033 5.86975C10.5323 5.7024 10.0799 5.36381 10.0799 5.36381C9.79283 5.08555 9.70235 4.66134 9.84926 4.28968C9.9991 3.91412 10.362 3.66699 10.7668 3.66699H13.2225C13.6272 3.66699 13.9911 3.91412 14.14 4.28968Z" stroke="#263682" stroke-width="1.5" stroke-linecap="round" stroke-linejoin="round"/>
</svg>
