<svg width="17" height="17" viewBox="0 0 17 17" fill="none" xmlns="http://www.w3.org/2000/svg">
<path fill-rule="evenodd" clip-rule="evenodd" d="M8.15844 0.939941C5.31445 0.939941 2.99177 3.00636 2.99177 5.97332C2.99177 8.22541 3.97181 9.88221 5.08739 10.9686C5.64318 11.5098 6.23549 11.9128 6.76467 12.1826C7.27672 12.4437 7.78215 12.6066 8.15844 12.6066C8.53473 12.6066 9.04016 12.4437 9.55221 12.1826C10.0814 11.9128 10.6737 11.5098 11.2295 10.9686C12.3451 9.88221 13.3251 8.22541 13.3251 5.97332C13.3251 3.00636 11.0024 0.939941 8.15844 0.939941ZM9.49177 5.43994C9.49177 6.17632 8.89482 6.77327 8.15844 6.77327C7.42206 6.77327 6.8251 6.17632 6.8251 5.43994C6.8251 4.70356 7.42206 4.10661 8.15844 4.10661C8.89482 4.10661 9.49177 4.70356 9.49177 5.43994Z" fill="#914BEB"/>
<path fill-rule="evenodd" clip-rule="evenodd" d="M3.22365 12.0999C3.58815 11.9616 3.77152 11.554 3.63323 11.1895C3.49494 10.825 3.08735 10.6417 2.72285 10.78C2.22003 10.9707 1.76726 11.2054 1.42741 11.4948C1.09122 11.7811 0.785889 12.1936 0.785889 12.7265C0.785889 13.3439 1.19139 13.7971 1.60102 14.0945C2.02634 14.4032 2.59636 14.6518 3.23722 14.8486C4.52761 15.2448 6.26736 15.4792 8.15844 15.4792C10.0495 15.4792 11.7893 15.2448 13.0797 14.8486C13.7205 14.6518 14.2905 14.4032 14.7159 14.0945C15.1255 13.7971 15.531 13.3439 15.531 12.7265C15.531 12.1936 15.2257 11.7811 14.8895 11.4948C14.5496 11.2054 14.0968 10.9707 13.594 10.78C13.2295 10.6417 12.8219 10.825 12.6836 11.1895C12.5454 11.554 12.7287 11.9616 13.0932 12.0999C13.5169 12.2607 13.8049 12.4256 13.9742 12.5697C14.0673 12.649 14.1022 12.7016 14.1146 12.7261C14.0995 12.7567 14.0487 12.8342 13.8866 12.952C13.6372 13.133 13.2309 13.3254 12.6653 13.499C11.5428 13.8436 9.94926 14.0674 8.15844 14.0674C6.36761 14.0674 4.77404 13.8436 3.65156 13.499C3.08599 13.3254 2.67971 13.133 2.43032 12.952C2.26816 12.8342 2.21733 12.7567 2.20231 12.7261C2.21466 12.7016 2.24955 12.649 2.34273 12.5697C2.51198 12.4256 2.79996 12.2607 3.22365 12.0999Z" fill="#914BEB"/>
</svg>
