<svg width="24" height="25" viewBox="0 0 24 25" fill="none" xmlns="http://www.w3.org/2000/svg">
<g clip-path="url(#clip0_1803_122509)">
<path d="M8.78046 20.9611C10.3482 20.9611 11.8473 19.6909 12.122 18.1231C12.3966 16.5554 11.3553 15.2852 9.77605 15.2852C8.19684 15.2852 6.70919 16.5554 6.43454 18.1231C6.1599 19.6909 7.20126 20.9611 8.78046 20.9611Z" stroke="#263682" stroke-width="1.25" stroke-linecap="round" stroke-linejoin="round"/>
<path d="M16.6063 13.649L9.61428 10.708M8.0791 12.91L11.3995 15.8461" stroke="#263682" stroke-width="1.25" stroke-linecap="round" stroke-linejoin="round"/>
<path d="M9.61523 18.1245H16.4699C16.4699 18.1245 18.4611 15.1491 22.3862 14.0277C24.2057 13.5127 23.3246 9.88513 20.498 9.03831C19.9258 8.86666 19.2621 9.38161 19.2621 9.99956C19.2621 10.8006 19.2278 11.8191 18.976 12.4943" stroke="#263682" stroke-width="1.25" stroke-linecap="round" stroke-linejoin="round"/>
<path d="M13.7129 12.4823C13.6213 11.8758 15.1433 9.32387 18.9998 10.9603" stroke="#263682" stroke-width="1.25" stroke-linecap="round" stroke-linejoin="round"/>
<path d="M19.2961 18.2726L18.209 16.4531" stroke="#263682" stroke-width="1.25" stroke-linecap="round" stroke-linejoin="round"/>
<path d="M19.583 15.2868C19.6631 15.2754 19.7432 15.2754 19.8233 15.2754C21.391 15.2754 22.4438 16.5571 22.1692 18.1134C21.8945 19.6697 20.384 20.9628 18.8162 20.9628C17.2485 20.9628 16.1957 19.6811 16.4703 18.1134" stroke="#263682" stroke-width="1.25" stroke-linecap="round" stroke-linejoin="round"/>
<path d="M12.1631 10.7334L13.359 7.92977C13.8432 6.79467 13.2401 5.48984 12.0618 5.12314L6.44015 3.37367C5.3705 3.04079 4.22911 3.61337 3.85642 4.66981L3.28215 6.29766C2.93724 7.27536 3.51547 8.33644 4.52404 8.57657V8.57657" stroke="#263682" stroke-width="1.25" stroke-linecap="round"/>
<path d="M7.57654 10.6396H3.25293" stroke="#263682" stroke-width="1.25" stroke-linecap="round" stroke-linejoin="round"/>
<path d="M5.89918 12.8818H0.666992" stroke="#263682" stroke-width="1.25" stroke-linecap="round" stroke-linejoin="round"/>
<path d="M9.77573 15.2871H3.25293" stroke="#263682" stroke-width="1.25" stroke-linecap="round" stroke-linejoin="round"/>
<path d="M6.43455 18.125H4.80957" stroke="#263682" stroke-width="1.25" stroke-linecap="round" stroke-linejoin="round"/>
</g>
<defs>
<clipPath id="clip0_1803_122509">
<rect width="24" height="24" fill="white" transform="translate(0.00195312 0.5)"/>
</clipPath>
</defs>
</svg>
