<svg width="23" height="20" viewBox="0 0 23 20" fill="none" xmlns="http://www.w3.org/2000/svg">
<g id="Group">
<path id="Vector" d="M7.09833 18.5783C8.66609 18.5783 10.1652 17.3081 10.4398 15.7403C10.7145 14.1726 9.67312 12.9023 8.09392 12.9023C6.51471 12.9023 5.02706 14.1726 4.75241 15.7403C4.47777 17.3081 5.51913 18.5783 7.09833 18.5783Z" stroke="#263682" stroke-width="1.25" stroke-linecap="round" stroke-linejoin="round"/>
<path id="Vector_2" d="M14.9241 11.2652L7.93215 8.32422M6.39697 10.5262L9.71734 13.4624" stroke="#263682" stroke-width="1.25" stroke-linecap="round" stroke-linejoin="round"/>
<path id="Vector_3" d="M7.93311 15.7426H14.7878C14.7878 15.7426 16.7789 12.7673 20.7041 11.6458C22.5236 11.1309 21.6424 7.50329 18.8159 6.65647C18.2437 6.48482 17.58 6.99978 17.58 7.61773C17.58 8.41877 17.5457 9.43725 17.2939 10.1124" stroke="#263682" stroke-width="1.25" stroke-linecap="round" stroke-linejoin="round"/>
<path id="Vector_4" d="M12.0302 10.1004C11.9387 9.49394 13.4607 6.94203 17.3172 8.57845" stroke="#263682" stroke-width="1.25" stroke-linecap="round" stroke-linejoin="round"/>
<path id="Vector_5" d="M17.614 15.8898L16.5269 14.0703" stroke="#263682" stroke-width="1.25" stroke-linecap="round" stroke-linejoin="round"/>
<path id="Vector_6" d="M17.9008 12.904C17.9809 12.8926 18.061 12.8926 18.1411 12.8926C19.7089 12.8926 20.7617 14.1743 20.4871 15.7306C20.2124 17.2869 18.7019 18.58 17.1341 18.58C15.5664 18.58 14.5135 17.2983 14.7882 15.7306" stroke="#263682" stroke-width="1.25" stroke-linecap="round" stroke-linejoin="round"/>
<path id="Vector 219" d="M10.4809 8.35064L11.6768 5.54696C12.161 4.41186 11.5579 3.10703 10.3796 2.74033L4.75802 0.990856C3.68837 0.657976 2.54698 1.23056 2.17429 2.28699L1.60002 3.91485C1.25511 4.89255 1.83334 5.95363 2.84191 6.19375V6.19375" stroke="#263682" stroke-width="1.25" stroke-linecap="round"/>
</g>
</svg>
