<svg width="25" height="25" viewBox="0 0 25 25" fill="none" xmlns="http://www.w3.org/2000/svg">
<g id="Minimize">
<path id="Vector" d="M2.18213 10.6172C2.18213 7.81692 2.18213 6.41679 2.7271 5.34723C3.20646 4.40642 3.97137 3.64152 4.91218 3.16215C5.98174 2.61719 7.38187 2.61719 10.1821 2.61719H14.1821C16.9824 2.61719 18.3825 2.61719 19.4521 3.16215C20.3929 3.64152 21.1578 4.40642 21.6372 5.34723C22.1821 6.41679 22.1821 7.81692 22.1821 10.6172V14.6172C22.1821 17.4175 22.1821 18.8176 21.6372 19.8871C21.1578 20.828 20.3929 21.5929 19.4521 22.0722C18.3825 22.6172 16.9824 22.6172 14.1821 22.6172H10.1821C7.38187 22.6172 5.98174 22.6172 4.91218 22.0722C3.97137 21.5929 3.20646 20.828 2.7271 19.8871C2.18213 18.8176 2.18213 17.4175 2.18213 14.6172V10.6172Z" stroke="#263682" stroke-width="1.5" stroke-linecap="round" stroke-linejoin="round"/>
<path id="Vector_2" d="M10.1821 14.6172L10.1821 18.6172M10.1821 14.6172L6.18213 14.6172M10.1821 14.6172L6.18213 18.6172" stroke="#263682" stroke-width="1.5" stroke-linecap="round" stroke-linejoin="round"/>
<path id="Vector_3" d="M14.1821 10.6172L14.1821 6.61719M14.1821 10.6172L18.1821 10.6172M14.1821 10.6172L18.1821 6.61719" stroke="#263682" stroke-width="1.5" stroke-linecap="round" stroke-linejoin="round"/>
</g>
</svg>
