<svg width="25" height="24" viewBox="0 0 25 24" fill="none" xmlns="http://www.w3.org/2000/svg">
<path d="M20.3188 17C21.7086 17.5273 22.541 18.1987 22.541 18.9299C22.541 20.6255 18.0639 22 12.541 22C7.01817 22 2.54102 20.6255 2.54102 18.9299C2.54102 18.1987 3.37346 17.5273 4.76324 17M14.541 8C14.541 9.10457 13.6456 10 12.541 10C11.4364 10 10.541 9.10457 10.541 8C10.541 6.89543 11.4364 6 12.541 6C13.6456 6 14.541 6.89543 14.541 8ZM12.541 18C14.0966 18 19.541 15.0816 19.541 8.80006C19.541 4.80003 16.4299 2 12.541 2C8.65213 2 5.54102 4.80003 5.54102 8.80006C5.54102 15.0816 10.9855 18 12.541 18Z" stroke="#263682" stroke-width="1.5" stroke-linecap="round" stroke-linejoin="round"/>
</svg>
