<svg width="93" height="16" viewBox="0 0 93 16" fill="none" xmlns="http://www.w3.org/2000/svg">
<path d="M0.5 8C0.5 5.79086 2.29086 4 4.5 4C6.70914 4 8.5 5.79086 8.5 8C8.5 10.2091 6.70914 12 4.5 12C2.29086 12 0.5 10.2091 0.5 8Z" fill="#E4E6F2"/>
<rect x="22.5" y="2" width="24" height="12" rx="6" fill="#4659B5" stroke="#E4E6F2" stroke-width="4"/>
<path d="M60.5 8C60.5 5.79086 62.2909 4 64.5 4C66.7091 4 68.5 5.79086 68.5 8C68.5 10.2091 66.7091 12 64.5 12C62.2909 12 60.5 10.2091 60.5 8Z" fill="#E4E6F2"/>
<path d="M84.5 8C84.5 5.79086 86.2909 4 88.5 4C90.7091 4 92.5 5.79086 92.5 8C92.5 10.2091 90.7091 12 88.5 12C86.2909 12 84.5 10.2091 84.5 8Z" fill="#E4E6F2"/>
</svg>
