<svg width="16" height="17" viewBox="0 0 16 17" fill="none" xmlns="http://www.w3.org/2000/svg">
<g id="phone_16px">
<path id="Vector" d="M3.39252 1.33398C2.54694 1.33398 2.12415 1.33398 1.77181 1.51469C1.4328 1.68856 1.11428 2.0477 0.982155 2.40506C0.844834 2.77645 0.889392 3.14677 0.978507 3.88741C1.21161 5.82475 1.74997 7.70207 2.76486 9.42147C3.77588 11.1343 5.1567 12.5466 6.84178 13.5922C8.6208 14.6961 10.5838 15.2761 12.6135 15.5214C13.3536 15.6108 13.7236 15.6555 14.0952 15.5183C14.4526 15.3863 14.8121 15.0676 14.986 14.7286C15.1668 14.3762 15.1668 13.9536 15.1668 13.1083C15.1668 12.4243 15.1668 12.0823 15.0549 11.795C14.9384 11.4963 14.7369 11.2382 14.4753 11.0528C14.2239 10.8745 13.8921 10.7916 13.2285 10.6257L12.4938 10.442C11.7824 10.2642 11.4267 10.1752 11.0754 10.1827C10.7641 10.1894 10.4565 10.2514 10.167 10.3658C9.84019 10.495 9.54671 10.7147 8.95975 11.1542L8.26722 11.6728C7.84563 11.9884 7.63484 12.1463 7.37098 12.2094C7.16109 12.2596 6.87241 12.2489 6.66682 12.1833C6.40837 12.1007 6.24135 11.9552 5.90731 11.664C5.47951 11.2911 5.08172 10.8866 4.71574 10.4522C4.42034 10.1016 4.27265 9.92633 4.19533 9.65772C4.13388 9.44425 4.13379 9.14637 4.19509 8.93286C4.27223 8.6642 4.44762 8.45575 4.79839 8.03886L5.16675 7.60108C5.67246 7.00005 5.92532 6.69954 6.07658 6.35729C6.21053 6.0542 6.28586 5.72848 6.29857 5.39736C6.31292 5.02345 6.21766 4.64243 6.02716 3.88041L5.87514 3.27236C5.70924 2.60876 5.62629 2.27695 5.44803 2.02546C5.2626 1.76387 5.00454 1.56238 4.70578 1.44593C4.41856 1.33398 4.07655 1.33398 3.39252 1.33398Z" fill="#263682"/>
</g>
</svg>
