<svg width="49" height="49" viewBox="0 0 49 49" fill="none" xmlns="http://www.w3.org/2000/svg">
<path d="M15.4554 29.6509V35.5471C15.4554 39.5363 18.7052 42.7861 22.6944 42.7861H33.7279C37.7171 42.7861 40.9668 39.5363 40.9668 35.5471V14.0056C40.9668 12.0013 40.1495 10.211 38.8457 8.90721C37.5225 7.60343 35.7322 6.78613 33.7279 6.78613H22.6944" stroke="#263682" stroke-width="2.5" stroke-linecap="round" stroke-linejoin="round"/>
<path d="M28.2086 34.9005V34.8041M28.2086 34.2979C28.4852 34.2979 28.709 34.5219 28.709 34.7973C28.709 35.0739 28.4852 35.2979 28.2086 35.2979C27.9322 35.2979 27.7082 35.0739 27.7082 34.7973C27.7082 34.5219 27.9322 34.2979 28.2086 34.2979Z" stroke="#263682" stroke-width="2.5" stroke-linecap="round" stroke-linejoin="round"/>
<path d="M9.453 14.2633H16.3497M9.453 17.7117H12.9013M19.5536 25.4962V25.4962C20.7993 26.2436 22.3843 25.3463 22.3843 23.8935V17.7117C22.3843 12.9505 18.5246 9.09082 13.7634 9.09082H12.9013C8.61629 9.09082 5.14258 12.5645 5.14258 16.8496V16.8496C5.14258 21.1346 8.6163 24.6083 12.9013 24.6083H16.3482C17.4774 24.6083 18.5853 24.9152 19.5536 25.4962Z" stroke="#263682" stroke-width="2.5" stroke-linecap="round" stroke-linejoin="round"/>
</svg>
