<svg width="25" height="25" viewBox="0 0 25 25" fill="none" xmlns="http://www.w3.org/2000/svg">
<path d="M9.57014 8.09082C9.57014 9.96592 8.0569 11.4792 6.1818 11.4792C4.3067 11.4792 2.79346 9.96592 2.79346 8.09082" stroke="#263682" stroke-width="1.5" stroke-linecap="round" stroke-linejoin="round"/>
<path d="M16.347 8.09082C16.347 9.96592 14.8338 11.4792 12.9587 11.4792C11.0836 11.4792 9.57031 9.96592 9.57031 8.09082" stroke="#263682" stroke-width="1.5" stroke-linecap="round" stroke-linejoin="round"/>
<path d="M23.1234 8.09082C23.1234 9.96592 21.6101 11.4792 19.735 11.4792C17.8599 11.4792 16.3467 9.96592 16.3467 8.09082" stroke="#263682" stroke-width="1.5" stroke-linecap="round" stroke-linejoin="round"/>
<path d="M2.79346 8.09112L6.90552 2.08203H19.0114L23.1235 8.09112" stroke="#263682" stroke-width="1.5" stroke-linecap="round" stroke-linejoin="round"/>
<path d="M9.57031 8.09112L10.9191 2.08203" stroke="#263682" stroke-width="1.5" stroke-linecap="round" stroke-linejoin="round"/>
<path d="M16.347 8.09112L15.0859 2.08203" stroke="#263682" stroke-width="1.5" stroke-linecap="round" stroke-linejoin="round"/>
<path d="M4.42773 14.6482V19.6859C4.42773 21.3428 5.77088 22.6859 7.42773 22.6859H18.4901C20.1469 22.6859 21.4901 21.3428 21.4901 19.6859V11.3037" stroke="#263682" stroke-width="1.5" stroke-linecap="round" stroke-linejoin="round"/>
<path d="M17.3994 14.8018H8.52832V19.7472H17.3994V14.8018Z" stroke="#263682" stroke-width="1.5" stroke-linecap="round" stroke-linejoin="round"/>
</svg>
