<svg width="17" height="17" viewBox="0 0 17 17" fill="none" xmlns="http://www.w3.org/2000/svg">
<g id="Delivery Box 2 1">
<g id="Vector">
<path fill-rule="evenodd" clip-rule="evenodd" d="M7.02113 6.37054C6.93446 6.42305 6.93572 6.5492 7.0234 6.59996L8.7884 7.62186C8.8504 7.65772 8.92686 7.65772 8.9888 7.62186L13.956 4.74585C14.0299 4.7031 14.0453 4.60266 13.9834 4.54396C13.8825 4.44835 13.7722 4.36178 13.6493 4.28985L12.0795 3.38584C12.0375 3.36158 11.9855 3.36216 11.9439 3.38735L7.02113 6.37054Z" fill="#B985FD"/>
<path fill-rule="evenodd" clip-rule="evenodd" d="M5.77354 5.87626C5.8157 5.90068 5.86782 5.90017 5.90949 5.87491L10.8283 2.89348C10.9151 2.8409 10.9137 2.71456 10.8258 2.66392L9.86526 2.11054C9.2606 1.7572 8.50926 1.75787 7.90926 2.10987L4.12058 4.29054C3.99959 4.36171 3.89076 4.44706 3.79096 4.54131C3.72884 4.59997 3.74417 4.70058 3.8181 4.7434L5.77354 5.87626Z" fill="#B985FD"/>
<path fill-rule="evenodd" clip-rule="evenodd" d="M9.48367 8.49092C9.42187 8.52672 9.38387 8.59266 9.38387 8.66406V14.2595C9.38387 14.347 9.46693 14.4108 9.5492 14.381C9.65707 14.3419 9.7622 14.293 9.8632 14.2341L13.6519 12.0534C14.2539 11.7007 14.6279 11.0514 14.6279 10.3587V5.9854C14.6279 5.89649 14.619 5.80899 14.6048 5.72261C14.5903 5.63421 14.4909 5.59144 14.4133 5.63633L9.48367 8.49092Z" fill="#B985FD"/>
<path fill-rule="evenodd" clip-rule="evenodd" d="M8.38386 8.65866C8.38386 8.58732 8.34586 8.52139 8.28406 8.48559L6.54068 7.47599C6.4518 7.42446 6.34053 7.48859 6.34053 7.59132V8.49006C6.34053 8.76606 6.11653 8.99006 5.84053 8.99006C5.56453 8.99006 5.34053 8.76606 5.34053 8.49006V6.85759C5.34053 6.80999 5.31518 6.76604 5.274 6.7422L3.35852 5.6333C3.28116 5.58851 3.18204 5.63103 3.16762 5.71926C3.15332 5.80678 3.14453 5.89548 3.14453 5.98538V10.3587C3.14453 11.0507 3.51853 11.7001 4.1232 12.0541L7.9072 14.2334C8.00733 14.2916 8.1116 14.3405 8.2184 14.3797C8.30066 14.4099 8.38386 14.3461 8.38386 14.2584V8.65866Z" fill="#B985FD"/>
</g>
</g>
</svg>
