<svg width="21" height="21" viewBox="0 0 21 21" fill="none" xmlns="http://www.w3.org/2000/svg">
<g clip-path="url(#clip0_5533_62540)">
<path d="M2.05387 13.6081C3.32383 13.0798 5.83145 12.0036 7.12195 11.4674C6.33239 9.55369 5.55946 7.68004 4.75424 5.73107C5.39606 5.5031 5.98213 5.23698 6.59754 5.08924C7.31568 4.91802 7.93402 5.24383 8.46236 5.70661C9.67456 6.76817 10.8848 7.83267 12.0697 8.92452C12.3691 9.20044 12.6059 9.22588 12.964 9.06842C13.9942 8.61442 15.0274 8.16239 16.0861 7.77983C17.309 7.3376 19.0516 7.29259 19.484 8.83554C19.8254 10.0526 18.7776 11.0897 17.7444 11.5261C14.319 12.9702 10.8878 14.4036 7.437 15.789C4.97927 16.7742 3.0352 15.9132 1.99223 13.4682C1.89928 13.249 1.54119 12.3813 1.4502 12.1611" stroke="#263682" stroke-width="1.25" stroke-linecap="round" stroke-linejoin="round"/>
</g>
<defs>
<clipPath id="clip0_5533_62540">
<rect width="20" height="20" fill="white" transform="translate(0.5 0.616211)"/>
</clipPath>
</defs>
</svg>
