<svg width="25" height="24" viewBox="0 0 25 24" fill="none" xmlns="http://www.w3.org/2000/svg">
<g clip-path="url(#clip0_6276_18291)">
<path d="M12.8199 3.28711H15.3641C15.8687 3.28711 16.4385 3.66965 16.6303 4.13709L20.1989 12.8742C20.3966 13.3567 20.2698 13.9124 19.8815 14.2613L16.6374 17.1868C16.4094 17.3915 16.1141 17.5054 15.8083 17.5054H1.28418V14.5205C1.28418 12.3776 3.02135 10.6405 5.16432 10.6405H7.36545C8.33286 10.6405 9.21653 11.1893 9.64561 12.0566L10.4317 13.6485C10.7502 14.2915 11.406 14.6985 12.1235 14.6985H13.2711C14.0444 14.6985 14.6839 14.0985 14.7315 13.3276L14.6525 8.09631C14.6385 7.15214 15.399 6.38006 16.3431 6.38006H17.5467" stroke="#263682" stroke-width="1.5" stroke-linecap="round" stroke-linejoin="round"/>
<path d="M9.28428 17.5098C9.29468 17.5713 9.29468 17.6434 9.29468 17.7063C9.29468 19.369 7.94125 20.7119 6.28895 20.7119C4.62505 20.7119 3.2832 19.369 3.2832 17.7063C3.2832 17.6434 3.2832 17.5713 3.29367 17.5098" stroke="#263682" stroke-width="1.5" stroke-linecap="round" stroke-linejoin="round"/>
<path d="M19.3571 14.7422C20.8036 14.9597 21.9187 16.2084 21.9187 17.7073C21.9187 19.3701 20.5652 20.713 18.913 20.713C17.2501 20.713 15.9072 19.3701 15.9072 17.7073" stroke="#263682" stroke-width="1.5" stroke-linecap="round" stroke-linejoin="round"/>
<path d="M18.9125 17.726L17.6602 16.2656" stroke="#263682" stroke-width="1.5" stroke-linecap="round" stroke-linejoin="round"/>
<path d="M20.5195 13.0078C20.5195 13.0078 22.0299 13.1717 22.7973 14.3345" stroke="#263682" stroke-width="1.5" stroke-linecap="round" stroke-linejoin="round"/>
<path fill-rule="evenodd" clip-rule="evenodd" d="M21.4011 9.71835C20.3138 9.96839 18.9441 9.40094 18.6941 8.31374C18.4442 7.22656 19.4104 6.03124 20.4975 5.78125C21.6382 6.90099 21.9394 8.21259 21.4011 9.71835Z" stroke="#263682" stroke-width="1.5" stroke-linecap="round" stroke-linejoin="round"/>
<path d="M3.35918 3.44487L7.7614 3.43556C9.04156 3.43207 9.84042 4.33438 9.84389 5.61342L9.85202 8.44592C9.85441 9.72491 9.0602 10.6307 7.78 10.6342L3.37777 10.6423C2.09641 10.6459 1.29759 9.74355 1.29526 8.46452L1.28712 5.63202C1.28363 4.35299 2.08245 3.44719 3.35918 3.44487Z" stroke="#263682" stroke-width="1.5" stroke-linecap="round" stroke-linejoin="round"/>
<path d="M4.58984 6.00195H6.54911" stroke="#263682" stroke-width="1.5" stroke-linecap="round" stroke-linejoin="round"/>
</g>
<defs>
<clipPath id="clip0_6276_18291">
<rect width="24" height="24" fill="white" transform="translate(0.0410156)"/>
</clipPath>
</defs>
</svg>
