<svg width="31" height="30" viewBox="0 0 31 30" fill="none" xmlns="http://www.w3.org/2000/svg">
<path d="M22.7085 22.5H22.9085C24.5887 22.5 25.4287 22.5 26.0705 22.173C26.635 21.8854 27.0939 21.4265 27.3815 20.862C27.7085 20.2202 27.7085 19.3802 27.7085 17.7V14.8C27.7085 13.1198 27.7085 12.2798 27.3815 11.638C27.0939 11.0735 26.635 10.6146 26.0705 10.327C25.4287 10 24.5887 10 22.9085 10H7.5085C5.82834 10 4.98826 10 4.34652 10.327C3.78204 10.6146 3.3231 11.0735 3.03548 11.638C2.7085 12.2798 2.7085 13.1198 2.7085 14.8V17.7C2.7085 19.3802 2.7085 20.2202 3.03548 20.862C3.3231 21.4265 3.78204 21.8854 4.34652 22.173C4.98826 22.5 5.82834 22.5 7.5085 22.5H7.7085M22.7085 10V5.7C22.7085 4.5799 22.7085 4.01984 22.4905 3.59202C22.2988 3.21569 21.9928 2.90973 21.6165 2.71799C21.1887 2.5 20.6286 2.5 19.5085 2.5H10.9085C9.78839 2.5 9.22834 2.5 8.80052 2.71799C8.42419 2.90973 8.11823 3.21569 7.92648 3.59202C7.7085 4.01984 7.7085 4.57989 7.7085 5.7V10M6.4585 13.75H7.7085M10.9085 27.5H19.5085C20.6286 27.5 21.1887 27.5 21.6165 27.282C21.9928 27.0903 22.2988 26.7843 22.4905 26.408C22.7085 25.9802 22.7085 25.4201 22.7085 24.3V23.2C22.7085 22.0799 22.7085 21.5198 22.4905 21.092C22.2988 20.7157 21.9928 20.4097 21.6165 20.218C21.1887 20 20.6286 20 19.5085 20H10.9085C9.78839 20 9.22834 20 8.80052 20.218C8.42419 20.4097 8.11823 20.7157 7.92648 21.092C7.7085 21.5198 7.7085 22.0799 7.7085 23.2V24.3C7.7085 25.4201 7.7085 25.9802 7.92648 26.408C8.11823 26.7843 8.42419 27.0903 8.80052 27.282C9.22834 27.5 9.78839 27.5 10.9085 27.5Z" stroke="#263682" stroke-width="1.5" stroke-linecap="round" stroke-linejoin="round"/>
</svg>
