<svg width="24" height="24" viewBox="0 0 24 24" fill="none" xmlns="http://www.w3.org/2000/svg">
<path d="M12 12.5L21 7M12 12.5L3 7M12 12.5V22.5M2 9.71771V14.2823C2 15.2733 2 15.7688 2.14219 16.2141C2.26802 16.6081 2.47396 16.9718 2.74708 17.2824C3.05572 17.6334 3.48062 17.8884 4.33042 18.3983L9.53042 21.5183C10.4283 22.057 10.8773 22.3264 11.3565 22.4316C11.7805 22.5247 12.2195 22.5247 12.6435 22.4316C13.1227 22.3264 13.5717 22.057 14.4696 21.5183L19.6696 18.3983C20.5194 17.8884 20.9443 17.6334 21.2529 17.2824C21.526 16.9718 21.732 16.6081 21.8578 16.2141C22 15.7688 22 15.2733 22 14.2823V9.71771C22 8.72669 22 8.23117 21.8578 7.78593C21.732 7.39192 21.526 7.02818 21.2529 6.71757C20.9443 6.36657 20.5194 6.11163 19.6696 5.60175L14.4696 2.48175C13.5717 1.94301 13.1227 1.67364 12.6435 1.56839C12.2195 1.4753 11.7805 1.4753 11.3565 1.56839C10.8773 1.67364 10.4283 1.94301 9.53042 2.48175L4.33042 5.60175C3.48062 6.11163 3.05572 6.36657 2.74708 6.71757C2.47396 7.02818 2.26802 7.39192 2.14219 7.78593C2 8.23117 2 8.72669 2 9.71771Z" stroke="#263682" stroke-width="1.5" stroke-linecap="round" stroke-linejoin="round"/>
</svg>
