<svg width="22" height="22" viewBox="0 0 22 22" fill="none" xmlns="http://www.w3.org/2000/svg">
<path d="M19.1741 11.9921V19.4175C19.1741 20.307 18.5066 20.9746 17.617 20.9746H4.17723C3.28768 20.9746 2.62012 20.307 2.62012 19.4175V13.3833V12.0556C2.82015 12.0822 3.02539 12.1004 3.21724 12.1004C4.29183 12.1004 5.35336 11.7186 6.18558 11.1134L6.18561 11.1134L6.19149 11.109C6.54767 10.8419 6.86543 10.5628 7.13237 10.2378C7.71069 10.9655 8.46881 11.5009 9.36761 11.8005L9.37791 11.8039L9.38836 11.8069C9.91123 11.9563 10.4374 12.0319 10.9657 12.0319C12.0403 12.0319 13.1018 11.6501 13.934 11.0448L13.9341 11.0449L13.9399 11.0405C14.2939 10.775 14.61 10.4976 14.8759 10.1753C15.7725 11.3179 17.1505 12.0319 18.6456 12.0319C18.825 12.0319 19.0027 12.0158 19.1741 11.9921ZM15.0799 19.506C15.6659 19.506 16.2656 19.0398 16.2656 18.3203V14.069C16.2656 13.483 15.7994 12.8833 15.0799 12.8833H6.92005C6.3341 12.8833 5.73434 13.3495 5.73434 14.069V18.3203C5.73434 18.9063 6.20055 19.506 6.92005 19.506H15.0799Z" fill="#263682" stroke="#263682"/>
<path d="M12.5983 1.60286L12.6 1.61316L12.6021 1.62337L13.7563 7.12272C13.7551 7.15942 13.7527 7.19931 13.7496 7.24625L13.7489 7.25743C13.745 7.3176 13.74 7.39443 13.74 7.46915C13.74 7.54757 13.7438 7.67491 13.7882 7.81083C13.5995 8.3733 13.2708 8.83593 12.7954 9.20876C12.0211 9.74015 11.0915 9.90395 10.2325 9.61763L10.218 9.61279L10.2032 9.60885C9.38588 9.39089 8.74221 8.66736 8.50234 7.70787C8.48761 7.64894 8.47409 7.59669 8.46185 7.54938C8.41483 7.3676 8.38671 7.25891 8.38115 7.12516L9.60249 1.62913L9.60539 1.61607L9.60759 1.60286L9.65224 1.33496H12.5536L12.5983 1.60286Z" fill="#263682" stroke="#263682"/>
<path d="M2.2645 9.5234C1.38033 9.23276 0.713949 8.38401 0.570996 7.31813L4.67182 1.33496H7.21153L6.02023 6.76195L6.00861 6.81492V6.86916V6.86956V6.86996V6.87036V6.87075V6.87115V6.87154V6.87193V6.87232V6.87271V6.8731V6.87348V6.87387V6.87425V6.87463V6.87501V6.87539V6.87577V6.87614V6.87651V6.87689V6.87726V6.87763V6.878V6.87836V6.87873V6.87909V6.87945V6.87981V6.88017V6.88053V6.88089V6.88124V6.8816V6.88195V6.8823V6.88265V6.883V6.88335V6.88369V6.88404V6.88438V6.88472V6.88506V6.8854V6.88574V6.88608V6.88641V6.88675V6.88708V6.88741V6.88774V6.88807V6.8884V6.88873V6.88905V6.88937V6.8897V6.89002V6.89034V6.89066V6.89098V6.89129V6.89161V6.89192V6.89224V6.89255V6.89286V6.89317V6.89348V6.89379V6.89409V6.8944V6.8947V6.89501V6.89531V6.89561V6.89591V6.89621V6.8965V6.8968V6.8971V6.89739V6.89768V6.89797V6.89827V6.89856V6.89884V6.89913V6.89942V6.89971V6.89999V6.90027V6.90056V6.90084V6.90112V6.9014V6.90168V6.90196V6.90223V6.90251V6.90278V6.90306V6.90333V6.9036V6.90387V6.90415V6.90441V6.90468V6.90495V6.90522V6.90548V6.90575V6.90601V6.90628V6.90654V6.9068V6.90706V6.90732V6.90758V6.90784V6.90809V6.90835V6.90861V6.90886V6.90911V6.90937V6.90962V6.90987V6.91012V6.91037V6.91062V6.91087V6.91112V6.91136V6.91161V6.91185V6.9121V6.91234V6.91259V6.91283V6.91307V6.91331V6.91355V6.91379V6.91403V6.91427V6.91451V6.91474V6.91498V6.91522V6.91545V6.91569V6.91592V6.91615V6.91638V6.91662V6.91685V6.91708V6.91731V6.91754V6.91777V6.91799V6.91822V6.91845V6.91868V6.9189V6.91913V6.91935V6.91958V6.9198V6.92002V6.92025V6.92047V6.92069V6.92091V6.92113V6.92135V6.92157V6.92179V6.92201V6.92223V6.92245V6.92266V6.92288V6.9231V6.92331V6.92353V6.92375V6.92396V6.92417V6.92439V6.9246V6.92482V6.92503V6.92524V6.92545V6.92566V6.92588V6.92609V6.9263V6.92651V6.92672V6.92693V6.92714V6.92735V6.92755V6.92776V6.92797V6.92818V6.92839V6.92859V6.9288V6.92901V6.92921V6.92942V6.92963V6.92983V6.93004V6.93024V6.93045V6.93065V6.93086V6.93106V6.93126V6.93147V6.93167V6.93188V6.93208V6.93228V6.93249V6.93269V6.93289V6.93309V6.9333V6.9335V6.9337V6.9339V6.9341V6.93431V6.93451V6.93471V6.93491V6.93511V6.93531V6.93552V6.93572V6.93592V6.93612V6.93632V6.93652V6.93672V6.93692V6.93712V6.93733V6.93753V6.93773V6.93793V6.93813V6.93833V6.93853V6.93873V6.93893V6.93913V6.93933V6.93954V6.93974V6.93994V6.94014V6.94034V6.94054V6.94074V6.94095V6.94115V6.94135V6.94155V6.94175V6.94196V6.94216V6.94236V6.94256V6.94277V6.94297V6.94317V6.94337V6.94358V6.94378V6.94398V6.94419V6.94439V6.9446V6.9448V6.94501V6.94521V6.94542V6.94562V6.94583V6.94603V6.94624V6.94645V6.94665V6.94686V6.94707V6.94728V6.94748V6.94769V6.9479V6.94811V6.94832V6.94853V6.94874V6.94895V6.94916V6.94937V6.94958V6.94979V6.95V6.95021V6.95043V6.95064V6.95085V6.95107V6.95128V6.95149V6.95171V6.95192V6.95214V6.95236V6.95257V6.95279V6.95301V6.95322V6.95344V6.95366V6.95388V6.9541V6.95432V6.95454V6.95476V6.95499V6.95521V6.95543V6.95565V6.95588V6.9561V6.95633V6.95655V6.95678V6.957V6.95723V6.95746V6.95769V6.95792V6.95815V6.95838V6.95861V6.95884V6.95907V6.9593V6.95954V6.95977V6.96V6.96024V6.96047V6.96071V6.96095V6.96118V6.96142V6.96166V6.9619V6.96214V6.96238V6.96263V6.96287V6.96311V6.96335V6.9636V6.96384V6.96409V6.96434V6.96459V6.96483V6.96508V6.96533V6.96558V6.96584V6.96609V6.96634V6.96659V6.96685V6.9671V6.96736V6.96762V6.96788V6.96814V6.96839V6.96866V6.96892V6.96918V6.96944V6.96971V6.96997V6.97024V6.9705V6.97077V6.97104V6.97131V6.97158V6.97185V6.97212V6.9724V6.97267V6.97295V6.97322V6.9735V6.97378V6.97405V6.97433V6.97462V6.9749V6.97518V6.97546V6.97575V6.97603V6.97632V6.97661V6.9769V6.97719V6.97748V6.97777V6.97806V6.97836V6.97865V6.97895V6.97925V6.97955V6.97985V6.98015V6.98045V6.98075V6.98106V6.98136V6.98167V6.98198V6.98228V6.98259V6.9829V6.98322V6.98353V6.98384V6.98416V6.98448V6.9848V6.98511V6.98543V6.98576V6.98608V6.9864V6.98673V6.98706V6.98738V6.98771V6.98804V6.98837V6.98871V6.98904V6.98938V6.98971V6.99005V6.99039V6.99073V6.99107V6.99142V6.99176V6.99211V6.99245V6.9928V6.99315V6.9935V6.99386V6.99421V6.99457V6.99492V6.99528V6.99564V6.996V6.99636V6.99673V6.99709V6.99746V6.99783V6.9982V6.99857V6.99894V6.99931V6.99969V7.00007V7.00044V7.00082V7.0012V7.00159V7.00197V7.00236V7.00274V7.00313V7.00352V7.00391V7.00431V7.0047V7.0051V7.0055V7.0059V7.0063C6.00861 7.21552 6.00662 7.4294 5.95619 7.63438C5.77848 8.2818 5.42907 8.80486 4.8988 9.2173L4.89215 9.22247L4.88568 9.22786C4.21699 9.7851 3.31738 9.90893 2.44294 9.55916L2.35353 9.5234H2.2645Z" fill="#263682" stroke="#263682"/>
<path d="M21.4334 7.32447C21.3507 8.43422 20.6235 9.27135 19.5847 9.61762L19.5707 9.62227L19.5571 9.62773C19.2687 9.74308 18.9887 9.79768 18.7142 9.79768C17.4451 9.79768 16.3347 8.86648 16.0451 7.70787L16.0404 7.68924L16.0343 7.67103C15.9741 7.49027 15.9229 7.27352 15.9229 7.07487V7.07447V7.07407V7.07367V7.07327V7.07288V7.07248V7.07209V7.0717V7.07131V7.07093V7.07054V7.07016V7.06978V7.06939V7.06901V7.06864V7.06826V7.06788V7.06751V7.06714V7.06677V7.0664V7.06603V7.06566V7.0653V7.06493V7.06457V7.06421V7.06385V7.06349V7.06314V7.06278V7.06243V7.06207V7.06172V7.06137V7.06102V7.06068V7.06033V7.05999V7.05964V7.0593V7.05896V7.05862V7.05828V7.05795V7.05761V7.05728V7.05694V7.05661V7.05628V7.05595V7.05563V7.0553V7.05497V7.05465V7.05433V7.054V7.05368V7.05337V7.05305V7.05273V7.05241V7.0521V7.05179V7.05147V7.05116V7.05085V7.05055V7.05024V7.04993V7.04963V7.04932V7.04902V7.04872V7.04842V7.04812V7.04782V7.04752V7.04722V7.04693V7.04663V7.04634V7.04605V7.04576V7.04547V7.04518V7.04489V7.0446V7.04432V7.04403V7.04375V7.04347V7.04319V7.0429V7.04262V7.04235V7.04207V7.04179V7.04152V7.04124V7.04097V7.04069V7.04042V7.04015V7.03988V7.03961V7.03934V7.03907V7.03881V7.03854V7.03828V7.03801V7.03775V7.03749V7.03723V7.03696V7.03671V7.03645V7.03619V7.03593V7.03568V7.03542V7.03516V7.03491V7.03466V7.03441V7.03415V7.0339V7.03365V7.0334V7.03316V7.03291V7.03266V7.03241V7.03217V7.03192V7.03168V7.03144V7.0312V7.03095V7.03071V7.03047V7.03023V7.02999V7.02976V7.02952V7.02928V7.02904V7.02881V7.02857V7.02834V7.02811V7.02787V7.02764V7.02741V7.02718V7.02695V7.02672V7.02649V7.02626V7.02603V7.0258V7.02557V7.02535V7.02512V7.0249V7.02467V7.02445V7.02422V7.024V7.02378V7.02356V7.02333V7.02311V7.02289V7.02267V7.02245V7.02223V7.02201V7.02179V7.02158V7.02136V7.02114V7.02093V7.02071V7.02049V7.02028V7.02006V7.01985V7.01964V7.01942V7.01921V7.019V7.01878V7.01857V7.01836V7.01815V7.01794V7.01773V7.01752V7.01731V7.0171V7.01689V7.01668V7.01647V7.01626V7.01605V7.01585V7.01564V7.01543V7.01522V7.01502V7.01481V7.0146V7.0144V7.01419V7.01399V7.01378V7.01358V7.01337V7.01317V7.01296V7.01276V7.01256V7.01235V7.01215V7.01194V7.01174V7.01154V7.01134V7.01113V7.01093V7.01073V7.01053V7.01032V7.01012V7.00992V7.00972V7.00952V7.00931V7.00911V7.00891V7.00871V7.00851V7.00831V7.00811V7.00791V7.0077V7.0075V7.0073V7.0071V7.0069V7.0067V7.0065V7.0063V7.0061V7.0059V7.00569V7.00549V7.00529V7.00509V7.00489V7.00469V7.00449V7.00429V7.00409V7.00388V7.00368V7.00348V7.00328V7.00308V7.00288V7.00268V7.00247V7.00227V7.00207V7.00187V7.00166V7.00146V7.00126V7.00106V7.00085V7.00065V7.00045V7.00024V7.00004V6.99984V6.99963V6.99943V6.99922V6.99902V6.99881V6.99861V6.9984V6.9982V6.99799V6.99778V6.99758V6.99737V6.99716V6.99696V6.99675V6.99654V6.99633V6.99612V6.99592V6.99571V6.9955V6.99529V6.99508V6.99487V6.99466V6.99445V6.99424V6.99402V6.99381V6.9936V6.99339V6.99317V6.99296V6.99274V6.99253V6.99232V6.9921V6.99188V6.99167V6.99145V6.99123V6.99102V6.9908V6.99058V6.99036V6.99014V6.98992V6.9897V6.98948V6.98926V6.98904V6.98882V6.98859V6.98837V6.98815V6.98792V6.9877V6.98747V6.98725V6.98702V6.98679V6.98657V6.98634V6.98611V6.98588V6.98565V6.98542V6.98519V6.98495V6.98472V6.98449V6.98426V6.98402V6.98379V6.98355V6.98331V6.98308V6.98284V6.9826V6.98236V6.98212V6.98188V6.98164V6.9814V6.98116V6.98091V6.98067V6.98042V6.98018V6.97993V6.97969V6.97944V6.97919V6.97894V6.97869V6.97844V6.97819V6.97794V6.97768V6.97743V6.97718V6.97692V6.97666V6.97641V6.97615V6.97589V6.97563V6.97537V6.97511V6.97485V6.97458V6.97432V6.97405V6.97379V6.97352V6.97325V6.97298V6.97272V6.97245V6.97217V6.9719V6.97163V6.97135V6.97108V6.9708V6.97053V6.97025V6.96997V6.96969V6.96941V6.96913V6.96884V6.96856V6.96828V6.96799V6.9677V6.96741V6.96713V6.96684V6.96655V6.96625V6.96596V6.96567V6.96537V6.96507V6.96478V6.96448V6.96418V6.96388V6.96358V6.96327V6.96297V6.96266V6.96236V6.96205V6.96174V6.96143V6.96112V6.96081V6.96049V6.96018V6.95986V6.95955V6.95923V6.95891V6.95859V6.95827V6.95794V6.95762V6.9573V6.95697V6.95664V6.95631V6.95598V6.95565V6.95532V6.95498V6.95465V6.95431V6.95397V6.95363V6.95329V6.95295V6.95261V6.95226V6.95192V6.95157V6.95122V6.95087V6.95052V6.95017V6.94981V6.94946V6.9491V6.94874V6.94838V6.94802V6.94766V6.9473V6.94693V6.94657V6.9462V6.94583V6.94546V6.94508V6.94471V6.94434V6.94396V6.94358V6.9432V6.94282V6.94244V6.94205V6.94167V6.94128V6.94089V6.9405V6.94011V6.93972V6.93932V6.93893V6.93853V6.93813V6.93773V6.88644L15.9124 6.83623L14.7719 1.33496H17.3282L21.4334 7.32447Z" fill="#263682" stroke="#263682"/>
</svg>
