<svg width="24" height="25" viewBox="0 0 24 25" fill="none" xmlns="http://www.w3.org/2000/svg">
<path d="M8.61164 7.78711C8.61164 9.66221 7.0984 11.1754 5.2233 11.1754C3.3482 11.1754 1.83496 9.66221 1.83496 7.78711" stroke="#636E9F" stroke-width="1.5" stroke-linecap="round" stroke-linejoin="round"/>
<path d="M15.3885 7.78711C15.3885 9.66221 13.8753 11.1754 12.0002 11.1754C10.1251 11.1754 8.61182 9.66221 8.61182 7.78711" stroke="#636E9F" stroke-width="1.5" stroke-linecap="round" stroke-linejoin="round"/>
<path d="M22.1649 7.78711C22.1649 9.66221 20.6516 11.1754 18.7765 11.1754C16.9014 11.1754 15.3882 9.66221 15.3882 7.78711" stroke="#636E9F" stroke-width="1.5" stroke-linecap="round" stroke-linejoin="round"/>
<path d="M1.83496 7.78692L5.94702 1.77783H18.0529L22.165 7.78692" stroke="#636E9F" stroke-width="1.5" stroke-linecap="round" stroke-linejoin="round"/>
<path d="M8.61182 7.78692L9.96057 1.77783" stroke="#636E9F" stroke-width="1.5" stroke-linecap="round" stroke-linejoin="round"/>
<path d="M15.3885 7.78692L14.1274 1.77783" stroke="#636E9F" stroke-width="1.5" stroke-linecap="round" stroke-linejoin="round"/>
<path d="M3.46924 14.3445V19.3822C3.46924 21.039 4.81238 22.3822 6.46924 22.3822H17.5316C19.1884 22.3822 20.5316 21.039 20.5316 19.3822V11" stroke="#636E9F" stroke-width="1.5" stroke-linecap="round" stroke-linejoin="round"/>
<path d="M16.4409 14.498H7.56982V19.4435H16.4409V14.498Z" stroke="#636E9F" stroke-width="1.5" stroke-linecap="round" stroke-linejoin="round"/>
</svg>
