<svg width="25" height="25" viewBox="0 0 25 25" fill="none" xmlns="http://www.w3.org/2000/svg">
<g id="QR code 1">
<path id="Vector" d="M7.08365 6.8457V6.85738M7.08365 18.0958V18.1074M18.3337 18.0996V18.0879M14.9587 3.4707V3.48238M21.7087 6.84964V4.94555C21.7087 4.13313 21.05 3.47444 20.2386 3.47444H18.3335M21.7087 10.2226H18.3335M18.3337 6.84944H16.4296C15.6172 6.84944 14.9585 7.50813 14.9585 8.31958V10.2246M5.55907 3.47444H8.60735C9.62993 3.47444 10.4579 4.3034 10.4579 5.32501V8.37329C10.4579 9.39587 9.62993 10.2239 8.60735 10.2239H5.55907C4.53649 10.2239 3.7085 9.39587 3.7085 8.37329V5.32501C3.7085 4.3034 4.53649 3.47444 5.55907 3.47444ZM5.55907 14.7245H8.60735C9.62993 14.7245 10.4579 15.5534 10.4579 16.5751V19.6233C10.4579 20.6459 9.62993 21.4739 8.60735 21.4739H5.55907C4.53649 21.4739 3.7085 20.6459 3.7085 19.6233V16.5751C3.7085 15.5534 4.53649 14.7245 5.55907 14.7245ZM16.8091 21.4739H19.8574C20.8799 21.4739 21.7079 20.6449 21.7079 19.6233V16.5751C21.7079 15.5525 20.8799 14.7245 19.8574 14.7245H16.8091C15.7865 14.7245 14.9585 15.5525 14.9585 16.5751V19.6233C14.9585 20.6449 15.7865 21.4739 16.8091 21.4739Z" stroke="#58C2E8" stroke-width="1.5" stroke-linecap="round" stroke-linejoin="round"/>
</g>
</svg>
