<svg width="31" height="31" viewBox="0 0 31 31" fill="none" xmlns="http://www.w3.org/2000/svg">
<path d="M10.956 6.80569V12.1899V22.4852C10.956 24.2839 9.49898 25.741 7.7002 25.741H22.8725C25.4776 25.741 26.9225 23.9859 26.9225 21.1509L26.9335 6.80569C26.9335 5.76826 25.941 5.09448 25.08 5.53596L24.2638 5.9665C23.7773 6.22069 23.2155 6.23164 22.7071 6.01029L20.4011 4.9838C19.4635 4.57636 18.426 4.57636 17.4883 4.9838L15.1823 6.01029C14.674 6.23164 14.1108 6.22069 13.6256 5.9665L12.8095 5.53596C11.9484 5.09448 10.956 5.7792 10.956 6.80569Z" stroke="#263682" stroke-width="1.5" stroke-linecap="round" stroke-linejoin="round"/>
<path d="M20.6379 12.2441H17.8795C17.0598 12.2441 16.3945 12.9095 16.3945 13.7292C16.3945 14.5501 17.0598 15.2142 17.8795 15.2142H19.5773C20.397 15.2142 21.0623 15.8795 21.0623 16.7003C21.0623 17.5201 20.397 18.1853 19.5773 18.1853H16.8189" stroke="#263682" stroke-width="1.5" stroke-linecap="round" stroke-linejoin="round"/>
<path d="M18.7285 18.1844V19.4311M18.7285 10.9893V12.2468" stroke="#263682" stroke-width="1.5" stroke-linecap="round" stroke-linejoin="round"/>
<path d="M7.70036 25.7407C6.79548 25.7407 5.97941 25.3771 5.39441 24.7921C4.79846 24.1961 4.43359 23.3788 4.43359 22.4848V13.4253C4.43359 12.3878 5.42724 11.7153 6.28832 12.1568L7.10441 12.5873C7.58968 12.8414 8.15278 12.8524 8.65994 12.6311L10.2167 11.9366C10.3371 11.8807 10.6472 12.0242 10.9562 12.1896" stroke="#263682" stroke-width="1.5" stroke-linecap="round" stroke-linejoin="round"/>
</svg>
