<svg width="25" height="25" viewBox="0 0 25 25" fill="none" xmlns="http://www.w3.org/2000/svg">
<path fill-rule="evenodd" clip-rule="evenodd" d="M6.82129 5.31152C6.82129 4.34503 7.60479 3.56152 8.57129 3.56152H8.65152C9.45976 3.56152 10.1723 4.09168 10.4046 4.86584L11.0633 7.06152H8.57129C7.60479 7.06152 6.82129 6.27802 6.82129 5.31152ZM5.8322 7.06152C5.50879 6.55637 5.32129 5.95584 5.32129 5.31152C5.32129 3.5166 6.77636 2.06152 8.57129 2.06152H8.65152C10.1222 2.06152 11.4187 3.02618 11.8413 4.43482L12.0713 5.20145L12.3013 4.43482C12.7239 3.02618 14.0204 2.06152 15.4911 2.06152H15.5713C17.3662 2.06152 18.8213 3.5166 18.8213 5.31152C18.8213 5.95584 18.6338 6.55637 18.3104 7.06152H20.5713C21.8139 7.06152 22.8213 8.06888 22.8213 9.31152C22.8213 10.5542 21.8139 11.5615 20.5713 11.5615H3.57129C2.32865 11.5615 1.32129 10.5542 1.32129 9.31152C1.32129 8.06888 2.32865 7.06152 3.57129 7.06152H5.8322ZM15.5713 7.06152C16.5378 7.06152 17.3213 6.27802 17.3213 5.31152C17.3213 4.34503 16.5378 3.56152 15.5713 3.56152H15.4911C14.6828 3.56152 13.9703 4.09168 13.738 4.86584L13.0793 7.06152H15.5713ZM11.3208 13.5397C11.3213 13.5506 11.3213 13.5635 11.3213 13.5893V17.0615C11.3213 17.4757 11.6571 17.8115 12.0713 17.8115C12.4855 17.8115 12.8213 17.4757 12.8213 17.0615V13.5893C12.8213 13.5635 12.8213 13.5506 12.8218 13.5397C12.8331 13.2807 13.0405 13.0733 13.2995 13.062C13.3104 13.0615 13.3233 13.0615 13.3491 13.0615H20.0213C20.3013 13.0615 20.4413 13.0615 20.5483 13.116C20.6424 13.164 20.7189 13.2404 20.7668 13.3345C20.8213 13.4415 20.8213 13.5815 20.8213 13.8615V17.1615C20.8213 19.4017 20.8213 20.5218 20.3853 21.3775C20.0018 22.1301 19.3899 22.7421 18.6373 23.1255C17.7816 23.5615 16.6615 23.5615 14.4213 23.5615H9.72129C7.48108 23.5615 6.36097 23.5615 5.50533 23.1255C4.75268 22.7421 4.14076 22.1301 3.75726 21.3775C3.32129 20.5218 3.32129 19.4017 3.32129 17.1615V13.8615C3.32129 13.5815 3.32129 13.4415 3.37579 13.3345C3.42372 13.2404 3.50021 13.164 3.59429 13.116C3.70125 13.0615 3.84126 13.0615 4.12129 13.0615H10.7935C10.8193 13.0615 10.8322 13.0615 10.8431 13.062C11.1021 13.0733 11.3095 13.2807 11.3208 13.5397Z" fill="#263682"/>
</svg>
