<svg version="1.2" xmlns="http://www.w3.org/2000/svg" viewBox="0 0 38 36" width="38" height="36"><style>.a{fill:none;stroke:#626262;stroke-width:2}.b{fill:none;stroke:#626262;stroke-linecap:round;stroke-width:2}</style><path class="a" d="m1 12.5c0-0.9 0-1.4 0.3-1.7 0.3-0.3 0.8-0.3 1.7-0.3h32c0.9 0 1.4 0 1.7 0.3 0.3 0.3 0.3 0.8 0.3 1.7v6c0 0.9 0 1.4-0.3 1.7-0.3 0.3-0.8 0.3-1.7 0.3h-2c-0.9 0-1.4 0-1.7 0.3-0.3 0.3-0.3 0.8-0.3 1.7v10c0 0.9 0 1.4-0.3 1.7-0.3 0.3-0.8 0.3-1.7 0.3h-20c-0.9 0-1.4 0-1.7-0.3-0.3-0.3-0.3-0.8-0.3-1.7v-10c0-0.9 0-1.4-0.3-1.7-0.3-0.3-0.8-0.3-1.7-0.3h-2c-0.9 0-1.4 0-1.7-0.3-0.3-0.3-0.3-0.8-0.3-1.7z"/><path class="b" d="m5 20.5h28"/><path class="b" d="m19 8.5v26"/><path class="b" d="m11 10.5l-4.6-1.5c-0.8-0.3-1.4-1.1-1.4-1.9v-3.8c0-1.4 1.3-2.4 2.6-1.9l3.9 1.3c1.7 0.5 3.1 1.4 4.3 2.6l3.2 3.2"/><path class="b" d="m19 8.5l3.2-3.2c1.2-1.2 2.6-2.1 4.3-2.6l3.9-1.3c1.3-0.5 2.6 0.5 2.6 1.9v3.8c0 0.8-0.6 1.6-1.4 1.9l-4.6 1.5"/></svg>