<svg width="24" height="25" viewBox="0 0 24 25" fill="none" xmlns="http://www.w3.org/2000/svg">
<path d="M20 11.6963V17.8963C20 19.5764 20 20.4165 19.673 21.0583C19.3854 21.6227 18.9265 22.0817 18.362 22.3693C17.7202 22.6963 16.8802 22.6963 15.2 22.6963H8.8C7.11984 22.6963 6.27976 22.6963 5.63803 22.3693C5.07354 22.0817 4.6146 21.6227 4.32698 21.0583C4 20.4165 4 19.5764 4 17.8963V11.6963M12 7.69629V22.6963M12 7.69629H15.5C16.8807 7.69629 18 6.577 18 5.19629C18 3.81558 16.8807 2.69629 15.5 2.69629H15.4198C14.2803 2.69629 13.2758 3.4437 12.9484 4.5351L12 7.69629ZM12 7.69629H8.5C7.11929 7.69629 6 6.577 6 5.19629C6 3.81558 7.11929 2.69629 8.5 2.69629H8.58023C9.71968 2.69629 10.7242 3.4437 11.0516 4.5351L12 7.69629ZM4 11.6963H20C21.1046 11.6963 22 10.8009 22 9.69629V9.69629C22 8.59172 21.1046 7.69629 20 7.69629H4C2.89543 7.69629 2 8.59172 2 9.69629V9.69629C2 10.8009 2.89543 11.6963 4 11.6963Z" stroke="#8D99D2" stroke-width="1.5" stroke-linecap="round" stroke-linejoin="round"/>
</svg>
