<svg width="24" height="25" viewBox="0 0 24 25" fill="none" xmlns="http://www.w3.org/2000/svg">
<g id="Analytics06">
<path id="Vector" d="M19.8118 21.048V14.475M12.5002 21.048V16.658M5.18848 21.048V12.292M14.125 11.5694L18.2327 9.97803M11.0779 11.1519L6.58643 7.70996M13.6936 13.2312C14.3529 12.5719 14.3529 11.5029 13.6936 10.8436C13.0343 10.1843 11.9653 10.1843 11.306 10.8436C10.6467 11.5029 10.6467 12.5719 11.306 13.2312C11.9653 13.8905 13.0343 13.8905 13.6936 13.2312ZM6.38209 7.93482C7.0414 7.27551 7.0414 6.20654 6.38209 5.54722C5.72277 4.88791 4.6538 4.88791 3.99449 5.54722C3.33517 6.20654 3.33517 7.27551 3.99449 7.93482C4.6538 8.59414 5.72277 8.59414 6.38209 7.93482ZM21.0056 10.5984C21.6649 9.93908 21.6649 8.87011 21.0056 8.2108C20.3463 7.55148 19.2773 7.55148 18.618 8.2108C17.9587 8.87011 17.9587 9.93908 18.618 10.5984C19.2773 11.2577 20.3463 11.2577 21.0056 10.5984Z" stroke="#263682" stroke-width="1.5" stroke-linecap="round" stroke-linejoin="round"/>
</g>
</svg>
