<svg width="24" height="25" viewBox="0 0 24 25" fill="none" xmlns="http://www.w3.org/2000/svg">
<g id="Analytics01">
<path id="Vector" d="M11.7388 18.1443L12.3478 15.579M10.4824 9.23428L8.80718 7.55901M15.8351 9.23428L17.2373 7.83207M18.0262 14.7109L16.4097 13.745M9.69847 13.2836L6.65677 14.3579M9.45106 11.9107C9.45106 9.86321 11.1109 8.20338 13.1584 8.20338C15.2059 8.20338 16.8657 9.86321 16.8657 11.9107C16.8657 13.9582 15.2059 15.6181 13.1584 15.6181C11.1109 15.6181 9.45106 13.9582 9.45106 11.9107ZM16.707 6.55752C16.707 5.59103 17.4905 4.80752 18.457 4.80752C19.4235 4.80752 20.207 5.59103 20.207 6.55752C20.207 7.52402 19.4235 8.30752 18.457 8.30752C17.4905 8.30752 16.707 7.52402 16.707 6.55752ZM10.1599 19.5432C10.1599 18.7754 10.7824 18.153 11.5502 18.153C12.318 18.153 12.9404 18.7754 12.9404 19.5432C12.9404 20.311 12.318 20.9335 11.5502 20.9335C10.7824 20.9335 10.1599 20.311 10.1599 19.5432ZM3.50024 14.9082C3.50024 14.0124 4.22642 13.2862 5.12221 13.2862C6.01799 13.2862 6.74417 14.0124 6.74417 14.9082C6.74417 15.804 6.01799 16.5302 5.12221 16.5302C4.22642 16.5302 3.50024 15.804 3.50024 14.9082ZM4.81702 5.88643C4.81702 4.60674 5.85442 3.56934 7.13411 3.56934C8.4138 3.56934 9.4512 4.60674 9.4512 5.88643C9.4512 7.16612 8.4138 8.20352 7.13411 8.20352C5.85442 8.20352 4.81702 7.16612 4.81702 5.88643ZM17.7927 15.6179C17.7927 14.5941 18.6226 13.7642 19.6463 13.7642C20.6701 13.7642 21.5 14.5941 21.5 15.6179C21.5 16.6416 20.6701 17.4716 19.6463 17.4716C18.6226 17.4716 17.7927 16.6416 17.7927 15.6179Z" stroke="#263682" stroke-width="1.5" stroke-linecap="round"/>
</g>
</svg>
