<svg width="48" height="48" viewBox="0 0 48 48" fill="none" xmlns="http://www.w3.org/2000/svg">
<rect x="0.75" y="0.75" width="46.5" height="46.5" rx="23.25" fill="#EFFBFF"/>
<rect x="0.75" y="0.75" width="46.5" height="46.5" rx="23.25" stroke="#58C2E8" stroke-width="1.5"/>
<path d="M36.5 19V18.375V18.375C36.5 17.5623 36.5 17.156 36.4607 16.8143C36.142 14.0437 33.9563 11.858 31.1857 11.5393C30.844 11.5 30.4377 11.5 29.625 11.5V11.5H29M36.5 29V29.625V29.625C36.5 30.4377 36.5 30.844 36.4607 31.1857C36.142 33.9563 33.9563 36.142 31.1857 36.4607C30.844 36.5 30.4377 36.5 29.625 36.5V36.5H29M11.5 29V29.625V29.625C11.5 30.4377 11.5 30.844 11.5393 31.1857C11.858 33.9563 14.0437 36.142 16.8143 36.4607C17.156 36.5 17.5623 36.5 18.375 36.5V36.5H19M11.5 19V18.375V18.375C11.5 17.5623 11.5 17.156 11.5393 16.8143C11.858 14.0437 14.0437 11.858 16.8143 11.5393C17.156 11.5 17.5623 11.5 18.375 11.5V11.5H19M11.5 24H36.5" stroke="#47B0D6" stroke-width="1.5" stroke-linecap="round" stroke-linejoin="round"/>
</svg>
