<svg width="72" height="56" viewBox="0 0 72 56" fill="none" xmlns="http://www.w3.org/2000/svg">
<rect width="72" height="56" rx="7" fill="#3C444D"/>
<path d="M24.25 24H26C26.1375 24 26.25 23.8875 26.25 23.75V18.25H31.75C31.8875 18.25 32 18.1375 32 18V16.25C32 16.1125 31.8875 16 31.75 16H26.125C24.95 16 24 16.95 24 18.125V23.75C24 23.8875 24.1125 24 24.25 24ZM40.25 18.25H45.75V23.75C45.75 23.8875 45.8625 24 46 24H47.75C47.8875 24 48 23.8875 48 23.75V18.125C48 16.95 47.05 16 45.875 16H40.25C40.1125 16 40 16.1125 40 16.25V18C40 18.1375 40.1125 18.25 40.25 18.25ZM31.75 37.75H26.25V32.25C26.25 32.1125 26.1375 32 26 32H24.25C24.1125 32 24 32.1125 24 32.25V37.875C24 39.05 24.95 40 26.125 40H31.75C31.8875 40 32 39.8875 32 39.75V38C32 37.8625 31.8875 37.75 31.75 37.75ZM47.75 32H46C45.8625 32 45.75 32.1125 45.75 32.25V37.75H40.25C40.1125 37.75 40 37.8625 40 38V39.75C40 39.8875 40.1125 40 40.25 40H45.875C47.05 40 48 39.05 48 37.875V32.25C48 32.1125 47.8875 32 47.75 32ZM48.25 26.875H23.75C23.6125 26.875 23.5 26.9875 23.5 27.125V28.875C23.5 29.0125 23.6125 29.125 23.75 29.125H48.25C48.3875 29.125 48.5 29.0125 48.5 28.875V27.125C48.5 26.9875 48.3875 26.875 48.25 26.875Z" fill="#1AF9FF"/>
</svg>
