<svg width="16" height="17" viewBox="0 0 16 17" fill="none" xmlns="http://www.w3.org/2000/svg">
<path d="M9.00502 6.41243H7.45208C6.99028 6.41243 6.61597 6.78672 6.61597 7.2486C6.61597 7.7104 6.99028 8.08473 7.45208 8.08473H8.40762C8.86948 8.08473 9.24375 8.459 9.24375 8.92087C9.24375 9.38273 8.86948 9.757 8.40762 9.757H6.85468M7.92975 9.75647V10.4583M7.92975 5.70605V6.41441M11.5743 12.2227L13.8576 14.5001M13.3667 8.11167C13.3667 5.01231 10.8543 2.5 7.75502 2.5C4.65562 2.5 2.14331 5.01231 2.14331 8.11167C2.14331 11.2111 4.65562 13.724 7.75502 13.724C10.8543 13.724 13.3667 11.2111 13.3667 8.11167Z" stroke="#58C2E8" stroke-width="1.25" stroke-linecap="round" stroke-linejoin="round"/>
</svg>
