<svg width="24" height="24" viewBox="0 0 24 24" fill="none" xmlns="http://www.w3.org/2000/svg">
<path d="M6 7L9 2M15 2L18 7M7.93506 22H16.0649C17.4667 22 18.1675 22 18.742 21.7489C19.2485 21.5275 19.6841 21.1705 20.0005 20.7172C20.3594 20.2031 20.4968 19.5159 20.7717 18.1414L21.8517 12.7414C22.2453 10.7733 22.4421 9.78929 22.1757 9.01919C21.942 8.34372 21.4749 7.77388 20.8584 7.41227C20.1555 7 19.152 7 17.1449 7H6.85506C4.84804 7 3.84453 7 3.14163 7.41227C2.52511 7.77388 2.05795 8.34372 1.82427 9.01919C1.55786 9.78929 1.75466 10.7733 2.14827 12.7414L3.22827 18.1414C3.50317 19.5159 3.64062 20.2031 3.99946 20.7172C4.3159 21.1705 4.75145 21.5275 5.25803 21.7489C5.83249 22 6.53334 22 7.93506 22Z" stroke="#58C2E8" stroke-width="1.5" stroke-linecap="round" stroke-linejoin="round"/>
<path d="M9.14355 13.3193L9.14355 16.5667" stroke="#58C2E8" stroke-width="1.5" stroke-linecap="round"/>
<path d="M14.8564 13.3193L14.8564 16.5667" stroke="#58C2E8" stroke-width="1.5" stroke-linecap="round"/>
</svg>
