<svg width="17" height="17" viewBox="0 0 17 17" fill="none" xmlns="http://www.w3.org/2000/svg">
<g clip-path="url(#clip0_3960_34839)">
<path d="M7.70383 11.8274C8.25009 11.7479 8.80614 11.8282 9.35767 11.8154C10.637 11.7847 11.6395 10.7034 12.6134 9.96952C13.1109 9.59513 13.808 9.64467 14.2477 10.0866C14.7362 10.5766 14.7362 11.372 14.2477 11.862C13.1957 12.9177 12.2668 13.8977 10.8411 14.4521C8.86317 15.2213 7.02779 14.8476 5.02433 14.4521C4.24921 14.2984 3.53487 14.2894 2.75 14.2894" stroke="#7E8AC1" stroke-linecap="round" stroke-linejoin="round"/>
<path d="M7.70238 11.7962H8.78213C9.55347 11.7962 10.1763 11.2417 10.1763 10.4704C10.1763 9.82953 9.74262 9.31707 9.12128 9.16103C8.23212 8.93816 7.34442 8.76332 6.41625 8.78503C4.94479 8.82111 3.91605 9.64047 2.75 10.4216" stroke="#7E8AC1" stroke-linecap="round" stroke-linejoin="round"/>
<path d="M11.4362 1.95703L11.5434 2.24668C11.9475 3.33886 12.8086 4.19998 13.9008 4.60412L14.1904 4.7113L13.9008 4.81848C12.8086 5.22262 11.9475 6.08374 11.5434 7.17591L11.4362 7.46559L11.329 7.17591C10.9249 6.08374 10.0638 5.22262 8.97157 4.81848L8.68188 4.7113L8.97157 4.60412C10.0638 4.19998 10.9249 3.33886 11.329 2.24668L11.4362 1.95703Z" stroke="#7E8AC1" stroke-linecap="round" stroke-linejoin="round"/>
<path d="M5.80113 0.849121C6.03322 1.6117 6.63 2.2085 7.39252 2.44061C6.63 2.67271 6.03322 3.26951 5.80113 4.03209C5.56903 3.26951 4.97226 2.67271 4.20972 2.44061C4.97226 2.2085 5.56903 1.6117 5.80113 0.849121Z" stroke="#7E8AC1" stroke-linecap="round" stroke-linejoin="round"/>
</g>
<defs>
<clipPath id="clip0_3960_34839">
<rect width="16" height="16" fill="white" transform="translate(0.682129 0.132324)"/>
</clipPath>
</defs>
</svg>
