<svg width="25" height="25" viewBox="0 0 25 25" fill="none" xmlns="http://www.w3.org/2000/svg">
<path fill-rule="evenodd" clip-rule="evenodd" d="M9.63942 2.08061C9.84126 2.2366 10.0193 2.46646 10.3755 2.92618L10.7983 3.47194C11.0998 3.86115 11.5789 4.06142 12.0713 4.06142C12.5637 4.06142 13.0429 3.86113 13.3445 3.47185L13.7672 2.92625C14.1232 2.46663 14.3013 2.23682 14.5031 2.08086C15.0015 1.6956 15.6523 1.56771 16.2595 1.7357C16.5053 1.80371 16.757 1.94907 17.2606 2.23977L18.6338 3.03263C19.1356 3.32234 19.3865 3.46719 19.5678 3.64528C20.0182 4.08756 20.2333 4.71647 20.1481 5.34189C20.1139 5.59371 20.0042 5.86188 19.785 6.3982L19.785 6.39822L19.5235 7.03778C19.337 7.49415 19.4027 8.00817 19.6497 8.4349C19.8963 8.86107 20.31 9.17794 20.7978 9.24446L21.4817 9.33772C22.0563 9.41607 22.3435 9.45524 22.5789 9.5516C23.1628 9.7906 23.5997 10.2911 23.7576 10.9019C23.8213 11.1482 23.8213 11.4381 23.8213 12.018V13.6048C23.8213 14.1847 23.8213 14.4747 23.7576 14.7209C23.5997 15.3317 23.1628 15.8322 22.5789 16.0712C22.3435 16.1676 22.0563 16.2068 21.4817 16.2851L21.4817 16.2851L20.7978 16.3784C20.31 16.4449 19.8963 16.7618 19.6497 17.1879C19.4028 17.6146 19.337 18.1286 19.5235 18.585L19.785 19.2246L19.785 19.2246C20.0043 19.7609 20.1139 20.029 20.1482 20.2809C20.2333 20.9063 20.0182 21.5352 19.5679 21.9775C19.3865 22.1556 19.1356 22.3004 18.6339 22.5901L18.6339 22.5901L17.2605 23.383C16.7571 23.6737 16.5053 23.819 16.2596 23.887C15.6524 24.0551 15.0015 23.9272 14.503 23.5419C14.3013 23.3859 14.1233 23.1561 13.7672 22.6966L13.3446 22.151C13.043 21.7617 12.5638 21.5614 12.0713 21.5614C11.5789 21.5614 11.0997 21.7617 10.7982 22.1509L10.3754 22.6966C10.0193 23.1563 9.84126 23.3862 9.63944 23.5421C9.14102 23.9273 8.49025 24.0552 7.88314 23.8873C7.63731 23.8192 7.38552 23.6739 6.88195 23.3831L6.88193 23.3831L5.50878 22.5903C5.00694 22.3006 4.75603 22.1557 4.57469 21.9776C4.12441 21.5354 3.90931 20.9065 3.99441 20.2811C4.02869 20.0292 4.13832 19.7611 4.3576 19.2247L4.61906 18.5851C4.80562 18.1287 4.73984 17.6147 4.49291 17.1879C4.24631 16.7618 3.83261 16.4449 3.34474 16.3784L2.66089 16.2851C2.08632 16.2068 1.79904 16.1676 1.56364 16.0712C0.979756 15.8322 0.542878 15.3317 0.384957 14.7209C0.321289 14.4747 0.321289 14.1847 0.321289 13.6048V12.018C0.321289 11.4381 0.321289 11.1482 0.384956 10.9019C0.542877 10.2911 0.979756 9.7906 1.56364 9.5516C1.79904 9.45524 2.08632 9.41607 2.66088 9.33772L3.34471 9.24447C3.83259 9.17794 4.24631 8.86106 4.49292 8.43487C4.73986 8.00812 4.80565 7.49406 4.61908 7.03767L4.35762 6.39811C4.13834 5.86172 4.0287 5.59352 3.99443 5.34166C3.90933 4.71627 4.12442 4.08741 4.5747 3.64514C4.75604 3.46703 5.00696 3.32216 5.50881 3.03242L6.8819 2.23967C7.38553 1.94889 7.63734 1.80351 7.8832 1.7355C8.49029 1.56756 9.14102 1.69543 9.63942 2.08061ZM12.0712 15.8114C13.7281 15.8114 15.0712 14.4683 15.0712 12.8114C15.0712 11.1546 13.7281 9.81145 12.0712 9.81145C10.4144 9.81145 9.07121 11.1546 9.07121 12.8114C9.07121 14.4683 10.4144 15.8114 12.0712 15.8114Z" fill="#263682"/>
</svg>
