<svg width="24" height="25" viewBox="0 0 24 25" fill="none" xmlns="http://www.w3.org/2000/svg">
<g id="Settings_Outline">
<g id="Vector">
<path d="M12 4.84867C11.303 4.84867 10.6132 4.58695 10.1864 4.03597L9.73424 3.45235C9.12172 2.66171 8.01933 2.44509 7.15318 2.94516L5.84684 3.69937C4.98069 4.19945 4.6171 5.26246 4.99556 6.18823L5.27481 6.87134C5.5387 7.51685 5.42168 8.24184 5.0722 8.84532V8.84532C4.72303 9.44825 4.15039 9.91907 3.46003 10.0132L2.72977 10.1128C1.7388 10.2479 1 11.0943 1 12.0945V13.6029C1 14.603 1.7388 15.4494 2.72977 15.5845L3.46006 15.6841C4.1504 15.7783 4.72303 16.2491 5.07219 16.852V16.852C5.42166 17.4555 5.53867 18.1804 5.27479 18.8259L4.99554 19.509C4.61708 20.4348 4.98067 21.4978 5.84682 21.9979L7.15316 22.7521C8.01931 23.2522 9.1217 23.0356 9.73422 22.2449L10.1863 21.6614C10.6131 21.1104 11.303 20.8487 12 20.8487V20.8487V20.8487C12.6971 20.8487 13.387 21.1104 13.8139 21.6615L14.2658 22.2447C14.8783 23.0354 15.9807 23.252 16.8468 22.7519L18.1532 21.9977C19.0193 21.4976 19.3829 20.4346 19.0045 19.5089L18.7252 18.8258C18.4614 18.1803 18.5784 17.4554 18.9278 16.852V16.852C19.277 16.2491 19.8496 15.7783 20.5399 15.6841L21.2702 15.5846C22.2612 15.4494 23 14.603 23 13.6029V12.0945C23 11.0943 22.2612 10.2479 21.2702 10.1128L20.5399 10.0132C19.8496 9.91907 19.277 9.44827 18.9278 8.84534V8.84534C18.5784 8.24189 18.4613 7.51693 18.7252 6.87145L19.0044 6.18841C19.3829 5.26264 19.0193 4.19962 18.1532 3.69955L16.8468 2.94533C15.9807 2.44526 14.8783 2.66189 14.2658 3.45253L13.8138 4.03589C13.3869 4.58692 12.697 4.84867 12 4.84867V4.84867V4.84867Z" stroke="#263682" stroke-width="1.5" stroke-linecap="round" stroke-linejoin="round"/>
<path d="M15 12.8486C15 14.5055 13.6569 15.8486 12 15.8486C10.3431 15.8486 9 14.5055 9 12.8486C9 11.1918 10.3431 9.84863 12 9.84863C13.6569 9.84863 15 11.1918 15 12.8486Z" stroke="#263682" stroke-width="1.5" stroke-linecap="round" stroke-linejoin="round"/>
</g>
</g>
</svg>
