<svg width="25" height="25" viewBox="0 0 25 25" fill="none" xmlns="http://www.w3.org/2000/svg">
<path d="M8.65314 8.10742C8.65314 9.98252 7.1399 11.4958 5.2648 11.4958C3.3897 11.4958 1.87646 9.98252 1.87646 8.10742" stroke="#7E8AC1" stroke-width="1.5" stroke-linecap="round" stroke-linejoin="round"/>
<path d="M15.43 8.10742C15.43 9.98252 13.9168 11.4958 12.0417 11.4958C10.1666 11.4958 8.65332 9.98252 8.65332 8.10742" stroke="#7E8AC1" stroke-width="1.5" stroke-linecap="round" stroke-linejoin="round"/>
<path d="M22.2064 8.10742C22.2064 9.98252 20.6931 11.4958 18.818 11.4958C16.9429 11.4958 15.4297 9.98252 15.4297 8.10742" stroke="#7E8AC1" stroke-width="1.5" stroke-linecap="round" stroke-linejoin="round"/>
<path d="M1.87646 8.10675L5.98853 2.09766H18.0944L22.2065 8.10675" stroke="#7E8AC1" stroke-width="1.5" stroke-linecap="round" stroke-linejoin="round"/>
<path d="M8.65332 8.10675L10.0021 2.09766" stroke="#7E8AC1" stroke-width="1.5" stroke-linecap="round" stroke-linejoin="round"/>
<path d="M15.43 8.10675L14.1689 2.09766" stroke="#7E8AC1" stroke-width="1.5" stroke-linecap="round" stroke-linejoin="round"/>
<path d="M3.51074 14.6648V19.7025C3.51074 21.3594 4.85389 22.7025 6.51074 22.7025H17.5731C19.2299 22.7025 20.5731 21.3594 20.5731 19.7025V11.3203" stroke="#7E8AC1" stroke-width="1.5" stroke-linecap="round" stroke-linejoin="round"/>
<path d="M16.4824 14.8184H7.61133V19.7638H16.4824V14.8184Z" stroke="#7E8AC1" stroke-width="1.5" stroke-linecap="round" stroke-linejoin="round"/>
</svg>
