<svg width="24" height="25" viewBox="0 0 24 25" fill="none" xmlns="http://www.w3.org/2000/svg">
<path d="M12 4.01371C11.303 4.01371 10.6132 3.75198 10.1864 3.20101L9.73424 2.61739C9.12172 1.82675 8.01933 1.61013 7.15318 2.1102L5.84684 2.86441C4.98069 3.36448 4.6171 4.4275 4.99556 5.35327L5.27481 6.03638C5.5387 6.68189 5.42168 7.40688 5.0722 8.01035V8.01035C4.72303 8.61329 4.15039 9.08411 3.46003 9.17825L2.72977 9.27783C1.7388 9.41297 1 10.2594 1 11.2595V12.7679C1 13.7681 1.7388 14.6145 2.72977 14.7496L3.46006 14.8492C4.1504 14.9433 4.72303 15.4141 5.07219 16.017V16.017C5.42166 16.6205 5.53867 17.3455 5.27479 17.991L4.99554 18.6741C4.61708 19.5998 4.98067 20.6629 5.84682 21.1629L7.15316 21.9171C8.01931 22.4172 9.1217 22.2006 9.73422 21.41L10.1863 20.8264C10.6131 20.2754 11.303 20.0137 12 20.0137V20.0137V20.0137C12.6971 20.0137 13.387 20.2755 13.8139 20.8265L14.2658 21.4098C14.8783 22.2004 15.9807 22.417 16.8468 21.917L18.1532 21.1628C19.0193 20.6627 19.3829 19.5997 19.0045 18.6739L18.7252 17.9909C18.4614 17.3454 18.5784 16.6204 18.9278 16.017V16.017C19.277 15.4141 19.8496 14.9433 20.5399 14.8492L21.2702 14.7496C22.2612 14.6145 23 13.7681 23 12.7679V11.2595C23 10.2594 22.2612 9.41297 21.2702 9.27783L20.5399 9.17825C19.8496 9.08411 19.277 8.61331 18.9278 8.01038V8.01038C18.5784 7.40693 18.4613 6.68197 18.7252 6.03649L19.0044 5.35345C19.3829 4.42768 19.0193 3.36466 18.1532 2.86459L16.8468 2.11037C15.9807 1.6103 14.8783 1.82693 14.2658 2.61757L13.8138 3.20093C13.3869 3.75196 12.697 4.01371 12 4.01371V4.01371V4.01371Z" stroke="#8D99D2" stroke-width="1.5" stroke-linecap="round" stroke-linejoin="round"/>
<path d="M15 12.0137C15 13.6705 13.6569 15.0137 12 15.0137C10.3431 15.0137 9 13.6705 9 12.0137C9 10.3568 10.3431 9.01367 12 9.01367C13.6569 9.01367 15 10.3568 15 12.0137Z" stroke="#8D99D2" stroke-width="1.5" stroke-linecap="round" stroke-linejoin="round"/>
</svg>
