<svg width="24" height="25" viewBox="0 0 24 25" fill="none" xmlns="http://www.w3.org/2000/svg">
<path d="M7.49988 10.29L16.5 4.79004M12 13.29L21 7.79004M12 13.29L3 7.79004M12 13.29V23.29M2 10.5078V15.0723C2 16.0634 2 16.5589 2.14219 17.0041C2.26802 17.3981 2.47396 17.7619 2.74708 18.0725C3.05572 18.4235 3.48062 18.6784 4.33042 19.1883L9.53042 22.3083C10.4283 22.847 10.8773 23.1164 11.3565 23.2216C11.7805 23.3147 12.2195 23.3147 12.6435 23.2216C13.1227 23.1164 13.5717 22.847 14.4696 22.3083L19.6696 19.1883C20.5194 18.6784 20.9443 18.4235 21.2529 18.0725C21.526 17.7619 21.732 17.3981 21.8578 17.0041C22 16.5589 22 16.0634 22 15.0723V10.5078C22 9.51673 22 9.02121 21.8578 8.57597C21.732 8.18196 21.526 7.81822 21.2529 7.50761C20.9443 7.15661 20.5194 6.90167 19.6696 6.39179L14.4696 3.27179C13.5717 2.73305 13.1227 2.46368 12.6435 2.35843C12.2195 2.26534 11.7805 2.26534 11.3565 2.35843C10.8773 2.46368 10.4283 2.73305 9.53042 3.27179L4.33042 6.39179C3.48062 6.90167 3.05572 7.15661 2.74708 7.50761C2.47396 7.81822 2.26802 8.18196 2.14219 8.57597C2 9.02121 2 9.51673 2 10.5078Z" stroke="#8D99D2" stroke-width="1.5" stroke-linecap="round" stroke-linejoin="round"/>
</svg>
