<svg width="41" height="41" viewBox="0 0 41 41" fill="none" xmlns="http://www.w3.org/2000/svg">
<rect x="0.958496" y="0.116211" width="40" height="40" rx="4" fill="#390000"/>
<path d="M12.9951 28.9193C11.0787 27.3503 10.0664 25.0917 10.0664 22.3942V9.57161C13.0927 7.96736 16.7571 7.1543 20.9584 7.1543C25.1598 7.1543 28.8246 7.96736 31.8504 9.57161V22.3943C31.8504 25.0918 30.8382 27.3487 28.9218 28.9194C27.1685 30.3564 21.5978 32.8008 20.958 33.079C20.3191 32.8008 14.7483 30.3568 12.9951 28.9193Z" fill="#390000"/>
<path d="M31.2541 9.42075C29.854 9.29078 28.3995 9.20493 26.918 9.20493C21.4234 9.20493 15.5328 10.3861 10.6629 14.8526V22.4872C10.6629 24.9737 11.5825 27.0501 13.3296 28.4742C14.8723 29.7293 19.6199 31.8794 20.9585 32.4702C22.2801 31.8884 27.0155 29.7666 28.5854 28.4742C30.3435 27.0254 31.2541 24.9972 31.2541 22.4872V9.42075ZM11.6695 21.6927V15.4923H13.641V21.7801C13.641 22.3398 13.7763 23.1682 14.6804 23.1682C15.0081 23.1814 15.3323 23.0968 15.6117 22.9252V15.4923H17.5808V24.0497C16.6915 24.6047 15.6563 24.8805 14.6088 24.8417C12.6571 24.8417 11.6675 23.7824 11.6675 21.6927M20.5682 28.8495H18.5955V15.9944C19.3935 15.5043 20.3182 15.2603 21.2541 15.2927C23.6087 15.2927 24.9023 17.0792 24.9023 19.9544C24.9023 22.8297 23.6471 24.8077 21.4566 24.8077C21.1567 24.813 20.8577 24.7753 20.5686 24.6955L20.5682 28.8495ZM20.5682 23.0836C20.773 23.1603 20.9897 23.2006 21.2083 23.2026C22.3421 23.2026 22.8855 22.1608 22.8855 20.0038C22.8855 17.7942 22.4113 16.8803 21.2658 16.8803C21.0255 16.8783 20.7874 16.9268 20.567 17.0225L20.5682 23.0836ZM25.3493 17.8635C25.375 16.4249 26.557 15.2767 27.9958 15.2927C28.7694 15.2517 29.5337 15.4778 30.1604 15.9332V17.6489C29.6959 17.1642 29.0642 16.8746 28.3938 16.8391C27.8346 16.8342 27.2528 17.08 27.2337 17.7813C27.2147 18.4992 27.7953 18.7826 28.5295 19.2143C30.177 20.1828 30.4957 21.0534 30.4576 22.2037C30.4199 23.465 29.5506 24.8425 27.6018 24.8425C26.8376 24.8339 26.0894 24.6227 25.4335 24.2303V22.4135C25.9546 22.8843 26.6183 23.1668 27.3188 23.216C28.0424 23.2196 28.5186 22.805 28.5015 22.1171C28.4866 21.498 28.1371 21.1615 27.2694 20.6517C25.6428 19.6978 25.3505 18.9126 25.3477 17.8635M12.6696 29.2783C10.6739 27.6436 9.62109 25.2947 9.62109 22.4871V9.1401C12.7709 7.47029 16.5855 6.62402 20.9585 6.62402C25.3315 6.62402 29.1461 7.47029 32.2959 9.1401V22.4871C32.2959 25.2947 31.2432 27.6436 29.2474 29.2786C27.4229 30.7744 21.6242 33.3184 20.9585 33.6079C20.2929 33.3184 14.4941 30.7744 12.6696 29.2783ZM28.1954 32.0758V33.2342H28.4043V32.7507H28.4339C28.4497 32.7743 28.7485 33.2342 28.7485 33.2342H29.0016C29.0016 33.2342 28.6841 32.7698 28.6517 32.726C28.8013 32.7005 28.91 32.57 28.908 32.4183C28.9117 32.232 28.7638 32.0781 28.5775 32.0743C28.5591 32.074 28.5407 32.0751 28.5226 32.0778L28.1954 32.0758ZM28.4999 32.245C28.6777 32.245 28.7024 32.3321 28.7024 32.407C28.7024 32.5155 28.6558 32.5888 28.4319 32.5888H28.4048V32.2442L28.4999 32.245ZM29.3179 32.658C29.317 33.0912 28.9651 33.4416 28.5319 33.4407C28.0988 33.4398 27.7483 33.088 27.7492 32.6548C27.7501 32.2226 28.1005 31.8726 28.5327 31.8721C28.9659 31.8716 29.3174 32.2224 29.3179 32.6556V32.658ZM28.5303 31.7045C28.0046 31.7052 27.5789 32.1319 27.5796 32.6576C27.5803 33.1833 28.007 33.609 28.5327 33.6083C29.0573 33.6077 29.4826 33.1827 29.4835 32.658C29.4828 32.1318 29.0565 31.7054 28.5303 31.7045Z" fill="#FFBE00"/>
</svg>
