<svg width="35" height="29" viewBox="0 0 35 29" fill="none" xmlns="http://www.w3.org/2000/svg">
<path d="M30.1824 20.7314L34.5746 0.0667785H5.81358L1.42139 20.7314H30.1824Z" fill="white"/>
<path d="M33.63 0.827335L6.42736 0.828957L6.41097 0.919686C6.41097 0.919686 22.4032 4.20326 22.7201 4.25973C26.3944 4.90827 26.2807 5.61715 26.2807 5.61715C28.8555 5.60424 29.1718 5.70842 29.6219 6.0835C30.9755 7.21443 28.775 10.5465 28.775 10.5465C28.4604 10.7788 4.67108 19.9656 4.67108 19.9656H29.5597L33.6294 0.82803L33.63 0.827335ZM19.4946 5.25261C18.7734 5.24676 18.2658 5.25749 18.2077 5.25423H5.49306H5.49035L2.36572 19.9707C2.36572 19.9707 11.9364 15.2738 13.107 14.672C15.5052 13.4403 18.8216 11.8124 21.8866 10.7687C22.4706 10.571 24.9722 9.79953 26.429 9.5398C26.9937 9.43896 27.2341 9.34296 27.2268 9.23729C27.205 8.9356 26.6368 8.91574 25.6753 8.96252C22.7416 9.10046 17.1197 11.3395 15.5012 12.1929L13.6749 6.53129H25.3474C25.7404 5.42992 21.6583 5.26958 19.4946 5.25261ZM25.683 6.61636C25.5983 6.61636 25.5256 6.67354 25.4272 6.80665C25.3377 6.922 25.265 6.99974 25.0327 7.1167C24.6721 7.29417 23.7295 7.39346 23.2883 7.43056C22.8648 7.46603 22.7498 7.50881 22.7426 7.67253C22.7382 7.81854 22.8057 7.90195 23.4131 7.90195C24.811 7.90195 27.3271 7.37464 28.0853 7.61583C28.4854 7.74408 28.1641 8.45693 27.8358 9.39425C27.7083 9.75643 27.9578 9.73088 28.103 9.57197C28.2482 9.41225 28.9004 8.21779 28.9714 7.60957C29.0722 6.74563 28.331 6.61636 27.3089 6.61636H25.683Z" fill="#15569C"/>
<path d="M1.78099 22.0909C1.78099 22.0909 1.63626 22.7719 1.42037 23.7879C1.29118 24.3742 1.6866 24.6398 2.34521 24.6398C3.00633 24.6398 3.50881 24.3742 3.63463 23.7879C4.00138 22.0908 3.63072 23.788 4.0014 22.0909H3.4486C3.4486 22.0909 3.16937 23.3965 3.12096 23.62C3.03765 24.0115 2.83113 24.2453 2.42613 24.2453C2.00309 24.2419 1.91638 24.0078 2.00307 23.62C1.99322 23.6591 2.33201 22.0909 2.33201 22.0909H1.78099ZM4.53092 22.0909L3.99967 24.5945H4.48913L4.87569 22.7364H4.8867L5.50502 24.5945H6.19985L6.73023 22.0909H6.24164L5.84715 23.9696H5.84056L5.24642 22.0909H4.53092ZM7.26013 22.0909L6.73021 24.5945H7.28168L7.81248 22.0909H7.26013ZM8.18234 22.0909L8.09482 22.4893H8.87366L8.42642 24.5945H8.97834L9.42516 22.4893H10.2036L10.2875 22.0909H8.18234ZM10.6582 22.0909L10.1239 24.5945H11.9384L12.0229 24.196H10.7629L10.9063 23.5117H12.0057L12.0853 23.1419H10.9863L11.1253 22.4893H12.3866L12.4697 22.0908L10.6582 22.0909ZM12.8721 22.0909L12.3421 24.5945H13.4728C14.1714 24.5945 14.8416 24.1339 14.9922 23.2329C15.0997 22.594 14.8448 22.0908 14.0871 22.0908L12.8721 22.0909ZM17.0223 22.0909C16.3735 22.0909 16.051 22.3212 16.0029 22.6815C15.9227 23.2813 16.9839 23.6377 16.904 23.9968C16.8547 24.2068 16.5967 24.196 16.3873 24.196H15.7069L15.6225 24.5945H16.4677C17.1593 24.5945 17.4594 24.3464 17.5148 24.0039C17.6156 23.3894 16.5375 23.0721 16.6217 22.6744C16.6492 22.552 16.7849 22.4893 17.0852 22.4893H17.6754L17.762 22.0909H17.0223ZM18.0456 22.0909L17.959 22.4893H18.7374L18.2906 24.5945H18.842L19.2889 22.4893H20.0677L20.1517 22.0909H18.0456ZM20.7361 22.0909L19.3016 24.5945H19.8535L20.9529 22.5873L21.1732 24.196H20.3834L20.1675 24.5944H21.7867L21.3962 22.0908L20.7361 22.0909ZM22.0053 22.0909L21.9182 22.4893H22.6966L22.2498 24.5945H22.8013L23.2481 22.4893H24.026L24.1105 22.0909H22.0053ZM24.4785 22.0909L23.9437 24.5945H25.7591L25.8435 24.196H24.5823L24.7256 23.5117H25.8255L25.9056 23.1419H24.8061L24.946 22.4893H26.2059L26.2899 22.0908L24.4785 22.0909ZM27.5038 22.0909C26.8542 22.0909 26.5329 22.3212 26.484 22.6815C26.4037 23.2813 27.465 23.6377 27.3851 23.9968C27.3358 24.2068 27.0773 24.196 26.8679 24.196H26.1871L26.1036 24.5945H26.9479C27.6395 24.5945 27.9401 24.3464 27.9964 24.0039C28.0968 23.3894 27.0185 23.0721 27.1019 22.6744C27.13 22.552 27.2664 22.4893 27.5667 22.4893H28.1555L28.2439 22.0909H27.5038ZM13.3435 22.4893H13.9064C14.3632 22.4893 14.5265 22.8282 14.457 23.2259C14.3596 23.7883 13.9998 24.1961 13.3756 24.1961H12.9811L13.3435 22.4893Z" fill="#15569C"/>
<path d="M1.09259 25.1172L1.05347 25.3029H29.4692L29.5074 25.1172H1.09456H1.09259Z" fill="#ED192D"/>
<path d="M4.49817 25.6045C3.73281 25.6045 3.09512 26.0044 2.90829 26.8838C2.76067 27.5872 3.18837 28.1661 3.9504 28.1661C4.72301 28.1661 5.3436 27.784 5.53681 26.8838C5.695 26.1496 5.25686 25.6045 4.49817 25.6045ZM26.3269 25.6045C25.5679 25.6045 24.8376 25.9972 24.651 26.8838C24.4617 27.7698 25.0233 28.1661 25.7826 28.1661C25.9925 28.1661 26.1938 28.1424 26.3934 28.1118L26.5276 27.6866C26.3313 27.7352 26.1235 27.7734 25.8647 27.7734C25.3715 27.7734 25.093 27.4426 25.2101 26.8838C25.3274 26.325 25.7478 25.9972 26.2404 25.9972C26.4929 25.9972 26.6648 26.0317 26.8199 26.0767L26.8686 25.6597C26.6932 25.6288 26.5104 25.6045 26.3269 25.6045ZM6.86952 25.6488C6.2276 25.6488 5.90982 25.8766 5.86173 26.2322C5.7825 26.8255 6.83064 27.177 6.75224 27.5323C6.70387 27.7392 6.44823 27.7287 6.24139 27.7287H5.56895L5.48555 28.1218H6.3209C7.0037 28.1218 7.30015 27.8769 7.3552 27.5388C7.45528 26.9322 6.38993 26.6181 6.47249 26.2252C6.50002 26.1043 6.63461 26.0424 6.93208 26.0424H7.51373L7.60061 25.6488L6.86952 25.6488ZM7.87993 25.6488L7.79392 26.0424H8.5628L8.12144 28.1218H8.66617L9.10839 26.0424H9.87685L9.95895 25.6488H7.87993ZM15.8398 25.6488C15.1979 25.6488 14.8802 25.8766 14.8324 26.2322C14.7526 26.8255 15.8009 27.177 15.7225 27.5323C15.6741 27.7392 15.4185 27.7287 15.2117 27.7287H14.5392L14.4563 28.1218H15.2912C15.9737 28.1218 16.2704 27.8769 16.3255 27.5388C16.4255 26.9322 15.3604 26.6181 15.4419 26.2252C15.4697 26.1043 15.6048 26.0424 15.9015 26.0424H16.484L16.57 25.6488L15.8398 25.6488ZM17.0422 25.6488L16.5144 28.1218H18.308L18.3906 27.7287H17.1456L17.2872 27.0523H18.3736L18.4527 26.6865H17.3667L17.504 26.0423H18.7494L18.8315 25.6488L17.0422 25.6488ZM19.2276 25.6488L18.7033 28.1218H19.2481L19.6894 26.0389H20.179C20.4823 26.0389 20.5096 26.2075 20.4787 26.3629C20.4206 26.6559 20.1652 26.773 19.8858 26.773C19.8341 26.773 19.7472 26.7766 19.6786 26.7661L20.1273 28.1218H20.7237L20.3167 27.0558C20.6789 27.0044 20.9898 26.7459 21.0234 26.2799C21.0551 25.866 20.862 25.6488 20.3797 25.6488L19.2276 25.6488ZM27.3087 25.6488L26.7822 28.1218H28.5754L28.658 27.7287H27.4134L27.5546 27.0523H28.641L28.7201 26.6865H27.6341L27.7722 26.0423H29.0168L29.0993 25.6488L27.3087 25.6488ZM1.0331 25.6492L0.508789 28.1218H1.05396L1.49532 26.0423H1.93969C2.14042 26.0423 2.27756 26.142 2.21944 26.4111C2.18886 26.5593 2.05376 26.8147 1.68123 26.8147C1.59866 26.8147 1.50924 26.8043 1.44058 26.7973L1.46794 27.1565C1.54689 27.1635 1.64037 27.1765 1.72685 27.1765C2.21642 27.1765 2.64732 26.8942 2.74767 26.4246C2.813 26.1146 2.75076 25.6492 2.21639 25.6492L1.0331 25.6492ZM10.5412 25.6492L9.12503 28.1218H9.66889L10.7562 26.1388L10.9725 27.7286H10.1936L9.97992 28.1218H11.5794L11.1941 25.6493L10.5412 25.6492ZM12.3878 25.6492L11.8639 28.1218H13.5368L13.6228 27.7286H12.4951L12.9364 25.6492L12.3878 25.6492ZM21.3129 25.6492L21.6852 28.1218H22.3294L23.7373 25.6492H23.1991L22.1131 27.6327L21.8577 25.6492H21.3129ZM24.0657 25.6492L23.5418 28.1218H24.0865L24.6108 25.6492H24.0657ZM4.41212 25.9973C4.91562 25.9973 5.08489 26.3832 4.97814 26.8839C4.85998 27.4427 4.52929 27.7735 4.03636 27.7735C3.52566 27.7735 3.35663 27.3632 3.46339 26.8839C3.59099 26.3251 3.91922 25.9973 4.41212 25.9973Z" fill="#15569C"/>
</svg>
