<svg width="48" height="49" viewBox="0 0 48 49" fill="none" xmlns="http://www.w3.org/2000/svg">
<path d="M4 21.5C2.89543 21.5 1.98755 20.6012 2.12156 19.5048C2.64785 15.1991 4.86603 11.1547 8.44365 8.06497C12.5695 4.50178 18.1652 2.5 24 2.5C29.8348 2.5 35.4305 4.50178 39.5563 8.06497C43.134 11.1547 45.3521 15.1991 45.8784 19.5048C46.0125 20.6012 45.1046 21.5 44 21.5L24 21.5L4 21.5Z" fill="#1AF9FF"/>
<rect width="16" height="16" rx="3" transform="matrix(-1 0 0 1 32 30.5)" fill="#1AF9FF"/>
<path d="M45.9948 20.375C46.0637 21.1313 45.4348 21.75 44.6767 21.75H41.5149L31.5041 31.7359C31.9865 32.4063 32.2708 33.2313 32.2708 34.125V42.375C32.2708 44.6523 30.4185 46.5 28.1355 46.5H19.7874C17.5819 46.5 15.6521 44.6523 15.6521 42.375V34.125C15.6521 33.2313 16.0139 32.4063 16.4964 31.7359L6.48467 21.75H3.24621C2.56243 21.75 1.93989 21.1313 2.00464 20.375C2.69312 12.3313 9.4035 2.5 23.9227 2.5H24.0088C38.603 2.50451 45.3056 12.3313 45.9948 20.375ZM24.6894 21.75V30H28.1355C29.0315 30 29.781 30.2836 30.5305 30.7648L39.5679 21.75H24.6894ZM23.2335 21.75H8.43342L17.4699 30.7648C18.1419 30.2836 18.9689 30 19.7874 30H23.2335V21.75ZM3.38923 20.375H11.5168C11.5168 13.4227 14.2737 7.40016 18.3659 4.44391C8.54284 6.5468 3.97592 14.093 3.38923 20.375ZM16.3585 8.5182C14.2909 11.4977 12.8952 15.6828 12.8952 20.375H35.0277C35.0277 15.6828 33.7096 11.4977 31.6419 8.5182C29.5656 5.53531 26.8432 3.875 23.9227 3.875C21.0797 3.875 18.4348 5.53531 16.3585 8.5182ZM29.6346 4.44391C33.6492 7.40016 36.4061 13.4227 36.4061 20.375H44.6078C44.0219 14.093 39.4559 6.5468 29.6346 4.44391ZM19.7874 31.375C18.34 31.375 17.0305 32.6039 17.0305 34.125V42.375C17.0305 43.8961 18.34 45.125 19.7874 45.125H28.1355C29.6604 45.125 30.8924 43.8961 30.8924 42.375V34.125C30.8924 32.6039 29.6604 31.375 28.1355 31.375H19.7874Z" fill="#275AFF"/>
</svg>
