<svg width="25" height="25" viewBox="0 0 25 25" fill="none" xmlns="http://www.w3.org/2000/svg">
<path d="M13.3701 0.587778C13.2204 0.497988 13.1456 0.453093 13.0657 0.435552C12.9951 0.420037 12.9219 0.420037 12.8513 0.435552C12.7714 0.453093 12.6965 0.497988 12.5469 0.587778L3.61147 5.94903C3.23186 6.1768 3.04205 6.29069 2.97816 6.43763C2.92241 6.56586 2.9229 6.71158 2.97951 6.83944C3.04439 6.98595 3.23495 7.09855 3.61609 7.32377L6.83129 9.22366C6.98149 9.31242 7.05658 9.35679 7.13655 9.3738C7.20728 9.38884 7.28044 9.38836 7.35097 9.3724C7.4307 9.35434 7.50521 9.30899 7.65423 9.21828L16.5012 3.83318C16.8745 3.60594 17.0612 3.49232 17.1243 3.34622C17.1794 3.21868 17.1789 3.07398 17.123 2.9468C17.059 2.8011 16.8716 2.68868 16.4968 2.46382L13.3701 0.587778Z" fill="#263682"/>
<path d="M9.84759 9.63923C9.4718 9.86797 9.28391 9.98234 9.22088 10.1291C9.16588 10.2572 9.16683 10.4024 9.22351 10.5297C9.28844 10.6756 9.47782 10.7875 9.85657 11.0113L12.5515 12.6038C12.6996 12.6913 12.7736 12.7351 12.8526 12.7522C12.9224 12.7673 12.9946 12.7673 13.0644 12.7522C13.1433 12.7351 13.2174 12.6913 13.3655 12.6038L22.3009 7.32377C22.682 7.09855 22.8726 6.98594 22.9375 6.83944C22.9941 6.71158 22.9946 6.56586 22.9388 6.43763C22.8749 6.29069 22.6851 6.1768 22.3055 5.94903L19.4994 4.26533C19.3487 4.17493 19.2733 4.12973 19.193 4.11223C19.1218 4.09676 19.0482 4.097 18.9772 4.11292C18.8969 4.13093 18.8219 4.17661 18.6718 4.26797L9.84759 9.63923Z" fill="#263682"/>
<path d="M23.7085 9.63628C23.7085 9.17692 23.7085 8.94725 23.6121 8.81543C23.5281 8.70047 23.399 8.62681 23.2572 8.61293C23.0947 8.59701 22.897 8.71385 22.5015 8.94754L14.1015 13.9112C13.9583 13.9958 13.8866 14.0382 13.8346 14.0968C13.7885 14.1487 13.7537 14.2096 13.7325 14.2757C13.7085 14.3503 13.7085 14.4335 13.7085 14.5999V22.2272C13.7085 22.6896 13.7085 22.9209 13.8055 23.0529C13.89 23.1681 14.0198 23.2416 14.1621 23.2549C14.3252 23.2701 14.5235 23.1511 14.9201 22.9131L22.1549 18.5723C22.7214 18.2324 23.0047 18.0624 23.2104 17.8284C23.3925 17.6213 23.5298 17.3788 23.6137 17.1162C23.7085 16.8193 23.7085 16.489 23.7085 15.8283V9.63628Z" fill="#263682"/>
<path d="M10.9969 22.9131C11.3935 23.1511 11.5918 23.2701 11.7549 23.2549C11.8972 23.2416 12.027 23.1681 12.1115 23.0529C12.2085 22.9209 12.2085 22.6896 12.2085 22.2272V14.5999C12.2085 14.4335 12.2085 14.3503 12.1845 14.2757C12.1632 14.2096 12.1285 14.1487 12.0824 14.0968C12.0304 14.0382 11.9587 13.9958 11.8155 13.9112L3.41548 8.94754C3.02001 8.71385 2.82227 8.59701 2.65975 8.61293C2.51802 8.62681 2.38894 8.70047 2.30488 8.81543C2.2085 8.94725 2.2085 9.17692 2.2085 9.63628V15.8283C2.2085 16.489 2.2085 16.8193 2.30329 17.1162C2.38717 17.3788 2.52447 17.6213 2.70655 17.8284C2.91231 18.0624 3.19558 18.2324 3.76211 18.5723L10.9969 22.9131Z" fill="#263682"/>
<path d="M13.3701 0.587778C13.2204 0.497988 13.1456 0.453093 13.0657 0.435552C12.9951 0.420037 12.9219 0.420037 12.8513 0.435552C12.7714 0.453093 12.6965 0.497988 12.5469 0.587778L3.61147 5.94903C3.23186 6.1768 3.04205 6.29069 2.97816 6.43763C2.92241 6.56586 2.9229 6.71158 2.97951 6.83944C3.04439 6.98595 3.23495 7.09855 3.61609 7.32377L6.83129 9.22366C6.98149 9.31242 7.05658 9.35679 7.13655 9.3738C7.20728 9.38884 7.28044 9.38836 7.35097 9.3724C7.4307 9.35434 7.50521 9.30899 7.65423 9.21828L16.5012 3.83318C16.8745 3.60594 17.0612 3.49232 17.1243 3.34622C17.1794 3.21868 17.1789 3.07398 17.123 2.9468C17.059 2.8011 16.8716 2.68868 16.4968 2.46382L13.3701 0.587778Z" stroke="#263682"/>
<path d="M9.84759 9.63923C9.4718 9.86797 9.28391 9.98234 9.22088 10.1291C9.16588 10.2572 9.16683 10.4024 9.22351 10.5297C9.28844 10.6756 9.47782 10.7875 9.85657 11.0113L12.5515 12.6038C12.6996 12.6913 12.7736 12.7351 12.8526 12.7522C12.9224 12.7673 12.9946 12.7673 13.0644 12.7522C13.1433 12.7351 13.2174 12.6913 13.3655 12.6038L22.3009 7.32377C22.682 7.09855 22.8726 6.98594 22.9375 6.83944C22.9941 6.71158 22.9946 6.56586 22.9388 6.43763C22.8749 6.29069 22.6851 6.1768 22.3055 5.94903L19.4994 4.26533C19.3487 4.17493 19.2733 4.12973 19.193 4.11223C19.1218 4.09676 19.0482 4.097 18.9772 4.11292C18.8969 4.13093 18.8219 4.17661 18.6718 4.26797L9.84759 9.63923Z" stroke="#263682"/>
<path d="M23.7085 9.63628C23.7085 9.17692 23.7085 8.94725 23.6121 8.81543C23.5281 8.70047 23.399 8.62681 23.2572 8.61293C23.0947 8.59701 22.897 8.71385 22.5015 8.94754L14.1015 13.9112C13.9583 13.9958 13.8866 14.0382 13.8346 14.0968C13.7885 14.1487 13.7537 14.2096 13.7325 14.2757C13.7085 14.3503 13.7085 14.4335 13.7085 14.5999V22.2272C13.7085 22.6896 13.7085 22.9209 13.8055 23.0529C13.89 23.1681 14.0198 23.2416 14.1621 23.2549C14.3252 23.2701 14.5235 23.1511 14.9201 22.9131L22.1549 18.5723C22.7214 18.2324 23.0047 18.0624 23.2104 17.8284C23.3925 17.6213 23.5298 17.3788 23.6137 17.1162C23.7085 16.8193 23.7085 16.489 23.7085 15.8283V9.63628Z" stroke="#263682"/>
<path d="M10.9969 22.9131C11.3935 23.1511 11.5918 23.2701 11.7549 23.2549C11.8972 23.2416 12.027 23.1681 12.1115 23.0529C12.2085 22.9209 12.2085 22.6896 12.2085 22.2272V14.5999C12.2085 14.4335 12.2085 14.3503 12.1845 14.2757C12.1632 14.2096 12.1285 14.1487 12.0824 14.0968C12.0304 14.0382 11.9587 13.9958 11.8155 13.9112L3.41548 8.94754C3.02001 8.71385 2.82227 8.59701 2.65975 8.61293C2.51802 8.62681 2.38894 8.70047 2.30488 8.81543C2.2085 8.94725 2.2085 9.17692 2.2085 9.63628V15.8283C2.2085 16.489 2.2085 16.8193 2.30329 17.1162C2.38717 17.3788 2.52447 17.6213 2.70655 17.8284C2.91231 18.0624 3.19558 18.2324 3.76211 18.5723L10.9969 22.9131Z" stroke="#263682"/>
</svg>
