<svg width="41" height="41" viewBox="0 0 41 41" fill="none" xmlns="http://www.w3.org/2000/svg">
<rect x="0.958496" y="0.116211" width="40" height="40" rx="4" fill="#F5F6FC"/>
<path d="M37.4197 21.0491C37.4197 20.5363 37.0559 20.1602 36.5537 20.1602C36.0524 20.1602 35.6877 20.5363 35.6877 21.0491C35.6877 21.5618 36.0524 21.9376 36.5537 21.9376C37.0558 21.9376 37.4197 21.5618 37.4197 21.0491ZM36.3264 21.0945V21.6758H36.1383V20.3936H36.6052C36.8784 20.3936 37.0043 20.5134 37.0043 20.7469C37.0043 20.8896 36.907 21.0036 36.7818 21.02V21.0262C36.8898 21.0434 36.9298 21.1402 36.9527 21.3169C36.9699 21.4305 36.9928 21.6301 37.0329 21.6758H36.8105C36.7589 21.5561 36.7646 21.3852 36.7246 21.2429C36.6911 21.1345 36.6339 21.0945 36.5087 21.0945H36.3264ZM36.5594 20.9292C36.7418 20.9292 36.7933 20.8324 36.7933 20.7469C36.7933 20.6447 36.7418 20.5649 36.5594 20.5649H36.3264V20.9292H36.5594ZM35.4824 21.0491C35.4824 20.4165 35.9845 19.9893 36.5537 19.9893C37.1237 19.9893 37.625 20.4165 37.625 21.0491C37.625 21.6816 37.1237 22.1089 36.5537 22.1089C35.9846 22.1089 35.4824 21.6816 35.4824 21.0491Z" fill="#EE7203"/>
<path d="M31.7705 21.9245L30.5353 20.5392L29.3115 21.9245H26.7368L29.2539 19.0962L26.7368 16.2676H29.3925L30.6392 17.6414L31.8397 16.2676H34.403L31.8978 19.0846L34.4373 21.9245H31.7705Z" fill="#EE7203"/>
<path d="M21.7906 21.9249L20.5815 17.354L21.7906 13.0137H26.7369V15H23.8857V16.268H26.7369V18.179H23.8857V19.9332H26.7369V21.9249H21.7906Z" fill="#EE7203"/>
<path d="M19.7041 13.0137V16.6605H19.6812C19.2192 16.1296 18.642 15.945 17.9725 15.945C16.6007 15.945 15.5674 16.8777 15.2047 18.1104C14.7909 16.7521 13.7242 15.9196 12.1424 15.9196C10.8577 15.9196 9.84348 16.4961 9.31399 17.4357V16.268H6.65873V15H9.5565V13.0137H4.29175V21.9248H6.65873V18.1791H9.01796C8.94765 18.4543 8.90996 18.7489 8.90996 19.0598C8.90996 20.9186 10.33 22.2229 12.1424 22.2229C13.6663 22.2229 14.6707 21.5074 15.2019 20.2031H13.1734C12.8991 20.5952 12.6909 20.7114 12.1424 20.7114C11.5064 20.7114 10.9579 20.1565 10.9579 19.4986H15.0883C15.2674 20.975 16.4175 22.2483 17.9958 22.2483C18.6766 22.2483 19.3001 21.9134 19.6812 21.3479H19.7041V21.9249H21.7906V13.0137H19.7041ZM11.0238 18.2056C11.1555 17.6398 11.5945 17.2697 12.1426 17.2697C12.7459 17.2697 13.1625 17.6283 13.272 18.2056H11.0238ZM18.4378 20.5682C17.6687 20.5682 17.1908 19.8514 17.1908 19.1032C17.1908 18.3034 17.6066 17.5343 18.4378 17.5343C19.3 17.5343 19.6432 18.3034 19.6432 19.1032C19.6432 19.8616 19.2793 20.5682 18.4378 20.5682Z" fill="#482683"/>
<path d="M21.791 26.3799V23.1865H23.5553V23.4249H22.0821V24.6021H23.4932V24.8404H22.0821V26.1411H23.6212V26.3799L21.791 26.3799Z" fill="#482683"/>
<path d="M23.8318 26.3801L24.6921 25.2332L23.8759 24.1484H24.2067L24.8728 25.0349L25.5254 24.1484H25.8562L25.027 25.2332L25.8914 26.3801H25.5565L24.8417 25.4315L24.1626 26.3801H23.8318Z" fill="#482683"/>
<path d="M26.4516 27.2175H26.1825V24.8145C26.1825 24.5937 26.1825 24.3693 26.1689 24.1484H26.4339L26.4429 24.4837C26.6102 24.2187 26.8305 24.0957 27.1617 24.0957C27.8495 24.0957 28.1447 24.6645 28.1447 25.2639C28.1447 25.8642 27.8494 26.4329 27.1617 26.4329C26.8527 26.4329 26.6102 26.3139 26.4515 26.058V27.2175H26.4516ZM27.8585 25.2639C27.8585 24.788 27.6598 24.3202 27.1307 24.3202C26.6323 24.3202 26.4516 24.7307 26.4516 25.2639C26.4516 25.7979 26.6324 26.2076 27.1307 26.2076C27.6598 26.2076 27.8585 25.7407 27.8585 25.2639Z" fill="#482683"/>
<path d="M29.5284 24.3553C29.0827 24.3553 28.9282 24.7307 28.9282 25.1183V26.3801H28.6591V24.8051C28.6591 24.5893 28.655 24.3693 28.646 24.1484H28.911L28.9282 24.4702C29.0606 24.2146 29.2814 24.0957 29.5767 24.0957C29.6163 24.0957 29.6605 24.0998 29.7002 24.1043V24.3734C29.6384 24.3643 29.5897 24.3553 29.5284 24.3553Z" fill="#482683"/>
<path d="M30.0295 25.3126C30.0295 25.8152 30.2675 26.2298 30.7569 26.2298C31.136 26.2298 31.3126 25.9787 31.3788 25.7272H31.6347C31.5153 26.1945 31.2288 26.4329 30.7217 26.4329C30.0426 26.4329 29.7424 25.93 29.7424 25.304C29.7424 24.6645 30.0556 24.0957 30.7569 24.0957C31.4671 24.0957 31.6568 24.7173 31.6568 25.3126H30.0295V25.3126ZM30.0381 25.1098H31.3698C31.3698 24.6731 31.1629 24.2982 30.7394 24.2982C30.3558 24.2982 30.0909 24.5893 30.0381 25.1098Z" fill="#482683"/>
<path d="M32.707 26.4329C32.2487 26.4329 31.9048 26.2167 31.9048 25.7272H32.1738C32.1738 26.0621 32.3942 26.2298 32.7205 26.2298C33.0247 26.2298 33.2627 26.0842 33.2627 25.7849C33.2627 25.5158 32.9851 25.4447 32.6939 25.3613C32.3414 25.2598 31.9575 25.1494 31.9575 24.7173C31.9575 24.2368 32.3587 24.0957 32.734 24.0957C33.1659 24.0957 33.488 24.263 33.5011 24.7258H33.2321C33.219 24.4617 33.0293 24.3116 32.7426 24.3116C32.5177 24.3116 32.2442 24.3995 32.2442 24.6906C32.2442 24.9556 32.5177 25.0305 32.8084 25.1098C33.1617 25.2067 33.5493 25.3126 33.5493 25.7448C33.5492 26.2477 33.1616 26.4329 32.707 26.4329Z" fill="#482683"/>
<path d="M34.5727 26.4329C34.1139 26.4329 33.77 26.2167 33.77 25.7272H34.0391C34.0391 26.0621 34.2595 26.2298 34.5862 26.2298C34.8904 26.2298 35.1284 26.0842 35.1284 25.7849C35.1284 25.5158 34.8504 25.4447 34.5592 25.3613C34.2067 25.2598 33.8232 25.1494 33.8232 24.7173C33.8232 24.2368 34.2243 24.0957 34.5993 24.0957C35.0311 24.0957 35.3532 24.263 35.3663 24.7258H35.0973C35.0842 24.4617 34.8945 24.3116 34.6078 24.3116C34.383 24.3116 34.1094 24.3995 34.1094 24.6906C34.1094 24.9556 34.383 25.0305 34.6741 25.1098C35.0269 25.2067 35.415 25.3126 35.415 25.7448C35.415 26.2477 35.027 26.4329 34.5727 26.4329Z" fill="#482683"/>
</svg>
