<svg width="41" height="41" viewBox="0 0 41 41" fill="none" xmlns="http://www.w3.org/2000/svg">
<g clip-path="url(#clip0_5729_36970)">
<rect x="0.958496" y="0.116211" width="40" height="40" rx="4.44444" fill="white"/>
<path d="M0.958496 0.116211H40.9585V40.1164H0.958496V0.116211Z" fill="#FFCC00"/>
<path d="M0.958496 21.8047H6.36787L6.0724 22.2067H0.958496V21.8047Z" fill="#D40511"/>
<path d="M0.958496 21.0586H6.91748L6.62139 21.4602H0.958496V21.0586Z" fill="#D40511"/>
<path d="M0.958496 22.5518H5.81873L5.52443 22.9509H0.958496L0.958496 22.5518Z" fill="#D40511"/>
<path d="M40.9583 22.2066H35.5701L35.8654 21.8047H40.9583V22.2066Z" fill="#D40511"/>
<path d="M40.9581 22.9509L35.022 22.9515L35.316 22.5518H40.9581V22.9509Z" fill="#D40511"/>
<path d="M36.4146 21.0586H40.9585V21.4605L36.1191 21.4609L36.4146 21.0586Z" fill="#D40511"/>
<path d="M6.19775 22.9514L8.76471 19.4639H11.95C12.3021 19.4639 12.2975 19.5975 12.1256 19.8307C11.9508 20.0674 11.6535 20.4745 11.4755 20.7148C11.3852 20.8369 11.2218 21.0593 11.763 21.0593H16.0303C15.6754 21.5455 14.5242 22.9514 12.4572 22.9514H6.19775Z" fill="#D40511"/>
<path d="M20.8981 21.0596L19.5062 22.9519H15.8342C15.8342 22.9519 17.2255 21.0599 17.2267 21.0599L20.8981 21.0596Z" fill="#D40511"/>
<path d="M26.2077 21.0596L24.8151 22.9516H21.1445C21.1445 22.9516 22.5359 21.0596 22.5372 21.0596H26.2077Z" fill="#D40511"/>
<path d="M27.4018 21.0596C27.4018 21.0596 27.1336 21.4264 27.0032 21.6025C26.5421 22.2257 26.9496 22.9516 28.4545 22.9516H34.3495L35.7418 21.0596L27.4018 21.0596Z" fill="#D40511"/>
<path d="M7.9933 17.2949L6.71533 19.0313H13.6804C14.0324 19.0313 14.0278 19.1649 13.8557 19.398C13.681 19.6345 13.3885 20.0462 13.2106 20.2866C13.1202 20.4084 12.9568 20.6308 13.4981 20.6308H16.3463C16.3463 20.6308 16.8056 20.006 17.1903 19.4837C17.7138 18.7733 17.2356 17.2949 15.364 17.2949H7.9933Z" fill="#D40511"/>
<path d="M26.5242 20.6309H17.5432L19.9992 17.2949H23.6698L22.2624 19.2076H23.9008L25.3091 17.2949H28.9794L26.5242 20.6309Z" fill="#D40511"/>
<path d="M34.0631 17.2949L31.6077 20.6309H27.718C27.718 20.6309 30.1743 17.2949 30.1754 17.2949H34.0631Z" fill="#D40511"/>
</g>
<defs>
<clipPath id="clip0_5729_36970">
<rect x="0.958496" y="0.116211" width="40" height="40" rx="4.44444" fill="white"/>
</clipPath>
</defs>
</svg>
