<svg width="44" height="45" viewBox="0 0 44 45" fill="none" xmlns="http://www.w3.org/2000/svg">
<path d="M43.9948 18.375C44.0637 19.1313 43.4348 19.75 42.6767 19.75H39.5149L29.5041 29.7359C29.9865 30.4063 30.2708 31.2313 30.2708 32.125V40.375C30.2708 42.6523 28.4185 44.5 26.1355 44.5H17.7874C15.5819 44.5 13.6521 42.6523 13.6521 40.375V32.125C13.6521 31.2313 14.0139 30.4063 14.4964 29.7359L4.48467 19.75H1.24621C0.562425 19.75 -0.0601088 19.1313 0.00464303 18.375C0.693118 10.3313 7.4035 0.5 21.9227 0.5H22.0088C36.603 0.504512 43.3056 10.3313 43.9948 18.375ZM22.6894 19.75V28H26.1355C27.0315 28 27.781 28.2836 28.5305 28.7648L37.5679 19.75H22.6894ZM21.2335 19.75H6.43342L15.4699 28.7648C16.1419 28.2836 16.9689 28 17.7874 28H21.2335V19.75ZM1.38923 18.375H9.5168C9.5168 11.4227 12.2737 5.40016 16.3659 2.44391C6.54284 4.5468 1.97592 12.093 1.38923 18.375ZM14.3585 6.5182C12.2909 9.49766 10.8952 13.6828 10.8952 18.375H33.0277C33.0277 13.6828 31.7096 9.49766 29.6419 6.5182C27.5656 3.53531 24.8432 1.875 21.9227 1.875C19.0797 1.875 16.4348 3.53531 14.3585 6.5182ZM27.6346 2.44391C31.6492 5.40016 34.4061 11.4227 34.4061 18.375H42.6078C42.0219 12.093 37.4559 4.5468 27.6346 2.44391ZM17.7874 29.375C16.34 29.375 15.0305 30.6039 15.0305 32.125V40.375C15.0305 41.8961 16.34 43.125 17.7874 43.125H26.1355C27.6604 43.125 28.8924 41.8961 28.8924 40.375V32.125C28.8924 30.6039 27.6604 29.375 26.1355 29.375H17.7874Z" fill="#626262"/>
</svg>
