<svg width="17" height="17" viewBox="0 0 17 17" fill="none" xmlns="http://www.w3.org/2000/svg">
<path d="M9.62493 4.15889V3.84233C9.62686 2.89975 8.86467 2.13427 7.92207 2.13233C6.97951 2.13038 6.21402 2.89261 6.21208 3.83454V4.15889M5.45517 13.7229C4.39453 13.7236 3.53369 12.8641 3.53369 11.8028V6.07855C3.53369 5.01791 4.39388 4.15836 5.45452 4.15836H10.3821C11.4434 4.15771 12.3036 5.01725 12.3043 6.07855M12.0453 9.34332V8.84839C12.0465 8.13545 11.4699 7.55612 10.7569 7.55419C10.044 7.55292 9.46466 8.12959 9.4634 8.84252V9.34332M12.3769 14.1327H9.13846C8.33606 14.1333 7.68473 13.4827 7.68473 12.6803V10.7964C7.68473 9.99392 8.3354 9.34325 9.13787 9.34325H12.3769C13.1793 9.34325 13.8306 9.99325 13.8306 10.7957V12.6796C13.8306 13.4827 13.1799 14.1327 12.3769 14.1327Z" stroke="#58C2E8" stroke-linecap="round" stroke-linejoin="round"/>
</svg>
