<svg width="25" height="25" viewBox="0 0 25 25" fill="none" xmlns="http://www.w3.org/2000/svg">
<path d="M6.18359 7.13232L9.18359 2.13232M15.1836 2.13232L18.1836 7.13232M9.43034 22.1323H14.9368C16.8058 22.1323 17.7403 22.1323 18.5062 21.7976C19.1817 21.5024 19.7624 21.0263 20.1843 20.4219C20.6628 19.7365 20.846 18.8201 21.2126 16.9875L21.6526 14.7875C22.1774 12.1634 22.4398 10.8514 22.0846 9.82457C21.773 8.92395 21.1501 8.16417 20.3281 7.68202C19.3909 7.13232 18.0529 7.13232 15.3768 7.13232H8.99034C6.31431 7.13232 4.9763 7.13232 4.0391 7.68202C3.21707 8.16417 2.59419 8.92395 2.28263 9.82457C1.9274 10.8514 2.18981 12.1634 2.71462 14.7875L3.15462 16.9875C3.52115 18.8201 3.70442 19.7365 4.18288 20.4219C4.6048 21.0263 5.18553 21.5024 5.86096 21.7976C6.62691 22.1323 7.56139 22.1323 9.43034 22.1323Z" stroke="#B4BEEB" stroke-width="1.5" stroke-linecap="round" stroke-linejoin="round"/>
<path d="M9.2168 13.5615H12.7817C14.1371 13.5615 15.2356 14.66 15.2356 16.0144V17.3143" stroke="#B4BEEB" stroke-width="1.5" stroke-linecap="round" stroke-linejoin="round"/>
<path d="M11.0252 15.4518L9.13086 13.5575L11.0252 11.6631" stroke="#B4BEEB" stroke-width="1.5" stroke-linecap="round" stroke-linejoin="round"/>
</svg>
