<svg width="25" height="25" viewBox="0 0 25 25" fill="none" xmlns="http://www.w3.org/2000/svg">
<path d="M6.85352 7.94629L9.85352 2.94629M15.8535 2.94629L18.8535 7.94629M10.1003 22.9463H15.6068C17.4757 22.9463 18.4102 22.9463 19.1761 22.6115C19.8516 22.3164 20.4323 21.8403 20.8542 21.2358C21.3327 20.5504 21.516 19.6341 21.8825 17.8014L22.3225 15.6014C22.8473 12.9774 23.1097 11.6653 22.7545 10.6385C22.4429 9.73792 21.82 8.97813 20.998 8.49599C20.0608 7.94629 18.7228 7.94629 16.0468 7.94629H9.66026C6.98423 7.94629 5.64622 7.94629 4.70902 8.49599C3.88699 8.97813 3.26412 9.73792 2.95255 10.6385C2.59733 11.6653 2.85973 12.9774 3.38454 15.6014L3.82454 17.8014C4.19108 19.6341 4.37434 20.5504 4.8528 21.2358C5.27472 21.8403 5.85545 22.3164 6.53089 22.6115C7.29683 22.9463 8.23131 22.9463 10.1003 22.9463Z" stroke="#58C2E8" stroke-width="1.5" stroke-linecap="round" stroke-linejoin="round"/>
<path d="M9.88672 14.3755H13.4517C14.8071 14.3755 15.9056 15.474 15.9056 16.8284V18.1283" stroke="#58C2E8" stroke-width="1.5" stroke-linecap="round" stroke-linejoin="round"/>
<path d="M11.6952 16.2658L9.80078 14.3714L11.6952 12.4771" stroke="#58C2E8" stroke-width="1.5" stroke-linecap="round" stroke-linejoin="round"/>
</svg>
