<svg width="41" height="40" viewBox="0 0 41 40" fill="none" xmlns="http://www.w3.org/2000/svg">
<path fill-rule="evenodd" clip-rule="evenodd" d="M12.424 33.6708C12.9257 33.6708 13.3307 34.0775 13.3307 34.5775C13.3307 35.0792 12.9257 35.4858 12.424 35.4858C11.9223 35.4858 11.5173 35.0792 11.5173 34.5775C11.5173 34.0775 11.9223 33.6708 12.424 33.6708Z" fill="#263682"/>
<path fill-rule="evenodd" clip-rule="evenodd" d="M31.2245 33.6708C31.7262 33.6708 32.1328 34.0775 32.1328 34.5775C32.1328 35.0792 31.7262 35.4858 31.2245 35.4858C30.7228 35.4858 30.3178 35.0792 30.3178 34.5775C30.3178 34.0775 30.7228 33.6708 31.2245 33.6708Z" fill="#263682"/>
<path d="M5.0835 5.4165L8.55016 6.0165L10.1552 25.1382C10.2835 26.6998 11.5885 27.8982 13.1552 27.8932H31.3368C32.8318 27.8965 34.1002 26.7965 34.3118 25.3165L35.8935 14.3865C36.0702 13.1648 35.2218 12.0315 34.0018 11.8548C33.8952 11.8398 9.10683 11.8315 9.10683 11.8315M24.0418 17.9913H28.6635M12.424 33.6708C12.9257 33.6708 13.3307 34.0775 13.3307 34.5775C13.3307 35.0792 12.9257 35.4858 12.424 35.4858C11.9223 35.4858 11.5173 35.0792 11.5173 34.5775C11.5173 34.0775 11.9223 33.6708 12.424 33.6708ZM31.2245 33.6708C31.7262 33.6708 32.1328 34.0775 32.1328 34.5775C32.1328 35.0792 31.7262 35.4858 31.2245 35.4858C30.7228 35.4858 30.3178 35.0792 30.3178 34.5775C30.3178 34.0775 30.7228 33.6708 31.2245 33.6708Z" stroke="#58C2E8" stroke-width="2" stroke-linecap="round" stroke-linejoin="round"/>
</svg>
