<svg width="17" height="17" viewBox="0 0 17 17" fill="none" xmlns="http://www.w3.org/2000/svg">
<path d="M7.35337 2.03711C7.49545 1.80032 7.41866 1.49319 7.18187 1.35111C6.94508 1.20904 6.63795 1.28582 6.49588 1.52261L4.60976 4.66614C4.07974 4.71661 3.63318 4.81893 3.242 5.04837C2.59123 5.43007 2.09812 6.03157 1.85146 6.74456C1.69787 7.18852 1.6897 7.66399 1.751 8.21801C1.81128 8.76268 1.94602 9.43637 2.11694 10.2909L2.41885 11.8005C2.53778 12.3952 2.63245 12.8685 2.73841 13.249C2.84719 13.6397 2.97644 13.9663 3.18082 14.2591C3.51484 14.7376 3.97459 15.1145 4.50931 15.3482C4.8365 15.4912 5.18211 15.5539 5.58652 15.5839C5.98043 15.6132 6.46316 15.6132 7.06961 15.6132H10.7796C11.3861 15.6132 11.8688 15.6132 12.2627 15.5839C12.6671 15.5539 13.0127 15.4912 13.3399 15.3482C13.8747 15.1145 14.3344 14.7376 14.6684 14.2591C14.8728 13.9663 15.0021 13.6397 15.1108 13.249C15.2168 12.8685 15.3115 12.3952 15.4304 11.8005L15.7323 10.291C15.9032 9.4364 16.038 8.76269 16.0982 8.21801C16.1596 7.66399 16.1514 7.18852 15.9978 6.74456C15.7511 6.03157 15.258 5.43007 14.6073 5.04837C14.2161 4.81893 13.7695 4.71661 13.2395 4.66614L11.3534 1.52261C11.2113 1.28582 10.9042 1.20904 10.6674 1.35111C10.4306 1.49319 10.3538 1.80032 10.4959 2.03711L12.0434 4.6163C11.7495 4.61319 11.4285 4.61319 11.0777 4.61319H6.77156C6.4207 4.61319 6.09974 4.61319 5.80586 4.6163L7.35337 2.03711Z" fill="#47B0D6"/>
<path d="M7.02026 9.32617L7.02026 11.491" stroke="white" stroke-linecap="round"/>
<path d="M10.8289 9.32617L10.8289 11.491" stroke="white" stroke-linecap="round"/>
</svg>
