<svg width="25" height="25" viewBox="0 0 25 25" fill="none" xmlns="http://www.w3.org/2000/svg">
<path d="M6.33423 7.20801L9.33423 2.20801M15.3342 2.20801L18.3342 7.20801M9.58097 22.208H15.0875C16.9564 22.208 17.8909 22.208 18.6569 21.8733C19.3323 21.5781 19.913 21.102 20.3349 20.4976C20.8134 19.8121 20.9967 18.8958 21.3632 17.0632L21.8032 14.8632C22.328 12.2391 22.5904 10.9271 22.2352 9.90025C21.9236 8.99964 21.3007 8.23985 20.4787 7.75771C19.5415 7.20801 18.2035 7.20801 15.5275 7.20801H9.14097C6.46495 7.20801 5.12693 7.20801 4.18973 7.75771C3.36771 8.23985 2.74483 8.99964 2.43326 9.90025C2.07804 10.9271 2.34044 12.2391 2.86526 14.8632L3.30526 17.0632C3.67179 18.8958 3.85505 19.8121 4.33351 20.4976C4.75543 21.102 5.33616 21.5781 6.0116 21.8733C6.77754 22.208 7.71202 22.208 9.58097 22.208Z" stroke="#263682" stroke-width="1.5" stroke-linecap="round" stroke-linejoin="round"/>
<path d="M9.47754 13.5273L9.47754 16.7747" stroke="#263682" stroke-width="1.5" stroke-linecap="round"/>
<path d="M15.1909 13.5273L15.1909 16.7747" stroke="#263682" stroke-width="1.5" stroke-linecap="round"/>
</svg>
