<svg width="12" height="11" viewBox="0 0 12 11" fill="none" xmlns="http://www.w3.org/2000/svg">
<path d="M1.40503 5.30746C1.12889 5.30746 0.905029 5.53132 0.905029 5.80746C0.905029 6.08361 1.12889 6.30746 1.40503 6.30746L1.40503 5.30746ZM8.87851 5.80746L9.23206 6.16102L9.58561 5.80746L9.23206 5.45391L8.87851 5.80746ZM4.78739 1.00924C4.59213 0.813977 4.27555 0.813977 4.08028 1.00924C3.88502 1.2045 3.88502 1.52108 4.08028 1.71635L4.78739 1.00924ZM4.08028 9.89858C3.88502 10.0938 3.88502 10.4104 4.08028 10.6057C4.27554 10.801 4.59213 10.801 4.78739 10.6057L4.08028 9.89858ZM10.2364 10.2521C10.2364 10.5283 10.4603 10.7521 10.7364 10.7521C11.0126 10.7521 11.2364 10.5283 11.2364 10.2521H10.2364ZM11.2364 1.36281C11.2364 1.08667 11.0126 0.862813 10.7364 0.862813C10.4603 0.862813 10.2364 1.08667 10.2364 1.36281H11.2364ZM1.40503 6.30746L8.87851 6.30746L8.87851 5.30746L1.40503 5.30746L1.40503 6.30746ZM9.23206 5.45391L4.78739 1.00924L4.08028 1.71635L8.52495 6.16102L9.23206 5.45391ZM8.52495 5.45391L4.08028 9.89858L4.78739 10.6057L9.23206 6.16102L8.52495 5.45391ZM11.2364 10.2521V1.36281H10.2364V10.2521H11.2364Z" fill="#263682"/>
</svg>
