<svg width="61" height="72" viewBox="0 0 61 72" fill="none" xmlns="http://www.w3.org/2000/svg">
<path d="M33.2906 23.7065H28.6245V28.5065H33.2906V23.7065Z" fill="#263682"/>
<path d="M36.982 37.069C36.6597 36.3779 36.4657 35.9606 36.4657 34.9065C36.4657 33.8525 36.6597 33.4352 36.982 32.7441C37.3941 31.8616 37.9585 30.6509 37.9585 28.5049H33.2924C33.2924 29.5589 33.0983 29.9762 32.776 30.6674C32.3639 31.5498 31.7995 32.7606 31.7995 34.9065C31.7995 37.0525 32.3639 38.2632 32.776 39.1457C32.8498 39.3041 32.9171 39.4492 32.9765 39.5911C33.589 41.0476 32.6927 42.7663 31.1549 42.8983C31.0908 42.9032 31.025 42.9065 30.9593 42.9065C29.6701 42.9065 28.6262 41.8311 28.6262 40.5065H23.9585C23.9585 44.4834 27.0933 47.7065 30.9577 47.7065C31.2431 47.7065 31.5221 47.6867 31.7979 47.6537C35.053 47.2529 37.6218 44.5544 37.9264 41.1795C37.9457 40.9568 37.9441 40.7325 37.928 40.5098C37.928 40.5098 37.928 40.5082 37.928 40.5065C37.8094 38.8488 37.3379 37.8344 36.9804 37.069H36.982Z" fill="#263682"/>
</svg>
