<svg width="31" height="31" viewBox="0 0 31 31" fill="none" xmlns="http://www.w3.org/2000/svg">
<path fill-rule="evenodd" clip-rule="evenodd" d="M23.3789 21.3639L23.3777 8.89961C23.3777 6.58527 21.5024 4.70996 19.188 4.70996H13.7287C11.4144 4.70996 9.53906 6.58649 9.53906 8.89961L9.54027 21.3652C9.54027 23.6783 11.4156 25.5548 13.73 25.5548H19.1892C21.5036 25.5548 23.3789 23.6783 23.3789 21.3639Z" stroke="#93370D" stroke-width="1.5" stroke-linecap="round" stroke-linejoin="round"/>
<path d="M5.91776 18.3156C5.91776 18.3156 5.20996 17.0337 5.20996 15.1328C5.20996 13.2321 5.91776 11.9502 5.91776 11.9502" stroke="#93370D" stroke-width="1.5" stroke-linecap="round" stroke-linejoin="round"/>
<path d="M27.002 18.3156C27.002 18.3156 27.7097 17.0337 27.7097 15.1328C27.7097 13.2321 27.002 11.9502 27.002 11.9502" stroke="#93370D" stroke-width="1.5" stroke-linecap="round" stroke-linejoin="round"/>
<path d="M16.4602 21.2575V21.1974M16.4602 20.8809C16.2875 20.8809 16.1475 21.0209 16.1475 21.1931C16.1475 21.3659 16.2875 21.5059 16.4602 21.5059C16.6331 21.5059 16.7731 21.3659 16.7731 21.1931C16.7731 21.0209 16.6331 20.8809 16.4602 20.8809Z" stroke="#93370D" stroke-width="1.5" stroke-linecap="round" stroke-linejoin="round"/>
</svg>
