<svg width="16" height="17" viewBox="0 0 16 17" fill="none" xmlns="http://www.w3.org/2000/svg">
<path fill-rule="evenodd" clip-rule="evenodd" d="M8.00048 1.33398C5.1565 1.33398 2.83381 3.40041 2.83381 6.36736C2.83381 8.61945 3.81385 10.2763 4.92943 11.3626C5.48522 11.9038 6.07753 12.3069 6.60671 12.5767C7.11876 12.8377 7.62419 13.0007 8.00048 13.0007C8.37677 13.0007 8.8822 12.8377 9.39425 12.5767C9.92343 12.3069 10.5157 11.9038 11.0715 11.3626C12.1871 10.2763 13.1671 8.61945 13.1671 6.36736C13.1671 3.40041 10.8445 1.33398 8.00048 1.33398ZM9.33381 5.83398C9.33381 6.57036 8.73686 7.16732 8.00048 7.16732C7.2641 7.16732 6.66715 6.57036 6.66715 5.83398C6.66715 5.0976 7.2641 4.50065 8.00048 4.50065C8.73686 4.50065 9.33381 5.0976 9.33381 5.83398Z" fill="#263682"/>
<path fill-rule="evenodd" clip-rule="evenodd" d="M3.06569 12.494C3.43019 12.3557 3.61356 11.9481 3.47527 11.5836C3.33698 11.2191 2.92939 11.0357 2.5649 11.174C2.06207 11.3648 1.6093 11.5995 1.26945 11.8889C0.933266 12.1752 0.62793 12.5877 0.62793 13.1206C0.62793 13.7379 1.03343 14.1912 1.44306 14.4885C1.86838 14.7972 2.4384 15.0459 3.07926 15.2426C4.36965 15.6388 6.1094 15.8732 8.00048 15.8732C9.89155 15.8732 11.6313 15.6388 12.9217 15.2426C13.5626 15.0459 14.1326 14.7972 14.5579 14.4885C14.9675 14.1912 15.373 13.7379 15.373 13.1206C15.373 12.5877 15.0677 12.1752 14.7315 11.8889C14.3917 11.5995 13.9389 11.3648 13.4361 11.174C13.0716 11.0357 12.664 11.2191 12.5257 11.5836C12.3874 11.9481 12.5708 12.3557 12.9353 12.494C13.359 12.6547 13.6469 12.8196 13.8162 12.9637C13.9094 13.0431 13.9443 13.0957 13.9566 13.1202C13.9416 13.1507 13.8908 13.2283 13.7286 13.346C13.4792 13.527 13.0729 13.7194 12.5074 13.893C11.3849 14.2377 9.7913 14.4614 8.00048 14.4614C6.20966 14.4614 4.61608 14.2377 3.4936 13.893C2.92803 13.7194 2.52175 13.527 2.27236 13.346C2.11021 13.2283 2.05937 13.1507 2.04435 13.1202C2.0567 13.0957 2.09159 13.0431 2.18477 12.9637C2.35402 12.8196 2.642 12.6547 3.06569 12.494Z" fill="#263682"/>
</svg>
