<svg width="16" height="17" viewBox="0 0 16 17" fill="none" xmlns="http://www.w3.org/2000/svg">
<path d="M3.39203 1.33398C2.54645 1.33398 2.12366 1.33398 1.77133 1.51469C1.43232 1.68856 1.11379 2.0477 0.981666 2.40506C0.844346 2.77645 0.888903 3.14677 0.978018 3.88741C1.21112 5.82475 1.74949 7.70207 2.76437 9.42147C3.77539 11.1343 5.15621 12.5466 6.84129 13.5922C8.62031 14.6961 10.5833 15.2761 12.613 15.5214C13.3531 15.6108 13.7231 15.6555 14.0947 15.5183C14.4521 15.3863 14.8116 15.0676 14.9855 14.7286C15.1663 14.3762 15.1663 13.9536 15.1663 13.1083C15.1663 12.4243 15.1663 12.0823 15.0544 11.795C14.9379 11.4963 14.7365 11.2382 14.4749 11.0528C14.2234 10.8745 13.8916 10.7916 13.228 10.6257L12.4933 10.442C11.7819 10.2642 11.4263 10.1752 11.0749 10.1827C10.7637 10.1894 10.4561 10.2514 10.1665 10.3658C9.8397 10.495 9.54622 10.7147 8.95927 11.1542L8.26673 11.6728C7.84515 11.9884 7.63435 12.1463 7.3705 12.2094C7.1606 12.2596 6.87192 12.2489 6.66633 12.1833C6.40788 12.1007 6.24086 11.9552 5.90682 11.664C5.47902 11.2911 5.08124 10.8866 4.71525 10.4522C4.41985 10.1016 4.27216 9.92633 4.19484 9.65772C4.1334 9.44425 4.1333 9.14637 4.1946 8.93286C4.27174 8.6642 4.44713 8.45575 4.7979 8.03886L5.16626 7.60108C5.67198 7.00005 5.92483 6.69954 6.07609 6.35729C6.21005 6.0542 6.28537 5.72848 6.29808 5.39736C6.31243 5.02345 6.21718 4.64243 6.02667 3.88041L5.87466 3.27236C5.70876 2.60876 5.62581 2.27695 5.44754 2.02546C5.26211 1.76387 5.00405 1.56238 4.70529 1.44593C4.41807 1.33398 4.07606 1.33398 3.39203 1.33398Z" fill="#263682"/>
</svg>
