<svg width="16" height="15" viewBox="0 0 16 15" fill="none" xmlns="http://www.w3.org/2000/svg">
<g id="Group">
<path id="Vector" d="M10.5076 6.18945C10.3248 6.55516 10.0505 6.82944 9.68477 7.10373C9.18192 7.46943 8.54193 7.698 7.90194 7.698C7.58194 7.698 7.26195 7.65229 6.94195 7.56086C6.25625 7.33229 5.70768 6.87516 5.34198 6.23517C5.15912 6.60088 4.88484 6.87516 4.51913 7.14944C4.01628 7.51515 3.37629 7.74372 2.7363 7.74372C2.50773 7.74372 2.23345 7.698 2.00488 7.65229V8.93227V12.9551C2.00488 13.7322 2.59916 14.3265 3.37629 14.3265H12.3362C13.1133 14.3265 13.7076 13.7322 13.7076 12.9551V7.60658C13.479 7.65229 13.2504 7.698 13.0219 7.698C11.9704 7.698 11.0105 7.10373 10.5076 6.18945ZM11.1019 12.2236C11.1019 12.4979 10.8733 12.6808 10.6448 12.6808H5.20484C4.93055 12.6808 4.7477 12.4522 4.7477 12.2236V9.38941C4.7477 9.11512 4.97627 8.93227 5.20484 8.93227H10.6448C10.919 8.93227 11.1019 9.16084 11.1019 9.38941V12.2236Z" fill="#4659B5"/>
<path id="Vector_2" d="M10.0961 4.72634L9.31896 1.02354L9.27325 0.749261C9.22753 0.61212 9.13611 0.566406 9.04468 0.566406H6.94185C6.80471 0.566406 6.71328 0.657833 6.71328 0.749261L6.66757 1.02354L5.84473 4.72634C5.84473 4.9092 5.89044 5.04634 5.93615 5.22919C6.11901 5.96061 6.62186 6.55489 7.30756 6.73774C7.99327 6.96631 8.72468 6.82917 9.31896 6.41775C9.73038 6.09775 10.0047 5.68633 10.1418 5.18348C10.0504 5.09205 10.0961 4.9092 10.0961 4.72634Z" fill="#4659B5"/>
<path id="Vector_3" d="M5.75322 0.657833C5.70751 0.61212 5.6618 0.566406 5.57037 0.566406H3.69611C3.60469 0.566406 3.51326 0.61212 3.46754 0.657833L0.679014 4.72634C0.633301 4.77206 0.633301 4.81777 0.633301 4.86349C0.724728 5.73204 1.27329 6.46346 2.05042 6.69203C2.05042 6.69203 2.05042 6.69203 2.09614 6.69203C2.78184 6.96631 3.51326 6.87488 4.06182 6.41775C4.47324 6.09775 4.74752 5.68633 4.88467 5.18348C4.93038 5.00063 4.93038 4.81777 4.93038 4.68063C4.93038 4.63492 4.93038 4.63492 4.93038 4.5892L5.75322 0.840688C5.84465 0.749261 5.79894 0.703547 5.75322 0.657833Z" fill="#4659B5"/>
<path id="Vector_4" d="M15.1703 4.72634L12.3818 0.657833C12.3361 0.566406 12.2446 0.566406 12.1532 0.566406H10.3247C10.2332 0.566406 10.1418 0.61212 10.1418 0.657833C10.0961 0.703547 10.0504 0.749261 10.0961 0.886401L10.8732 4.63492C10.8732 4.68063 10.8732 4.68063 10.8732 4.72634C10.8732 4.9092 10.9189 5.09205 10.9646 5.22919C11.1932 6.14347 12.0618 6.87488 13.0675 6.87488C13.296 6.87488 13.5246 6.82917 13.7532 6.73774C14.576 6.46346 15.1703 5.77776 15.216 4.86348C15.216 4.86348 15.216 4.77206 15.1703 4.72634Z" fill="#4659B5"/>
</g>
</svg>
