<svg width="21" height="21" viewBox="0 0 21 21" fill="none" xmlns="http://www.w3.org/2000/svg">
<path d="M7.67653 7.03906C7.67653 8.60165 6.4155 9.86268 4.85291 9.86268C3.29033 9.86268 2.0293 8.60165 2.0293 7.03906" stroke="#4659B5" stroke-width="1.25" stroke-linecap="round" stroke-linejoin="round"/>
<path d="M13.3235 7.03906C13.3235 8.60165 12.0625 9.86268 10.4999 9.86268C8.9373 9.86268 7.67627 8.60165 7.67627 7.03906" stroke="#4659B5" stroke-width="1.25" stroke-linecap="round" stroke-linejoin="round"/>
<path d="M18.9705 7.03906C18.9705 8.60165 17.7094 9.86268 16.1469 9.86268C14.5843 9.86268 13.3232 8.60165 13.3232 7.03906" stroke="#4659B5" stroke-width="1.25" stroke-linecap="round" stroke-linejoin="round"/>
<path d="M2.0293 7.03785L5.45601 2.03027H15.5443L18.971 7.03785" stroke="#4659B5" stroke-width="1.25" stroke-linecap="round" stroke-linejoin="round"/>
<path d="M7.67627 7.03785L8.80023 2.03027" stroke="#4659B5" stroke-width="1.25" stroke-linecap="round" stroke-linejoin="round"/>
<path d="M13.3238 7.03785L12.2729 2.03027" stroke="#4659B5" stroke-width="1.25" stroke-linecap="round" stroke-linejoin="round"/>
<path d="M3.39111 12.5029V16.701C3.39111 18.0817 4.5104 19.201 5.89111 19.201H15.1097C16.4904 19.201 17.6097 18.0817 17.6097 16.701V9.71582" stroke="#4659B5" stroke-width="1.25" stroke-linecap="round" stroke-linejoin="round"/>
<path d="M14.2007 12.6309H6.80811V16.7521H14.2007V12.6309Z" stroke="#4659B5" stroke-width="1.25" stroke-linecap="round" stroke-linejoin="round"/>
</svg>
