<svg width="42" height="43" viewBox="0 0 42 43" fill="none" xmlns="http://www.w3.org/2000/svg">
<path d="M25.1801 3.30099H24.1801V3.35087L24.1851 3.4005L25.1801 3.30099ZM25.1801 3.30097H26.1801V3.2511L26.1751 3.20147L25.1801 3.30097ZM25.4622 6.12182L24.4671 6.22132V6.22132L25.4622 6.12182ZM28.7187 7.47073L29.352 8.24468V8.24468L28.7187 7.47073ZM30.9128 5.67559L31.546 6.44955L30.9128 5.67559ZM33.5935 5.80929L32.8864 6.5164V6.5164L33.5935 5.80929ZM36.6906 8.90646L37.3977 8.19935V8.19935L36.6906 8.90646ZM37.6222 10.2037L38.621 10.1539L38.621 10.1539L37.6222 10.2037ZM36.8243 11.5871L37.5983 12.2204L36.8243 11.5871ZM35.0292 13.7813L35.8031 14.4145L35.0292 13.7813ZM33.6988 16.24L32.7749 16.6226L32.7749 16.6226L33.6988 16.24ZM36.3781 17.0378L36.2786 18.0328L36.3781 17.0378ZM39.199 17.3199L39.2985 16.3249L39.199 17.3199ZM40.7415 17.734L40 18.405L40 18.405L40.7415 17.734ZM40.7415 25.266L40 24.595L40 24.595L40.7415 25.266ZM39.199 25.6801L39.2985 26.6751H39.2985L39.199 25.6801ZM36.3788 25.9621L36.2793 24.9671L36.3788 25.9621ZM33.6995 26.76L32.7757 26.3773L32.7756 26.3773L33.6995 26.76ZM35.0299 29.2187L35.8039 28.5854L35.0299 29.2187ZM36.8244 31.412L37.5984 30.7787L36.8244 31.412ZM37.6223 32.7954L38.6211 32.8453L38.6211 32.8453L37.6223 32.7954ZM36.6907 34.0927L37.3978 34.7998L36.6907 34.0927ZM33.5936 37.1898L32.8865 36.4827H32.8865L33.5936 37.1898ZM32.2963 38.1214L32.3462 39.1202L32.3462 39.1202L32.2963 38.1214ZM30.9129 37.3235L31.5461 36.5496L30.9129 37.3235ZM28.7188 35.5284L28.0856 36.3023L28.7188 35.5284ZM26.2601 34.198L26.6428 35.1219L26.6428 35.1219L26.2601 34.198ZM25.4623 36.8773L24.4672 36.7778L25.4623 36.8773ZM25.1801 39.699L26.1751 39.7985V39.7985L25.1801 39.699ZM24.766 41.2415L24.095 40.5L24.095 40.5L24.766 41.2415ZM17.234 41.2415L17.905 40.5L17.905 40.5L17.234 41.2415ZM16.8199 39.699L15.8249 39.7985L16.8199 39.699ZM16.5378 36.8781L15.5428 36.9776L16.5378 36.8781ZM15.74 34.1988L15.3573 35.1227L15.3573 35.1227L15.74 34.1988ZM13.2813 35.5292L13.9145 36.3031L13.2813 35.5292ZM11.0871 37.3244L10.4538 36.5505H10.4538L11.0871 37.3244ZM9.70358 38.1223L9.65376 39.1211L9.65377 39.1211L9.70358 38.1223ZM8.40636 37.1907L7.69926 37.8978H7.69926L8.40636 37.1907ZM5.3092 34.0936L6.01631 33.3865H6.01631L5.3092 34.0936ZM4.37763 32.7963L5.37639 32.7465L4.37763 32.7963ZM5.1755 31.4129L5.94946 32.0461H5.94946L5.1755 31.4129ZM6.97071 29.2187L6.19675 28.5855L6.97071 29.2187ZM8.30109 26.76L7.37721 27.1427L8.30109 26.76ZM5.6218 25.9622L5.72131 24.9671H5.72131L5.6218 25.9622ZM2.80099 25.6801L2.9005 24.6851L2.85087 24.6801H2.80099V25.6801ZM2.80097 25.6801L2.70147 26.6751L2.7511 26.6801H2.80097V25.6801ZM1.25855 25.266L2 24.595H2L1.25855 25.266ZM1.25855 17.734L0.517096 17.063L0.517094 17.063L1.25855 17.734ZM2.80099 17.3199L2.70149 16.3249H2.70149L2.80099 17.3199ZM5.62256 17.0377L5.72206 18.0328H5.72206L5.62256 17.0377ZM6.97146 13.7812L6.19751 14.4144L6.97146 13.7812ZM5.17559 11.5862L5.94955 10.953L5.17559 11.5862ZM5.30929 8.90555L4.60219 8.19844V8.19844L5.30929 8.90555ZM8.40646 5.80839L7.69935 5.10128L8.40646 5.80839ZM11.0871 5.67469L11.7204 4.90073V4.90073L11.0871 5.67469ZM13.2813 7.46994L13.9146 6.69598L13.2813 7.46994ZM16.5379 6.12103L15.5429 6.02153V6.02153L16.5379 6.12103ZM16.8199 3.30099L17.8149 3.4005V3.4005L16.8199 3.30099ZM17.234 1.75855L16.563 1.01709L16.563 1.0171L17.234 1.75855ZM24.766 1.75855L24.095 2.5V2.5L24.766 1.75855ZM26.1801 3.30099V3.30097H24.1801V3.30099H26.1801ZM26.4572 6.02232L26.1751 3.20149L24.1851 3.4005L24.4671 6.22132L26.4572 6.02232ZM26.6427 7.87723C26.8166 7.94926 26.7721 8.09087 26.6848 7.7442C26.5973 7.39611 26.5423 6.87289 26.4572 6.02232L24.4671 6.22132C24.5454 7.00429 24.613 7.70622 24.7453 8.23215C24.8779 8.75949 25.1506 9.42398 25.8773 9.72499L26.6427 7.87723ZM28.0855 6.69677C27.4239 7.23807 27.015 7.56916 26.707 7.75337C26.4002 7.93684 26.4688 7.8052 26.6427 7.87723L25.8773 9.72499C26.604 10.026 27.2667 9.74896 27.7334 9.46988C28.1989 9.19155 28.743 8.74296 29.352 8.24468L28.0855 6.69677ZM30.2795 4.90164L28.0855 6.69677L29.352 8.24468L31.546 6.44955L30.2795 4.90164ZM32.3461 3.87896C31.8713 3.85528 31.4869 4.02576 31.1808 4.21664C30.8989 4.39242 30.5917 4.64621 30.2795 4.90164L31.546 6.44955C31.8996 6.16026 32.0918 6.00552 32.239 5.91374C32.3619 5.83707 32.3364 5.88096 32.2464 5.87648L32.3461 3.87896ZM34.3006 5.10219C34.0154 4.81696 33.735 4.53387 33.472 4.33092C33.1864 4.11052 32.8208 3.90264 32.3461 3.87896L32.2464 5.87648C32.1565 5.87199 32.1354 5.82577 32.2502 5.9143C32.3875 6.02027 32.5633 6.19337 32.8864 6.5164L34.3006 5.10219ZM37.3977 8.19935L34.3006 5.10219L32.8864 6.5164L35.9835 9.61356L37.3977 8.19935ZM38.621 10.1539C38.5973 9.6791 38.3894 9.31353 38.169 9.02793C37.9661 8.76492 37.683 8.48457 37.3977 8.19935L35.9835 9.61356C36.3066 9.93659 36.4797 10.1124 36.5856 10.2498C36.6742 10.3645 36.6279 10.3434 36.6235 10.2535L38.621 10.1539ZM37.5983 12.2204C37.8537 11.9082 38.1075 11.6011 38.2833 11.3192C38.4742 11.0131 38.6446 10.6286 38.621 10.1539L36.6235 10.2535C36.619 10.1636 36.6629 10.138 36.5862 10.261C36.4944 10.4081 36.3397 10.6003 36.0504 10.9539L37.5983 12.2204ZM35.8031 14.4145L37.5983 12.2204L36.0504 10.9539L34.2552 13.148L35.8031 14.4145ZM34.6227 15.8573C34.6947 16.0312 34.563 16.0998 34.7465 15.793C34.9307 15.4849 35.2618 15.0761 35.8031 14.4145L34.2552 13.148C33.7569 13.757 33.3083 14.3011 33.03 14.7666C32.7509 15.2332 32.4739 15.8959 32.7749 16.6226L34.6227 15.8573ZM36.4776 16.0428C35.627 15.9577 35.1038 15.9027 34.7557 15.8151C34.409 15.7279 34.5506 15.6834 34.6227 15.8573L32.7749 16.6226C33.0759 17.3493 33.7404 17.622 34.2677 17.7547C34.7937 17.887 35.4956 17.9545 36.2786 18.0328L36.4776 16.0428ZM39.2985 16.3249L36.4776 16.0428L36.2786 18.0328L39.0995 18.3149L39.2985 16.3249ZM41.4829 17.063C41.1639 16.7105 40.7716 16.5592 40.4201 16.4777C40.0965 16.4027 39.6999 16.365 39.2985 16.3249L39.0995 18.3149C39.5541 18.3604 39.7994 18.3869 39.9684 18.4261C40.1095 18.4588 40.0604 18.4717 40 18.405L41.4829 17.063ZM42 19.31C42 18.9066 42.0019 18.5082 41.9595 18.1787C41.9134 17.8209 41.8019 17.4154 41.4829 17.063L40 18.405C39.9396 18.3382 39.9574 18.2906 39.9759 18.4344C39.9981 18.6064 40 18.8531 40 19.31H42ZM42 23.69V19.31H40V23.69H42ZM41.4829 25.937C41.8019 25.5846 41.9134 25.1791 41.9595 24.8213C42.0019 24.4918 42 24.0934 42 23.69H40C40 24.1469 39.9981 24.3936 39.9759 24.5656C39.9574 24.7094 39.9396 24.6618 40 24.595L41.4829 25.937ZM39.2985 26.6751C39.6999 26.635 40.0965 26.5973 40.4201 26.5223C40.7716 26.4408 41.1639 26.2895 41.4829 25.937L40 24.595C40.0604 24.5283 40.1095 24.5412 39.9684 24.5739C39.7994 24.6131 39.5541 24.6396 39.0995 24.6851L39.2985 26.6751ZM36.4783 26.9572L39.2985 26.6751L39.0995 24.6851L36.2793 24.9671L36.4783 26.9572ZM34.6234 27.1427C34.5514 27.3165 34.4098 27.272 34.7564 27.1848C35.1045 27.0972 35.6278 27.0422 36.4783 26.9572L36.2793 24.9671C35.4963 25.0454 34.7944 25.1129 34.2685 25.2452C33.7411 25.3779 33.0767 25.6506 32.7757 26.3773L34.6234 27.1427ZM35.8039 28.5854C35.2626 27.9238 34.9315 27.515 34.7473 27.2069C34.5638 26.9001 34.6954 26.9688 34.6234 27.1426L32.7756 26.3773C32.4746 27.104 32.7517 27.7667 33.0308 28.2334C33.3091 28.6988 33.7577 29.2429 34.256 29.8519L35.8039 28.5854ZM37.5984 30.7787L35.8039 28.5854L34.256 29.8519L36.0505 32.0452L37.5984 30.7787ZM38.6211 32.8453C38.6447 32.3705 38.4743 31.9861 38.2834 31.6799C38.1076 31.398 37.8538 31.0909 37.5984 30.7787L36.0505 32.0452C36.3398 32.3988 36.4945 32.591 36.5863 32.7382C36.663 32.8611 36.6191 32.8356 36.6235 32.7456L38.6211 32.8453ZM37.3978 34.7998C37.6831 34.5145 37.9661 34.2342 38.1691 33.9712C38.3895 33.6856 38.5974 33.32 38.6211 32.8453L36.6235 32.7456C36.628 32.6557 36.6743 32.6346 36.5857 32.7493C36.4797 32.8867 36.3067 33.0625 35.9836 33.3856L37.3978 34.7998ZM34.3007 37.8969L37.3978 34.7998L35.9836 33.3856L32.8865 36.4827L34.3007 37.8969ZM32.3462 39.1202C32.8209 39.0965 33.1865 38.8886 33.4721 38.6682C33.7351 38.4652 34.0154 38.1821 34.3007 37.8969L32.8865 36.4827C32.5634 36.8057 32.3876 36.9788 32.2503 37.0848C32.1355 37.1733 32.1566 37.1271 32.2465 37.1226L32.3462 39.1202ZM30.2796 38.0975C30.5918 38.3529 30.8989 38.6067 31.1808 38.7825C31.487 38.9734 31.8714 39.1438 32.3462 39.1202L32.2465 37.1226C32.3365 37.1182 32.362 37.162 32.2391 37.0854C32.0919 36.9936 31.8997 36.8388 31.5461 36.5496L30.2796 38.0975ZM28.0856 36.3023L30.2796 38.0975L31.5461 36.5496L29.3521 34.7544L28.0856 36.3023ZM26.6428 35.1219C26.4689 35.1939 26.4003 35.0623 26.7071 35.2457C27.0151 35.43 27.424 35.761 28.0856 36.3023L29.3521 34.7544C28.7431 34.2562 28.199 33.8076 27.7335 33.5292C27.2668 33.2502 26.6041 32.9731 25.8774 33.2741L26.6428 35.1219ZM26.4573 36.9768C26.5424 36.1262 26.5974 35.603 26.6849 35.2549C26.7721 34.9082 26.8167 35.0499 26.6428 35.1219L25.8774 33.2741C25.1507 33.5751 24.878 34.2396 24.7454 34.767C24.6131 35.2929 24.5455 35.9948 24.4672 36.7778L26.4573 36.9768ZM26.1751 39.7985L26.4573 36.9768L24.4672 36.7778L24.1851 39.5995L26.1751 39.7985ZM25.437 41.9829C25.7895 41.6639 25.9408 41.2716 26.0223 40.9201C26.0973 40.5965 26.135 40.1999 26.1751 39.7985L24.1851 39.5995C24.1396 40.0541 24.1131 40.2994 24.0739 40.4684C24.0412 40.6095 24.0283 40.5604 24.095 40.5L25.437 41.9829ZM23.19 42.5C23.5934 42.5 23.9918 42.5019 24.3213 42.4595C24.6791 42.4134 25.0846 42.3019 25.437 41.9829L24.095 40.5C24.1618 40.4396 24.2094 40.4574 24.0656 40.4759C23.8936 40.4981 23.6469 40.5 23.19 40.5V42.5ZM18.81 42.5H23.19V40.5H18.81V42.5ZM16.563 41.9829C16.9154 42.3019 17.3209 42.4134 17.6787 42.4595C18.0082 42.5019 18.4066 42.5 18.81 42.5V40.5C18.3531 40.5 18.1064 40.4981 17.9344 40.4759C17.7906 40.4574 17.8382 40.4396 17.905 40.5L16.563 41.9829ZM15.8249 39.7985C15.865 40.1999 15.9027 40.5965 15.9777 40.9201C16.0592 41.2716 16.2105 41.6639 16.563 41.9829L17.905 40.5C17.9717 40.5604 17.9588 40.6095 17.9261 40.4684C17.8869 40.2994 17.8604 40.0541 17.8149 39.5995L15.8249 39.7985ZM15.5428 36.9776L15.8249 39.7985L17.8149 39.5995L17.5328 36.7786L15.5428 36.9776ZM15.3573 35.1227C15.1834 35.0506 15.2279 34.909 15.3152 35.2557C15.4027 35.6038 15.4577 36.127 15.5428 36.9776L17.5328 36.7786C17.4545 35.9956 17.387 35.2937 17.2547 34.7678C17.122 34.2404 16.8493 33.5759 16.1226 33.2749L15.3573 35.1227ZM13.9145 36.3031C14.5761 35.7618 14.9849 35.4307 15.293 35.2465C15.5998 35.0631 15.5312 35.1947 15.3573 35.1227L16.1226 33.2749C15.3959 32.9739 14.7333 33.2509 14.2666 33.53C13.8011 33.8083 13.257 34.2569 12.648 34.7552L13.9145 36.3031ZM11.7203 38.0984L13.9145 36.3031L12.648 34.7552L10.4538 36.5505L11.7203 38.0984ZM9.65377 39.1211C10.1285 39.1447 10.513 38.9743 10.8191 38.7834C11.101 38.6076 11.4081 38.3538 11.7203 38.0984L10.4538 36.5505C10.1002 36.8398 9.90805 36.9945 9.76086 37.0863C9.63789 37.163 9.66347 37.1191 9.75339 37.1235L9.65377 39.1211ZM7.69926 37.8978C7.98448 38.1831 8.26483 38.4661 8.52783 38.6691C8.81344 38.8895 9.17901 39.0974 9.65376 39.1211L9.7534 37.1235C9.84332 37.128 9.8644 37.1743 9.74968 37.0857C9.61235 36.9797 9.4365 36.8067 9.11347 36.4836L7.69926 37.8978ZM4.6021 34.8007L7.69926 37.8978L9.11347 36.4836L6.01631 33.3865L4.6021 34.8007ZM3.37887 32.8462C3.40255 33.3209 3.61043 33.6865 3.83083 33.9721C4.03378 34.2351 4.31687 34.5154 4.6021 34.8007L6.01631 33.3865C5.69328 33.0634 5.52018 32.8876 5.41421 32.7503C5.32568 32.6355 5.3719 32.6566 5.37639 32.7465L3.37887 32.8462ZM4.40154 30.7796C4.14612 31.0918 3.89232 31.3989 3.71655 31.6808C3.52567 31.987 3.35519 32.3714 3.37887 32.8462L5.37639 32.7465C5.38087 32.8365 5.33697 32.862 5.41365 32.7391C5.50543 32.5919 5.66017 32.3997 5.94946 32.0461L4.40154 30.7796ZM6.19675 28.5855L4.40154 30.7796L5.94946 32.0461L7.74467 29.852L6.19675 28.5855ZM7.37721 27.1427C7.30519 26.9688 7.43682 26.9002 7.25336 27.207C7.06915 27.515 6.73806 27.9239 6.19675 28.5855L7.74467 29.852C8.24294 29.243 8.69154 28.6989 8.96987 28.2334C9.24895 27.7667 9.52598 27.104 9.22497 26.3773L7.37721 27.1427ZM5.5223 26.9572C6.37287 27.0423 6.8961 27.0973 7.24418 27.1848C7.59085 27.2721 7.44924 27.3166 7.37721 27.1427L9.22497 26.3773C8.92396 25.6506 8.25948 25.3779 7.73213 25.2453C7.2062 25.113 6.50427 25.0454 5.72131 24.9671L5.5223 26.9572ZM2.70149 26.6751L5.5223 26.9572L5.72131 24.9671L2.9005 24.6851L2.70149 26.6751ZM2.80097 26.6801H2.80099V24.6801H2.80097V26.6801ZM0.517094 25.937C0.836053 26.2895 1.22843 26.4408 1.57987 26.5222C1.90349 26.5973 2.30011 26.635 2.70147 26.6751L2.90048 24.6851C2.44592 24.6396 2.2006 24.6131 2.03163 24.5739C1.89046 24.5412 1.93959 24.5283 2 24.595L0.517094 25.937ZM0 23.69C0 24.0934 -0.00194263 24.4918 0.0405216 24.8213C0.0866349 25.1791 0.198134 25.5846 0.517094 25.937L2 24.595C2.06041 24.6618 2.04264 24.7094 2.02412 24.5656C2.00194 24.3936 2 24.1469 2 23.69H0ZM0 19.31V23.69H2V19.31H0ZM0.517094 17.063C0.198134 17.4154 0.0866349 17.8209 0.0405216 18.1787C-0.00194263 18.5082 0 18.9066 0 19.31H2C2 18.8531 2.00194 18.6064 2.02412 18.4344C2.04264 18.2906 2.06041 18.3382 2 18.405L0.517094 17.063ZM2.70149 16.3249C2.30013 16.365 1.9035 16.4027 1.57987 16.4777C1.22844 16.5592 0.836056 16.7105 0.517096 17.063L2 18.405C1.93959 18.4717 1.89046 18.4588 2.03163 18.4261C2.20061 18.3869 2.44593 18.3604 2.9005 18.3149L2.70149 16.3249ZM5.52306 16.0427L2.70149 16.3249L2.9005 18.3149L5.72206 18.0328L5.52306 16.0427ZM7.37797 15.8572C7.44999 15.6833 7.59161 15.7279 7.24494 15.8151C6.89685 15.9027 6.37363 15.9576 5.52306 16.0427L5.72206 18.0328C6.50503 17.9545 7.20695 17.887 7.73288 17.7547C8.26023 17.622 8.92472 17.3493 9.22573 16.6226L7.37797 15.8572ZM6.19751 14.4144C6.73881 15.076 7.0699 15.4849 7.25411 15.7929C7.43757 16.0997 7.30594 16.0311 7.37797 15.8572L9.22573 16.6226C9.52674 15.8959 9.2497 15.2332 8.97062 14.7665C8.69229 14.301 8.2437 13.757 7.74542 13.148L6.19751 14.4144ZM4.40164 12.2195L6.19751 14.4144L7.74542 13.148L5.94955 10.953L4.40164 12.2195ZM3.37896 10.153C3.35528 10.6277 3.52576 11.0121 3.71664 11.3183C3.89242 11.6002 4.14621 11.9073 4.40164 12.2195L5.94955 10.953C5.66027 10.5994 5.50553 10.4072 5.41374 10.26C5.33707 10.1371 5.38096 10.1627 5.37648 10.2526L3.37896 10.153ZM4.60219 8.19844C4.31697 8.48367 4.03387 8.76401 3.83092 9.02702C3.61052 9.31263 3.40264 9.67819 3.37896 10.153L5.37648 10.2526C5.37199 10.3425 5.32577 10.3636 5.4143 10.2489C5.52027 10.1115 5.69337 9.93569 6.0164 9.61266L4.60219 8.19844ZM7.69935 5.10128L4.60219 8.19844L6.0164 9.61266L9.11357 6.51549L7.69935 5.10128ZM9.65386 3.87805C9.1791 3.90173 8.81354 4.10962 8.52793 4.33001C8.26492 4.53296 7.98457 4.81606 7.69935 5.10128L9.11357 6.51549C9.4366 6.19246 9.61244 6.01937 9.74977 5.91339C9.8645 5.82486 9.84341 5.87109 9.75349 5.87557L9.65386 3.87805ZM11.7204 4.90073C11.4082 4.6453 11.1011 4.39151 10.8192 4.21573C10.5131 4.02485 10.1286 3.85438 9.65386 3.87805L9.75349 5.87557C9.66357 5.88006 9.63798 5.83616 9.76095 5.91284C9.90814 6.00462 10.1003 6.15936 10.4539 6.44864L11.7204 4.90073ZM13.9146 6.69598L11.7204 4.90073L10.4539 6.44864L12.6481 8.2439L13.9146 6.69598ZM15.3574 7.87644C15.5313 7.80442 15.5999 7.93605 15.2931 7.75259C14.985 7.56837 14.5762 7.23728 13.9146 6.69598L12.6481 8.2439C13.2571 8.74217 13.8012 9.19076 14.2666 9.4691C14.7333 9.74817 15.396 10.0252 16.1227 9.7242L15.3574 7.87644ZM15.5429 6.02153C15.4578 6.8721 15.4028 7.39533 15.3152 7.74341C15.228 8.09008 15.1835 7.94847 15.3574 7.87644L16.1227 9.7242C16.8494 9.42319 17.1221 8.7587 17.2548 8.23136C17.3871 7.70543 17.4546 7.0035 17.5329 6.22054L15.5429 6.02153ZM15.8249 3.20149L15.5429 6.02153L17.5329 6.22054L17.8149 3.4005L15.8249 3.20149ZM16.563 1.0171C16.2105 1.33606 16.0592 1.72844 15.9777 2.07987C15.9027 2.4035 15.865 2.80013 15.8249 3.20149L17.8149 3.4005C17.8604 2.94593 17.8869 2.70061 17.9261 2.53163C17.9588 2.39046 17.9717 2.43959 17.905 2.5L16.563 1.0171ZM18.81 0.5C18.4066 0.5 18.0082 0.498057 17.6787 0.540522C17.3209 0.586635 16.9154 0.698134 16.563 1.01709L17.905 2.5C17.8382 2.56041 17.7906 2.54264 17.9344 2.52412C18.1064 2.50194 18.3531 2.5 18.81 2.5V0.5ZM23.19 0.5H18.81V2.5H23.19V0.5ZM25.437 1.01709C25.0846 0.698134 24.6791 0.586635 24.3213 0.540522C23.9918 0.498057 23.5934 0.5 23.19 0.5V2.5C23.6469 2.5 23.8936 2.50194 24.0656 2.52412C24.2094 2.54264 24.1618 2.56041 24.095 2.5L25.437 1.01709ZM26.1751 3.20147C26.135 2.80011 26.0973 2.40349 26.0222 2.07987C25.9408 1.72843 25.7895 1.33605 25.437 1.01709L24.095 2.5C24.0283 2.43959 24.0412 2.39046 24.0739 2.53163C24.1131 2.7006 24.1396 2.94592 24.1851 3.40048L26.1751 3.20147ZM28 21.5C28 25.366 24.866 28.5 21 28.5V30.5C25.9706 30.5 30 26.4706 30 21.5H28ZM21 14.5C24.866 14.5 28 17.634 28 21.5H30C30 16.5294 25.9706 12.5 21 12.5V14.5ZM14 21.5C14 17.634 17.134 14.5 21 14.5V12.5C16.0294 12.5 12 16.5294 12 21.5H14ZM21 28.5C17.134 28.5 14 25.366 14 21.5H12C12 26.4706 16.0294 30.5 21 30.5V28.5Z" fill="#626262"/>
</svg>
