<svg width="55" height="54" viewBox="0 0 55 54" fill="none" xmlns="http://www.w3.org/2000/svg">
<path fill-rule="evenodd" clip-rule="evenodd" d="M35.2456 23.7548L26.0813 32.9236C25.7641 33.2408 25.3343 33.4186 24.8866 33.4186C24.4388 33.4186 24.0091 33.2408 23.6941 32.9236L19.2459 28.4686C18.5889 27.8071 18.5889 26.7383 19.2482 26.0791C19.9097 25.4221 20.9762 25.4243 21.6354 26.0813L24.8888 29.3416L32.8583 21.3675C33.5176 20.7083 34.5863 20.7083 35.2456 21.3675C35.9048 22.0268 35.9048 23.0956 35.2456 23.7548ZM46.7656 22.6928L45.1928 21.12C44.4751 20.4 44.0813 19.4415 44.0813 18.4268V16.1768C44.0813 12.8265 41.3543 10.1018 38.0063 10.1018H35.7518C34.7326 10.1018 33.7763 9.708 33.0608 8.9925L31.4611 7.395C29.0828 5.037 25.2308 5.04825 22.8706 7.41975L21.3024 8.9925C20.5802 9.71025 19.6239 10.104 18.6069 10.104H16.3547C13.0449 10.1063 10.3449 12.7703 10.2842 16.0688C10.2819 16.1048 10.2797 16.1408 10.2797 16.179V18.4223C10.2797 19.4393 9.88593 20.3955 9.16818 21.1133L7.57518 22.7086C7.57293 22.7153 7.56618 22.7176 7.56168 22.7221C5.21043 25.1026 5.23068 28.9546 7.59993 31.3013L9.17268 32.8786C9.88818 33.5963 10.2842 34.5503 10.2842 35.5673V37.8286C10.2842 41.1766 13.0067 43.9013 16.3547 43.9013H18.6024C19.6217 43.9036 20.5779 44.2973 21.2934 45.0106L22.8976 46.6103C24.0406 47.7466 25.5571 48.3721 27.1703 48.3721H27.1973C28.8196 48.3653 30.3406 47.7263 31.4791 46.5811L33.0563 45.0061C33.7651 44.2996 34.7461 43.8946 35.7473 43.8946H38.0108C41.3521 43.8946 44.0768 41.1743 44.0836 37.8286V35.5718C44.0836 34.5571 44.4773 33.6008 45.1906 32.8831L46.7903 31.2833C49.1528 28.9073 49.1393 25.0531 46.7656 22.6928Z" fill="#12B76A"/>
</svg>
