<svg width="24" height="24" viewBox="0 0 24 24" fill="none" xmlns="http://www.w3.org/2000/svg">
<path fill-rule="evenodd" clip-rule="evenodd" d="M6.57601 7.14051C6.722 7.28651 6.915 7.35951 7.106 7.35951C7.299 7.35951 7.49001 7.28651 7.637 7.14051C7.93001 6.84651 7.93001 6.37151 7.637 6.07851L6.666 5.10951C6.373 4.81651 5.898 4.81751 5.605 5.10951C5.312 5.40351 5.312 5.87751 5.605 6.17051L6.57601 7.14051Z" fill="#636E9F"/>
<path fill-rule="evenodd" clip-rule="evenodd" d="M12.5 5.12C12.914 5.12 13.25 4.784 13.25 4.37V3C13.25 2.586 12.914 2.25 12.5 2.25C12.086 2.25 11.75 2.586 11.75 3V4.37C11.75 4.784 12.086 5.12 12.5 5.12Z" fill="#636E9F"/>
<path fill-rule="evenodd" clip-rule="evenodd" d="M5.622 12C5.622 11.586 5.286 11.25 4.872 11.25H3.5C3.086 11.25 2.75 11.586 2.75 12C2.75 12.414 3.086 12.75 3.5 12.75H4.872C5.286 12.75 5.622 12.414 5.622 12Z" fill="#636E9F"/>
<path fill-rule="evenodd" clip-rule="evenodd" d="M17.8935 7.36C18.0845 7.36 18.2775 7.287 18.4235 7.141L19.3945 6.171C19.6875 5.878 19.6875 5.403 19.3945 5.11C19.1015 4.818 18.6265 4.817 18.3335 5.11L17.3635 6.079C17.0705 6.372 17.0705 6.847 17.3635 7.14C17.5095 7.287 17.7015 7.36 17.8935 7.36Z" fill="#636E9F"/>
<path fill-rule="evenodd" clip-rule="evenodd" d="M18.4238 16.8591C18.1298 16.5671 17.6548 16.5671 17.3628 16.8591C17.0698 17.1531 17.0698 17.6281 17.3628 17.9211L18.3338 18.8901C18.4808 19.0361 18.6728 19.1091 18.8638 19.1091C19.0568 19.1091 19.2478 19.0361 19.3948 18.8901C19.6878 18.5961 19.6878 18.1221 19.3948 17.8291L18.4238 16.8591Z" fill="#636E9F"/>
<path fill-rule="evenodd" clip-rule="evenodd" d="M6.57601 16.8591L5.605 17.8291C5.312 18.1221 5.312 18.5961 5.605 18.8901C5.752 19.0361 5.943 19.1091 6.13601 19.1091C6.327 19.1091 6.519 19.0361 6.666 18.8901L7.637 17.9211C7.93001 17.6281 7.93001 17.1531 7.637 16.8591C7.34501 16.5671 6.87001 16.5671 6.57601 16.8591Z" fill="#636E9F"/>
<path fill-rule="evenodd" clip-rule="evenodd" d="M21.4999 11.25H20.1279C19.7139 11.25 19.3779 11.586 19.3779 12C19.3779 12.414 19.7139 12.75 20.1279 12.75H21.4999C21.9139 12.75 22.2499 12.414 22.2499 12C22.2499 11.586 21.9139 11.25 21.4999 11.25Z" fill="#636E9F"/>
<path fill-rule="evenodd" clip-rule="evenodd" d="M12.5 18.8799C12.086 18.8799 11.75 19.2159 11.75 19.6299V20.9999C11.75 21.4139 12.086 21.7499 12.5 21.7499C12.914 21.7499 13.25 21.4139 13.25 20.9999V19.6299C13.25 19.2159 12.914 18.8799 12.5 18.8799Z" fill="#636E9F"/>
<path fill-rule="evenodd" clip-rule="evenodd" d="M12.4999 7.2998C9.91093 7.2998 7.80493 9.4078 7.80493 11.9998C7.80493 14.5918 9.91093 16.6998 12.4999 16.6998C15.0899 16.6998 17.1959 14.5918 17.1959 11.9998C17.1959 9.4078 15.0899 7.2998 12.4999 7.2998Z" fill="#636E9F"/>
</svg>
