<svg width="24" height="25" viewBox="0 0 24 25" fill="none" xmlns="http://www.w3.org/2000/svg">
<path d="M12.0654 16.0908V9.16505M15.3879 12.6589L15.422 12.6929M8.64771 12.6589L8.68173 12.6929M16.5505 8.11185C16.1025 7.66381 15.9758 7.04018 16.1504 6.48139C16.2691 6.10142 16.3285 5.91138 16.335 5.85129C16.3575 5.64187 16.3517 5.61861 16.2346 5.44353C16.201 5.3933 16.1307 5.32298 15.9901 5.18233C15.3347 4.52697 15.007 4.19928 14.6619 4.0095C13.8313 3.55282 12.8248 3.55282 11.9943 4.0095C11.6491 4.19928 11.3214 4.52697 10.666 5.18233L4.51498 11.3334C3.86093 11.9875 3.53391 12.3145 3.34434 12.6587C2.88606 13.4909 2.88655 14.5 3.34564 15.3318C3.53555 15.6759 3.86289 16.0026 4.51758 16.656C4.65755 16.7957 4.72754 16.8655 4.77744 16.8989C4.95238 17.016 4.975 17.0216 5.18434 16.9995C5.24404 16.9931 5.43376 16.9345 5.81305 16.8171C6.37241 16.6441 6.99685 16.7728 7.44392 17.2206L7.47884 17.2555C7.88287 17.689 8.00371 18.2852 7.84877 18.8155C7.72844 19.2272 7.66828 19.4331 7.66281 19.492C7.6428 19.7072 7.64453 19.714 7.76548 19.8932C7.79855 19.9422 7.86951 20.0131 8.01144 20.155C8.66365 20.8072 8.98975 21.1334 9.33298 21.3227C10.1653 21.7818 11.1749 21.7818 12.0072 21.3227C12.3504 21.1334 12.6765 20.8072 13.3287 20.155L19.4837 14.0001C20.1388 13.345 20.4663 13.0174 20.6561 12.6724C21.113 11.8416 21.113 10.8346 20.6559 10.0038C20.4661 9.65887 20.1384 9.33135 19.4832 8.67636C19.3427 8.5359 19.2725 8.46567 19.2224 8.43214C19.0473 8.31494 19.025 8.30943 18.8155 8.33157C18.7556 8.3379 18.565 8.39697 18.1839 8.5151C17.6237 8.68874 16.998 8.56005 16.5505 8.11185ZM15.5331 12.5284C15.6097 12.6049 15.6096 12.7291 15.533 12.8057C15.4565 12.8822 15.3324 12.8822 15.2558 12.8056C15.1793 12.7291 15.1792 12.605 15.2558 12.5284C15.3323 12.4518 15.4565 12.4518 15.5331 12.5284ZM8.79286 12.5284C8.86942 12.6049 8.86937 12.7291 8.79281 12.8057C8.71625 12.8822 8.59215 12.8822 8.51558 12.8056C8.43902 12.7291 8.43899 12.605 8.51555 12.5284C8.59211 12.4518 8.7163 12.4518 8.79286 12.5284Z" stroke="#5D4800" stroke-width="1.5" stroke-linecap="round" stroke-linejoin="round"/>
</svg>
