<svg width="17" height="17" viewBox="0 0 17 17" fill="none" xmlns="http://www.w3.org/2000/svg">
<g clip-path="url(#clip0_3239_5281)">
<path fill-rule="evenodd" clip-rule="evenodd" d="M1.39185 8.10661C1.39185 4.14857 4.60047 0.939941 8.55851 0.939941C12.5166 0.939941 15.7252 4.14857 15.7252 8.10661C15.7252 12.0646 12.5166 15.2733 8.55851 15.2733C4.60047 15.2733 1.39185 12.0646 1.39185 8.10661ZM9.30851 5.43994C9.30851 5.02573 8.97273 4.68994 8.55851 4.68994C8.1443 4.68994 7.80851 5.02573 7.80851 5.43994V8.10661C7.80851 8.35737 7.93384 8.59155 8.14249 8.73065L10.1425 10.064C10.4871 10.2937 10.9528 10.2006 11.1826 9.85597C11.4123 9.51132 11.3192 9.04567 10.9745 8.8159L9.30851 7.70522V5.43994Z" fill="#47B0D6"/>
</g>
<defs>
<clipPath id="clip0_3239_5281">
<rect width="16" height="16" fill="white" transform="translate(0.558594 0.106445)"/>
</clipPath>
</defs>
</svg>
