<svg width="17" height="17" viewBox="0 0 17 17" fill="none" xmlns="http://www.w3.org/2000/svg">
<g clip-path="url(#clip0_4255_69025)">
<path fill-rule="evenodd" clip-rule="evenodd" d="M6.00754 1.53879C6.00754 1.26711 5.7873 1.04688 5.51562 1.04688C5.24395 1.04688 5.02371 1.26711 5.02371 1.53879V1.73898C4.21339 1.78387 3.64624 1.88885 3.16435 2.13438C2.42387 2.51168 1.82184 3.11371 1.44455 3.85419C1.01562 4.696 1.01562 5.79799 1.01562 8.00198V9.74226C1.01562 11.9463 1.01562 13.0482 1.44455 13.8901C1.82184 14.6305 2.42387 15.2326 3.16435 15.6099C4.00617 16.0388 5.10816 16.0388 7.31215 16.0388H9.05243C11.2564 16.0388 12.3584 16.0388 13.2002 15.6099C13.9407 15.2326 14.5427 14.6305 14.92 13.8901C15.349 13.0482 15.349 11.9463 15.349 9.74226V8.00199C15.349 5.798 15.349 4.696 14.92 3.85419C14.5427 3.11371 13.9407 2.51168 13.2002 2.13438C12.7183 1.88885 12.1512 1.78387 11.3409 1.73898V1.53879C11.3409 1.26711 11.1206 1.04688 10.849 1.04688C10.5773 1.04688 10.357 1.26711 10.357 1.53879V1.71004C9.96961 1.70546 9.53774 1.70546 9.05243 1.70546H7.31216C6.82685 1.70546 6.39497 1.70546 6.00754 1.71004V1.53879ZM4.02375 6.20552C4.02375 5.93384 4.24399 5.7136 4.51567 5.7136H11.849C12.1207 5.7136 12.3409 5.93384 12.3409 6.20552C12.3409 6.4772 12.1207 6.69743 11.849 6.69743H4.51567C4.24399 6.69743 4.02375 6.4772 4.02375 6.20552ZM4.35709 9.20552C4.35709 8.74975 4.72656 8.38027 5.18234 8.38027C5.63811 8.38027 6.00759 8.74975 6.00759 9.20552C6.00759 9.66129 5.63811 10.0308 5.18234 10.0308C4.72656 10.0308 4.35709 9.66129 4.35709 9.20552ZM7.35709 9.20552C7.35709 8.74975 7.72656 8.38027 8.18234 8.38027C8.63811 8.38027 9.00759 8.74975 9.00759 9.20552C9.00759 9.66129 8.63811 10.0308 8.18234 10.0308C7.72656 10.0308 7.35709 9.66129 7.35709 9.20552ZM10.3571 9.20552C10.3571 8.74975 10.7266 8.38027 11.1823 8.38027C11.6381 8.38027 12.0076 8.74975 12.0076 9.20552C12.0076 9.66129 11.6381 10.0308 11.1823 10.0308C10.7266 10.0308 10.3571 9.66129 10.3571 9.20552ZM4.35709 11.8722C4.35709 11.4164 4.72656 11.0469 5.18234 11.0469C5.63811 11.0469 6.00759 11.4164 6.00759 11.8722C6.00759 12.328 5.63811 12.6974 5.18234 12.6974C4.72656 12.6974 4.35709 12.328 4.35709 11.8722ZM7.35709 11.8722C7.35709 11.4164 7.72656 11.0469 8.18234 11.0469C8.63811 11.0469 9.00759 11.4164 9.00759 11.8722C9.00759 12.328 8.63811 12.6974 8.18234 12.6974C7.72656 12.6974 7.35709 12.328 7.35709 11.8722ZM10.3571 11.8722C10.3571 11.4164 10.7266 11.0469 11.1823 11.0469C11.6381 11.0469 12.0076 11.4164 12.0076 11.8722C12.0076 12.328 11.6381 12.6974 11.1823 12.6974C10.7266 12.6974 10.3571 12.328 10.3571 11.8722Z" fill="#47B0D6"/>
</g>
<defs>
<clipPath id="clip0_4255_69025">
<rect width="16" height="16" fill="white" transform="translate(0.182129 0.87207)"/>
</clipPath>
</defs>
</svg>
