<svg width="24" height="25" viewBox="0 0 24 25" fill="none" xmlns="http://www.w3.org/2000/svg">
<g id="Analytics02">
<path id="Vector" d="M7.83398 11.7421V17.9166M12.0337 8.78808V17.9165M16.1651 15.005V17.9162M12.2178 4.35058H7.78313C4.84378 4.35058 3 6.43177 3 9.37794V17.3242C3 20.2703 4.83503 22.3506 7.78313 22.3506H16.2169C19.1659 22.3506 21 20.2703 21 17.3242V13.3779M19.0704 3.49746L19.8421 5.05079C19.8813 5.12904 19.956 5.18328 20.0422 5.19572L21.7707 5.44557C21.8401 5.45535 21.9041 5.49181 21.9467 5.54782C22.0277 5.65274 22.0152 5.80123 21.9183 5.89192L20.6655 7.10294C20.6024 7.16251 20.5739 7.25054 20.5899 7.33678L20.8904 9.04572C20.9109 9.18798 20.8149 9.31957 20.6726 9.34269C20.6139 9.35158 20.5543 9.34269 20.501 9.31602L18.9619 8.50956C18.8845 8.46777 18.7912 8.46777 18.7147 8.50956L17.164 9.32135C17.0342 9.38715 16.8751 9.33824 16.8048 9.2111C16.7782 9.15953 16.7684 9.10173 16.7782 9.04394L17.0778 7.335C17.0929 7.24965 17.0645 7.16251 17.0022 7.10205L15.7432 5.89103C15.6409 5.78878 15.6409 5.62251 15.7432 5.52026C15.785 5.48203 15.8374 5.45624 15.8935 5.44646L17.622 5.19483C17.7091 5.1815 17.7829 5.12726 17.822 5.04902L18.5938 3.49746C18.6249 3.43433 18.68 3.38632 18.7467 3.36409C18.8134 3.34186 18.8863 3.34719 18.9494 3.3792C19.0019 3.40499 19.0437 3.44589 19.0704 3.49746Z" stroke="#263682" stroke-width="1.5" stroke-linecap="round" stroke-linejoin="round"/>
</g>
</svg>
