<svg width="24" height="25" viewBox="0 0 24 25" fill="none" xmlns="http://www.w3.org/2000/svg">
<g id="Analytics05">
<path id="Vector" d="M12.4998 17.9117C15.4057 17.9117 17.7614 15.556 17.7614 12.6502C17.7614 11.1881 17.165 9.86529 16.2022 8.91175C15.2515 7.97018 13.9436 7.38867 12.4998 7.38867C9.59395 7.38867 7.23828 9.74434 7.23828 12.6502M12.4998 17.9117C9.59395 17.9117 7.23828 15.556 7.23828 12.6502M12.4998 17.9117L12.5 21.633M7.23828 12.6502L3.51733 12.6504M18.8521 6.29883L16.2206 8.93028M18.8521 19.0024L16.2206 16.371M8.77979 8.93018L6.14833 6.29873M12.5 21.6504C17.4706 21.6504 21.5 17.6209 21.5 12.6504C21.5 10.1494 20.4799 7.88671 18.833 6.25565C17.2069 4.64507 14.9696 3.65039 12.5 3.65039C7.52944 3.65039 3.5 7.67983 3.5 12.6504C3.5 17.6209 7.52944 21.6504 12.5 21.6504Z" stroke="#263682" stroke-width="1.5" stroke-linecap="round"/>
</g>
</svg>
