<svg width="25" height="25" viewBox="0 0 25 25" fill="none" xmlns="http://www.w3.org/2000/svg">
<g id="Analytics03">
<path id="Vector" d="M20.9585 21.5361C21.3727 21.5361 21.7085 21.2003 21.7085 20.7861C21.7085 20.3719 21.3727 20.0361 20.9585 20.0361V21.5361ZM5.7085 4.78613C5.7085 4.37192 5.37271 4.03613 4.9585 4.03613C4.54428 4.03613 4.2085 4.37192 4.2085 4.78613H5.7085ZM7.77506 11.1073C7.6021 11.4837 7.767 11.929 8.14338 12.102C8.51975 12.2749 8.96508 12.11 9.13803 11.7337L7.77506 11.1073ZM12.0964 8.2349L12.1179 8.98459H12.1179L12.0964 8.2349ZM21.2829 7.36982C21.4534 6.99234 21.2857 6.54809 20.9082 6.37755C20.5307 6.20701 20.0864 6.37477 19.9159 6.75225L21.2829 7.36982ZM18.2281 16.5648C18.2281 16.979 18.5639 17.3148 18.9781 17.3148C19.3923 17.3148 19.7281 16.979 19.7281 16.5648H18.2281ZM19.7281 13.8154C19.7281 13.4012 19.3923 13.0654 18.9781 13.0654C18.5639 13.0654 18.2281 13.4012 18.2281 13.8154H19.7281ZM11.3605 16.5648C11.3605 16.979 11.6963 17.3148 12.1105 17.3148C12.5247 17.3148 12.8605 16.979 12.8605 16.5648H11.3605ZM12.8605 12.8076C12.8605 12.3934 12.5247 12.0576 12.1105 12.0576C11.6963 12.0576 11.3605 12.3934 11.3605 12.8076H12.8605ZM14.7945 16.565C14.7945 16.9792 15.1303 17.315 15.5445 17.315C15.9587 17.315 16.2945 16.9792 16.2945 16.565H14.7945ZM16.2945 15.5488C16.2945 15.1346 15.9587 14.7988 15.5445 14.7988C15.1303 14.7988 14.7945 15.1346 14.7945 15.5488H16.2945ZM7.82675 16.565C7.82675 16.9792 8.16253 17.315 8.57675 17.315C8.99096 17.315 9.32675 16.9792 9.32675 16.565H7.82675ZM9.32675 15.5488C9.32675 15.1346 8.99096 14.7988 8.57675 14.7988C8.16253 14.7988 7.82675 15.1346 7.82675 15.5488H9.32675ZM20.9585 20.0361H6.9585V21.5361H20.9585V20.0361ZM6.9585 20.0361C6.26813 20.0361 5.7085 19.4765 5.7085 18.7861H4.2085C4.2085 20.3049 5.43972 21.5361 6.9585 21.5361V20.0361ZM5.7085 18.7861V4.78613H4.2085V18.7861H5.7085ZM8.45655 11.4205C9.13803 11.7337 9.13795 11.7338 9.13787 11.734C9.13786 11.734 9.13778 11.7342 9.13775 11.7343C9.13767 11.7344 9.13762 11.7346 9.13759 11.7346C9.13752 11.7348 9.13754 11.7347 9.13765 11.7345C9.13786 11.734 9.13841 11.7329 9.1393 11.731C9.14107 11.7272 9.14418 11.7207 9.14861 11.7115C9.15749 11.6931 9.17162 11.6643 9.19084 11.6265C9.22933 11.551 9.28794 11.4401 9.36529 11.3056C9.52093 11.0351 9.74775 10.6773 10.034 10.3215C10.6373 9.57162 11.3614 9.00628 12.1179 8.98459L12.0749 7.48521C10.6264 7.52674 9.53061 8.5542 8.86522 9.38129C8.5171 9.81401 8.24739 10.2408 8.0651 10.5576C7.97348 10.7169 7.90276 10.8504 7.85417 10.9459C7.82986 10.9936 7.81101 11.032 7.79778 11.0594C7.79117 11.0731 7.78596 11.084 7.78216 11.0921C7.78027 11.0961 7.77873 11.0994 7.77754 11.102C7.77695 11.1032 7.77644 11.1043 7.77603 11.1052C7.77582 11.1057 7.77564 11.1061 7.77548 11.1064C7.7754 11.1066 7.77529 11.1068 7.77525 11.1069C7.77515 11.1071 7.77506 11.1073 8.45655 11.4205ZM12.1179 8.98459C12.3411 8.97819 12.5755 9.05216 12.8673 9.23401C13.1725 9.42413 13.4727 9.68672 13.8502 10.0111C14.5422 10.6056 15.5045 11.4358 16.83 11.4358V9.93579C16.1371 9.93579 15.5762 9.51636 14.8277 8.87333C14.485 8.57892 14.0857 8.22576 13.6605 7.96088C13.2221 7.68772 12.6953 7.46742 12.0749 7.48521L12.1179 8.98459ZM16.83 11.4358C17.5805 11.4358 18.2377 11.1172 18.7682 10.7195C19.2998 10.321 19.7535 9.80691 20.1153 9.32181C20.4799 8.83298 20.7696 8.34856 20.9674 7.98874C21.0668 7.80796 21.1442 7.6565 21.1973 7.54885C21.224 7.49498 21.2446 7.45194 21.2589 7.42153C21.2661 7.40632 21.2717 7.39426 21.2757 7.38557C21.2777 7.38123 21.2793 7.37772 21.2805 7.37509C21.2811 7.37377 21.2816 7.37267 21.282 7.37179C21.2822 7.37135 21.2824 7.37097 21.2825 7.37064C21.2826 7.37047 21.2827 7.37027 21.2827 7.37019C21.2828 7.37 21.2829 7.36982 20.5994 7.06103C19.9159 6.75225 19.916 6.7521 19.916 6.75196C19.9161 6.75193 19.9161 6.75181 19.9161 6.75176C19.9162 6.75165 19.9162 6.7516 19.9162 6.75159C19.9162 6.75159 19.9161 6.75181 19.9159 6.75223C19.9155 6.75308 19.9148 6.75478 19.9136 6.75729C19.9113 6.76232 19.9074 6.77061 19.9021 6.78195C19.8914 6.80464 19.8747 6.83948 19.8524 6.88472C19.8077 6.9753 19.7404 7.10702 19.653 7.26606C19.4772 7.58589 19.2242 8.00765 18.9129 8.42501C18.5989 8.84611 18.2434 9.23823 17.8685 9.51932C17.4923 9.80129 17.1454 9.93579 16.83 9.93579V11.4358ZM19.7281 16.5648V13.8154H18.2281V16.5648H19.7281ZM12.8605 16.5648V12.8076H11.3605V16.5648H12.8605ZM16.2945 16.565V15.5488H14.7945V16.565H16.2945ZM9.32675 16.565V15.5488H7.82675V16.565H9.32675Z" fill="#263682"/>
</g>
</svg>
