<svg width="24" height="25" viewBox="0 0 24 25" fill="none" xmlns="http://www.w3.org/2000/svg">
<g id="Analytics04">
<path id="Vector" d="M20.5 21.4013C20.9142 21.4013 21.25 21.0655 21.25 20.6513C21.25 20.2371 20.9142 19.9013 20.5 19.9013V21.4013ZM5.25 4.65137C5.25 4.23715 4.91421 3.90137 4.5 3.90137C4.08579 3.90137 3.75 4.23715 3.75 4.65137H5.25ZM20.0093 16.4692C20.4235 16.4692 20.7593 16.1334 20.7593 15.7192C20.7593 15.305 20.4235 14.9692 20.0093 14.9692V16.4692ZM17.0811 11.4582L16.3365 11.5478L16.3365 11.5479L17.0811 11.4582ZM10.6244 11.4582L9.87977 11.3686L9.87977 11.3686L10.6244 11.4582ZM7.69629 14.9692C7.28208 14.9692 6.94629 15.305 6.94629 15.7192C6.94629 16.1334 7.28208 16.4692 7.69629 16.4692V14.9692ZM20.5 19.9013H6.5V21.4013H20.5V19.9013ZM6.5 19.9013C5.80964 19.9013 5.25 19.3417 5.25 18.6513H3.75C3.75 20.1701 4.98122 21.4013 6.5 21.4013V19.9013ZM5.25 18.6513V4.65137H3.75V18.6513H5.25ZM20.0093 14.9692C19.5164 14.9692 19.0799 14.7418 18.6969 14.178C18.2959 13.5876 17.9806 12.6549 17.8257 11.3686L16.3365 11.5479C16.506 12.9565 16.8676 14.1543 17.456 15.0207C18.0624 15.9136 18.9278 16.4692 20.0093 16.4692V14.9692ZM17.8257 11.3687C17.7183 10.4754 17.3754 9.48651 16.738 8.70382C16.0853 7.90241 15.1216 7.32129 13.8528 7.32129V8.82129C14.6111 8.82129 15.1673 9.15054 15.5749 9.65104C15.9978 10.1703 16.2555 10.8749 16.3365 11.5478L17.8257 11.3687ZM13.8528 7.32129C12.584 7.32129 11.6203 7.90241 10.9676 8.70382C10.3302 9.4865 9.98728 10.4753 9.87977 11.3686L11.369 11.5478C11.45 10.8749 11.7078 10.1703 12.1307 9.65105C12.5383 9.15054 13.0945 8.82129 13.8528 8.82129V7.32129ZM9.87977 11.3686C9.72499 12.6549 9.40964 13.5876 9.00869 14.178C8.62573 14.7418 8.18918 14.9692 7.69629 14.9692V16.4692C8.77778 16.4692 9.64314 15.9136 10.2496 15.0207C10.838 14.1543 11.1995 12.9565 11.369 11.5478L9.87977 11.3686Z" fill="#263682"/>
</g>
</svg>
