<svg width="24" height="25" viewBox="0 0 24 25" fill="none" xmlns="http://www.w3.org/2000/svg">
<g id="Analytics08">
<path id="Vector" d="M5.95508 17.7851H7.35811M18.0437 12.0117H16.6406M6.75391 6.02539H17.2474M8.69141 3.36328H15.3086M6.18843 8.76953H17.8116C19.777 8.76953 21 10.157 21 12.1204V17.6771C21 19.6405 19.777 21.028 17.8106 21.028H6.18843C4.22303 21.028 3 19.6405 3 17.6771V12.1204C3 10.157 4.22886 8.76953 6.18843 8.76953ZM14.2868 14.8988C14.2868 13.6349 13.2623 12.6113 11.9994 12.6113C10.7355 12.6113 9.71094 13.6349 9.71094 14.8988C9.71094 16.1627 10.7355 17.1862 11.9994 17.1862C13.2623 17.1862 14.2868 16.1627 14.2868 14.8988Z" stroke="#263682" stroke-width="1.5" stroke-linecap="round" stroke-linejoin="round"/>
</g>
</svg>
