<svg width="24" height="25" viewBox="0 0 24 25" fill="none" xmlns="http://www.w3.org/2000/svg">
<path d="M21.0997 9.83618C20.6847 9.83618 20.3497 9.49618 20.3497 9.08618V7.5061C20.3497 5.7761 18.9427 4.36621 17.2067 4.36621H15.9497C15.5347 4.36621 15.1997 4.02621 15.1997 3.61621C15.1997 3.20621 15.5347 2.86621 15.9497 2.86621H17.2067C19.7707 2.86621 21.8497 4.9461 21.8497 7.5061V9.08618C21.8497 9.49618 21.5137 9.83618 21.0997 9.83618Z" fill="#263682"/>
<path d="M3.09961 9.83618C2.68461 9.83618 2.34961 9.49618 2.34961 9.08618V7.5061C2.34961 4.9461 4.42761 2.86621 6.99161 2.86621H8.28162C8.69562 2.86621 9.03162 3.20621 9.03162 3.61621C9.03162 4.02621 8.69562 4.36621 8.28162 4.36621H6.99161C5.25561 4.36621 3.84961 5.7761 3.84961 7.5061V9.08618C3.84961 9.49618 3.51361 9.83618 3.09961 9.83618Z" fill="#263682"/>
<path d="M3.09961 15.3965C3.51361 15.3965 3.84961 15.7365 3.84961 16.1465V17.7266C3.84961 19.4566 5.25561 20.8665 6.99161 20.8665H8.2496C8.6636 20.8665 8.9996 21.2065 8.9996 21.6165C8.9996 22.0265 8.6636 22.3665 8.2496 22.3665H6.99161C4.42761 22.3665 2.34961 20.2866 2.34961 17.7266V16.1465C2.34961 15.7365 2.68461 15.3965 3.09961 15.3965Z" fill="#263682"/>
<path d="M21.0976 15.3965C21.5116 15.3965 21.8476 15.7365 21.8476 16.1465V17.7266C21.8476 20.2866 19.7685 22.3665 17.2045 22.3665H15.9146C15.5006 22.3665 15.1646 22.0265 15.1646 21.6165C15.1646 21.2065 15.5006 20.8665 15.9146 20.8665H17.2045C18.9405 20.8665 20.3476 19.4566 20.3476 17.7266V16.1465C20.3476 15.7365 20.6826 15.3965 21.0976 15.3965Z" fill="#263682"/>
<path fill-rule="evenodd" clip-rule="evenodd" d="M8.03881 9.10587H8.03982L11.0868 7.34586C11.7128 6.97586 12.4838 6.97586 13.1098 7.34586L16.1568 9.10587C16.7828 9.46587 17.1678 10.1359 17.1678 10.8559V14.3759C17.1678 15.0956 16.7831 15.7654 16.1566 16.1255L13.1088 17.8859C12.7989 18.0641 12.4537 18.1541 12.1083 18.1559H12.0998H12.0936C11.7462 18.1552 11.399 18.0652 11.0878 17.8859L8.03881 16.1259C7.4117 15.7657 7.02783 15.0953 7.02783 14.3759V10.8559C7.02783 10.5091 7.11711 10.174 7.27959 9.87952C7.28821 9.86141 7.29762 9.84351 7.30783 9.82584C7.32261 9.80013 7.33869 9.77563 7.35591 9.7524C7.52664 9.49032 7.75858 9.26703 8.03881 9.10587ZM11.3498 13.0321L8.52783 11.4027V14.3759C8.52783 14.5559 8.62781 14.7359 8.78881 14.8259H8.78982L11.3498 16.3046V13.0321ZM15.6678 11.3998L12.8498 13.0269V16.3024L15.4078 14.8259C15.5688 14.7359 15.6678 14.5559 15.6678 14.3759V11.3998ZM14.904 10.1072L12.3588 8.64591C12.1968 8.54591 11.9988 8.54591 11.8368 8.64591L9.28956 10.1089L12.0953 11.7291L14.904 10.1072Z" fill="#263682"/>
</svg>
