<svg width="54" height="55" viewBox="0 0 54 55" fill="none" xmlns="http://www.w3.org/2000/svg">
<path d="M27.8762 43.463H14.0036C9.61939 43.463 6.89258 40.3695 6.89258 35.9919V19.4965C6.89258 15.1188 9.61939 12.0254 14.0014 12.0254H39.9159C44.285 12.0254 47.0247 15.1188 47.0247 19.4965V23.9522M14.0603 19.8332H17.1885M44.3048 40.7503L47.0231 43.4684M44.3048 40.7503C43.3916 41.6613 42.1239 42.2267 40.7226 42.2267C37.9285 42.2267 35.6637 39.9597 35.6637 37.1678C35.6637 34.3759 37.9285 32.1089 40.7226 32.1089C43.5164 32.1089 45.7812 34.3759 45.7812 37.1678C45.7812 38.5648 45.2181 39.8197 44.3048 40.7503ZM21.8595 27.7463C21.8595 24.9286 24.1437 22.6463 26.9594 22.6463C29.7774 22.6463 32.0618 24.9286 32.0618 27.7463C32.0618 30.5643 29.7774 32.8464 26.9594 32.8464C24.1437 32.8464 21.8595 30.5643 21.8595 27.7463Z" stroke="#47B0D6" stroke-width="2.5" stroke-linecap="round" stroke-linejoin="round"/>
</svg>
