<svg width="25" height="24" viewBox="0 0 25 24" fill="none" xmlns="http://www.w3.org/2000/svg">
<path d="M22.3226 15.5303C22.3226 15.3924 22.4348 15.2803 22.5726 15.2803C22.7105 15.2803 22.8226 15.3924 22.8226 15.5303V17.1103C22.8226 19.3928 20.9639 21.2503 18.6796 21.2503H17.3896C17.2518 21.2503 17.1396 21.1381 17.1396 21.0003C17.1396 20.8624 17.2518 20.7503 17.3896 20.7503H18.6796C20.6883 20.7503 22.3226 19.1189 22.3226 17.1103V15.5303Z" fill="white" stroke="white"/>
<path fill-rule="evenodd" clip-rule="evenodd" d="M9.7252 20.2503H8.4672C6.7352 20.2503 5.3252 18.8413 5.3252 17.1103V15.5303C5.3252 15.1163 4.9892 14.7803 4.5752 14.7803C4.1612 14.7803 3.8252 15.1163 3.8252 15.5303V17.1103C3.8252 19.6683 5.9082 21.7503 8.4672 21.7503H9.7252C10.1392 21.7503 10.4752 21.4143 10.4752 21.0003C10.4752 20.5863 10.1392 20.2503 9.7252 20.2503Z" fill="white"/>
<path fill-rule="evenodd" clip-rule="evenodd" d="M4.5752 9.22C4.9892 9.22 5.3252 8.884 5.3252 8.47V6.89C5.3252 5.158 6.7352 3.75 8.4672 3.75H9.7572C10.1712 3.75 10.5072 3.414 10.5072 3C10.5072 2.586 10.1712 2.25 9.7572 2.25H8.4672C5.9082 2.25 3.8252 4.332 3.8252 6.89V8.47C3.8252 8.884 4.1612 9.22 4.5752 9.22Z" fill="white"/>
<path fill-rule="evenodd" clip-rule="evenodd" d="M18.6808 2.25H17.4238C17.0098 2.25 16.6738 2.586 16.6738 3C16.6738 3.414 17.0098 3.75 17.4238 3.75H18.6808C20.4138 3.75 21.8238 5.158 21.8238 6.89V8.47C21.8238 8.884 22.1598 9.22 22.5738 9.22C22.9878 9.22 23.3238 8.884 23.3238 8.47V6.89C23.3238 4.332 21.2408 2.25 18.6808 2.25Z" fill="white"/>
<path fill-rule="evenodd" clip-rule="evenodd" d="M8.7571 10.1423C8.76357 10.0113 8.90606 9.9502 9.01963 10.0159L12.725 12.1582C12.7868 12.194 12.8249 12.2599 12.8249 12.3314V16.8206C12.8249 16.9621 12.6821 17.0584 12.5531 17.0002C11.5463 16.546 10.5823 15.8409 9.63488 15.296C9.09488 14.976 8.75488 14.386 8.75488 13.756V10.236C8.75488 10.2047 8.75556 10.1734 8.7571 10.1423Z" fill="white"/>
<path fill-rule="evenodd" clip-rule="evenodd" d="M17.1535 8.49299C17.287 8.56984 17.2872 8.76252 17.1537 8.83956L13.774 10.7908C13.6504 10.8621 13.4981 10.8622 13.3744 10.791L9.98593 8.83974C9.85219 8.76273 9.85238 8.56968 9.98626 8.49292L12.6843 6.94605C13.2343 6.62605 13.9143 6.62605 14.4643 6.94605L17.1535 8.49299Z" fill="white"/>
<path fill-rule="evenodd" clip-rule="evenodd" d="M18.3952 10.2354V13.7554C18.3952 14.3854 18.0552 14.9754 17.5052 15.2954C16.5615 15.84 15.6005 16.5462 14.5969 16.9996C14.4679 17.0579 14.3252 16.9615 14.3252 16.82V12.3211C14.3252 12.2495 14.3634 12.1834 14.4254 12.1477L18.1306 10.0147C18.2442 9.94934 18.3865 10.0104 18.393 10.1413C18.3945 10.1725 18.3952 10.204 18.3952 10.2354Z" fill="white"/>
</svg>
