<svg version="1.2" xmlns="http://www.w3.org/2000/svg" viewBox="0 0 36 37" width="36" height="37"><style>.a{fill:#626262}</style><path fill-rule="evenodd" class="a" d="m35.1 1.4c0.6 0.5 0.9 1.3 0.9 2.1v30c0 0.8-0.3 1.6-0.9 2.1-0.5 0.6-1.3 0.9-2.1 0.9h-30c-0.8 0-1.6-0.3-2.1-0.9-0.6-0.5-0.9-1.3-0.9-2.1v-30c0-0.8 0.3-1.6 0.9-2.1 0.5-0.6 1.3-0.9 2.1-0.9h30c0.8 0 1.6 0.3 2.1 0.9zm-33.1 1.1v20.5h6.4q0.6 0 1.1 0.2 0.6 0.3 1 0.7l3.6 3.6h7.8l3.6-3.6q0.4-0.4 1-0.7 0.5-0.2 1.1-0.2h6.4v-20.5zm32 23.5h-6.4l-3.6 3.6q-0.4 0.4-1 0.7-0.5 0.2-1.1 0.2h-7.8q-0.6 0-1.1-0.2-0.6-0.3-1-0.7l-3.6-3.6h-6.4v8.5h32z"/></svg>