<svg version="1.2" xmlns="http://www.w3.org/2000/svg" viewBox="0 0 36 37" width="36" height="37"><style>.a{fill:#1af9ff}.b{fill:#275aff}</style><path class="a" d="m2 25.8l-0.5-22.7c0-0.5 0.1-0.9 0.4-1.1 0.3-0.3 0.7-0.5 1.1-0.5l31.5 1c0.4 0 0.8 0.2 1 0.5 0.3 0.2 0.5 0.6 0.5 1.1v21.7h-7.1c-0.2 0-1.7-0.4-1.9-0.3-0.2 0.1 0.1 0.9 0 1l-3 3c-0.1 0.1-0.8-0.1-1 0-0.2 0.1-0.8 1-1 1h-7q-0.3 0-0.6-0.1-0.3-0.1-0.5-0.3l-3.7-3.8q-0.2-0.2-0.5-0.4-0.3-0.1-0.6-0.1z"/><path fill-rule="evenodd" class="b" d="m35.1 1.4c0.6 0.5 0.9 1.3 0.9 2.1v30c0 0.8-0.3 1.6-0.9 2.1-0.5 0.6-1.3 0.9-2.1 0.9h-30c-0.8 0-1.6-0.3-2.1-0.9-0.6-0.5-0.9-1.3-0.9-2.1v-30c0-0.8 0.3-1.6 0.9-2.1 0.5-0.6 1.3-0.9 2.1-0.9h30c0.8 0 1.6 0.3 2.1 0.9zm-33.1 1.1v20.5h6.4q0.6 0 1.1 0.2 0.6 0.3 1 0.7l3.6 3.6h7.8l3.6-3.6q0.4-0.4 1-0.7 0.5-0.2 1.1-0.2h6.4v-20.5zm32 23.5h-6.4l-3.6 3.6q-0.4 0.4-1 0.7-0.5 0.2-1.1 0.2h-7.8q-0.6 0-1.1-0.2-0.6-0.3-1-0.7l-3.6-3.6h-6.4v8.5h32z"/></svg>