<svg width="25" height="25" viewBox="0 0 25 25" fill="none" xmlns="http://www.w3.org/2000/svg">
<path fill-rule="evenodd" clip-rule="evenodd" d="M8.07129 2.06152C5.44794 2.06152 3.32129 4.18817 3.32129 6.81152C3.32129 9.43488 5.44794 11.5615 8.07129 11.5615C10.6946 11.5615 12.8213 9.43488 12.8213 6.81152C12.8213 4.18817 10.6946 2.06152 8.07129 2.06152ZM0.321289 19.7615C0.321289 16.6135 2.87327 14.0615 6.02129 14.0615H10.1213C13.2693 14.0615 15.8213 16.6135 15.8213 19.7615C15.8213 21.8602 14.12 23.5615 12.0213 23.5615H4.12129C2.02261 23.5615 0.321289 21.8602 0.321289 19.7615ZM15.0713 2.06152C14.6571 2.06152 14.3213 2.39731 14.3213 2.81152C14.3213 3.22574 14.6571 3.56152 15.0713 3.56152C16.8662 3.56152 18.3213 5.0166 18.3213 6.81152C18.3213 8.60645 16.8662 10.0615 15.0713 10.0615C14.6571 10.0615 14.3213 10.3973 14.3213 10.8115C14.3213 11.2257 14.6571 11.5615 15.0713 11.5615C17.6946 11.5615 19.8213 9.43488 19.8213 6.81152C19.8213 4.18817 17.6946 2.06152 15.0713 2.06152ZM17.0713 14.0615C16.6571 14.0615 16.3213 14.3973 16.3213 14.8115C16.3213 15.2257 16.6571 15.5615 17.0713 15.5615H18.2713C20.508 15.5615 22.3213 17.3748 22.3213 19.6115C22.3213 20.9646 21.2244 22.0615 19.8713 22.0615H17.0713C16.6571 22.0615 16.3213 22.3973 16.3213 22.8115C16.3213 23.2257 16.6571 23.5615 17.0713 23.5615H19.8713C22.0528 23.5615 23.8213 21.793 23.8213 19.6115C23.8213 16.5463 21.3365 14.0615 18.2713 14.0615H17.0713Z" fill="#263682"/>
</svg>
