<svg width="24" height="25" viewBox="0 0 24 25" fill="none" xmlns="http://www.w3.org/2000/svg">
<path d="M19.3369 14.2285C21.9777 14.7704 22.9433 16.5269 22.9433 17.9939" stroke="#263682" stroke-width="1.62721" stroke-linecap="round" stroke-linejoin="round"/>
<path d="M18.75 5.26172C19.9522 5.64971 20.8193 6.7792 20.8144 8.11068C20.8094 9.38547 20.0051 10.4719 18.8768 10.8943" stroke="#263682" stroke-width="1.62721" stroke-linecap="round" stroke-linejoin="round"/>
<path d="M5.14355 20.2239C5.14355 17.9366 6.94925 15.0889 12.1495 15.0889C17.3499 15.0889 19.1555 17.9157 19.1555 20.2043" stroke="#263682" stroke-width="1.62721" stroke-linecap="round" stroke-linejoin="round"/>
<path fill-rule="evenodd" clip-rule="evenodd" d="M16.6266 7.34202C16.6266 9.81407 14.6227 11.8168 12.1518 11.8168C9.67979 11.8168 7.67578 9.81407 7.67578 7.34202C7.67578 4.86996 9.67979 2.86719 12.1518 2.86719C14.6227 2.86719 16.6266 4.86996 16.6266 7.34202Z" stroke="#263682" stroke-width="1.62721" stroke-linecap="round" stroke-linejoin="round"/>
<path d="M4.96389 14.2285C2.32308 14.7704 1.35742 16.5269 1.35742 17.9939" stroke="#263682" stroke-width="1.62721" stroke-linecap="round" stroke-linejoin="round"/>
<path d="M5.54974 5.26172C4.34758 5.64971 3.48045 6.7792 3.48537 8.11068C3.4903 9.38547 4.29462 10.4719 5.42287 10.8943" stroke="#263682" stroke-width="1.62721" stroke-linecap="round" stroke-linejoin="round"/>
</svg>
