<svg width="238" height="204" viewBox="0 0 238 204" fill="none" xmlns="http://www.w3.org/2000/svg">
<path d="M43.2648 54.6243C49.205 50.0418 56.6466 47.8514 64.1222 48.4849L106.166 52.0479C109.694 52.347 113.247 52.019 116.661 51.0792L178.084 34.1707C191.279 30.5384 205.259 36.2962 212.069 48.1672L227.509 75.0837C233.555 85.6232 232.647 98.7688 225.209 108.376L189.5 154.5L157.515 187.485C148.067 197.228 133.256 199.415 121.396 192.818L57.7455 157.417C54.2828 155.492 51.2359 152.899 48.7808 149.789L18.799 111.812C8.45086 98.7044 10.7985 79.6697 24.0214 69.4692L43.2648 54.6243Z" fill="#D2DCFC" fill-opacity="0.21"/>
<path d="M183.354 36.0938C185.079 36.0938 186.479 37.4937 186.479 39.2188C186.479 40.9437 185.079 42.3438 183.354 42.3438C181.629 42.3438 180.229 40.9437 180.229 39.2188C180.229 37.4937 181.629 36.0938 183.354 36.0938Z" fill="#94D4FF"/>
<path d="M183.354 117.344C185.079 117.344 186.479 118.744 186.479 120.469C186.479 122.194 185.079 123.594 183.354 123.594C181.629 123.594 180.229 122.194 180.229 120.469C180.229 118.744 181.629 117.344 183.354 117.344Z" fill="#94D4FF"/>
<path d="M167.729 136.094C171.182 136.094 173.979 138.891 173.979 142.344C173.979 145.797 171.182 148.594 167.729 148.594C164.275 148.594 161.479 145.797 161.479 142.344C161.479 138.891 164.275 136.094 167.729 136.094Z" fill="#1CD3FF"/>
<path d="M161.479 7.96875C163.204 7.96875 164.604 9.36875 164.604 11.0938C164.604 12.8187 163.204 14.2188 161.479 14.2188C159.754 14.2188 158.354 12.8187 158.354 11.0938C158.354 9.36875 159.754 7.96875 161.479 7.96875Z" fill="#94D4FF"/>
<path d="M117.729 17.3438C83.2098 17.3438 55.2285 45.325 55.2285 79.8438C55.2285 114.363 83.2098 142.344 117.729 142.344C152.247 142.344 180.229 114.363 180.229 79.8438C180.229 45.325 152.247 17.3438 117.729 17.3438Z" fill="#1FB3FF"/>
<path d="M117.729 126.719C91.841 126.719 70.8535 105.731 70.8535 79.8438C70.8535 53.9563 91.841 32.9688 117.729 32.9688C143.616 32.9688 164.604 53.9563 164.604 79.8438C164.604 105.731 143.616 126.719 117.729 126.719Z" fill="white"/>
<path d="M140.963 65.0695C143.404 67.5102 143.404 71.4664 140.963 73.907L118.866 96.007L110.028 104.845L101.188 96.007L94.5595 89.3758C93.341 88.157 92.7285 86.557 92.7285 84.957C92.7285 83.357 93.341 81.757 94.5595 80.538C97.0004 78.0973 100.957 78.0973 103.397 80.538L110.028 87.1661L132.125 65.0695C133.347 63.8508 134.944 63.2383 136.544 63.2383C138.144 63.2383 139.741 63.8508 140.963 65.0695Z" fill="#275AFF"/>
<path d="M70.8535 142.344C72.5785 142.344 73.9785 143.744 73.9785 145.469C73.9785 147.194 72.5785 148.594 70.8535 148.594C69.1282 148.594 67.7285 147.194 67.7285 145.469C67.7285 143.744 69.1282 142.344 70.8535 142.344Z" fill="#94D4FF"/>
<path d="M63.041 14.2188C67.3566 14.2188 70.8535 17.7156 70.8535 22.0312C70.8535 26.3469 67.3566 29.8438 63.041 29.8438C58.7251 29.8438 55.2285 26.3469 55.2285 22.0312C55.2285 17.7156 58.7251 14.2188 63.041 14.2188Z" fill="#1CD3FF"/>
<path d="M52.1035 39.2188C53.8285 39.2188 55.2285 40.6187 55.2285 42.3438C55.2285 44.0687 53.8285 45.4688 52.1035 45.4688C50.3782 45.4688 48.9785 44.0687 48.9785 42.3438C48.9785 40.6187 50.3782 39.2188 52.1035 39.2188Z" fill="#94D4FF"/>
<path d="M52.1035 117.344C53.8285 117.344 55.2285 118.744 55.2285 120.469C55.2285 122.194 53.8285 123.594 52.1035 123.594C50.3782 123.594 48.9785 122.194 48.9785 120.469C48.9785 118.744 50.3782 117.344 52.1035 117.344Z" fill="#94D4FF"/>
<path d="M155.229 79.8438C155.229 78.1178 153.829 76.7188 152.104 76.7188C150.378 76.7188 148.979 78.1178 148.979 79.8438C148.979 97.0753 134.96 111.094 117.729 111.094C116.003 111.094 114.604 112.493 114.604 114.219V126.613C115.637 126.681 116.678 126.719 117.729 126.719C118.779 126.719 119.82 126.681 120.854 126.613V117.215C140.074 115.621 155.229 99.4688 155.229 79.8438Z" fill="#D0DCE7"/>
<path d="M80.2285 79.8438C80.2285 81.5694 81.6276 82.9688 83.3535 82.9688C85.0791 82.9688 86.4785 81.5694 86.4785 79.8438C86.4785 62.6125 100.497 48.5938 117.729 48.5938C119.454 48.5938 120.854 47.1947 120.854 45.4688V33.075C119.82 33.0069 118.779 32.9688 117.729 32.9688C116.678 32.9688 115.637 33.0069 114.604 33.075V42.4728C95.3829 44.0662 80.2285 60.2188 80.2285 79.8438Z" fill="#D0DCE7"/>
</svg>
