<svg width="25" height="25" viewBox="0 0 25 25" fill="none" xmlns="http://www.w3.org/2000/svg">
<path fill-rule="evenodd" clip-rule="evenodd" d="M18.118 3.82715H6.92776C4.22074 3.82715 2.52344 5.7439 2.52344 8.45634V15.7763C2.52344 18.4898 4.21209 20.4055 6.92776 20.4055H18.1169C20.8337 20.4055 22.5234 18.4898 22.5234 15.7763V8.45634C22.5234 5.7439 20.8337 3.82715 18.118 3.82715Z" stroke="#263682" stroke-width="1.5" stroke-linecap="round" stroke-linejoin="round"/>
<path d="M6.05859 10.1475L7.04021 14.0913L8.82075 10.1475" stroke="#263682" stroke-width="1.5" stroke-linecap="round" stroke-linejoin="round"/>
<path d="M10.2949 14.0913L10.8593 10.1475" stroke="#263682" stroke-width="1.5" stroke-linecap="round" stroke-linejoin="round"/>
<path d="M16.1084 14.0913L17.8186 10.1475L18.984 14.0913" stroke="#263682" stroke-width="1.5" stroke-linecap="round" stroke-linejoin="round"/>
<path d="M14.6233 10.4375C14.0233 10.2062 12.9714 10.1943 12.9282 11.0656C12.8925 11.8073 13.6612 12.0462 14.0774 12.5013C14.2352 12.6732 14.3531 12.8916 14.3628 13.124C14.3725 13.3564 14.2687 13.5878 14.0979 13.7446C13.7087 14.1035 13.1033 14.0159 12.6514 13.8419" stroke="#263682" stroke-width="1.5" stroke-linecap="round" stroke-linejoin="round"/>
</svg>
