<svg width="31" height="30" viewBox="0 0 31 30" fill="none" xmlns="http://www.w3.org/2000/svg">
<g id="Visa">
<path id="Vector" fill-rule="evenodd" clip-rule="evenodd" d="M22.4933 4.63867H8.5054C5.12162 4.63867 3 7.03461 3 10.4252V19.5751C3 22.967 5.11081 25.3616 8.5054 25.3616H22.4919C25.8879 25.3616 28 22.967 28 19.5751V10.4252C28 7.03461 25.8879 4.63867 22.4933 4.63867Z" stroke="#1F6A84" stroke-width="1.5" stroke-linecap="round" stroke-linejoin="round"/>
<path id="Vector_2" d="M7.41895 12.5391L8.64597 17.4688L10.8716 12.5391" stroke="#1F6A84" stroke-width="1.5" stroke-linecap="round" stroke-linejoin="round"/>
<path id="Vector_3" d="M12.7139 17.4688L13.4193 12.5391" stroke="#1F6A84" stroke-width="1.5" stroke-linecap="round" stroke-linejoin="round"/>
<path id="Vector_4" d="M19.9812 17.4688L22.119 12.5391L23.5757 17.4688" stroke="#1F6A84" stroke-width="1.5" stroke-linecap="round" stroke-linejoin="round"/>
<path id="Vector_5" d="M18.1248 12.9016C17.3748 12.6125 16.0599 12.5976 16.0059 13.6867C15.9613 14.6139 16.9222 14.9125 17.4424 15.4814C17.6397 15.6962 17.787 15.9692 17.7992 16.2597C17.8113 16.5502 17.6815 16.8395 17.468 17.0355C16.9815 17.4841 16.2248 17.3746 15.6599 17.1571" stroke="#1F6A84" stroke-width="1.5" stroke-linecap="round" stroke-linejoin="round"/>
</g>
</svg>
