<svg width="25" height="25" viewBox="0 0 25 25" fill="none" xmlns="http://www.w3.org/2000/svg">
<path fill-rule="evenodd" clip-rule="evenodd" d="M1.79004 4.81155C1.79004 4.81115 1.79004 4.81071 1.79004 4.81031C1.79071 3.2921 3.02167 2.06155 4.54004 2.06155L11.4532 2.06154C12.5179 2.06132 13.2037 2.06118 13.8445 2.24417C14.4108 2.40591 14.9421 2.67157 15.4113 3.02759C15.9421 3.43038 16.3535 3.97909 16.9922 4.83101L17.9246 6.07427C18.2541 6.08252 18.5542 6.09611 18.8283 6.11851C19.5417 6.1768 20.1453 6.29841 20.6965 6.57924C21.5903 7.03464 22.3169 7.7613 22.7723 8.65507C23.0532 9.20624 23.1748 9.80987 23.2331 10.5233C23.2469 10.6925 23.2574 10.8717 23.2653 11.0615H21.54C19.469 11.0615 17.79 12.7405 17.79 14.8115C17.79 16.8826 19.469 18.5615 21.54 18.5615H23.2653C23.2574 18.7514 23.2469 18.9305 23.2331 19.0998C23.1748 19.8132 23.0532 20.4168 22.7723 20.968C22.3169 21.8617 21.5903 22.5884 20.6965 23.0438C20.1453 23.3246 19.5417 23.4462 18.8283 23.5045C18.1307 23.5615 17.2652 23.5615 16.1731 23.5615H8.90702C7.81488 23.5615 6.94939 23.5615 6.25177 23.5045C5.53838 23.4462 4.93476 23.3246 4.38358 23.0438C3.48981 22.5884 2.76316 21.8617 2.30776 20.968C2.02692 20.4168 1.90531 19.8132 1.84703 19.0998C1.79003 18.4022 1.79003 17.5367 1.79004 16.4445V4.81155ZM13.4325 3.6865C13.0188 3.56833 12.5568 3.56155 11.34 3.56155H4.54004C3.84968 3.56155 3.29004 4.1212 3.29004 4.81155C3.29004 5.49899 3.84496 6.05681 4.53128 6.06152H16.04L15.86 5.82155C15.13 4.84811 14.8474 4.48264 14.5046 4.22253C14.1836 3.97893 13.82 3.79717 13.4325 3.6865ZM8.04004 14.0615C7.62583 14.0615 7.29004 14.3973 7.29004 14.8115C7.29004 15.2257 7.62583 15.5615 8.04004 15.5615H13.04C13.4543 15.5615 13.79 15.2257 13.79 14.8115C13.79 14.3973 13.4543 14.0615 13.04 14.0615H8.04004Z" fill="#263682"/>
<path d="M23.29 16.4474C23.29 16.6606 23.29 16.8652 23.2896 17.0615H21.54C20.2974 17.0615 19.29 16.0542 19.29 14.8115C19.29 13.5689 20.2974 12.5615 21.54 12.5615H23.2896C23.29 12.7579 23.29 12.9625 23.29 13.1757V16.4474Z" fill="#263682"/>
</svg>
