<svg version="1.2" xmlns="http://www.w3.org/2000/svg" viewBox="0 0 38 35" width="38" height="35"><style>.a{fill:none;stroke:#626262;stroke-width:2}.b{fill:none;stroke:#626262;stroke-linecap:round;stroke-width:2}</style><path class="a" d="m35 3.5c2 2 2 5.2 2 11.7v4.6c0 6.5 0 9.7-2 11.7-2 2-5.1 2-11.5 2h-9c-6.4 0-9.5 0-11.5-2-2-2-2-5.2-2-11.7v-4.6c0-6.5 0-9.7 2-11.7 2-2 5.1-2 11.5-2h9c6.4 0 9.5 0 11.5 2z"/><path class="b" d="m9 9.5h6"/><path class="a" d="m25 23.5v-4c0-0.9 0-1.4 0.3-1.7 0.3-0.3 0.8-0.3 1.7-0.3h8c0.9 0 1.4 0 1.7 0.3 0.3 0.3 0.3 0.8 0.3 1.7v4c0 0.9 0 1.4-0.3 1.7-0.3 0.3-0.8 0.3-1.7 0.3h-8c-0.9 0-1.4 0-1.7-0.3-0.3-0.3-0.3-0.8-0.3-1.7z"/></svg>