<svg width="24" height="25" viewBox="0 0 24 25" fill="none" xmlns="http://www.w3.org/2000/svg">
<path d="M2 4.74316V16.3432C2 18.5834 2 19.7035 2.43597 20.5591C2.81947 21.3118 3.43139 21.9237 4.18404 22.3072C5.03968 22.7432 6.15979 22.7432 8.4 22.7432H15.6C17.8402 22.7432 18.9603 22.7432 19.816 22.3072C20.5686 21.9237 21.1805 21.3118 21.564 20.5591C22 19.7035 22 18.5834 22 16.3432V13.1432C22 10.903 22 9.78285 21.564 8.9272C21.1805 8.17455 20.5686 7.56263 19.816 7.17914C18.9603 6.74316 17.8402 6.74316 15.6 6.74316H12M22 11.7432H21.5C19.8431 11.7432 18.5 13.0863 18.5 14.7432V14.7432C18.5 16.4 19.8431 17.7432 21.5 17.7432H22M7.5 14.7432H10H12.5M17 6.74316L15.92 5.30316C15.216 4.3645 14.864 3.89517 14.4179 3.55667C14.0228 3.25686 13.5754 3.03315 13.0985 2.89695C12.56 2.74316 11.9733 2.74316 10.8 2.74316H4C2.89543 2.74316 2 3.63859 2 4.74316V4.74316C2 5.84773 2.89543 6.74316 4 6.74316H17Z" stroke="#8D99D2" stroke-width="1.5" stroke-linecap="round" stroke-linejoin="round"/>
</svg>
