<svg width="49" height="49" viewBox="0 0 49 49" fill="none" xmlns="http://www.w3.org/2000/svg">
<path fill-rule="evenodd" clip-rule="evenodd" d="M24.1823 10.733C16.7485 10.733 10.7223 16.7593 10.7223 24.193C10.7223 31.6268 16.7485 37.653 24.1823 37.653C31.616 37.653 37.6423 31.6268 37.6423 24.193C37.6423 16.7593 31.616 10.733 24.1823 10.733ZM6.32227 24.193C6.32227 14.3292 14.3185 6.33301 24.1823 6.33301C34.0461 6.33301 42.0423 14.3292 42.0423 24.193C42.0423 34.0568 34.0461 42.053 24.1823 42.053C14.3185 42.053 6.32227 34.0568 6.32227 24.193Z" fill="#263682"/>
<path d="M26.2432 2.58887H21.7832V17.0734H26.2432V2.58887Z" fill="#263682"/>
<path d="M29.7818 24.9737C29.4818 24.3337 29.2818 23.9537 29.2818 22.9737C29.2818 21.9937 29.4618 21.6137 29.7818 20.9737C30.1818 20.1537 30.7218 19.0337 30.7218 17.0537H26.2618C26.2618 18.0337 26.0818 18.4137 25.7618 19.0537C25.3618 19.8737 24.8218 20.9937 24.8218 22.9737C24.8218 24.9537 25.3618 26.0737 25.7618 26.8937C25.8418 27.0337 25.9018 27.1737 25.9618 27.3137C26.5418 28.6537 25.6818 30.2537 24.2218 30.3737C24.1618 30.3737 24.1018 30.3737 24.0418 30.3737C22.8018 30.3737 21.8018 29.3737 21.8018 28.1537H17.3418C17.3418 31.8337 20.3418 34.7937 24.0418 34.7937C24.3218 34.7937 24.5818 34.7937 24.8418 34.7537C27.9618 34.3937 30.4018 31.8937 30.7018 28.7737C30.7018 28.5737 30.7018 28.3537 30.7018 28.1537C30.5818 26.6137 30.1418 25.6937 29.8018 24.9737H29.7818Z" fill="#263682"/>
<path fill-rule="evenodd" clip-rule="evenodd" d="M21.8223 45.5733V31.6533H26.2223V45.5733H21.8223Z" fill="#263682"/>
</svg>
