<svg width="25" height="24" viewBox="0 0 25 24" fill="none" xmlns="http://www.w3.org/2000/svg">
<g id="Wallet_Outline_24px">
<path id="Vector" d="M2.54102 4V15.6C2.54102 17.8402 2.54102 18.9603 2.97699 19.816C3.36048 20.5686 3.97241 21.1805 4.72505 21.564C5.5807 22 6.70081 22 8.94102 22H16.141C18.3812 22 19.5013 22 20.357 21.564C21.1096 21.1805 21.7215 20.5686 22.105 19.816C22.541 18.9603 22.541 17.8402 22.541 15.6V12.4C22.541 10.1598 22.541 9.03968 22.105 8.18404C21.7215 7.43139 21.1096 6.81947 20.357 6.43597C19.5013 6 18.3812 6 16.141 6H12.541M22.541 11H22.041C20.3842 11 19.041 12.3431 19.041 14V14C19.041 15.6569 20.3842 17 22.041 17H22.541M8.04102 14H10.541H13.041M17.541 6L16.461 4.56C15.757 3.62134 15.405 3.15201 14.9589 2.8135C14.5638 2.5137 14.1164 2.28999 13.6395 2.15378C13.101 2 12.5143 2 11.341 2H4.54102C3.43645 2 2.54102 2.89543 2.54102 4V4C2.54102 5.10457 3.43645 6 4.54102 6H17.541Z" stroke="#263682" stroke-width="1.5" stroke-linecap="round" stroke-linejoin="round"/>
</g>
</svg>
