<svg width="24" height="24" viewBox="0 0 24 24" fill="none" xmlns="http://www.w3.org/2000/svg">
<path d="M18 22.75H6C4.74071 22.7484 3.53345 22.2475 2.643 21.357C1.75254 20.4666 1.25159 19.2593 1.25 18V6C1.25159 4.74071 1.75254 3.53345 2.643 2.643C3.53345 1.75254 4.74071 1.25159 6 1.25H18C19.2593 1.25159 20.4666 1.75254 21.357 2.643C22.2475 3.53345 22.7484 4.74071 22.75 6V18C22.7484 19.2593 22.2475 20.4666 21.357 21.357C20.4666 22.2475 19.2593 22.7484 18 22.75ZM6 2.75C5.13837 2.75106 4.31234 3.09381 3.70307 3.70307C3.09381 4.31234 2.75106 5.13837 2.75 6V18C2.75106 18.8616 3.09381 19.6877 3.70307 20.2969C4.31234 20.9062 5.13837 21.2489 6 21.25H18C18.8616 21.2489 19.6877 20.9062 20.2969 20.2969C20.9062 19.6877 21.2489 18.8616 21.25 18V6C21.2489 5.13837 20.9062 4.31234 20.2969 3.70307C19.6877 3.09381 18.8616 2.75106 18 2.75H6Z" fill="#626262"/>
<path d="M8.99934 15.7498C8.8511 15.7497 8.70622 15.7057 8.58301 15.6232C8.45979 15.5408 8.36376 15.4237 8.30705 15.2868C8.25034 15.1498 8.23549 14.9991 8.26438 14.8537C8.29326 14.7083 8.36458 14.5747 8.46934 14.4698L14.4693 8.46985C14.6115 8.33737 14.7996 8.26524 14.9939 8.26867C15.1882 8.2721 15.3736 8.35081 15.511 8.48823C15.6484 8.62564 15.7271 8.81102 15.7305 9.00532C15.7339 9.19963 15.6618 9.38767 15.5293 9.52985L9.52934 15.5298C9.45996 15.5998 9.37739 15.6552 9.28641 15.693C9.19542 15.7308 9.09785 15.7501 8.99934 15.7498Z" fill="#626262"/>
<path d="M15.0008 15.7498C14.9023 15.7501 14.8047 15.7308 14.7138 15.693C14.6228 15.6552 14.5402 15.5998 14.4708 15.5298L8.47082 9.52985C8.33834 9.38767 8.26622 9.19963 8.26965 9.00532C8.27308 8.81102 8.35179 8.62564 8.4892 8.48823C8.62662 8.35081 8.812 8.2721 9.0063 8.26867C9.2006 8.26524 9.38865 8.33737 9.53082 8.46985L15.5308 14.4698C15.6356 14.5747 15.7069 14.7083 15.7358 14.8537C15.7647 14.9991 15.7498 15.1498 15.6931 15.2868C15.6364 15.4237 15.5404 15.5408 15.4172 15.6232C15.2939 15.7057 15.1491 15.7497 15.0008 15.7498Z" fill="#626262"/>
</svg>
